<svg width="22" height="16" viewBox="0 0 22 16" fill="none" xmlns="http://www.w3.org/2000/svg">
<path d="M21.7003 8.60962C22.0908 8.21972 22.0908 7.58656 21.7003 7.1954L15.3363 0.821167C14.9458 0.430012 14.3126 0.42899 13.9221 0.818884C13.5316 1.20878 13.5316 1.84194 13.9221 2.2331L19.579 7.89908L13.9221 13.5468C13.5316 13.9367 13.5316 14.5699 13.9221 14.961C14.3126 15.3522 14.9458 15.3532 15.3363 14.9633L21.7003 8.60962ZM1.03149 6.86914C0.479208 6.86825 0.031493 7.31524 0.031493 7.86753C0.031493 8.41981 0.479208 8.86825 1.03149 8.86914L1.03149 6.86914ZM20.9932 7.90137L20.9932 6.90137L1.03149 6.86914L1.03149 7.86914L1.03149 8.86914L20.9932 8.90137L20.9932 7.90137Z" fill="#FFFDFB" fill-opacity="0.4"/>
</svg>
