<svg width="91" height="53" viewBox="0 0 91 53" fill="none" xmlns="http://www.w3.org/2000/svg">
<path d="M0.884766 15.1714H6.77792C10.8274 15.1714 12.6711 17.1996 12.6711 21.4282V22.7293C12.6711 25.4272 11.848 27.1301 10.0866 27.9528V28.0676C11.9632 28.6991 12.704 30.6316 12.704 33.9226V37.7302C12.704 39.0696 12.7698 40.0646 13.1484 41.0978H9.09896C8.86851 40.3898 8.75328 40.0263 8.75328 37.692V33.6165C8.75328 31.1673 8.07836 30.3637 6.23469 30.3637H4.86841V41.0978H0.884766V15.1714ZM6.33346 26.2499C7.89729 26.2499 8.68743 25.4654 8.68743 23.4373V21.9257C8.68743 20.108 8.07836 19.3044 6.71207 19.3044H4.86841V26.2691H6.33346V26.2499Z" fill="#FFFDFB"/>
<path d="M14.0703 15.1716H24.9348V19.2854H18.0539V25.6952H23.5356V29.809H18.0539V37.0033H24.9348V41.1171H14.0703V15.1716Z" fill="#FFFDFB"/>
<path d="M34.6642 36.2192H30.1374L29.4624 41.1175H25.7422L29.8575 15.1912H35.2404L39.3886 41.1175H35.3391L34.6642 36.2192ZM34.1045 32.2203L32.409 19.8789L30.7135 32.2203H34.1045Z" fill="#FFFDFB"/>
<path d="M40.1953 15.1716H46.286C50.2038 15.1716 52.2121 17.5825 52.2121 22.0215V34.2098C52.2121 38.6871 50.2038 41.098 46.286 41.098H40.1953V15.1716ZM46.2202 36.9842C47.5535 36.9842 48.2284 36.238 48.2284 34.3629V21.9259C48.2284 20.0316 47.5535 19.3045 46.2202 19.3045H44.179V37.0033H46.2202V36.9842Z" fill="#FFFDFB"/>
<path d="M56.2266 30.2108L51.4199 15.1716H55.6834L58.3995 24.6237L61.1156 15.1716H65.0334L60.2267 30.2108V41.098H56.2431V30.2108H56.2266Z" fill="#FFFDFB"/>
<path d="M75.7333 27.1496C77.8074 23.495 80.54 19.7639 83.9145 17.6592C85.1656 16.8747 86.7459 16.2624 88.1451 16.8747C88.4085 16.9895 88.6225 17.1617 88.8694 17.2956C89.3303 17.5826 89.9888 18.8072 88.0792 16.0519C87.7665 15.5927 87.4373 15.1335 87.1245 14.6934C87.141 14.7508 87.1574 14.7891 87.1739 14.8465C87.2233 15.057 87.2891 15.2483 87.322 15.4779C87.4537 16.3963 87.2891 17.353 87.108 18.2332C86.1368 22.921 84.1285 27.5322 81.1655 30.938C79.6675 32.6601 77.9226 34.0951 76.046 35.2049C74.5974 36.0468 72.8525 36.5251 71.2722 36.0085C71.1899 35.9894 71.1241 35.8937 71.0418 35.8746C71.7825 36.9078 72.5398 37.941 73.2805 38.9934C73.2641 38.9169 73.2311 38.8403 73.2147 38.7638C73.1818 38.4768 73.1159 38.1898 73.0994 37.8836C73.0501 37.08 73.0994 36.2573 73.1818 35.4728C73.3299 34.0569 73.6262 32.6601 74.0377 31.3016C74.4657 29.8666 75.009 28.4315 75.7333 27.1496C75.9473 26.7669 74.5645 25.064 74.367 24.777C74.2517 24.6239 72.7044 22.634 72.6221 22.7679C71.8813 24.0881 71.3216 25.5614 70.8772 27.0347C70.4492 28.4507 70.1529 29.9048 70.0212 31.3973C69.9059 32.6984 69.8236 34.1717 70.3504 35.358C70.8442 36.4295 71.5685 37.4244 72.2599 38.3428C72.7538 39.0125 73.297 39.797 73.9884 40.218C74.8279 40.7346 75.8814 40.658 76.7868 40.4667C78.8938 40.0075 80.8033 38.6107 82.4824 37.0991C86.3179 33.6551 88.7542 28.642 90.0381 23.2845C90.3015 22.1939 90.5155 21.065 90.4332 19.9361C90.3015 18.4054 89.3139 17.1043 88.5237 15.9563C87.2233 14.1194 85.7417 12.0912 83.503 12.2634C81.2478 12.4548 79.1901 14.3107 77.5769 15.9945C75.6839 17.9844 74.0213 20.2805 72.6056 22.7488C72.3916 23.1123 73.7744 24.8344 73.9719 25.1214C74.1036 25.2936 75.651 27.3026 75.7333 27.1496Z" fill="#04D6E3"/>
<path d="M72.7219 22.5383C64.6393 25.1023 56.5568 27.6471 48.4249 30.0005C48.3426 30.0197 49.0011 30.7085 48.9023 30.6128C49.3139 31.0338 49.7748 31.4164 50.2192 31.78C50.6801 32.1435 51.1411 32.5071 51.6184 32.8132C51.7831 32.928 52.0794 33.1576 52.2769 33.1002C54.8778 32.3731 57.6597 32.3157 60.31 32.3923C61.6928 32.4305 63.0755 32.5453 64.4418 32.8323C64.9521 32.9471 65.4459 33.1002 65.9398 33.2724C67.2567 33.7316 63.5694 30.785 64.376 32.067C64.6723 32.5453 64.9686 32.9854 65.1496 33.5403C66.6312 37.8837 61.6434 41.5191 59.059 43.3751C55.6844 45.8051 51.9806 47.661 48.0957 48.656C46.2685 49.1344 44.3755 49.4596 42.4989 49.4596C41.6923 49.4596 40.8857 49.4214 40.0955 49.1918C39.9144 49.1344 39.7334 49.0578 39.5688 49.0004C38.4658 48.7134 42.3836 52.0236 41.5935 50.6077C41.2972 50.0719 41.0338 49.5936 40.8692 48.9813C40.0132 45.7477 41.0503 41.7104 42.1696 38.6873C45.1985 30.498 49.9723 23.0741 55.3058 16.7408C57.9067 13.6411 60.7545 10.7902 63.7833 8.26451C65.2319 7.05907 66.7299 5.91104 68.3102 4.99262C69.4131 4.34207 71.2239 3.21317 72.5079 3.74892C72.1786 3.55758 71.8659 3.36624 71.5366 3.17491C71.586 3.21317 71.6354 3.25144 71.6848 3.27058C70.8288 2.54349 69.9564 1.81641 69.1004 1.07019C69.9728 1.98861 68.9851 4.3038 68.6394 5.26049C68.1291 6.6764 67.5036 8.05403 67.0098 9.48907C66.8781 9.85261 68.5736 11.0772 68.8041 11.2494C68.9522 11.3642 70.7959 12.761 70.8617 12.5696C71.5696 10.5606 72.5408 8.64718 73.0675 6.5616C73.298 5.60491 73.3638 4.55254 72.7712 3.74892C72.228 2.98357 71.4049 2.40955 70.7136 1.85467C70.088 1.37633 69.3637 0.706645 68.6065 0.534441C67.2073 0.190032 65.4789 1.26153 64.2772 1.98861C62.5323 3.04097 60.9026 4.32294 59.3388 5.6623C52.1617 11.8043 46.0216 19.6874 41.4783 28.5846C39.47 32.5262 37.6428 36.5634 36.9349 41.0981C36.5563 43.5473 36.6386 46.36 38.2025 48.2542C39.2889 49.5744 40.7375 50.6651 42.1367 51.5261C43.0915 52.1192 44.0956 52.4062 45.1656 52.4828C49.6102 52.8272 54.2852 51.3156 58.3182 49.23C60.6228 48.0437 62.8286 46.5704 64.8863 44.8867C66.6147 43.4516 68.5901 41.6148 69.1333 39.0891C69.7423 36.2573 67.7999 34.1717 66.0386 32.641C64.3595 31.206 62.7134 30.0388 60.6557 29.6179C57.3305 28.9482 53.7749 29.0438 50.4332 29.5222C49.7748 29.6179 49.0999 29.7327 48.4579 29.924C49.7418 30.9572 51.0258 31.9904 52.3098 33.0045C60.4417 30.6511 68.5242 28.1063 76.6067 25.5423C76.689 25.5232 76.0306 24.8344 76.1293 24.9301C75.7178 24.5091 75.2569 24.1264 74.8124 23.7629C74.3515 23.3994 73.8906 23.0358 73.4132 22.7297C73.2157 22.7297 72.9194 22.4809 72.7219 22.5383Z" fill="#04D6E3"/>
<mask id="mask0_211_1666" style="mask-type:luminance" maskUnits="userSpaceOnUse" x="45" y="13" width="11" height="23">
<path d="M55.4022 35.3196H45.6406V13.3348H55.6491L55.4022 35.3196Z" fill="white"/>
</mask>
<g mask="url(#mask0_211_1666)">
<path d="M40.1934 15.1716H46.284C50.2018 15.1716 52.2101 17.5825 52.2101 22.0215V34.2098C52.2101 38.6871 50.2018 41.098 46.284 41.098H40.1934V15.1716ZM46.2182 36.9842C47.5516 36.9842 48.2265 36.238 48.2265 34.3629V21.9259C48.2265 20.0316 47.5516 19.3045 46.2182 19.3045H44.177V37.0033H46.2182V36.9842Z" fill="#FFFDFB"/>
</g>
<mask id="mask1_211_1666" style="mask-type:luminance" maskUnits="userSpaceOnUse" x="51" y="3" width="14" height="24">
<path d="M64.8716 24.0692L51.1758 26.3462V3.50037L64.0156 19.6493L64.8716 24.0692Z" fill="white"/>
</mask>
<g mask="url(#mask1_211_1666)">
<path d="M56.2286 30.2108L51.4219 15.1716H55.6854L58.4015 24.6237L61.1176 15.1716H65.0354L60.2287 30.2108V41.098H56.245V30.2108H56.2286Z" fill="#FFFDFB"/>
</g>
<mask id="mask2_211_1666" style="mask-type:luminance" maskUnits="userSpaceOnUse" x="52" y="34" width="12" height="13">
<path d="M59.44 46.8193L52.0488 38.7065L53.1847 35.3198L63.4071 34.4971L59.44 46.8193Z" fill="white"/>
</mask>
<g mask="url(#mask2_211_1666)">
<path d="M56.2286 30.2107L51.4219 15.1715H55.6854L58.4015 24.6236L61.1176 15.1715H65.0354L60.2287 30.2107V41.0978H56.245V30.2107H56.2286Z" fill="#FFFDFB"/>
</g>
</svg>
