<svg width="95" height="56" viewBox="0 0 95 56" fill="none" xmlns="http://www.w3.org/2000/svg">
<path d="M0.248047 16.4365H6.45655C10.7227 16.4365 12.6651 18.5732 12.6651 23.028V24.3988C12.6651 27.241 11.7979 29.035 9.94233 29.9018V30.0228C11.9193 30.688 12.6997 32.7239 12.6997 36.191V40.2024C12.6997 41.6134 12.7691 42.6616 13.168 43.7502H8.9018C8.65901 43.0043 8.53761 42.6213 8.53761 40.1621V35.8685C8.53761 33.2883 7.82659 32.4417 5.88426 32.4417H4.44486V43.7502H0.248047V16.4365ZM5.98831 28.1078C7.63582 28.1078 8.46825 27.2813 8.46825 25.1446V23.5521C8.46825 21.6371 7.82658 20.7905 6.38718 20.7905H4.44486V28.1279H5.98831V28.1078Z" fill="#0E0E0E"/>
<path d="M14.1387 16.4366H25.5845V20.7706H18.3355V27.5234H24.1104V31.8573H18.3355V39.4366H25.5845V43.7705H14.1387V16.4366Z" fill="#0E0E0E"/>
<path d="M35.835 38.6105H31.0659L30.3549 43.7709H26.4355L30.7711 16.4572H36.442L40.8122 43.7709H36.546L35.835 38.6105ZM35.2454 34.3976L33.4591 21.3959L31.6729 34.3976H35.2454Z" fill="#0E0E0E"/>
<path d="M41.6621 16.4366H48.0787C52.2062 16.4366 54.3219 18.9765 54.3219 23.6531V36.4936C54.3219 41.2105 52.2062 43.7503 48.0787 43.7503H41.6621V16.4366ZM48.0094 39.4164C49.4141 39.4164 50.1251 38.6303 50.1251 36.6548V23.5523C50.1251 21.5567 49.4141 20.7907 48.0094 20.7907H45.8589V39.4366H48.0094V39.4164Z" fill="#0E0E0E"/>
<path d="M58.5522 32.2806L53.4883 16.4366H57.9799L60.8414 26.3946L63.7028 16.4366H67.8303L62.7664 32.2806V43.7503H58.5695V32.2806H58.5522Z" fill="#0E0E0E"/>
<path d="M79.1011 29.0554C81.2862 25.2053 84.165 21.2746 87.7202 19.0572C89.0382 18.2308 90.703 17.5857 92.1771 18.2308C92.4546 18.3517 92.6801 18.5331 92.9402 18.6742C93.4258 18.9766 94.1195 20.2667 92.1078 17.364C91.7783 16.8802 91.4314 16.3964 91.1019 15.9328C91.1193 15.9932 91.1366 16.0336 91.1539 16.094C91.206 16.3158 91.2753 16.5174 91.31 16.7592C91.4488 17.7268 91.2753 18.7347 91.0846 19.662C90.0614 24.6006 87.9456 29.4586 84.824 33.0467C83.2459 34.8609 81.4076 36.3727 79.4306 37.5418C77.9045 38.4288 76.0662 38.9327 74.4014 38.3885C74.3147 38.3683 74.2453 38.2675 74.1586 38.2474C74.939 39.3359 75.7367 40.4244 76.5171 41.5331C76.4998 41.4524 76.4651 41.3718 76.4478 41.2912C76.4131 40.9888 76.3437 40.6864 76.3264 40.3639C76.2743 39.5173 76.3264 38.6505 76.4131 37.8241C76.5692 36.3324 76.8813 34.8609 77.3149 33.4297C77.7658 31.9178 78.3381 30.406 79.1011 29.0554C79.3266 28.6523 77.8698 26.8583 77.6617 26.5559C77.5403 26.3946 75.9102 24.2982 75.8234 24.4393C75.043 25.8302 74.4534 27.3824 73.9852 28.9345C73.5343 30.4262 73.2221 31.9582 73.0834 33.5305C72.962 34.9012 72.8753 36.4533 73.4302 37.7031C73.9505 38.8319 74.7135 39.8801 75.4419 40.8477C75.9622 41.5532 76.5345 42.3797 77.2628 42.8232C78.1473 43.3674 79.2572 43.2868 80.211 43.0852C82.4308 42.6014 84.4425 41.1299 86.2114 39.5375C90.2522 35.9091 92.8188 30.6277 94.1715 24.9836C94.449 23.8346 94.6744 22.6453 94.5877 21.456C94.449 19.8434 93.4084 18.4726 92.576 17.2632C91.206 15.328 89.6452 13.1913 87.2866 13.3727C84.9108 13.5743 82.743 15.5296 81.0434 17.3035C79.0491 19.3999 77.2975 21.8188 75.8061 24.4192C75.5807 24.8022 77.0374 26.6164 77.2455 26.9187C77.3842 27.1001 79.0144 29.2167 79.1011 29.0554Z" fill="#04D6E3"/>
<path d="M75.9292 24.1974C67.4142 26.8986 58.8992 29.5796 50.3321 32.059C50.2454 32.0791 50.9391 32.8048 50.835 32.704C51.2686 33.1475 51.7542 33.5506 52.2224 33.9336C52.708 34.3166 53.1936 34.6996 53.6965 35.0221C53.8699 35.1431 54.1821 35.385 54.3902 35.3245C57.1303 34.5585 60.0611 34.498 62.8532 34.5787C64.3099 34.619 65.7667 34.7399 67.2061 35.0423C67.7437 35.1632 68.264 35.3245 68.7842 35.5059C70.1716 35.9897 66.2869 32.8854 67.1367 34.236C67.4489 34.7399 67.761 35.2036 67.9518 35.7881C69.5126 40.3639 64.2579 44.1939 61.5352 46.1492C57.98 48.7092 54.078 50.6645 49.9853 51.7127C48.0603 52.2167 46.0659 52.5593 44.0889 52.5593C43.2392 52.5593 42.3894 52.519 41.557 52.2771C41.3662 52.2167 41.1754 52.136 41.002 52.0756C39.8401 51.7732 43.9675 55.2605 43.1351 53.7688C42.823 53.2044 42.5455 52.7004 42.3721 52.0554C41.4703 48.6487 42.5628 44.3955 43.7421 41.2106C46.9331 32.5831 51.9623 24.7619 57.5812 18.0897C60.3212 14.8241 63.3214 11.8206 66.5124 9.1598C68.0385 7.88986 69.6166 6.6804 71.2815 5.71283C72.4434 5.02747 74.3511 3.83816 75.7037 4.40258C75.3569 4.201 75.0274 3.99942 74.6806 3.79785C74.7326 3.83816 74.7846 3.87848 74.8366 3.89863C73.9348 3.13264 73.0157 2.36665 72.1139 1.5805C73.0331 2.54807 71.9925 4.98715 71.6283 5.99503C71.0907 7.4867 70.4317 8.93806 69.9115 10.4499C69.7727 10.8329 71.559 12.123 71.8018 12.3044C71.9578 12.4253 73.9002 13.8969 73.9695 13.6953C74.7152 11.5787 75.7384 9.56295 76.2934 7.36576C76.5362 6.35788 76.6055 5.2492 75.9812 4.40258C75.4089 3.59627 74.5418 2.99154 73.8135 2.40696C73.1544 1.90302 72.3914 1.1975 71.5937 1.01608C70.1196 0.653245 68.2986 1.78208 67.0326 2.54807C65.1944 3.65674 63.4775 5.00731 61.83 6.41835C54.2688 12.889 47.8002 21.194 43.0137 30.5673C40.898 34.7198 38.973 38.973 38.2273 43.7504C37.8284 46.3306 37.9151 49.2938 39.5626 51.2894C40.7072 52.6803 42.2333 53.8293 43.7074 54.7364C44.7132 55.3613 45.7711 55.6636 46.8984 55.7443C51.5808 56.1071 56.5059 54.5146 60.7548 52.3174C63.1827 51.0677 65.5065 49.5155 67.6743 47.7417C69.4952 46.2298 71.5763 44.2947 72.1486 41.6339C72.7903 38.6505 70.7439 36.4533 68.8883 34.8407C67.1194 33.3289 65.3851 32.0993 63.2174 31.6558C59.7142 30.9503 55.9683 31.0511 52.4479 31.555C51.7542 31.6558 51.0432 31.7767 50.3668 31.9783C51.7195 33.0668 53.0722 34.1554 54.4249 35.2237C62.9919 32.7443 71.5069 30.0633 80.022 27.3622C80.1087 27.342 79.415 26.6164 79.519 26.7172C79.0855 26.2737 78.5999 25.8705 78.1317 25.4875C77.6461 25.1045 77.1605 24.7215 76.6576 24.399C76.4495 24.399 76.1373 24.137 75.9292 24.1974Z" fill="#04D6E3"/>
<mask id="mask0_211_984" style="mask-type:luminance" maskUnits="userSpaceOnUse" x="47" y="14" width="11" height="24">
<path d="M57.6824 37.6627H47.3984V14.5015H57.9425L57.6824 37.6627Z" fill="white"/>
</mask>
<g mask="url(#mask0_211_984)">
<path d="M41.6602 16.4366H48.0768C52.2042 16.4366 54.32 18.9765 54.32 23.653V36.4935C54.32 41.2104 52.2042 43.7503 48.0768 43.7503H41.6602V16.4366ZM48.0074 39.4164C49.4121 39.4164 50.1231 38.6302 50.1231 36.6548V23.5523C50.1231 21.5566 49.4121 20.7907 48.0074 20.7907H45.857V39.4365H48.0074V39.4164Z" fill="#0E0E0E"/>
</g>
<mask id="mask1_211_984" style="mask-type:luminance" maskUnits="userSpaceOnUse" x="53" y="4" width="15" height="25">
<path d="M67.6582 25.8102L53.2295 28.209V4.14069L66.7564 21.1538L67.6582 25.8102Z" fill="white"/>
</mask>
<g mask="url(#mask1_211_984)">
<path d="M58.5532 32.2806L53.4893 16.4366H57.9809L60.8424 26.3946L63.7038 16.4366H67.8313L62.7673 32.2806V43.7503H58.5705V32.2806H58.5532Z" fill="#0E0E0E"/>
</g>
<mask id="mask2_211_984" style="mask-type:luminance" maskUnits="userSpaceOnUse" x="54" y="36" width="13" height="14">
<path d="M61.9361 49.7777L54.1494 41.2308L55.346 37.6629L66.1155 36.7961L61.9361 49.7777Z" fill="white"/>
</mask>
<g mask="url(#mask2_211_984)">
<path d="M58.5532 32.2805L53.4893 16.4365H57.9809L60.8424 26.3944L63.7038 16.4365H67.8313L62.7673 32.2805V43.7502H58.5705V32.2805H58.5532Z" fill="#0E0E0E"/>
</g>
</svg>
