<svg width="910" height="135" viewBox="0 0 910 135" fill="none" xmlns="http://www.w3.org/2000/svg">
<g clip-path="url(#clip0_620_51)">
<path d="M141.334 50.9377C148.094 50.9377 153.294 51.9777 156.934 54.0577C160.661 56.1377 163.261 59.4744 164.734 64.0677C166.294 68.5744 167.074 74.8144 167.074 82.7877C167.074 90.761 166.294 97.0444 164.734 101.638C163.261 106.144 160.661 109.438 156.934 111.518C153.294 113.598 148.094 114.638 141.334 114.638H119.884V10.6377H164.214V32.7377H141.334V50.9377ZM144.974 73.6877C144.974 71.9544 144.108 71.0877 142.374 71.0877H141.334V94.4877H142.374C144.108 94.4877 144.974 93.621 144.974 91.8877V73.6877ZM189.67 116.458C183.863 116.458 179.183 114.638 175.63 110.998C172.163 107.358 170.43 102.591 170.43 96.6977C170.43 88.811 174.027 83.3077 181.22 80.1877C178.793 77.0677 176.93 74.0777 175.63 71.2177C174.417 68.3577 173.81 65.4544 173.81 62.5077C173.81 58.3477 174.98 55.0977 177.32 52.7577C179.747 50.4177 182.953 49.2477 186.94 49.2477C184.6 46.2144 182.737 43.311 181.35 40.5377C180.05 37.6777 179.4 34.5577 179.4 31.1777C179.4 26.0644 180.873 21.731 183.82 18.1777C186.853 14.5377 190.667 12.7177 195.26 12.7177C198.033 12.7177 200.417 13.3243 202.41 14.5377C204.49 15.751 206.917 17.6143 209.69 20.1277C213.85 13.021 220.133 9.46768 228.54 9.46768C232.18 9.46768 235.3 10.0743 237.9 11.2877C240.587 12.501 243.143 14.2343 245.57 16.4877C249.99 13.3677 254.497 11.8077 259.09 11.8077C263.077 11.8077 266.5 12.761 269.36 14.6677C272.307 16.5743 274.517 19.0444 275.99 22.0777C277.55 25.111 278.33 28.231 278.33 31.4377C278.33 34.731 277.593 37.981 276.12 41.1877C274.647 44.3944 272.913 47.341 270.92 50.0277C272.827 51.5877 274.3 53.3644 275.34 55.3577C276.38 57.351 276.9 59.691 276.9 62.3777C276.9 67.1444 275.47 71.0444 272.61 74.0777C269.837 77.111 266.543 78.6277 262.73 78.6277C260.39 78.6277 258.05 77.9344 255.71 76.5477C253.197 84.8677 248.3 89.0277 241.02 89.0277C236.86 89.0277 232.83 87.6844 228.93 84.9977C225.03 82.311 221.823 78.541 219.31 73.6877C216.883 68.7477 215.67 63.201 215.67 57.0477C215.67 56.0944 215.757 54.6644 215.93 52.7577L214.11 52.8877C213.07 52.8877 212.03 52.7577 210.99 52.4977C211.77 54.8377 212.16 57.351 212.16 60.0377C212.16 67.5777 209.56 74.9877 204.36 82.2677C206.18 84.261 207.567 86.3844 208.52 88.6377C209.56 90.891 210.08 93.491 210.08 96.4377C210.08 100.164 209.213 103.588 207.48 106.708C205.833 109.741 203.45 112.124 200.33 113.858C197.21 115.591 193.657 116.458 189.67 116.458ZM239.33 75.2477C242.19 75.2477 243.62 73.2977 243.62 69.3977C243.62 66.6244 242.927 63.6777 241.54 60.5577C240.24 57.351 238.507 54.7077 236.34 52.6277C234.26 50.461 232.093 49.3777 229.84 49.3777C228.107 49.3777 226.763 50.071 225.81 51.4577C224.943 52.7577 224.51 54.5777 224.51 56.9177C224.51 60.1244 225.29 63.1577 226.85 66.0177C228.497 68.791 230.49 71.0444 232.83 72.7777C235.17 74.4244 237.337 75.2477 239.33 75.2477ZM316.175 10.6377V32.7377H304.215V51.4577H316.175V73.5577H304.215V92.5377H316.175V114.638H282.765V10.6377H316.175ZM340.778 114.638H319.328V10.6377H340.778V51.8477H344.418V10.6377H365.868V114.638H344.418V73.2977H340.778V114.638ZM423.684 93.1877H428.884V126.598H407.434V114.638H389.494V126.598H368.044V93.1877H371.554C373.981 89.5477 375.584 84.9977 376.364 79.5377C377.231 74.0777 377.664 67.4477 377.664 59.6477V10.6377H423.684V93.1877ZM402.234 93.1877V32.7377H398.594V63.0277C398.594 70.1344 398.291 76.0277 397.684 80.7077C397.078 85.3877 396.081 89.5477 394.694 93.1877H402.234ZM431.3 114.638V10.6377H453.4L446.51 77.3277V77.5877C446.51 78.7144 447.074 79.2777 448.2 79.2777C449.24 79.2777 449.804 78.6277 449.89 77.3277L456.78 10.6377H480.44V114.638H458.34L463.28 61.4677V61.2077C463.28 60.081 462.717 59.5177 461.59 59.5177C460.637 59.5177 460.074 60.1677 459.9 61.4677L454.96 114.638H431.3ZM510.243 115.548C503.223 115.548 497.85 113.251 494.123 108.658C490.483 104.064 488.013 97.911 486.713 90.1977C485.5 82.3977 484.893 72.691 484.893 61.0777C484.893 46.951 486.886 34.9044 490.873 24.9377C494.86 14.8843 501.793 9.85768 511.673 9.85768C517.306 9.85768 521.596 11.6343 524.543 15.1877C527.49 18.6544 529.396 23.3344 530.263 29.2277C531.216 35.121 531.693 42.6177 531.693 51.7177L534.813 49.8977C537.673 48.3377 539.84 47.2544 541.313 46.6477C542.873 46.041 545.646 45.3044 549.633 44.4377C550.933 32.3044 553.533 23.5077 557.433 18.0477C561.42 12.501 566.663 9.72768 573.163 9.72768C578.883 9.72768 583.26 11.8077 586.293 15.9677C589.413 20.1277 591.536 25.8044 592.663 32.9977C593.79 40.191 594.353 49.161 594.353 59.9077C594.353 73.4277 593.66 84.1744 592.273 92.1477C590.973 100.121 588.72 106.014 585.513 109.828C582.393 113.554 578.06 115.418 572.513 115.418C566.533 115.418 561.81 113.468 558.343 109.568C554.876 105.581 552.84 99.6877 552.233 91.8877C551.8 86.601 551.496 81.3577 551.323 76.1577C551.236 74.6844 551.15 73.1244 551.063 71.4777C551.063 69.831 550.976 67.9244 550.803 65.7577C546.73 65.931 543.003 66.9277 539.623 68.7477C536.243 70.481 533.253 72.821 530.653 75.7677C530.306 86.601 529.223 94.921 527.403 100.728C525.67 106.534 523.373 110.478 520.513 112.558C517.74 114.551 514.316 115.548 510.243 115.548ZM632.162 10.6377V32.7377H620.202V114.638H598.752V10.6377H632.162ZM657.689 115.548C651.709 115.548 647.073 114.291 643.779 111.778C640.486 109.178 638.103 104.714 636.629 98.3877C635.156 92.061 634.419 82.961 634.419 71.0877V54.1877C634.419 42.3144 635.156 33.2144 636.629 26.8877C638.103 20.561 640.486 16.141 643.779 13.6277C647.073 11.0277 651.709 9.72768 657.689 9.72768H658.989C664.969 9.72768 669.606 11.0277 672.899 13.6277C676.193 16.141 678.576 20.561 680.049 26.8877C681.523 33.2144 682.259 42.3144 682.259 54.1877V71.0877C682.259 82.961 681.523 92.061 680.049 98.3877C678.576 104.714 676.193 109.178 672.899 111.778C669.606 114.291 664.969 115.548 658.989 115.548H657.689ZM658.339 94.7477C658.859 94.7477 659.293 94.5744 659.639 94.2277C659.986 93.881 660.159 93.4477 660.159 92.9277V32.3477C660.159 31.8277 659.986 31.3944 659.639 31.0477C659.293 30.701 658.859 30.5277 658.339 30.5277C657.819 30.5277 657.386 30.701 657.039 31.0477C656.693 31.3944 656.519 31.8277 656.519 32.3477V92.9277C656.519 93.4477 656.693 93.881 657.039 94.2277C657.386 94.5744 657.819 94.7477 658.339 94.7477ZM761.898 8.55768C770.131 8.55768 776.241 12.4143 780.228 20.1277C784.301 27.7544 786.901 37.8944 788.028 50.5477C789.154 63.201 789.718 80.101 789.718 101.248V114.638H762.808V95.0077C762.808 89.2877 761.768 84.9977 759.688 82.1377C757.694 79.191 755.008 77.7177 751.628 77.7177C748.508 77.7177 746.254 78.8877 744.868 81.2277C743.481 83.5677 742.788 86.5144 742.788 90.0677L742.918 94.6177C743.091 97.0444 743.178 98.821 743.178 99.9477H756.568V106.968H719.388V99.9477H732.908L733.168 90.3277C733.168 81.921 730.264 77.7177 724.458 77.7177C721.078 77.7177 718.348 79.191 716.268 82.1377C714.188 84.9977 713.148 89.2877 713.148 95.0077V114.638H686.368V101.248C686.368 80.101 686.931 63.201 688.058 50.5477C689.184 37.8944 691.741 27.7544 695.728 20.1277C699.714 12.4143 705.824 8.55768 714.058 8.55768C721.858 8.55768 727.794 12.111 731.868 19.2177C736.028 26.3244 738.108 36.7244 738.108 50.4177C738.108 36.6377 740.101 26.2377 744.088 19.2177C748.161 12.111 754.098 8.55768 761.898 8.55768Z" fill="#0E0E0E"/>
</g>
<defs>
<clipPath id="clip0_620_51">
<rect width="671" height="119" fill="white" transform="translate(119 8)"/>
</clipPath>
</defs>
</svg>
