<svg width="910" height="145" viewBox="0 0 910 145" fill="none" xmlns="http://www.w3.org/2000/svg">
<g clip-path="url(#clip0_646_18)">
<path d="M141.335 63.9376C148.095 63.9376 153.295 64.9776 156.935 67.0576C160.661 69.1376 163.261 72.4743 164.735 77.0676C166.295 81.5743 167.075 87.8143 167.075 95.7876C167.075 103.761 166.295 110.044 164.735 114.638C163.261 119.144 160.661 122.438 156.935 124.518C153.295 126.598 148.095 127.638 141.335 127.638H119.885V23.6376H164.215V45.7376H141.335V63.9376ZM144.975 86.6876C144.975 84.9543 144.108 84.0876 142.375 84.0876H141.335V107.488H142.375C144.108 107.488 144.975 106.621 144.975 104.888V86.6876ZM189.67 129.458C183.863 129.458 179.183 127.638 175.63 123.998C172.163 120.358 170.43 115.591 170.43 109.698C170.43 101.811 174.027 96.3076 181.22 93.1876C178.793 90.0676 176.93 87.0776 175.63 84.2176C174.417 81.3576 173.81 78.4543 173.81 75.5076C173.81 71.3476 174.98 68.0976 177.32 65.7576C179.747 63.4176 182.953 62.2476 186.94 62.2476C184.6 59.2143 182.737 56.3109 181.35 53.5376C180.05 50.6776 179.4 47.5576 179.4 44.1776C179.4 39.0643 180.873 34.7309 183.82 31.1776C186.853 27.5376 190.667 25.7176 195.26 25.7176C198.033 25.7176 200.417 26.3243 202.41 27.5376C204.49 28.7509 206.917 30.6143 209.69 33.1276C213.85 26.0209 220.133 22.4676 228.54 22.4676C232.18 22.4676 235.3 23.0743 237.9 24.2876C240.587 25.501 243.143 27.2343 245.57 29.4876C249.99 26.3676 254.497 24.8076 259.09 24.8076C263.077 24.8076 266.5 25.761 269.36 27.6676C272.307 29.5743 274.517 32.0443 275.99 35.0776C277.55 38.1109 278.33 41.2309 278.33 44.4376C278.33 47.7309 277.593 50.9809 276.12 54.1876C274.647 57.3943 272.913 60.3409 270.92 63.0276C272.827 64.5876 274.3 66.3643 275.34 68.3576C276.38 70.3509 276.9 72.6909 276.9 75.3776C276.9 80.1443 275.47 84.0443 272.61 87.0776C269.837 90.1109 266.543 91.6276 262.73 91.6276C260.39 91.6276 258.05 90.9343 255.71 89.5476C253.197 97.8676 248.3 102.028 241.02 102.028C236.86 102.028 232.83 100.684 228.93 97.9976C225.03 95.3109 221.823 91.5409 219.31 86.6876C216.883 81.7476 215.67 76.2009 215.67 70.0476C215.67 69.0943 215.757 67.6643 215.93 65.7576L214.11 65.8876C213.07 65.8876 212.03 65.7576 210.99 65.4976C211.77 67.8376 212.16 70.3509 212.16 73.0376C212.16 80.5776 209.56 87.9876 204.36 95.2676C206.18 97.2609 207.567 99.3843 208.52 101.638C209.56 103.891 210.08 106.491 210.08 109.438C210.08 113.164 209.213 116.588 207.48 119.708C205.833 122.741 203.45 125.124 200.33 126.858C197.21 128.591 193.657 129.458 189.67 129.458ZM239.33 88.2476C242.19 88.2476 243.62 86.2976 243.62 82.3976C243.62 79.6243 242.927 76.6776 241.54 73.5576C240.24 70.3509 238.507 67.7076 236.34 65.6276C234.26 63.4609 232.093 62.3776 229.84 62.3776C228.107 62.3776 226.763 63.0709 225.81 64.4576C224.943 65.7576 224.51 67.5776 224.51 69.9176C224.51 73.1243 225.29 76.1576 226.85 79.0176C228.497 81.7909 230.49 84.0443 232.83 85.7776C235.17 87.4243 237.337 88.2476 239.33 88.2476ZM316.175 23.6376V45.7376H304.215V64.4576H316.175V86.5576H304.215V105.538H316.175V127.638H282.765V23.6376H316.175ZM340.778 127.638H319.328V23.6376H340.778V64.8476H344.418V23.6376H365.868V127.638H344.418V86.2976H340.778V127.638ZM423.684 106.188H428.884V139.598H407.434V127.638H389.494V139.598H368.044V106.188H371.554C373.981 102.548 375.584 97.9976 376.364 92.5376C377.231 87.0776 377.664 80.4476 377.664 72.6476V23.6376H423.684V106.188ZM402.234 106.188V45.7376H398.594V76.0276C398.594 83.1343 398.291 89.0276 397.684 93.7076C397.078 98.3876 396.081 102.548 394.694 106.188H402.234ZM431.3 127.638V23.6376H453.4L446.51 90.3276V90.5876C446.51 91.7143 447.074 92.2776 448.2 92.2776C449.24 92.2776 449.804 91.6276 449.89 90.3276L456.78 23.6376H480.44V127.638H458.34L463.28 74.4676V74.2076C463.28 73.0809 462.717 72.5176 461.59 72.5176C460.637 72.5176 460.074 73.1676 459.9 74.4676L454.96 127.638H431.3ZM510.243 128.548C503.223 128.548 497.85 126.251 494.123 121.658C490.483 117.064 488.013 110.911 486.713 103.198C485.5 95.3976 484.893 85.6909 484.893 74.0776C484.893 59.9509 486.886 47.9043 490.873 37.9376C494.86 27.8843 501.793 22.8576 511.673 22.8576C517.306 22.8576 521.596 24.6343 524.543 28.1876C527.49 31.6543 529.396 36.3343 530.263 42.2276C531.216 48.1209 531.693 55.6176 531.693 64.7176L534.813 62.8976C537.673 61.3376 539.84 60.2543 541.313 59.6476C542.873 59.0409 545.646 58.3043 549.633 57.4376C550.933 45.3043 553.533 36.5076 557.433 31.0476C561.42 25.5009 566.663 22.7276 573.163 22.7276C578.883 22.7276 583.26 24.8076 586.293 28.9676C589.413 33.1276 591.536 38.8043 592.663 45.9976C593.79 53.1909 594.353 62.1609 594.353 72.9076C594.353 86.4276 593.66 97.1743 592.273 105.148C590.973 113.121 588.72 119.014 585.513 122.828C582.393 126.554 578.06 128.418 572.513 128.418C566.533 128.418 561.81 126.468 558.343 122.568C554.876 118.581 552.84 112.688 552.233 104.888C551.8 99.6009 551.496 94.3576 551.323 89.1576C551.236 87.6843 551.15 86.1243 551.063 84.4776C551.063 82.8309 550.976 80.9243 550.803 78.7576C546.73 78.9309 543.003 79.9276 539.623 81.7476C536.243 83.4809 533.253 85.8209 530.653 88.7676C530.306 99.6009 529.223 107.921 527.403 113.728C525.67 119.534 523.373 123.478 520.513 125.558C517.74 127.551 514.316 128.548 510.243 128.548ZM632.162 23.6376V45.7376H620.202V127.638H598.752V23.6376H632.162ZM657.689 128.548C651.709 128.548 647.073 127.291 643.779 124.778C640.486 122.178 638.103 117.714 636.629 111.388C635.156 105.061 634.419 95.9609 634.419 84.0876V67.1876C634.419 55.3143 635.156 46.2143 636.629 39.8876C638.103 33.5609 640.486 29.141 643.779 26.6276C647.073 24.0276 651.709 22.7276 657.689 22.7276H658.989C664.969 22.7276 669.606 24.0276 672.899 26.6276C676.193 29.141 678.576 33.5609 680.049 39.8876C681.523 46.2143 682.259 55.3143 682.259 67.1876V84.0876C682.259 95.9609 681.523 105.061 680.049 111.388C678.576 117.714 676.193 122.178 672.899 124.778C669.606 127.291 664.969 128.548 658.989 128.548H657.689ZM658.339 107.748C658.859 107.748 659.293 107.574 659.639 107.228C659.986 106.881 660.159 106.448 660.159 105.928V45.3476C660.159 44.8276 659.986 44.3943 659.639 44.0476C659.293 43.7009 658.859 43.5276 658.339 43.5276C657.819 43.5276 657.386 43.7009 657.039 44.0476C656.693 44.3943 656.519 44.8276 656.519 45.3476V105.928C656.519 106.448 656.693 106.881 657.039 107.228C657.386 107.574 657.819 107.748 658.339 107.748ZM761.898 21.5576C770.131 21.5576 776.241 25.4143 780.228 33.1276C784.301 40.7543 786.901 50.8943 788.028 63.5476C789.154 76.2009 789.718 93.1009 789.718 114.248V127.638H762.808V108.008C762.808 102.288 761.768 97.9976 759.688 95.1376C757.694 92.1909 755.008 90.7176 751.628 90.7176C748.508 90.7176 746.254 91.8876 744.868 94.2276C743.481 96.5676 742.788 99.5143 742.788 103.068L742.918 107.618C743.091 110.044 743.178 111.821 743.178 112.948H756.568V119.968H719.388V112.948H732.908L733.168 103.328C733.168 94.9209 730.264 90.7176 724.458 90.7176C721.078 90.7176 718.348 92.1909 716.268 95.1376C714.188 97.9976 713.148 102.288 713.148 108.008V127.638H686.368V114.248C686.368 93.1009 686.931 76.2009 688.058 63.5476C689.184 50.8943 691.741 40.7543 695.728 33.1276C699.714 25.4143 705.824 21.5576 714.058 21.5576C721.858 21.5576 727.794 25.1109 731.868 32.2176C736.028 39.3243 738.108 49.7243 738.108 63.4176C738.108 49.6376 740.101 39.2376 744.088 32.2176C748.161 25.1109 754.098 21.5576 761.898 21.5576Z" fill="#0E0E0E"/>
</g>
<defs>
<clipPath id="clip0_646_18">
<rect width="671" height="119" fill="white" transform="translate(119 21)"/>
</clipPath>
</defs>
</svg>
