<svg width="910" height="145" viewBox="0 0 910 145" fill="none" xmlns="http://www.w3.org/2000/svg">
<g clip-path="url(#clip0_646_6)">
<path d="M233.113 66.7975C236.32 69.2242 240.783 70.4375 246.503 70.4375C251.79 70.4375 256.513 69.4842 260.673 67.5775C264.92 65.6708 267.043 63.1142 267.043 59.9075C267.043 58.4342 266.61 57.0475 265.743 55.7475C264.876 54.3608 263.49 52.5842 261.583 50.4175C259.676 48.2508 258.246 46.4309 257.293 44.9576C256.34 43.3976 255.863 41.7942 255.863 40.1475C255.863 38.1542 256.513 36.3342 257.813 34.6875C259.113 32.9542 260.933 31.0042 263.273 28.8375C264.226 27.8842 265.093 26.9742 265.873 26.1075C266.74 25.2409 267.26 24.5042 267.433 23.8975H295.903L296.163 26.1075C296.163 28.5342 295.513 30.5275 294.213 32.0875C292.913 33.5608 290.963 35.2075 288.363 37.0275C285.59 38.9342 283.51 40.7542 282.123 42.4875C280.736 44.1342 280.043 46.3442 280.043 49.1175C280.043 50.3308 280.216 51.5442 280.563 52.7575C280.91 53.8842 281.3 54.9242 281.733 55.8775C282.513 57.7842 282.903 59.2575 282.903 60.2975C282.903 62.3775 282.036 64.0675 280.303 65.3675C278.656 66.5808 276.23 67.8375 273.023 69.1375C270.596 70.1775 268.776 71.0875 267.563 71.8675C266.436 72.5608 265.873 73.4275 265.873 74.4675C265.873 75.7675 266.653 76.9808 268.213 78.1075C269.86 79.1475 272.286 80.4908 275.493 82.1375C278.526 83.6108 280.823 84.8242 282.383 85.7775C283.943 86.7308 285.156 87.8142 286.023 89.0275C286.89 90.3275 287.67 92.5375 288.363 95.6575C289.143 99.0375 290.096 101.638 291.223 103.458C292.436 105.191 294.56 106.058 297.593 106.058V127.638H268.473C268.386 127.551 267.433 126.728 265.613 125.168C263.88 123.521 262.493 121.961 261.453 120.488C260.413 118.928 259.893 117.238 259.893 115.418C259.893 113.771 260.326 112.341 261.193 111.128C262.146 109.828 263.533 108.311 265.353 106.578C267.173 104.758 268.516 103.241 269.383 102.028C270.25 100.814 270.683 99.4275 270.683 97.8675C270.683 95.3542 269.513 92.7108 267.173 89.9375C264.92 87.1642 262.06 84.8242 258.593 82.9175C255.213 81.0108 252.006 80.0575 248.973 80.0575C245.853 80.0575 242.56 81.0975 239.093 83.1775C235.626 85.2575 232.723 87.8575 230.383 90.9775C228.13 94.0975 227.003 97.0875 227.003 99.9475C227.003 101.681 227.393 103.284 228.173 104.758C228.953 106.144 230.123 107.834 231.683 109.828C233.243 111.821 234.413 113.511 235.193 114.898C235.973 116.284 236.363 117.801 236.363 119.448C236.363 122.134 235.15 124.864 232.723 127.638H200.353V23.6375H232.983C235.323 25.5442 236.493 27.8842 236.493 30.6575C236.493 32.3042 236.146 34.0808 235.453 35.9875C234.846 37.8075 233.893 40.2775 232.593 43.3975C231.206 46.5175 230.166 49.1608 229.473 51.3275C228.78 53.4942 228.433 55.5308 228.433 57.4375C228.433 61.2508 229.993 64.3708 233.113 66.7975ZM323.474 23.6375C330.581 23.6375 335.911 24.5475 339.464 26.3675C343.104 28.1875 345.617 31.5242 347.004 36.3775C348.477 41.1442 349.214 48.3808 349.214 58.0875C349.214 67.8808 348.391 75.3342 346.744 80.4475C345.097 85.4742 342.454 88.9408 338.814 90.8475C335.174 92.6675 330.061 93.5775 323.474 93.5775V127.638H302.024V23.6375H323.474ZM327.114 46.7775C327.114 45.0442 326.247 44.1775 324.514 44.1775H323.474V72.7775H324.514C326.247 72.7775 327.114 71.9542 327.114 70.3075V46.7775ZM385.2 23.6375V45.7375H373.24V64.4575H385.2V86.5575H373.24V105.538H385.2V127.638H351.79V23.6375H385.2ZM412.662 127.638H387.182L396.282 23.6375H432.682L441.782 127.638H416.302V95.9175H412.662V127.638ZM412.662 75.1175H416.302V46.2575C416.302 45.7375 416.129 45.3043 415.782 44.9576C415.436 44.6109 415.002 44.4375 414.482 44.4375C413.962 44.4375 413.529 44.6109 413.182 44.9576C412.836 45.3043 412.662 45.7375 412.662 46.2575V75.1175ZM481.647 23.6375V45.7375H470.467V127.638H449.017V45.7375H437.837V23.6375H481.647ZM485.344 127.638V23.6375H507.444L500.554 90.3275V90.5875C500.554 91.7142 501.118 92.2775 502.244 92.2775C503.284 92.2775 503.848 91.6275 503.934 90.3275L510.824 23.6375H534.484V127.638H512.384L517.324 74.4675V74.2075C517.324 73.0808 516.761 72.5175 515.634 72.5175C514.681 72.5175 514.118 73.1675 513.944 74.4675L509.004 127.638H485.344ZM577.157 73.2975C580.104 75.2908 582.184 78.3675 583.397 82.5275C584.697 86.6875 585.347 92.1908 585.347 99.0375C585.347 106.231 584.524 111.908 582.877 116.068C581.23 120.141 578.544 123.088 574.817 124.908C571.09 126.728 566.02 127.638 559.607 127.638H538.157V23.6375H559.607C566.194 23.6375 571.264 24.5042 574.817 26.2375C578.457 27.9709 581.014 30.7442 582.487 34.5575C583.96 38.2842 584.697 43.4408 584.697 50.0275C584.697 55.9208 584.09 60.8175 582.877 64.7175C581.75 68.5308 579.844 71.3908 577.157 73.2975ZM563.247 45.7375C563.247 44.0042 562.38 43.1375 560.647 43.1375H559.607V63.9375H560.647C562.38 63.9375 563.247 63.0708 563.247 61.3375V45.7375ZM563.247 86.0375C563.247 84.3042 562.38 83.4375 560.647 83.4375H559.607V108.138H560.647C562.38 108.138 563.247 107.271 563.247 105.538V86.0375ZM610.806 128.548C604.826 128.548 600.189 127.291 596.896 124.778C593.602 122.178 591.219 117.714 589.746 111.388C588.272 105.061 587.536 95.9608 587.536 84.0875V67.1875C587.536 55.3142 588.272 46.2142 589.746 39.8875C591.219 33.5608 593.602 29.1409 596.896 26.6275C600.189 24.0275 604.826 22.7275 610.806 22.7275H612.106C618.086 22.7275 622.722 24.0275 626.016 26.6275C629.309 29.1409 631.692 33.5608 633.166 39.8875C634.639 46.2142 635.376 55.3142 635.376 67.1875V84.0875C635.376 95.9608 634.639 105.061 633.166 111.388C631.692 117.714 629.309 122.178 626.016 124.778C622.722 127.291 618.086 128.548 612.106 128.548H610.806ZM611.456 107.748C611.976 107.748 612.409 107.574 612.756 107.228C613.102 106.881 613.276 106.448 613.276 105.928V45.3475C613.276 44.8275 613.102 44.3943 612.756 44.0476C612.409 43.7009 611.976 43.5275 611.456 43.5275C610.936 43.5275 610.502 43.7009 610.156 44.0476C609.809 44.3943 609.636 44.8275 609.636 45.3475V105.928C609.636 106.448 609.809 106.881 610.156 107.228C610.502 107.574 610.936 107.748 611.456 107.748ZM638.704 127.638V23.6375H671.854V61.8575C671.854 62.3775 672.027 62.8108 672.374 63.1575C672.72 63.5042 673.154 63.6775 673.674 63.6775C674.194 63.6775 674.627 63.5042 674.974 63.1575C675.32 62.8108 675.494 62.3775 675.494 61.8575V23.6375H708.644V127.638H685.114L689.014 49.2475C689.014 48.7275 688.84 48.2942 688.494 47.9475C688.147 47.5142 687.714 47.2976 687.194 47.2976C686.674 47.2976 686.24 47.5142 685.894 47.9475C685.547 48.2942 685.374 48.7275 685.374 49.2475L681.474 127.638H665.874L661.974 49.2475C661.974 48.7275 661.8 48.2942 661.454 47.9475C661.107 47.5142 660.674 47.2976 660.154 47.2976C659.634 47.2976 659.2 47.5142 658.854 47.9475C658.507 48.2942 658.334 48.7275 658.334 49.2475L662.234 127.638H638.704Z" fill="black"/>
</g>
<defs>
<clipPath id="clip0_646_6">
<rect width="509" height="107" fill="white" transform="translate(200 22)"/>
</clipPath>
</defs>
</svg>
