<svg width="910" height="135" viewBox="0 0 910 135" fill="none" xmlns="http://www.w3.org/2000/svg">
<g clip-path="url(#clip0_620_12)">
<path d="M233.113 58.7977C236.32 61.2244 240.783 62.4377 246.503 62.4377C251.79 62.4377 256.513 61.4844 260.673 59.5777C264.92 57.671 267.043 55.1144 267.043 51.9077C267.043 50.4344 266.61 49.0477 265.743 47.7477C264.876 46.361 263.49 44.5844 261.583 42.4177C259.676 40.251 258.246 38.431 257.293 36.9577C256.34 35.3977 255.863 33.7944 255.863 32.1477C255.863 30.1544 256.513 28.3344 257.813 26.6877C259.113 24.9544 260.933 23.0043 263.273 20.8377C264.226 19.8843 265.093 18.9743 265.873 18.1077C266.74 17.241 267.26 16.5043 267.433 15.8977H295.903L296.163 18.1077C296.163 20.5343 295.513 22.5277 294.213 24.0877C292.913 25.561 290.963 27.2077 288.363 29.0277C285.59 30.9344 283.51 32.7544 282.123 34.4877C280.736 36.1344 280.043 38.3444 280.043 41.1177C280.043 42.331 280.216 43.5444 280.563 44.7577C280.91 45.8844 281.3 46.9244 281.733 47.8777C282.513 49.7844 282.903 51.2577 282.903 52.2977C282.903 54.3777 282.036 56.0677 280.303 57.3677C278.656 58.581 276.23 59.8377 273.023 61.1377C270.596 62.1777 268.776 63.0877 267.563 63.8677C266.436 64.561 265.873 65.4277 265.873 66.4677C265.873 67.7677 266.653 68.981 268.213 70.1077C269.86 71.1477 272.286 72.491 275.493 74.1377C278.526 75.611 280.823 76.8244 282.383 77.7777C283.943 78.731 285.156 79.8144 286.023 81.0277C286.89 82.3277 287.67 84.5377 288.363 87.6577C289.143 91.0377 290.096 93.6377 291.223 95.4577C292.436 97.191 294.56 98.0577 297.593 98.0577V119.638H268.473C268.386 119.551 267.433 118.728 265.613 117.168C263.88 115.521 262.493 113.961 261.453 112.488C260.413 110.928 259.893 109.238 259.893 107.418C259.893 105.771 260.326 104.341 261.193 103.128C262.146 101.828 263.533 100.311 265.353 98.5777C267.173 96.7577 268.516 95.241 269.383 94.0277C270.25 92.8144 270.683 91.4277 270.683 89.8677C270.683 87.3544 269.513 84.711 267.173 81.9377C264.92 79.1644 262.06 76.8244 258.593 74.9177C255.213 73.011 252.006 72.0577 248.973 72.0577C245.853 72.0577 242.56 73.0977 239.093 75.1777C235.626 77.2577 232.723 79.8577 230.383 82.9777C228.13 86.0977 227.003 89.0877 227.003 91.9477C227.003 93.681 227.393 95.2844 228.173 96.7577C228.953 98.1444 230.123 99.8344 231.683 101.828C233.243 103.821 234.413 105.511 235.193 106.898C235.973 108.284 236.363 109.801 236.363 111.448C236.363 114.134 235.15 116.864 232.723 119.638H200.353V15.6377H232.983C235.323 17.5443 236.493 19.8843 236.493 22.6577C236.493 24.3044 236.146 26.081 235.453 27.9877C234.846 29.8077 233.893 32.2777 232.593 35.3977C231.206 38.5177 230.166 41.161 229.473 43.3277C228.78 45.4944 228.433 47.531 228.433 49.4377C228.433 53.251 229.993 56.371 233.113 58.7977ZM323.474 15.6377C330.581 15.6377 335.911 16.5477 339.464 18.3677C343.104 20.1877 345.617 23.5243 347.004 28.3777C348.477 33.1444 349.214 40.381 349.214 50.0877C349.214 59.881 348.391 67.3344 346.744 72.4477C345.097 77.4744 342.454 80.941 338.814 82.8477C335.174 84.6677 330.061 85.5777 323.474 85.5777V119.638H302.024V15.6377H323.474ZM327.114 38.7777C327.114 37.0444 326.247 36.1777 324.514 36.1777H323.474V64.7777H324.514C326.247 64.7777 327.114 63.9544 327.114 62.3077V38.7777ZM385.2 15.6377V37.7377H373.24V56.4577H385.2V78.5577H373.24V97.5377H385.2V119.638H351.79V15.6377H385.2ZM412.662 119.638H387.182L396.282 15.6377H432.682L441.782 119.638H416.302V87.9177H412.662V119.638ZM412.662 67.1177H416.302V38.2577C416.302 37.7377 416.129 37.3044 415.782 36.9577C415.436 36.611 415.002 36.4377 414.482 36.4377C413.962 36.4377 413.529 36.611 413.182 36.9577C412.836 37.3044 412.662 37.7377 412.662 38.2577V67.1177ZM481.647 15.6377V37.7377H470.467V119.638H449.017V37.7377H437.837V15.6377H481.647ZM485.344 119.638V15.6377H507.444L500.554 82.3277V82.5877C500.554 83.7144 501.118 84.2777 502.244 84.2777C503.284 84.2777 503.848 83.6277 503.934 82.3277L510.824 15.6377H534.484V119.638H512.384L517.324 66.4677V66.2077C517.324 65.081 516.761 64.5177 515.634 64.5177C514.681 64.5177 514.118 65.1677 513.944 66.4677L509.004 119.638H485.344ZM577.157 65.2977C580.104 67.291 582.184 70.3677 583.397 74.5277C584.697 78.6877 585.347 84.191 585.347 91.0377C585.347 98.231 584.524 103.908 582.877 108.068C581.23 112.141 578.544 115.088 574.817 116.908C571.09 118.728 566.02 119.638 559.607 119.638H538.157V15.6377H559.607C566.194 15.6377 571.264 16.5043 574.817 18.2377C578.457 19.971 581.014 22.7443 582.487 26.5577C583.96 30.2844 584.697 35.441 584.697 42.0277C584.697 47.921 584.09 52.8177 582.877 56.7177C581.75 60.531 579.844 63.391 577.157 65.2977ZM563.247 37.7377C563.247 36.0044 562.38 35.1377 560.647 35.1377H559.607V55.9377H560.647C562.38 55.9377 563.247 55.071 563.247 53.3377V37.7377ZM563.247 78.0377C563.247 76.3044 562.38 75.4377 560.647 75.4377H559.607V100.138H560.647C562.38 100.138 563.247 99.271 563.247 97.5377V78.0377ZM610.806 120.548C604.826 120.548 600.189 119.291 596.896 116.778C593.602 114.178 591.219 109.714 589.746 103.388C588.272 97.061 587.536 87.961 587.536 76.0877V59.1877C587.536 47.3144 588.272 38.2144 589.746 31.8877C591.219 25.561 593.602 21.141 596.896 18.6277C600.189 16.0277 604.826 14.7277 610.806 14.7277H612.106C618.086 14.7277 622.722 16.0277 626.016 18.6277C629.309 21.141 631.692 25.561 633.166 31.8877C634.639 38.2144 635.376 47.3144 635.376 59.1877V76.0877C635.376 87.961 634.639 97.061 633.166 103.388C631.692 109.714 629.309 114.178 626.016 116.778C622.722 119.291 618.086 120.548 612.106 120.548H610.806ZM611.456 99.7477C611.976 99.7477 612.409 99.5744 612.756 99.2277C613.102 98.881 613.276 98.4477 613.276 97.9277V37.3477C613.276 36.8277 613.102 36.3944 612.756 36.0477C612.409 35.701 611.976 35.5277 611.456 35.5277C610.936 35.5277 610.502 35.701 610.156 36.0477C609.809 36.3944 609.636 36.8277 609.636 37.3477V97.9277C609.636 98.4477 609.809 98.881 610.156 99.2277C610.502 99.5744 610.936 99.7477 611.456 99.7477ZM638.704 119.638V15.6377H671.854V53.8577C671.854 54.3777 672.027 54.811 672.374 55.1577C672.72 55.5044 673.154 55.6777 673.674 55.6777C674.194 55.6777 674.627 55.5044 674.974 55.1577C675.32 54.811 675.494 54.3777 675.494 53.8577V15.6377H708.644V119.638H685.114L689.014 41.2477C689.014 40.7277 688.84 40.2944 688.494 39.9477C688.147 39.5144 687.714 39.2977 687.194 39.2977C686.674 39.2977 686.24 39.5144 685.894 39.9477C685.547 40.2944 685.374 40.7277 685.374 41.2477L681.474 119.638H665.874L661.974 41.2477C661.974 40.7277 661.8 40.2944 661.454 39.9477C661.107 39.5144 660.674 39.2977 660.154 39.2977C659.634 39.2977 659.2 39.5144 658.854 39.9477C658.507 40.2944 658.334 40.7277 658.334 41.2477L662.234 119.638H638.704Z" fill="black"/>
</g>
<defs>
<clipPath id="clip0_620_12">
<rect width="509" height="107" fill="white" transform="translate(200 14)"/>
</clipPath>
</defs>
</svg>
