<svg width="676" height="350" viewBox="0 0 676 350" fill="none" xmlns="http://www.w3.org/2000/svg">
<path d="M24.45 49.38C31.21 49.38 36.41 50.42 40.05 52.5C43.7766 54.58 46.3766 57.9167 47.85 62.51C49.41 67.0167 50.19 73.2567 50.19 81.23C50.19 89.2033 49.41 95.4867 47.85 100.08C46.3766 104.587 43.7766 107.88 40.05 109.96C36.41 112.04 31.21 113.08 24.45 113.08H3V9.08H47.33V31.18H24.45V49.38ZM28.09 72.13C28.09 70.3967 27.2233 69.53 25.49 69.53H24.45V92.93H25.49C27.2233 92.93 28.09 92.0633 28.09 90.33V72.13ZM72.7856 114.9C66.9789 114.9 62.2989 113.08 58.7456 109.44C55.2789 105.8 53.5456 101.033 53.5456 95.14C53.5456 87.2533 57.1422 81.75 64.3356 78.63C61.9089 75.51 60.0456 72.52 58.7456 69.66C57.5322 66.8 56.9256 63.8967 56.9256 60.95C56.9256 56.79 58.0956 53.54 60.4356 51.2C62.8622 48.86 66.0689 47.69 70.0556 47.69C67.7156 44.6567 65.8522 41.7533 64.4656 38.98C63.1656 36.12 62.5156 33 62.5156 29.62C62.5156 24.5067 63.9889 20.1733 66.9356 16.62C69.9689 12.98 73.7822 11.16 78.3756 11.16C81.1489 11.16 83.5323 11.7667 85.5257 12.98C87.6056 14.1933 90.0322 16.0567 92.8056 18.57C96.9656 11.4633 103.249 7.91 111.656 7.91C115.296 7.91 118.416 8.51667 121.016 9.73C123.703 10.9433 126.259 12.6767 128.686 14.93C133.106 11.81 137.613 10.25 142.206 10.25C146.193 10.25 149.616 11.2033 152.476 13.11C155.423 15.0167 157.633 17.4867 159.106 20.52C160.666 23.5533 161.446 26.6733 161.446 29.88C161.446 33.1733 160.709 36.4233 159.236 39.63C157.763 42.8367 156.029 45.7833 154.036 48.47C155.943 50.03 157.416 51.8067 158.456 53.8C159.496 55.7933 160.016 58.1333 160.016 60.82C160.016 65.5867 158.586 69.4867 155.726 72.52C152.953 75.5533 149.659 77.07 145.846 77.07C143.506 77.07 141.166 76.3767 138.826 74.99C136.313 83.31 131.416 87.47 124.136 87.47C119.976 87.47 115.946 86.1267 112.046 83.44C108.146 80.7533 104.939 76.9833 102.426 72.13C99.9989 67.19 98.7856 61.6433 98.7856 55.49C98.7856 54.5367 98.8722 53.1067 99.0456 51.2L97.2256 51.33C96.1856 51.33 95.1456 51.2 94.1056 50.94C94.8856 53.28 95.2757 55.7933 95.2757 58.48C95.2757 66.02 92.6756 73.43 87.4756 80.71C89.2956 82.7033 90.6823 84.8267 91.6357 87.08C92.6757 89.3333 93.1956 91.9333 93.1956 94.88C93.1956 98.6067 92.3289 102.03 90.5956 105.15C88.9489 108.183 86.5656 110.566 83.4456 112.3C80.3256 114.033 76.7722 114.9 72.7856 114.9ZM122.446 73.69C125.306 73.69 126.736 71.74 126.736 67.84C126.736 65.0667 126.043 62.12 124.656 59C123.356 55.7933 121.623 53.15 119.456 51.07C117.376 48.9033 115.209 47.82 112.956 47.82C111.223 47.82 109.879 48.5133 108.926 49.9C108.059 51.2 107.626 53.02 107.626 55.36C107.626 58.5667 108.406 61.6 109.966 64.46C111.613 67.2333 113.606 69.4867 115.946 71.22C118.286 72.8667 120.453 73.69 122.446 73.69ZM199.291 9.08V31.18H187.331V49.9H199.291V72H187.331V90.98H199.291V113.08H165.881V9.08H199.291ZM223.894 113.08H202.444V9.08H223.894V50.29H227.534V9.08H248.984V113.08H227.534V71.74H223.894V113.08ZM306.8 91.63H312V125.04H290.55V113.08H272.61V125.04H251.16V91.63H254.67C257.097 87.99 258.7 83.44 259.48 77.98C260.347 72.52 260.78 65.89 260.78 58.09V9.08H306.8V91.63ZM285.35 91.63V31.18H281.71V61.47C281.71 68.5767 281.407 74.47 280.8 79.15C280.194 83.83 279.197 87.99 277.81 91.63H285.35ZM314.416 113.08V9.08H336.516L329.626 75.77V76.03C329.626 77.1567 330.19 77.72 331.316 77.72C332.356 77.72 332.92 77.07 333.006 75.77L339.896 9.08H363.556V113.08H341.456L346.396 59.91V59.65C346.396 58.5233 345.833 57.96 344.706 57.96C343.753 57.96 343.19 58.61 343.016 59.91L338.076 113.08H314.416ZM393.359 113.99C386.339 113.99 380.966 111.693 377.239 107.1C373.599 102.507 371.129 96.3533 369.829 88.64C368.616 80.84 368.009 71.1333 368.009 59.52C368.009 45.3933 370.002 33.3467 373.989 23.38C377.976 13.3267 384.909 8.3 394.789 8.3C400.422 8.3 404.712 10.0767 407.659 13.63C410.606 17.0967 412.512 21.7767 413.379 27.67C414.332 33.5633 414.809 41.06 414.809 50.16L417.929 48.34C420.789 46.78 422.956 45.6967 424.429 45.09C425.989 44.4833 428.762 43.7467 432.749 42.88C434.049 30.7467 436.649 21.95 440.549 16.49C444.536 10.9433 449.779 8.17 456.279 8.17C461.999 8.17 466.376 10.25 469.409 14.41C472.529 18.57 474.652 24.2467 475.779 31.44C476.906 38.6333 477.469 47.6033 477.469 58.35C477.469 71.87 476.776 82.6167 475.389 90.59C474.089 98.5633 471.836 104.457 468.629 108.27C465.509 111.996 461.176 113.86 455.629 113.86C449.649 113.86 444.926 111.91 441.459 108.01C437.992 104.023 435.956 98.13 435.349 90.33C434.916 85.0433 434.612 79.8 434.439 74.6C434.352 73.1267 434.266 71.5667 434.179 69.92C434.179 68.2733 434.092 66.3667 433.919 64.2C429.846 64.3733 426.119 65.37 422.739 67.19C419.359 68.9233 416.369 71.2633 413.769 74.21C413.422 85.0433 412.339 93.3633 410.519 99.17C408.786 104.977 406.489 108.92 403.629 111C400.856 112.993 397.432 113.99 393.359 113.99ZM515.278 9.08V31.18H503.318V113.08H481.868V9.08H515.278ZM540.805 113.99C534.825 113.99 530.189 112.733 526.895 110.22C523.602 107.62 521.219 103.157 519.745 96.83C518.272 90.5033 517.535 81.4033 517.535 69.53V52.63C517.535 40.7567 518.272 31.6567 519.745 25.33C521.219 19.0033 523.602 14.5833 526.895 12.07C530.189 9.47 534.825 8.17 540.805 8.17H542.105C548.085 8.17 552.722 9.47 556.015 12.07C559.309 14.5833 561.692 19.0033 563.165 25.33C564.639 31.6567 565.375 40.7567 565.375 52.63V69.53C565.375 81.4033 564.639 90.5033 563.165 96.83C561.692 103.157 559.309 107.62 556.015 110.22C552.722 112.733 548.085 113.99 542.105 113.99H540.805ZM541.455 93.19C541.975 93.19 542.409 93.0167 542.755 92.67C543.102 92.3233 543.275 91.89 543.275 91.37V30.79C543.275 30.27 543.102 29.8367 542.755 29.49C542.409 29.1433 541.975 28.97 541.455 28.97C540.935 28.97 540.502 29.1433 540.155 29.49C539.809 29.8367 539.635 30.27 539.635 30.79V91.37C539.635 91.89 539.809 92.3233 540.155 92.67C540.502 93.0167 540.935 93.19 541.455 93.19ZM645.014 7C653.247 7 659.357 10.8567 663.344 18.57C667.417 26.1967 670.017 36.3367 671.144 48.99C672.27 61.6433 672.834 78.5433 672.834 99.69V113.08H645.924V93.45C645.924 87.73 644.884 83.44 642.804 80.58C640.81 77.6333 638.124 76.16 634.744 76.16C631.624 76.16 629.37 77.33 627.984 79.67C626.597 82.01 625.904 84.9567 625.904 88.51L626.034 93.06C626.207 95.4867 626.294 97.2633 626.294 98.39H639.684V105.41H602.504V98.39H616.024L616.284 88.77C616.284 80.3633 613.38 76.16 607.574 76.16C604.194 76.16 601.464 77.6333 599.384 80.58C597.304 83.44 596.264 87.73 596.264 93.45V113.08H569.484V99.69C569.484 78.5433 570.047 61.6433 571.174 48.99C572.3 36.3367 574.857 26.1967 578.844 18.57C582.83 10.8567 588.94 7 597.174 7C604.974 7 610.91 10.5533 614.984 17.66C619.144 24.7667 621.224 35.1667 621.224 48.86C621.224 35.08 623.217 24.68 627.204 17.66C631.277 10.5533 637.214 7 645.014 7Z" fill="#0E0E0E"/>
</svg>
