<svg width="676" height="350" viewBox="0 0 676 350" fill="none" xmlns="http://www.w3.org/2000/svg">
<path d="M24.45 132.38C31.21 132.38 36.41 133.42 40.05 135.5C43.7766 137.58 46.3766 140.917 47.85 145.51C49.41 150.017 50.19 156.257 50.19 164.23C50.19 172.203 49.41 178.487 47.85 183.08C46.3766 187.587 43.7766 190.88 40.05 192.96C36.41 195.04 31.21 196.08 24.45 196.08H3V92.08H47.33V114.18H24.45V132.38ZM28.09 155.13C28.09 153.397 27.2233 152.53 25.49 152.53H24.45V175.93H25.49C27.2233 175.93 28.09 175.063 28.09 173.33V155.13ZM72.7856 197.9C66.9789 197.9 62.2989 196.08 58.7456 192.44C55.2789 188.8 53.5456 184.033 53.5456 178.14C53.5456 170.253 57.1422 164.75 64.3356 161.63C61.9089 158.51 60.0456 155.52 58.7456 152.66C57.5322 149.8 56.9256 146.897 56.9256 143.95C56.9256 139.79 58.0956 136.54 60.4356 134.2C62.8622 131.86 66.0689 130.69 70.0556 130.69C67.7156 127.657 65.8522 124.753 64.4656 121.98C63.1656 119.12 62.5156 116 62.5156 112.62C62.5156 107.507 63.9889 103.173 66.9356 99.62C69.9689 95.98 73.7822 94.16 78.3756 94.16C81.1489 94.16 83.5323 94.7667 85.5257 95.98C87.6056 97.1933 90.0322 99.0567 92.8056 101.57C96.9656 94.4633 103.249 90.91 111.656 90.91C115.296 90.91 118.416 91.5167 121.016 92.73C123.703 93.9433 126.259 95.6767 128.686 97.93C133.106 94.81 137.613 93.25 142.206 93.25C146.193 93.25 149.616 94.2033 152.476 96.11C155.423 98.0167 157.633 100.487 159.106 103.52C160.666 106.553 161.446 109.673 161.446 112.88C161.446 116.173 160.709 119.423 159.236 122.63C157.763 125.837 156.029 128.783 154.036 131.47C155.943 133.03 157.416 134.807 158.456 136.8C159.496 138.793 160.016 141.133 160.016 143.82C160.016 148.587 158.586 152.487 155.726 155.52C152.953 158.553 149.659 160.07 145.846 160.07C143.506 160.07 141.166 159.377 138.826 157.99C136.313 166.31 131.416 170.47 124.136 170.47C119.976 170.47 115.946 169.127 112.046 166.44C108.146 163.753 104.939 159.983 102.426 155.13C99.9989 150.19 98.7856 144.643 98.7856 138.49C98.7856 137.537 98.8722 136.107 99.0456 134.2L97.2256 134.33C96.1856 134.33 95.1456 134.2 94.1056 133.94C94.8856 136.28 95.2757 138.793 95.2757 141.48C95.2757 149.02 92.6756 156.43 87.4756 163.71C89.2956 165.703 90.6823 167.827 91.6357 170.08C92.6757 172.333 93.1956 174.933 93.1956 177.88C93.1956 181.607 92.3289 185.03 90.5956 188.15C88.9489 191.183 86.5656 193.566 83.4456 195.3C80.3256 197.033 76.7722 197.9 72.7856 197.9ZM122.446 156.69C125.306 156.69 126.736 154.74 126.736 150.84C126.736 148.067 126.043 145.12 124.656 142C123.356 138.793 121.623 136.15 119.456 134.07C117.376 131.903 115.209 130.82 112.956 130.82C111.223 130.82 109.879 131.513 108.926 132.9C108.059 134.2 107.626 136.02 107.626 138.36C107.626 141.567 108.406 144.6 109.966 147.46C111.613 150.233 113.606 152.487 115.946 154.22C118.286 155.867 120.453 156.69 122.446 156.69ZM199.291 92.08V114.18H187.331V132.9H199.291V155H187.331V173.98H199.291V196.08H165.881V92.08H199.291ZM223.894 196.08H202.444V92.08H223.894V133.29H227.534V92.08H248.984V196.08H227.534V154.74H223.894V196.08ZM306.8 174.63H312V208.04H290.55V196.08H272.61V208.04H251.16V174.63H254.67C257.097 170.99 258.7 166.44 259.48 160.98C260.347 155.52 260.78 148.89 260.78 141.09V92.08H306.8V174.63ZM285.35 174.63V114.18H281.71V144.47C281.71 151.577 281.407 157.47 280.8 162.15C280.194 166.83 279.197 170.99 277.81 174.63H285.35ZM314.416 196.08V92.08H336.516L329.626 158.77V159.03C329.626 160.157 330.19 160.72 331.316 160.72C332.356 160.72 332.92 160.07 333.006 158.77L339.896 92.08H363.556V196.08H341.456L346.396 142.91V142.65C346.396 141.523 345.833 140.96 344.706 140.96C343.753 140.96 343.19 141.61 343.016 142.91L338.076 196.08H314.416ZM393.359 196.99C386.339 196.99 380.966 194.693 377.239 190.1C373.599 185.507 371.129 179.353 369.829 171.64C368.616 163.84 368.009 154.133 368.009 142.52C368.009 128.393 370.002 116.347 373.989 106.38C377.976 96.3267 384.909 91.3 394.789 91.3C400.422 91.3 404.712 93.0767 407.659 96.63C410.606 100.097 412.512 104.777 413.379 110.67C414.332 116.563 414.809 124.06 414.809 133.16L417.929 131.34C420.789 129.78 422.956 128.697 424.429 128.09C425.989 127.483 428.762 126.747 432.749 125.88C434.049 113.747 436.649 104.95 440.549 99.49C444.536 93.9433 449.779 91.17 456.279 91.17C461.999 91.17 466.376 93.25 469.409 97.41C472.529 101.57 474.652 107.247 475.779 114.44C476.906 121.633 477.469 130.603 477.469 141.35C477.469 154.87 476.776 165.617 475.389 173.59C474.089 181.563 471.836 187.457 468.629 191.27C465.509 194.996 461.176 196.86 455.629 196.86C449.649 196.86 444.926 194.91 441.459 191.01C437.992 187.023 435.956 181.13 435.349 173.33C434.916 168.043 434.612 162.8 434.439 157.6C434.352 156.127 434.266 154.567 434.179 152.92C434.179 151.273 434.092 149.367 433.919 147.2C429.846 147.373 426.119 148.37 422.739 150.19C419.359 151.923 416.369 154.263 413.769 157.21C413.422 168.043 412.339 176.363 410.519 182.17C408.786 187.977 406.489 191.92 403.629 194C400.856 195.993 397.432 196.99 393.359 196.99ZM515.278 92.08V114.18H503.318V196.08H481.868V92.08H515.278ZM540.805 196.99C534.825 196.99 530.189 195.733 526.895 193.22C523.602 190.62 521.219 186.157 519.745 179.83C518.272 173.503 517.535 164.403 517.535 152.53V135.63C517.535 123.757 518.272 114.657 519.745 108.33C521.219 102.003 523.602 97.5833 526.895 95.07C530.189 92.47 534.825 91.17 540.805 91.17H542.105C548.085 91.17 552.722 92.47 556.015 95.07C559.309 97.5833 561.692 102.003 563.165 108.33C564.639 114.657 565.375 123.757 565.375 135.63V152.53C565.375 164.403 564.639 173.503 563.165 179.83C561.692 186.157 559.309 190.62 556.015 193.22C552.722 195.733 548.085 196.99 542.105 196.99H540.805ZM541.455 176.19C541.975 176.19 542.409 176.017 542.755 175.67C543.102 175.323 543.275 174.89 543.275 174.37V113.79C543.275 113.27 543.102 112.837 542.755 112.49C542.409 112.143 541.975 111.97 541.455 111.97C540.935 111.97 540.502 112.143 540.155 112.49C539.809 112.837 539.635 113.27 539.635 113.79V174.37C539.635 174.89 539.809 175.323 540.155 175.67C540.502 176.017 540.935 176.19 541.455 176.19ZM645.014 90C653.247 90 659.357 93.8567 663.344 101.57C667.417 109.197 670.017 119.337 671.144 131.99C672.27 144.643 672.834 161.543 672.834 182.69V196.08H645.924V176.45C645.924 170.73 644.884 166.44 642.804 163.58C640.81 160.633 638.124 159.16 634.744 159.16C631.624 159.16 629.37 160.33 627.984 162.67C626.597 165.01 625.904 167.957 625.904 171.51L626.034 176.06C626.207 178.487 626.294 180.263 626.294 181.39H639.684V188.41H602.504V181.39H616.024L616.284 171.77C616.284 163.363 613.38 159.16 607.574 159.16C604.194 159.16 601.464 160.633 599.384 163.58C597.304 166.44 596.264 170.73 596.264 176.45V196.08H569.484V182.69C569.484 161.543 570.047 144.643 571.174 131.99C572.3 119.337 574.857 109.197 578.844 101.57C582.83 93.8567 588.94 90 597.174 90C604.974 90 610.91 93.5533 614.984 100.66C619.144 107.767 621.224 118.167 621.224 131.86C621.224 118.08 623.217 107.68 627.204 100.66C631.277 93.5533 637.214 90 645.014 90Z" fill="#0E0E0E"/>
</svg>
