<svg width="676" height="350" viewBox="0 0 676 350" fill="none" xmlns="http://www.w3.org/2000/svg">
<g clip-path="url(#clip0_624_302)">
<path d="M116.113 51.7977C119.32 54.2244 123.783 55.4377 129.503 55.4377C134.79 55.4377 139.513 54.4844 143.673 52.5777C147.92 50.671 150.043 48.1144 150.043 44.9077C150.043 43.4344 149.61 42.0477 148.743 40.7477C147.876 39.361 146.49 37.5844 144.583 35.4177C142.676 33.251 141.246 31.431 140.293 29.9577C139.34 28.3977 138.863 26.7944 138.863 25.1477C138.863 23.1544 139.513 21.3344 140.813 19.6877C142.113 17.9544 143.933 16.0043 146.273 13.8377C147.226 12.8843 148.093 11.9743 148.873 11.1077C149.74 10.241 150.26 9.50433 150.433 8.89766H178.903L179.163 11.1077C179.163 13.5343 178.513 15.5277 177.213 17.0877C175.913 18.561 173.963 20.2077 171.363 22.0277C168.59 23.9344 166.51 25.7544 165.123 27.4877C163.736 29.1344 163.043 31.3444 163.043 34.1177C163.043 35.331 163.216 36.5444 163.563 37.7577C163.91 38.8844 164.3 39.9244 164.733 40.8777C165.513 42.7844 165.903 44.2577 165.903 45.2977C165.903 47.3777 165.036 49.0677 163.303 50.3677C161.656 51.581 159.23 52.8377 156.023 54.1377C153.596 55.1777 151.776 56.0877 150.563 56.8677C149.436 57.561 148.873 58.4277 148.873 59.4677C148.873 60.7677 149.653 61.981 151.213 63.1077C152.86 64.1477 155.286 65.491 158.493 67.1377C161.526 68.611 163.823 69.8244 165.383 70.7777C166.943 71.731 168.156 72.8144 169.023 74.0277C169.89 75.3277 170.67 77.5377 171.363 80.6577C172.143 84.0377 173.096 86.6377 174.223 88.4577C175.436 90.191 177.56 91.0577 180.593 91.0577V112.638H151.473C151.386 112.551 150.433 111.728 148.613 110.168C146.88 108.521 145.493 106.961 144.453 105.488C143.413 103.928 142.893 102.238 142.893 100.418C142.893 98.771 143.326 97.341 144.193 96.1277C145.146 94.8277 146.533 93.311 148.353 91.5777C150.173 89.7577 151.516 88.241 152.383 87.0277C153.25 85.8144 153.683 84.4277 153.683 82.8677C153.683 80.3544 152.513 77.711 150.173 74.9377C147.92 72.1644 145.06 69.8244 141.593 67.9177C138.213 66.011 135.006 65.0577 131.973 65.0577C128.853 65.0577 125.56 66.0977 122.093 68.1777C118.626 70.2577 115.723 72.8577 113.383 75.9777C111.13 79.0977 110.003 82.0877 110.003 84.9477C110.003 86.681 110.393 88.2844 111.173 89.7577C111.953 91.1444 113.123 92.8344 114.683 94.8277C116.243 96.821 117.413 98.511 118.193 99.8977C118.973 101.284 119.363 102.801 119.363 104.448C119.363 107.134 118.15 109.864 115.723 112.638H83.353V8.63766H115.983C118.323 10.5443 119.493 12.8843 119.493 15.6577C119.493 17.3044 119.146 19.081 118.453 20.9877C117.846 22.8077 116.893 25.2777 115.593 28.3977C114.206 31.5177 113.166 34.161 112.473 36.3277C111.78 38.4944 111.433 40.531 111.433 42.4377C111.433 46.251 112.993 49.371 116.113 51.7977ZM206.474 8.63766C213.581 8.63766 218.911 9.54766 222.464 11.3677C226.104 13.1877 228.617 16.5243 230.004 21.3777C231.477 26.1444 232.214 33.381 232.214 43.0877C232.214 52.881 231.391 60.3344 229.744 65.4477C228.097 70.4744 225.454 73.941 221.814 75.8477C218.174 77.6677 213.061 78.5777 206.474 78.5777V112.638H185.024V8.63766H206.474ZM210.114 31.7777C210.114 30.0444 209.247 29.1777 207.514 29.1777H206.474V57.7777H207.514C209.247 57.7777 210.114 56.9544 210.114 55.3077V31.7777ZM268.2 8.63766V30.7377H256.24V49.4577H268.2V71.5577H256.24V90.5377H268.2V112.638H234.79V8.63766H268.2ZM295.662 112.638H270.182L279.282 8.63766H315.682L324.782 112.638H299.302V80.9177H295.662V112.638ZM295.662 60.1177H299.302V31.2577C299.302 30.7377 299.129 30.3044 298.782 29.9577C298.436 29.611 298.002 29.4377 297.482 29.4377C296.962 29.4377 296.529 29.611 296.182 29.9577C295.836 30.3044 295.662 30.7377 295.662 31.2577V60.1177ZM364.647 8.63766V30.7377H353.467V112.638H332.017V30.7377H320.837V8.63766H364.647ZM368.344 112.638V8.63766H390.444L383.554 75.3277V75.5877C383.554 76.7144 384.118 77.2777 385.244 77.2777C386.284 77.2777 386.848 76.6277 386.934 75.3277L393.824 8.63766H417.484V112.638H395.384L400.324 59.4677V59.2077C400.324 58.081 399.761 57.5177 398.634 57.5177C397.681 57.5177 397.118 58.1677 396.944 59.4677L392.004 112.638H368.344ZM460.157 58.2977C463.104 60.291 465.184 63.3677 466.397 67.5277C467.697 71.6877 468.347 77.191 468.347 84.0377C468.347 91.231 467.524 96.9077 465.877 101.068C464.23 105.141 461.544 108.088 457.817 109.908C454.09 111.728 449.02 112.638 442.607 112.638H421.157V8.63766H442.607C449.194 8.63766 454.264 9.50433 457.817 11.2377C461.457 12.971 464.014 15.7443 465.487 19.5577C466.96 23.2844 467.697 28.441 467.697 35.0277C467.697 40.921 467.09 45.8177 465.877 49.7177C464.75 53.531 462.844 56.391 460.157 58.2977ZM446.247 30.7377C446.247 29.0044 445.38 28.1377 443.647 28.1377H442.607V48.9377H443.647C445.38 48.9377 446.247 48.071 446.247 46.3377V30.7377ZM446.247 71.0377C446.247 69.3044 445.38 68.4377 443.647 68.4377H442.607V93.1377H443.647C445.38 93.1377 446.247 92.271 446.247 90.5377V71.0377ZM493.806 113.548C487.826 113.548 483.189 112.291 479.896 109.778C476.602 107.178 474.219 102.714 472.746 96.3877C471.272 90.061 470.536 80.961 470.536 69.0877V52.1877C470.536 40.3144 471.272 31.2144 472.746 24.8877C474.219 18.561 476.602 14.141 479.896 11.6277C483.189 9.02766 487.826 7.72766 493.806 7.72766H495.106C501.086 7.72766 505.722 9.02766 509.016 11.6277C512.309 14.141 514.692 18.561 516.166 24.8877C517.639 31.2144 518.376 40.3144 518.376 52.1877V69.0877C518.376 80.961 517.639 90.061 516.166 96.3877C514.692 102.714 512.309 107.178 509.016 109.778C505.722 112.291 501.086 113.548 495.106 113.548H493.806ZM494.456 92.7477C494.976 92.7477 495.409 92.5744 495.756 92.2277C496.102 91.881 496.276 91.4477 496.276 90.9277V30.3477C496.276 29.8277 496.102 29.3944 495.756 29.0477C495.409 28.701 494.976 28.5277 494.456 28.5277C493.936 28.5277 493.502 28.701 493.156 29.0477C492.809 29.3944 492.636 29.8277 492.636 30.3477V90.9277C492.636 91.4477 492.809 91.881 493.156 92.2277C493.502 92.5744 493.936 92.7477 494.456 92.7477ZM521.704 112.638V8.63766H554.854V46.8577C554.854 47.3777 555.027 47.811 555.374 48.1577C555.72 48.5044 556.154 48.6777 556.674 48.6777C557.194 48.6777 557.627 48.5044 557.974 48.1577C558.32 47.811 558.494 47.3777 558.494 46.8577V8.63766H591.644V112.638H568.114L572.014 34.2477C572.014 33.7277 571.84 33.2944 571.494 32.9477C571.147 32.5144 570.714 32.2977 570.194 32.2977C569.674 32.2977 569.24 32.5144 568.894 32.9477C568.547 33.2944 568.374 33.7277 568.374 34.2477L564.474 112.638H548.874L544.974 34.2477C544.974 33.7277 544.8 33.2944 544.454 32.9477C544.107 32.5144 543.674 32.2977 543.154 32.2977C542.634 32.2977 542.2 32.5144 541.854 32.9477C541.507 33.2944 541.334 33.7277 541.334 34.2477L545.234 112.638H521.704Z" fill="black"/>
</g>
<defs>
<clipPath id="clip0_624_302">
<rect width="509" height="107" fill="white" transform="translate(83 7)"/>
</clipPath>
</defs>
</svg>
