<svg width="676" height="350" viewBox="0 0 676 350" fill="none" xmlns="http://www.w3.org/2000/svg">
<g clip-path="url(#clip0_624_302)">
<path d="M116.113 126.798C119.32 129.224 123.783 130.438 129.503 130.438C134.79 130.438 139.513 129.484 143.673 127.578C147.92 125.671 150.043 123.114 150.043 119.908C150.043 118.434 149.61 117.048 148.743 115.748C147.876 114.361 146.49 112.584 144.583 110.418C142.676 108.251 141.246 106.431 140.293 104.958C139.34 103.398 138.863 101.794 138.863 100.148C138.863 98.1544 139.513 96.3344 140.813 94.6877C142.113 92.9544 143.933 91.0043 146.273 88.8377C147.226 87.8843 148.093 86.9743 148.873 86.1077C149.74 85.241 150.26 84.5043 150.433 83.8977H178.903L179.163 86.1077C179.163 88.5343 178.513 90.5277 177.213 92.0877C175.913 93.561 173.963 95.2077 171.363 97.0277C168.59 98.9344 166.51 100.754 165.123 102.488C163.736 104.134 163.043 106.344 163.043 109.118C163.043 110.331 163.216 111.544 163.563 112.758C163.91 113.884 164.3 114.924 164.733 115.878C165.513 117.784 165.903 119.258 165.903 120.298C165.903 122.378 165.036 124.068 163.303 125.368C161.656 126.581 159.23 127.838 156.023 129.138C153.596 130.178 151.776 131.088 150.563 131.868C149.436 132.561 148.873 133.428 148.873 134.468C148.873 135.768 149.653 136.981 151.213 138.108C152.86 139.148 155.286 140.491 158.493 142.138C161.526 143.611 163.823 144.824 165.383 145.778C166.943 146.731 168.156 147.814 169.023 149.028C169.89 150.328 170.67 152.538 171.363 155.658C172.143 159.038 173.096 161.638 174.223 163.458C175.436 165.191 177.56 166.058 180.593 166.058V187.638H151.473C151.386 187.551 150.433 186.728 148.613 185.168C146.88 183.521 145.493 181.961 144.453 180.488C143.413 178.928 142.893 177.238 142.893 175.418C142.893 173.771 143.326 172.341 144.193 171.128C145.146 169.828 146.533 168.311 148.353 166.578C150.173 164.758 151.516 163.241 152.383 162.028C153.25 160.814 153.683 159.428 153.683 157.868C153.683 155.354 152.513 152.711 150.173 149.938C147.92 147.164 145.06 144.824 141.593 142.918C138.213 141.011 135.006 140.058 131.973 140.058C128.853 140.058 125.56 141.098 122.093 143.178C118.626 145.258 115.723 147.858 113.383 150.978C111.13 154.098 110.003 157.088 110.003 159.948C110.003 161.681 110.393 163.284 111.173 164.758C111.953 166.144 113.123 167.834 114.683 169.828C116.243 171.821 117.413 173.511 118.193 174.898C118.973 176.284 119.363 177.801 119.363 179.448C119.363 182.134 118.15 184.864 115.723 187.638H83.353V83.6377H115.983C118.323 85.5443 119.493 87.8843 119.493 90.6577C119.493 92.3044 119.146 94.081 118.453 95.9877C117.846 97.8077 116.893 100.278 115.593 103.398C114.206 106.518 113.166 109.161 112.473 111.328C111.78 113.494 111.433 115.531 111.433 117.438C111.433 121.251 112.993 124.371 116.113 126.798ZM206.474 83.6377C213.581 83.6377 218.911 84.5477 222.464 86.3677C226.104 88.1877 228.617 91.5243 230.004 96.3777C231.477 101.144 232.214 108.381 232.214 118.088C232.214 127.881 231.391 135.334 229.744 140.448C228.097 145.474 225.454 148.941 221.814 150.848C218.174 152.668 213.061 153.578 206.474 153.578V187.638H185.024V83.6377H206.474ZM210.114 106.778C210.114 105.044 209.247 104.178 207.514 104.178H206.474V132.778H207.514C209.247 132.778 210.114 131.954 210.114 130.308V106.778ZM268.2 83.6377V105.738H256.24V124.458H268.2V146.558H256.24V165.538H268.2V187.638H234.79V83.6377H268.2ZM295.662 187.638H270.182L279.282 83.6377H315.682L324.782 187.638H299.302V155.918H295.662V187.638ZM295.662 135.118H299.302V106.258C299.302 105.738 299.129 105.304 298.782 104.958C298.436 104.611 298.002 104.438 297.482 104.438C296.962 104.438 296.529 104.611 296.182 104.958C295.836 105.304 295.662 105.738 295.662 106.258V135.118ZM364.647 83.6377V105.738H353.467V187.638H332.017V105.738H320.837V83.6377H364.647ZM368.344 187.638V83.6377H390.444L383.554 150.328V150.588C383.554 151.714 384.118 152.278 385.244 152.278C386.284 152.278 386.848 151.628 386.934 150.328L393.824 83.6377H417.484V187.638H395.384L400.324 134.468V134.208C400.324 133.081 399.761 132.518 398.634 132.518C397.681 132.518 397.118 133.168 396.944 134.468L392.004 187.638H368.344ZM460.157 133.298C463.104 135.291 465.184 138.368 466.397 142.528C467.697 146.688 468.347 152.191 468.347 159.038C468.347 166.231 467.524 171.908 465.877 176.068C464.23 180.141 461.544 183.088 457.817 184.908C454.09 186.728 449.02 187.638 442.607 187.638H421.157V83.6377H442.607C449.194 83.6377 454.264 84.5043 457.817 86.2377C461.457 87.971 464.014 90.7443 465.487 94.5577C466.96 98.2844 467.697 103.441 467.697 110.028C467.697 115.921 467.09 120.818 465.877 124.718C464.75 128.531 462.844 131.391 460.157 133.298ZM446.247 105.738C446.247 104.004 445.38 103.138 443.647 103.138H442.607V123.938H443.647C445.38 123.938 446.247 123.071 446.247 121.338V105.738ZM446.247 146.038C446.247 144.304 445.38 143.438 443.647 143.438H442.607V168.138H443.647C445.38 168.138 446.247 167.271 446.247 165.538V146.038ZM493.806 188.548C487.826 188.548 483.189 187.291 479.896 184.778C476.602 182.178 474.219 177.714 472.746 171.388C471.272 165.061 470.536 155.961 470.536 144.088V127.188C470.536 115.314 471.272 106.214 472.746 99.8877C474.219 93.561 476.602 89.141 479.896 86.6277C483.189 84.0277 487.826 82.7277 493.806 82.7277H495.106C501.086 82.7277 505.722 84.0277 509.016 86.6277C512.309 89.141 514.692 93.561 516.166 99.8877C517.639 106.214 518.376 115.314 518.376 127.188V144.088C518.376 155.961 517.639 165.061 516.166 171.388C514.692 177.714 512.309 182.178 509.016 184.778C505.722 187.291 501.086 188.548 495.106 188.548H493.806ZM494.456 167.748C494.976 167.748 495.409 167.574 495.756 167.228C496.102 166.881 496.276 166.448 496.276 165.928V105.348C496.276 104.828 496.102 104.394 495.756 104.048C495.409 103.701 494.976 103.528 494.456 103.528C493.936 103.528 493.502 103.701 493.156 104.048C492.809 104.394 492.636 104.828 492.636 105.348V165.928C492.636 166.448 492.809 166.881 493.156 167.228C493.502 167.574 493.936 167.748 494.456 167.748ZM521.704 187.638V83.6377H554.854V121.858C554.854 122.378 555.027 122.811 555.374 123.158C555.72 123.504 556.154 123.678 556.674 123.678C557.194 123.678 557.627 123.504 557.974 123.158C558.32 122.811 558.494 122.378 558.494 121.858V83.6377H591.644V187.638H568.114L572.014 109.248C572.014 108.728 571.84 108.294 571.494 107.948C571.147 107.514 570.714 107.298 570.194 107.298C569.674 107.298 569.24 107.514 568.894 107.948C568.547 108.294 568.374 108.728 568.374 109.248L564.474 187.638H548.874L544.974 109.248C544.974 108.728 544.8 108.294 544.454 107.948C544.107 107.514 543.674 107.298 543.154 107.298C542.634 107.298 542.2 107.514 541.854 107.948C541.507 108.294 541.334 108.728 541.334 109.248L545.234 187.638H521.704Z" fill="black"/>
</g>
<defs>
<clipPath id="clip0_624_302">
<rect width="509" height="107" fill="white" transform="translate(83 82)"/>
</clipPath>
</defs>
</svg>
