<svg width="715" height="350" viewBox="0 0 715 350" fill="none" xmlns="http://www.w3.org/2000/svg">
<g clip-path="url(#clip0_624_318)">
<path d="M261.549 188.718C260.162 186.378 258.949 183.734 257.909 180.788C256.869 177.841 255.656 173.898 254.269 168.958C252.622 163.238 251.149 158.731 249.849 155.438C248.636 152.058 246.989 149.241 244.909 146.988C242.916 144.648 240.402 143.478 237.369 143.478C234.769 143.478 232.472 144.344 230.479 146.078C228.486 147.724 226.796 149.761 225.409 152.188C224.109 154.614 222.636 157.778 220.989 161.678C218.822 167.051 216.872 170.778 215.139 172.858C213.406 170.778 211.456 167.051 209.289 161.678C207.642 157.778 206.126 154.614 204.739 152.188C203.439 149.761 201.792 147.724 199.799 146.078C197.806 144.344 195.509 143.478 192.909 143.478C189.876 143.478 187.319 144.648 185.239 146.988C183.246 149.241 181.599 152.058 180.299 155.438C179.086 158.731 177.656 163.238 176.009 168.958C174.622 173.898 173.409 177.841 172.369 180.788C171.329 183.734 170.116 186.378 168.729 188.718V80.6877C170.116 82.5944 171.286 84.6744 172.239 86.9277C173.279 89.1811 174.666 92.4745 176.399 96.8078C178.219 101.661 179.822 105.561 181.209 108.508C182.682 111.368 184.459 113.794 186.539 115.788C188.619 117.694 191.089 118.648 193.949 118.648C196.722 118.648 199.062 117.738 200.969 115.918C202.876 114.011 204.392 111.758 205.519 109.158C206.732 106.558 208.119 103.048 209.679 98.6278C210.892 95.1611 211.846 92.5178 212.539 90.6978C213.319 88.8777 214.186 87.2744 215.139 85.8877C216.092 87.2744 216.916 88.8777 217.609 90.6978C218.389 92.5178 219.386 95.1611 220.599 98.6278C222.159 103.048 223.502 106.558 224.629 109.158C225.842 111.758 227.402 114.011 229.309 115.918C231.216 117.738 233.556 118.648 236.329 118.648C239.189 118.648 241.659 117.694 243.739 115.788C245.819 113.794 247.552 111.368 248.939 108.508C250.412 105.561 252.059 101.661 253.879 96.8078C255.612 92.4745 256.956 89.1811 257.909 86.9277C258.949 84.6744 260.162 82.5944 261.549 80.6877V188.718ZM299.367 82.6377V104.738H287.407V123.458H299.367V145.558H287.407V164.538H299.367V186.638H265.957V82.6377H299.367ZM323.969 82.6377C331.076 82.6377 336.406 83.5477 339.959 85.3677C343.599 87.1877 346.113 90.5245 347.499 95.3778C348.973 100.144 349.709 107.381 349.709 117.088C349.709 126.881 348.886 134.334 347.239 139.448C345.593 144.474 342.949 147.941 339.309 149.848C335.669 151.668 330.556 152.578 323.969 152.578V186.638H302.519V82.6377H323.969ZM327.609 105.778C327.609 104.044 326.743 103.178 325.009 103.178H323.969V131.778H325.009C326.743 131.778 327.609 130.954 327.609 129.308V105.778ZM376.855 82.6377H398.305V186.638H376.855V154.918C374.775 155.178 372.608 155.308 370.355 155.308C363.508 155.308 358.698 153.618 355.925 150.238C353.152 146.771 351.765 141.094 351.765 133.208V82.6377H373.215V132.558C373.215 133.164 373.388 133.641 373.735 133.988C374.082 134.334 374.515 134.508 375.035 134.508C375.555 134.508 375.988 134.334 376.335 133.988C376.682 133.641 376.855 133.164 376.855 132.558V82.6377ZM424.934 187.548C418.954 187.548 414.317 186.291 411.024 183.778C407.73 181.178 405.347 176.714 403.874 170.388C402.4 164.061 401.664 154.961 401.664 143.088V126.188C401.664 114.314 402.4 105.214 403.874 98.8878C405.347 92.5611 407.73 88.1411 411.024 85.6277C414.317 83.0277 418.954 81.7277 424.934 81.7277H426.234C432.214 81.7277 436.85 83.0277 440.144 85.6277C443.437 88.1411 445.82 92.5611 447.294 98.8878C448.767 105.214 449.504 114.314 449.504 126.188V143.088C449.504 154.961 448.767 164.061 447.294 170.388C445.82 176.714 443.437 181.178 440.144 183.778C436.85 186.291 432.214 187.548 426.234 187.548H424.934ZM425.584 166.748C426.104 166.748 426.537 166.574 426.884 166.228C427.23 165.881 427.404 165.448 427.404 164.928V104.348C427.404 103.828 427.23 103.394 426.884 103.048C426.537 102.701 426.104 102.528 425.584 102.528C425.064 102.528 424.63 102.701 424.284 103.048C423.937 103.394 423.764 103.828 423.764 104.348V164.928C423.764 165.448 423.937 165.881 424.284 166.228C424.63 166.574 425.064 166.748 425.584 166.748ZM546.432 188.718C545.045 186.378 543.832 183.734 542.792 180.788C541.752 177.841 540.538 173.898 539.152 168.958C537.505 163.238 536.032 158.731 534.732 155.438C533.518 152.058 531.872 149.241 529.792 146.988C527.798 144.648 525.285 143.478 522.252 143.478C519.652 143.478 517.355 144.344 515.362 146.078C513.368 147.724 511.678 149.761 510.292 152.188C508.992 154.614 507.518 157.778 505.872 161.678C503.705 167.051 501.755 170.778 500.022 172.858C498.288 170.778 496.338 167.051 494.172 161.678C492.525 157.778 491.008 154.614 489.622 152.188C488.322 149.761 486.675 147.724 484.682 146.078C482.688 144.344 480.392 143.478 477.792 143.478C474.758 143.478 472.202 144.648 470.122 146.988C468.128 149.241 466.482 152.058 465.182 155.438C463.968 158.731 462.538 163.238 460.892 168.958C459.505 173.898 458.292 177.841 457.252 180.788C456.212 183.734 454.998 186.378 453.612 188.718V80.6877C454.998 82.5944 456.168 84.6744 457.122 86.9277C458.162 89.1811 459.548 92.4745 461.282 96.8078C463.102 101.661 464.705 105.561 466.092 108.508C467.565 111.368 469.342 113.794 471.422 115.788C473.502 117.694 475.972 118.648 478.832 118.648C481.605 118.648 483.945 117.738 485.852 115.918C487.758 114.011 489.275 111.758 490.402 109.158C491.615 106.558 493.002 103.048 494.562 98.6278C495.775 95.1611 496.728 92.5178 497.422 90.6978C498.202 88.8777 499.068 87.2744 500.022 85.8877C500.975 87.2744 501.798 88.8777 502.492 90.6978C503.272 92.5178 504.268 95.1611 505.482 98.6278C507.042 103.048 508.385 106.558 509.512 109.158C510.725 111.758 512.285 114.011 514.192 115.918C516.098 117.738 518.438 118.648 521.212 118.648C524.072 118.648 526.542 117.694 528.622 115.788C530.702 113.794 532.435 111.368 533.822 108.508C535.295 105.561 536.942 101.661 538.762 96.8078C540.495 92.4745 541.838 89.1811 542.792 86.9277C543.832 84.6744 545.045 82.5944 546.432 80.6877V188.718Z" fill="#0E0E0E"/>
</g>
<defs>
<clipPath id="clip0_624_318">
<rect width="379" height="109" fill="white" transform="translate(168 80)"/>
</clipPath>
</defs>
</svg>
