<svg width="715" height="350" viewBox="0 0 715 350" fill="none" xmlns="http://www.w3.org/2000/svg">
<g clip-path="url(#clip0_624_318)">
<path d="M261.549 114.718C260.162 112.378 258.949 109.734 257.909 106.788C256.869 103.841 255.656 99.8978 254.269 94.9578C252.622 89.2378 251.149 84.7311 249.849 81.4378C248.636 78.0578 246.989 75.2411 244.909 72.9878C242.916 70.6478 240.402 69.4778 237.369 69.4778C234.769 69.4778 232.472 70.3445 230.479 72.0778C228.486 73.7245 226.796 75.7611 225.409 78.1878C224.109 80.6145 222.636 83.7777 220.989 87.6777C218.822 93.051 216.872 96.7778 215.139 98.8577C213.406 96.7778 211.456 93.051 209.289 87.6777C207.642 83.7777 206.126 80.6145 204.739 78.1878C203.439 75.7611 201.792 73.7245 199.799 72.0778C197.806 70.3445 195.509 69.4778 192.909 69.4778C189.876 69.4778 187.319 70.6478 185.239 72.9878C183.246 75.2411 181.599 78.0578 180.299 81.4378C179.086 84.7311 177.656 89.2378 176.009 94.9578C174.622 99.8978 173.409 103.841 172.369 106.788C171.329 109.734 170.116 112.378 168.729 114.718V6.68774C170.116 8.59442 171.286 10.6744 172.239 12.9277C173.279 15.1811 174.666 18.4745 176.399 22.8078C178.219 27.6611 179.822 31.5611 181.209 34.5078C182.682 37.3678 184.459 39.7945 186.539 41.7878C188.619 43.6945 191.089 44.6478 193.949 44.6478C196.722 44.6478 199.062 43.7378 200.969 41.9178C202.876 40.0111 204.392 37.7578 205.519 35.1578C206.732 32.5578 208.119 29.0478 209.679 24.6278C210.892 21.1611 211.846 18.5178 212.539 16.6978C213.319 14.8777 214.186 13.2744 215.139 11.8877C216.092 13.2744 216.916 14.8777 217.609 16.6978C218.389 18.5178 219.386 21.1611 220.599 24.6278C222.159 29.0478 223.502 32.5578 224.629 35.1578C225.842 37.7578 227.402 40.0111 229.309 41.9178C231.216 43.7378 233.556 44.6478 236.329 44.6478C239.189 44.6478 241.659 43.6945 243.739 41.7878C245.819 39.7945 247.552 37.3678 248.939 34.5078C250.412 31.5611 252.059 27.6611 253.879 22.8078C255.612 18.4745 256.956 15.1811 257.909 12.9277C258.949 10.6744 260.162 8.59442 261.549 6.68774V114.718ZM299.367 8.63775V30.7378H287.407V49.4578H299.367V71.5578H287.407V90.5378H299.367V112.638H265.957V8.63775H299.367ZM323.969 8.63775C331.076 8.63775 336.406 9.54775 339.959 11.3677C343.599 13.1877 346.113 16.5245 347.499 21.3778C348.973 26.1445 349.709 33.3811 349.709 43.0878C349.709 52.8811 348.886 60.3345 347.239 65.4478C345.593 70.4745 342.949 73.9411 339.309 75.8478C335.669 77.6678 330.556 78.5778 323.969 78.5778V112.638H302.519V8.63775H323.969ZM327.609 31.7778C327.609 30.0445 326.743 29.1778 325.009 29.1778H323.969V57.7778H325.009C326.743 57.7778 327.609 56.9545 327.609 55.3078V31.7778ZM376.855 8.63775H398.305V112.638H376.855V80.9178C374.775 81.1778 372.608 81.3078 370.355 81.3078C363.508 81.3078 358.698 79.6178 355.925 76.2378C353.152 72.7711 351.765 67.0945 351.765 59.2078V8.63775H373.215V58.5578C373.215 59.1645 373.388 59.6411 373.735 59.9878C374.082 60.3345 374.515 60.5078 375.035 60.5078C375.555 60.5078 375.988 60.3345 376.335 59.9878C376.682 59.6411 376.855 59.1645 376.855 58.5578V8.63775ZM424.934 113.548C418.954 113.548 414.317 112.291 411.024 109.778C407.73 107.178 405.347 102.714 403.874 96.3878C402.4 90.0611 401.664 80.9611 401.664 69.0878V52.1878C401.664 40.3145 402.4 31.2145 403.874 24.8878C405.347 18.5611 407.73 14.1411 411.024 11.6277C414.317 9.02775 418.954 7.72775 424.934 7.72775H426.234C432.214 7.72775 436.85 9.02775 440.144 11.6277C443.437 14.1411 445.82 18.5611 447.294 24.8878C448.767 31.2145 449.504 40.3145 449.504 52.1878V69.0878C449.504 80.9611 448.767 90.0611 447.294 96.3878C445.82 102.714 443.437 107.178 440.144 109.778C436.85 112.291 432.214 113.548 426.234 113.548H424.934ZM425.584 92.7478C426.104 92.7478 426.537 92.5745 426.884 92.2278C427.23 91.8811 427.404 91.4477 427.404 90.9277V30.3478C427.404 29.8278 427.23 29.3945 426.884 29.0478C426.537 28.7011 426.104 28.5278 425.584 28.5278C425.064 28.5278 424.63 28.7011 424.284 29.0478C423.937 29.3945 423.764 29.8278 423.764 30.3478V90.9277C423.764 91.4477 423.937 91.8811 424.284 92.2278C424.63 92.5745 425.064 92.7478 425.584 92.7478ZM546.432 114.718C545.045 112.378 543.832 109.734 542.792 106.788C541.752 103.841 540.538 99.8978 539.152 94.9578C537.505 89.2378 536.032 84.7311 534.732 81.4378C533.518 78.0578 531.872 75.2411 529.792 72.9878C527.798 70.6478 525.285 69.4778 522.252 69.4778C519.652 69.4778 517.355 70.3445 515.362 72.0778C513.368 73.7245 511.678 75.7611 510.292 78.1878C508.992 80.6145 507.518 83.7777 505.872 87.6777C503.705 93.051 501.755 96.7778 500.022 98.8577C498.288 96.7778 496.338 93.051 494.172 87.6777C492.525 83.7777 491.008 80.6145 489.622 78.1878C488.322 75.7611 486.675 73.7245 484.682 72.0778C482.688 70.3445 480.392 69.4778 477.792 69.4778C474.758 69.4778 472.202 70.6478 470.122 72.9878C468.128 75.2411 466.482 78.0578 465.182 81.4378C463.968 84.7311 462.538 89.2378 460.892 94.9578C459.505 99.8978 458.292 103.841 457.252 106.788C456.212 109.734 454.998 112.378 453.612 114.718V6.68774C454.998 8.59442 456.168 10.6744 457.122 12.9277C458.162 15.1811 459.548 18.4745 461.282 22.8078C463.102 27.6611 464.705 31.5611 466.092 34.5078C467.565 37.3678 469.342 39.7945 471.422 41.7878C473.502 43.6945 475.972 44.6478 478.832 44.6478C481.605 44.6478 483.945 43.7378 485.852 41.9178C487.758 40.0111 489.275 37.7578 490.402 35.1578C491.615 32.5578 493.002 29.0478 494.562 24.6278C495.775 21.1611 496.728 18.5178 497.422 16.6978C498.202 14.8777 499.068 13.2744 500.022 11.8877C500.975 13.2744 501.798 14.8777 502.492 16.6978C503.272 18.5178 504.268 21.1611 505.482 24.6278C507.042 29.0478 508.385 32.5578 509.512 35.1578C510.725 37.7578 512.285 40.0111 514.192 41.9178C516.098 43.7378 518.438 44.6478 521.212 44.6478C524.072 44.6478 526.542 43.6945 528.622 41.7878C530.702 39.7945 532.435 37.3678 533.822 34.5078C535.295 31.5611 536.942 27.6611 538.762 22.8078C540.495 18.4745 541.838 15.1811 542.792 12.9277C543.832 10.6744 545.045 8.59442 546.432 6.68774V114.718Z" fill="#0E0E0E"/>
</g>
<defs>
<clipPath id="clip0_624_318">
<rect width="379" height="109" fill="white" transform="translate(168 6)"/>
</clipPath>
</defs>
</svg>
