<svg width="715" height="350" viewBox="0 0 715 350" fill="none" xmlns="http://www.w3.org/2000/svg">
<g clip-path="url(#clip0_624_308)">
<g clip-path="url(#clip1_624_308)">
<path d="M45.3012 72.6377V176.638H23.8512V94.7377H20.2112V176.638H-1.23877V72.6377H45.3012ZM81.4077 110.208C79.1544 110.034 77.3344 109.948 75.9477 109.948C70.4877 109.948 67.7577 111.638 67.7577 115.018C67.7577 116.751 68.321 117.964 69.4477 118.658C70.5744 119.264 72.3077 119.828 74.6477 120.348C77.0744 120.868 79.0244 121.474 80.4977 122.168C81.971 122.861 83.2277 124.074 84.2677 125.808C85.3944 127.454 85.9577 129.881 85.9577 133.088C85.9577 137.074 85.0477 140.238 83.2277 142.578C81.4944 144.831 78.721 147.258 74.9077 149.858C70.8344 152.631 67.8877 155.361 66.0677 158.048C64.2477 160.648 63.3377 164.114 63.3377 168.448L63.2077 176.638H49.8177L49.6877 168.838C49.6877 160.951 50.251 155.708 51.3777 153.108C51.9844 151.721 52.981 150.421 54.3677 149.208C55.7544 147.994 57.8777 146.391 60.7377 144.398C64.1177 142.058 66.6744 140.021 68.4077 138.288C70.141 136.554 71.0077 134.691 71.0077 132.698C71.0077 130.878 70.3144 129.578 68.9277 128.798C67.6277 128.018 65.591 127.238 62.8177 126.458C60.4777 125.764 58.6144 125.158 57.2277 124.638C55.841 124.031 54.6277 123.121 53.5877 121.908C52.6344 120.608 52.1577 118.874 52.1577 116.708C52.1577 113.414 53.2844 110.554 55.5377 108.128C57.791 105.701 60.5644 103.881 63.8577 102.668C67.151 101.368 70.3577 100.718 73.4777 100.718L56.3177 80.0477C68.7977 73.8077 80.801 70.6877 92.3277 70.6877C99.6948 70.6877 106.801 72.0311 113.648 74.7177C120.495 77.3177 126.171 81.7377 130.678 87.9777C135.271 94.2177 137.568 102.408 137.568 112.548C137.568 122.601 135.488 130.661 131.328 136.728C127.255 142.794 122.185 147.951 116.118 152.198L81.4077 110.208ZM117.678 131.658C121.405 126.458 123.268 120.088 123.268 112.548C123.268 102.754 120.365 95.7344 114.558 91.4877C108.751 87.1544 101.341 84.9878 92.3277 84.9878C88.2544 84.9878 84.181 85.4644 80.1077 86.4177L117.678 131.658ZM164.975 177.548C158.995 177.548 154.358 176.291 151.065 173.778C147.771 171.178 145.388 166.714 143.915 160.388C142.441 154.061 141.705 144.961 141.705 133.088V116.188C141.705 104.314 142.441 95.2144 143.915 88.8877C145.388 82.561 147.771 78.1411 151.065 75.6277C154.358 73.0277 158.995 71.7277 164.975 71.7277H166.275C172.255 71.7277 176.891 73.0277 180.185 75.6277C183.478 78.1411 185.861 82.561 187.335 88.8877C188.808 95.2144 189.545 104.314 189.545 116.188V133.088C189.545 144.961 188.808 154.061 187.335 160.388C185.861 166.714 183.478 171.178 180.185 173.778C176.891 176.291 172.255 177.548 166.275 177.548H164.975ZM165.625 156.748C166.145 156.748 166.578 156.574 166.925 156.228C167.271 155.881 167.445 155.448 167.445 154.928V94.3477C167.445 93.8277 167.271 93.3945 166.925 93.0478C166.578 92.7011 166.145 92.5278 165.625 92.5278C165.105 92.5278 164.671 92.7011 164.325 93.0478C163.978 93.3945 163.805 93.8277 163.805 94.3477V154.928C163.805 155.448 163.978 155.881 164.325 156.228C164.671 156.574 165.105 156.748 165.625 156.748ZM246.448 155.188H251.648V188.598H230.198V176.638H212.258V188.598H190.808V155.188H194.318C196.745 151.548 198.348 146.998 199.128 141.538C199.995 136.078 200.428 129.448 200.428 121.648V72.6377H246.448V155.188ZM224.998 155.188V94.7377H221.358V125.028C221.358 132.134 221.055 138.028 220.448 142.708C219.841 147.388 218.845 151.548 217.458 155.188H224.998ZM278.374 176.638H252.894L261.994 72.6377H298.394L307.494 176.638H282.014V144.918H278.374V176.638ZM278.374 124.118H282.014V95.2577C282.014 94.7377 281.841 94.3045 281.494 93.9578C281.147 93.6111 280.714 93.4377 280.194 93.4377C279.674 93.4377 279.241 93.6111 278.894 93.9578C278.547 94.3045 278.374 94.7377 278.374 95.2577V124.118ZM309.924 176.638V72.6377H331.374V114.238H332.544C334.19 114.238 335.014 113.414 335.014 111.768V72.6377H362.964L353.214 124.768L362.964 176.638H335.014V138.158C335.014 136.511 334.19 135.688 332.544 135.688H331.374V176.638H309.924ZM415.582 155.188V72.6377H437.032V176.638H365.402V72.6377H386.852V155.188H390.492V72.6377H411.942V155.188H415.582ZM445.105 151.028C442.679 147.474 441.465 143.314 441.465 138.548C441.465 129.188 445.625 119.178 453.945 108.518C462.265 97.771 472.449 88.7578 484.495 81.4777C496.629 74.1977 507.809 70.5577 518.035 70.5577C524.622 70.5577 529.735 72.4211 533.375 76.1477C537.102 79.8744 538.965 84.6844 538.965 90.5777C538.965 99.5044 534.805 109.384 526.485 120.218C518.165 130.964 508.112 140.108 496.325 147.648C484.625 155.188 474.139 158.958 464.865 158.958C463.565 158.958 462.222 158.871 460.835 158.698V164.678H537.145V176.638H445.105V151.028ZM462.135 138.938C469.502 138.938 477.649 136.164 486.575 130.618C495.502 124.984 503.129 118.398 509.455 110.858C515.869 103.318 519.075 97.0344 519.075 92.0077C519.075 91.0544 519.032 90.5345 518.945 90.4478C518.859 90.2745 518.555 90.1877 518.035 90.1877C511.102 90.1877 503.085 93.0477 493.985 98.7677C484.972 104.401 477.215 111.118 470.715 118.918C464.215 126.631 460.965 133.304 460.965 138.938H462.135ZM564.84 176.638H543.39V72.6377H564.84V113.848H568.48V72.6377H589.93V176.638H568.48V135.298H564.84V176.638ZM616.547 177.548C610.567 177.548 605.93 176.291 602.637 173.778C599.343 171.178 596.96 166.714 595.487 160.388C594.013 154.061 593.277 144.961 593.277 133.088V116.188C593.277 104.314 594.013 95.2144 595.487 88.8877C596.96 82.561 599.343 78.1411 602.637 75.6277C605.93 73.0277 610.567 71.7277 616.547 71.7277H617.847C623.827 71.7277 628.463 73.0277 631.757 75.6277C635.05 78.1411 637.433 82.561 638.907 88.8877C640.38 95.2144 641.117 104.314 641.117 116.188V133.088C641.117 144.961 640.38 154.061 638.907 160.388C637.433 166.714 635.05 171.178 631.757 173.778C628.463 176.291 623.827 177.548 617.847 177.548H616.547ZM617.197 156.748C617.717 156.748 618.15 156.574 618.497 156.228C618.843 155.881 619.017 155.448 619.017 154.928V94.3477C619.017 93.8277 618.843 93.3945 618.497 93.0478C618.15 92.7011 617.717 92.5278 617.197 92.5278C616.677 92.5278 616.243 92.7011 615.897 93.0478C615.55 93.3945 615.377 93.8277 615.377 94.3477V154.928C615.377 155.448 615.55 155.881 615.897 156.228C616.243 156.574 616.677 156.748 617.197 156.748ZM644.445 176.638V72.6377H677.595V110.858C677.595 111.378 677.768 111.811 678.115 112.158C678.462 112.504 678.895 112.678 679.415 112.678C679.935 112.678 680.368 112.504 680.715 112.158C681.062 111.811 681.235 111.378 681.235 110.858V72.6377H714.385V176.638H690.855L694.755 98.2477C694.755 97.7277 694.582 97.2945 694.235 96.9478C693.888 96.5145 693.455 96.2978 692.935 96.2978C692.415 96.2978 691.982 96.5145 691.635 96.9478C691.288 97.2945 691.115 97.7277 691.115 98.2477L687.215 176.638H671.615L667.715 98.2477C667.715 97.7277 667.542 97.2945 667.195 96.9478C666.848 96.5145 666.415 96.2978 665.895 96.2978C665.375 96.2978 664.942 96.5145 664.595 96.9478C664.248 97.2945 664.075 97.7277 664.075 98.2477L667.975 176.638H644.445Z" fill="#0E0E0E"/>
</g>
</g>
<defs>
<clipPath id="clip0_624_308">
<rect width="715" height="350" fill="white"/>
</clipPath>
<clipPath id="clip1_624_308">
<rect width="717" height="119" fill="white" transform="translate(-2 70)"/>
</clipPath>
</defs>
</svg>
