<svg width="715" height="350" viewBox="0 0 715 350" fill="none" xmlns="http://www.w3.org/2000/svg">
<g clip-path="url(#clip0_624_308)">
<g clip-path="url(#clip1_624_308)">
<path d="M45.3012 9.63774V113.638H23.8512V31.7377H20.2112V113.638H-1.23877V9.63774H45.3012ZM81.4077 47.2077C79.1544 47.0344 77.3344 46.9478 75.9477 46.9478C70.4877 46.9478 67.7577 48.6377 67.7577 52.0177C67.7577 53.751 68.321 54.9644 69.4477 55.6577C70.5744 56.2644 72.3077 56.8277 74.6477 57.3477C77.0744 57.8677 79.0244 58.4745 80.4977 59.1678C81.971 59.8611 83.2277 61.0745 84.2677 62.8078C85.3944 64.4545 85.9577 66.881 85.9577 70.0877C85.9577 74.0744 85.0477 77.2377 83.2277 79.5777C81.4944 81.831 78.721 84.2577 74.9077 86.8577C70.8344 89.631 67.8877 92.361 66.0677 95.0477C64.2477 97.6477 63.3377 101.114 63.3377 105.448L63.2077 113.638H49.8177L49.6877 105.838C49.6877 97.951 50.251 92.7077 51.3777 90.1077C51.9844 88.721 52.981 87.421 54.3677 86.2077C55.7544 84.9944 57.8777 83.391 60.7377 81.3977C64.1177 79.0577 66.6744 77.021 68.4077 75.2877C70.141 73.5544 71.0077 71.6911 71.0077 69.6978C71.0077 67.8778 70.3144 66.5777 68.9277 65.7977C67.6277 65.0177 65.591 64.2377 62.8177 63.4577C60.4777 62.7644 58.6144 62.1577 57.2277 61.6377C55.841 61.031 54.6277 60.121 53.5877 58.9077C52.6344 57.6077 52.1577 55.8744 52.1577 53.7077C52.1577 50.4144 53.2844 47.5545 55.5377 45.1278C57.791 42.7011 60.5644 40.8811 63.8577 39.6678C67.151 38.3678 70.3577 37.7177 73.4777 37.7177L56.3177 17.0477C68.7977 10.8077 80.801 7.68774 92.3277 7.68774C99.6948 7.68774 106.801 9.03107 113.648 11.7177C120.495 14.3177 126.171 18.7377 130.678 24.9777C135.271 31.2177 137.568 39.4077 137.568 49.5477C137.568 59.601 135.488 67.661 131.328 73.7277C127.255 79.7944 122.185 84.951 116.118 89.1977L81.4077 47.2077ZM117.678 68.6577C121.405 63.4577 123.268 57.0877 123.268 49.5477C123.268 39.7544 120.365 32.7344 114.558 28.4877C108.751 24.1544 101.341 21.9878 92.3277 21.9878C88.2544 21.9878 84.181 22.4644 80.1077 23.4177L117.678 68.6577ZM164.975 114.548C158.995 114.548 154.358 113.291 151.065 110.778C147.771 108.178 145.388 103.714 143.915 97.3877C142.441 91.061 141.705 81.961 141.705 70.0877V53.1877C141.705 41.3144 142.441 32.2144 143.915 25.8877C145.388 19.561 147.771 15.1411 151.065 12.6277C154.358 10.0277 158.995 8.72774 164.975 8.72774H166.275C172.255 8.72774 176.891 10.0277 180.185 12.6277C183.478 15.1411 185.861 19.561 187.335 25.8877C188.808 32.2144 189.545 41.3144 189.545 53.1877V70.0877C189.545 81.961 188.808 91.061 187.335 97.3877C185.861 103.714 183.478 108.178 180.185 110.778C176.891 113.291 172.255 114.548 166.275 114.548H164.975ZM165.625 93.7477C166.145 93.7477 166.578 93.5744 166.925 93.2277C167.271 92.881 167.445 92.4477 167.445 91.9277V31.3477C167.445 30.8277 167.271 30.3945 166.925 30.0478C166.578 29.7011 166.145 29.5278 165.625 29.5278C165.105 29.5278 164.671 29.7011 164.325 30.0478C163.978 30.3945 163.805 30.8277 163.805 31.3477V91.9277C163.805 92.4477 163.978 92.881 164.325 93.2277C164.671 93.5744 165.105 93.7477 165.625 93.7477ZM246.448 92.1877H251.648V125.598H230.198V113.638H212.258V125.598H190.808V92.1877H194.318C196.745 88.5477 198.348 83.9977 199.128 78.5377C199.995 73.0777 200.428 66.4478 200.428 58.6478V9.63774H246.448V92.1877ZM224.998 92.1877V31.7377H221.358V62.0277C221.358 69.1344 221.055 75.0277 220.448 79.7077C219.841 84.3877 218.845 88.5477 217.458 92.1877H224.998ZM278.374 113.638H252.894L261.994 9.63774H298.394L307.494 113.638H282.014V81.9177H278.374V113.638ZM278.374 61.1177H282.014V32.2577C282.014 31.7377 281.841 31.3045 281.494 30.9578C281.147 30.6111 280.714 30.4377 280.194 30.4377C279.674 30.4377 279.241 30.6111 278.894 30.9578C278.547 31.3045 278.374 31.7377 278.374 32.2577V61.1177ZM309.924 113.638V9.63774H331.374V51.2378H332.544C334.19 51.2378 335.014 50.4144 335.014 48.7677V9.63774H362.964L353.214 61.7677L362.964 113.638H335.014V75.1577C335.014 73.511 334.19 72.6877 332.544 72.6877H331.374V113.638H309.924ZM415.582 92.1877V9.63774H437.032V113.638H365.402V9.63774H386.852V92.1877H390.492V9.63774H411.942V92.1877H415.582ZM445.105 88.0277C442.679 84.4744 441.465 80.3144 441.465 75.5477C441.465 66.1877 445.625 56.1777 453.945 45.5177C462.265 34.771 472.449 25.7578 484.495 18.4777C496.629 11.1977 507.809 7.55774 518.035 7.55774C524.622 7.55774 529.735 9.42107 533.375 13.1477C537.102 16.8744 538.965 21.6844 538.965 27.5777C538.965 36.5044 534.805 46.3845 526.485 57.2178C518.165 67.9645 508.112 77.1077 496.325 84.6477C484.625 92.1877 474.139 95.9577 464.865 95.9577C463.565 95.9577 462.222 95.871 460.835 95.6977V101.678H537.145V113.638H445.105V88.0277ZM462.135 75.9377C469.502 75.9377 477.649 73.1644 486.575 67.6177C495.502 61.9844 503.129 55.3977 509.455 47.8577C515.869 40.3177 519.075 34.0344 519.075 29.0077C519.075 28.0544 519.032 27.5345 518.945 27.4478C518.859 27.2745 518.555 27.1877 518.035 27.1877C511.102 27.1877 503.085 30.0477 493.985 35.7677C484.972 41.401 477.215 48.1178 470.715 55.9178C464.215 63.6311 460.965 70.3044 460.965 75.9377H462.135ZM564.84 113.638H543.39V9.63774H564.84V50.8477H568.48V9.63774H589.93V113.638H568.48V72.2977H564.84V113.638ZM616.547 114.548C610.567 114.548 605.93 113.291 602.637 110.778C599.343 108.178 596.96 103.714 595.487 97.3877C594.013 91.061 593.277 81.961 593.277 70.0877V53.1877C593.277 41.3144 594.013 32.2144 595.487 25.8877C596.96 19.561 599.343 15.1411 602.637 12.6277C605.93 10.0277 610.567 8.72774 616.547 8.72774H617.847C623.827 8.72774 628.463 10.0277 631.757 12.6277C635.05 15.1411 637.433 19.561 638.907 25.8877C640.38 32.2144 641.117 41.3144 641.117 53.1877V70.0877C641.117 81.961 640.38 91.061 638.907 97.3877C637.433 103.714 635.05 108.178 631.757 110.778C628.463 113.291 623.827 114.548 617.847 114.548H616.547ZM617.197 93.7477C617.717 93.7477 618.15 93.5744 618.497 93.2277C618.843 92.881 619.017 92.4477 619.017 91.9277V31.3477C619.017 30.8277 618.843 30.3945 618.497 30.0478C618.15 29.7011 617.717 29.5278 617.197 29.5278C616.677 29.5278 616.243 29.7011 615.897 30.0478C615.55 30.3945 615.377 30.8277 615.377 31.3477V91.9277C615.377 92.4477 615.55 92.881 615.897 93.2277C616.243 93.5744 616.677 93.7477 617.197 93.7477ZM644.445 113.638V9.63774H677.595V47.8577C677.595 48.3777 677.768 48.811 678.115 49.1577C678.462 49.5044 678.895 49.6777 679.415 49.6777C679.935 49.6777 680.368 49.5044 680.715 49.1577C681.062 48.811 681.235 48.3777 681.235 47.8577V9.63774H714.385V113.638H690.855L694.755 35.2477C694.755 34.7277 694.582 34.2945 694.235 33.9478C693.888 33.5145 693.455 33.2978 692.935 33.2978C692.415 33.2978 691.982 33.5145 691.635 33.9478C691.288 34.2945 691.115 34.7277 691.115 35.2477L687.215 113.638H671.615L667.715 35.2477C667.715 34.7277 667.542 34.2945 667.195 33.9478C666.848 33.5145 666.415 33.2978 665.895 33.2978C665.375 33.2978 664.942 33.5145 664.595 33.9478C664.248 34.2945 664.075 34.7277 664.075 35.2477L667.975 113.638H644.445Z" fill="#0E0E0E"/>
</g>
</g>
<defs>
<clipPath id="clip0_624_308">
<rect width="715" height="350" fill="white"/>
</clipPath>
<clipPath id="clip1_624_308">
<rect width="717" height="119" fill="white" transform="translate(-2 7)"/>
</clipPath>
</defs>
</svg>
