<svg width="662" height="350" viewBox="0 0 662 350" fill="none" xmlns="http://www.w3.org/2000/svg">
<g clip-path="url(#clip0_624_279)">
<path d="M241.136 187.907C231.87 187.907 223.762 186.527 216.812 183.764C209.952 181.002 204.651 177.171 200.908 172.271C197.166 167.371 195.295 161.802 195.295 155.565C195.295 150.398 196.543 145.988 199.037 142.335C201.621 138.682 205.096 135.92 209.462 134.049C213.917 132.088 218.861 131.108 224.296 131.108C236.681 131.108 245.546 136.098 250.892 146.077C251.426 142.602 252.451 139.216 253.966 135.92C255.48 132.623 257.351 129.906 259.579 127.767L253.164 128.302C246.392 129.015 240.868 129.371 236.592 129.371C224.831 129.371 215.966 127.723 209.996 124.426C204.027 121.13 201.042 115.828 201.042 108.522C201.042 103.266 202.78 98.4099 206.254 93.9551C209.729 89.4112 215.03 85.7583 222.158 82.9963C229.286 80.2343 238.062 78.8533 248.486 78.8533C256.505 78.8533 263.009 79.7888 267.998 81.6598C273.077 83.4417 275.616 86.4265 275.616 90.614C275.616 93.4651 274.369 96.1826 271.874 98.7664C269.379 101.261 266.484 103.444 263.187 105.315C259.98 107.186 255.213 109.681 248.887 112.799C257.262 112.799 264.88 114.046 271.74 116.541C278.69 118.947 284.214 122.555 288.312 127.366C292.5 132.088 294.594 137.88 294.594 144.74C294.594 151.69 292.455 158.506 288.179 165.188C283.991 171.781 277.843 177.216 269.736 181.493C261.628 185.769 252.095 187.907 241.136 187.907ZM299.165 186.972V80.0561H333.244V119.348C333.244 119.882 333.422 120.328 333.779 120.684C334.135 121.041 334.581 121.219 335.115 121.219C335.65 121.219 336.095 121.041 336.452 120.684C336.808 120.328 336.986 119.882 336.986 119.348V80.0561H371.066V186.972H346.876L350.886 106.384C350.886 105.85 350.707 105.404 350.351 105.048C349.994 104.602 349.549 104.379 349.015 104.379C348.48 104.379 348.034 104.602 347.678 105.048C347.321 105.404 347.143 105.85 347.143 106.384L343.134 186.972H327.097L323.087 106.384C323.087 105.85 322.909 105.404 322.553 105.048C322.196 104.602 321.751 104.379 321.216 104.379C320.682 104.379 320.236 104.602 319.88 105.048C319.523 105.404 319.345 105.85 319.345 106.384L323.355 186.972H299.165ZM467.344 186.571C467.344 186.928 467.21 187.15 466.943 187.239C466.765 187.329 466.542 187.239 466.275 186.972C459.86 180.022 454.826 173.251 451.173 166.658C447.52 160.065 445.693 154.229 445.693 149.15C445.693 145.408 446.629 140.508 448.5 134.45C450.46 128.391 452.866 122.466 455.717 116.675C455.895 116.318 455.85 116.096 455.583 116.007C451.396 111.997 448.144 106.028 445.827 98.0981C445.649 97.5636 445.426 97.3408 445.159 97.4299C444.981 97.4299 444.803 97.6527 444.624 98.0981C442.932 105.85 440.481 113.334 437.274 120.55C434.156 127.767 431.038 133.692 427.918 138.325C424.89 142.869 422.752 145.141 421.503 145.141C420.256 145.141 418.074 142.869 414.955 138.325C411.926 133.692 408.807 127.767 405.6 120.55C402.482 113.334 400.076 105.85 398.383 98.0981C398.205 97.6527 397.982 97.4299 397.715 97.4299C397.537 97.3408 397.359 97.5636 397.18 98.0981C394.864 106.028 391.612 111.997 387.424 116.007C387.157 116.096 387.113 116.318 387.29 116.675C390.142 122.466 392.503 128.391 394.374 134.45C396.334 140.508 397.314 145.408 397.314 149.15C397.314 154.229 395.488 160.065 391.834 166.658C388.182 173.251 383.147 180.022 376.732 186.972C376.465 187.239 376.198 187.329 375.931 187.239C375.753 187.15 375.663 186.928 375.663 186.571V80.8579C375.663 80.3234 375.931 80.0561 376.465 80.0561H466.542C467.076 80.0561 467.344 80.3234 467.344 80.8579V186.571Z" fill="#0E0E0E"/>
</g>
<defs>
<clipPath id="clip0_624_279">
<rect width="272.43" height="110" fill="white" transform="translate(195 78)"/>
</clipPath>
</defs>
</svg>
