<svg width="662" height="350" viewBox="0 0 662 350" fill="none" xmlns="http://www.w3.org/2000/svg">
<g clip-path="url(#clip0_624_279)">
<path d="M241.136 115.907C231.87 115.907 223.762 114.527 216.812 111.764C209.952 109.002 204.651 105.171 200.908 100.271C197.166 95.3707 195.295 89.8022 195.295 83.5654C195.295 78.3978 196.543 73.9875 199.037 70.3346C201.621 66.6817 205.096 63.9196 209.462 62.0486C213.917 60.0884 218.861 59.1084 224.296 59.1084C236.681 59.1084 245.546 64.0978 250.892 74.0766C251.426 70.6019 252.451 67.2162 253.966 63.9196C255.48 60.623 257.351 57.9056 259.579 55.7673L253.164 56.3019C246.392 57.0146 240.868 57.371 236.592 57.371C224.831 57.371 215.966 55.7228 209.996 52.4262C204.027 49.1296 201.042 43.8284 201.042 36.5224C201.042 31.2658 202.78 26.4099 206.254 21.9551C209.729 17.4112 215.03 13.7583 222.158 10.9963C229.286 8.23427 238.062 6.85327 248.486 6.85327C256.505 6.85327 263.009 7.78879 267.998 9.65981C273.077 11.4417 275.616 14.4265 275.616 18.614C275.616 21.4651 274.369 24.1826 271.874 26.7664C269.379 29.2611 266.484 31.4439 263.187 33.315C259.98 35.186 255.213 37.6807 248.887 40.7991C257.262 40.7991 264.88 42.0464 271.74 44.5411C278.69 46.9467 284.214 50.5551 288.312 55.3664C292.5 60.0884 294.594 65.8798 294.594 72.7402C294.594 79.6897 292.455 86.5056 288.179 93.1879C283.991 99.781 277.843 105.216 269.736 109.493C261.628 113.769 252.095 115.907 241.136 115.907ZM299.165 114.972V8.05608H333.244V47.3477C333.244 47.8822 333.422 48.3277 333.779 48.6841C334.135 49.0405 334.581 49.2187 335.115 49.2187C335.65 49.2187 336.095 49.0405 336.452 48.6841C336.808 48.3277 336.986 47.8822 336.986 47.3477V8.05608H371.066V114.972H346.876L350.886 34.3841C350.886 33.8495 350.707 33.4041 350.351 33.0477C349.994 32.6022 349.549 32.3794 349.015 32.3794C348.48 32.3794 348.034 32.6022 347.678 33.0477C347.321 33.4041 347.143 33.8495 347.143 34.3841L343.134 114.972H327.097L323.087 34.3841C323.087 33.8495 322.909 33.4041 322.553 33.0477C322.196 32.6022 321.751 32.3794 321.216 32.3794C320.682 32.3794 320.236 32.6022 319.88 33.0477C319.523 33.4041 319.345 33.8495 319.345 34.3841L323.355 114.972H299.165ZM467.344 114.571C467.344 114.928 467.21 115.15 466.943 115.239C466.765 115.329 466.542 115.239 466.275 114.972C459.86 108.022 454.826 101.251 451.173 94.658C447.52 88.0648 445.693 82.229 445.693 77.1505C445.693 73.4084 446.629 68.5081 448.5 62.4495C450.46 56.391 452.866 50.466 455.717 44.6748C455.895 44.3183 455.85 44.0957 455.583 44.0065C451.396 39.9972 448.144 34.0277 445.827 26.0981C445.649 25.5636 445.426 25.3408 445.159 25.4299C444.981 25.4299 444.803 25.6527 444.624 26.0981C442.932 33.8495 440.481 41.3336 437.274 48.5505C434.156 55.7673 431.038 61.6922 427.918 66.3252C424.89 70.8692 422.752 73.1411 421.503 73.1411C420.256 73.1411 418.074 70.8692 414.955 66.3252C411.926 61.6922 408.807 55.7673 405.6 48.5505C402.482 41.3336 400.076 33.8495 398.383 26.0981C398.205 25.6527 397.982 25.4299 397.715 25.4299C397.537 25.3408 397.359 25.5636 397.18 26.0981C394.864 34.0277 391.612 39.9972 387.424 44.0065C387.157 44.0957 387.113 44.3183 387.29 44.6748C390.142 50.466 392.503 56.391 394.374 62.4495C396.334 68.5081 397.314 73.4084 397.314 77.1505C397.314 82.229 395.488 88.0648 391.834 94.658C388.182 101.251 383.147 108.022 376.732 114.972C376.465 115.239 376.198 115.329 375.931 115.239C375.753 115.15 375.663 114.928 375.663 114.571V8.85795C375.663 8.32337 375.931 8.05608 376.465 8.05608H466.542C467.076 8.05608 467.344 8.32337 467.344 8.85795V114.571Z" fill="#0E0E0E"/>
</g>
<defs>
<clipPath id="clip0_624_279">
<rect width="272.43" height="110" fill="white" transform="translate(195 6)"/>
</clipPath>
</defs>
</svg>
