<svg width="662" height="350" viewBox="0 0 662 350" fill="none" xmlns="http://www.w3.org/2000/svg">
<g clip-path="url(#clip0_624_268)">
<path d="M35.4656 180.907C29.3418 180.907 24.5938 179.615 21.2212 177.031C17.8487 174.357 15.4081 169.768 13.8994 163.262C12.3906 156.756 11.6362 147.398 11.6362 135.189V117.811C11.6362 105.602 12.3906 96.244 13.8994 89.7382C15.4081 83.2325 17.8487 78.6874 21.2212 76.1029C24.5938 73.4293 29.3418 72.0925 35.4656 72.0925H36.7968C42.7431 72.0925 47.3581 73.3402 50.6418 75.8356C54.0144 78.2418 56.455 82.475 57.9637 88.5351C59.4725 94.5952 60.2268 103.195 60.2268 114.335V124.762H37.995V95.3527C37.995 94.818 37.8175 94.3725 37.4625 94.0159C37.1075 93.6594 36.6637 93.4812 36.1312 93.4812C35.5987 93.4812 35.155 93.6594 34.8 94.0159C34.445 94.3725 34.2675 94.818 34.2675 95.3527V157.647C34.2675 158.182 34.445 158.628 34.8 158.984C35.155 159.341 35.5987 159.519 36.1312 159.519C36.6637 159.519 37.1075 159.341 37.4625 158.984C37.8175 158.628 37.995 158.182 37.995 157.647V128.238H60.2268V135.189C60.2268 147.398 59.4725 156.756 57.9637 163.262C56.5438 169.768 54.1919 174.357 50.9081 177.031C47.6244 179.615 42.9206 180.907 36.7968 180.907H35.4656ZM107.049 73.0283V95.7538H95.6007V179.972H73.6351V95.7538H62.1863V73.0283H107.049ZM132.802 73.0283C140.08 73.0283 145.538 73.9641 149.176 75.8356C152.904 77.7071 155.477 81.1382 156.898 86.1289C158.406 91.0305 159.161 98.4719 159.161 108.453C159.161 118.524 158.318 126.188 156.631 131.446C154.945 136.615 152.238 140.18 148.511 142.14C144.783 144.012 139.547 144.948 132.802 144.948V179.972H110.836V73.0283H132.802ZM136.529 96.8232C136.529 95.0409 135.642 94.1496 133.867 94.1496H132.802V123.559H133.867C135.642 123.559 136.529 122.712 136.529 121.019V96.8232ZM182.662 179.972H156.57L165.889 73.0283H203.164L212.482 179.972H186.39V147.354H182.662V179.972ZM182.662 125.965H186.39V96.2885C186.39 95.7538 186.213 95.3082 185.857 94.9517C185.502 94.5952 185.059 94.417 184.526 94.417C183.994 94.417 183.55 94.5952 183.195 94.9517C182.84 95.3082 182.662 95.7538 182.662 96.2885V125.965ZM219.097 144.948H255.307V79.0439H238.4V108.453H215.769V73.0283H303.099V108.453H280.467V79.0439H263.56V144.948H299.77V179.972H219.097V144.948ZM341.877 73.0283V95.7538H329.629V115.004H341.877V137.729H329.629V157.246H341.877V179.972H307.664V73.0283H341.877ZM379.318 73.0283V95.7538H367.07V179.972H345.105V73.0283H379.318ZM383.197 179.972V73.0283H405.828L398.772 141.606V141.873C398.772 143.032 399.349 143.611 400.503 143.611C401.568 143.611 402.145 142.943 402.234 141.606L409.289 73.0283H433.518V179.972H410.887L415.946 125.297V125.03C415.946 123.871 415.368 123.292 414.215 123.292C413.238 123.292 412.661 123.96 412.484 125.297L407.426 179.972H383.197ZM484.804 73.0283V179.972H462.838V141.071H461.773C459.999 141.071 459.111 141.962 459.111 143.745V179.972H437.145V149.493C437.145 139.868 439.231 133.095 443.402 129.174C438.787 124.807 436.48 117.098 436.48 106.047C436.48 97.3134 437.278 90.6294 438.876 85.9952C440.562 81.2719 443.269 77.9299 446.996 75.9692C450.724 74.0086 456.005 73.0283 462.838 73.0283H484.804ZM462.838 121.688V94.1496H461.241C459.821 94.1496 459.111 95.0409 459.111 96.8232V119.549C459.111 120.975 459.821 121.688 461.241 121.688H462.838ZM528.838 136.927H509.135V179.972H489.299V73.0283H523.246L539.221 124.227H542.416V73.0283H573.834L594.734 137.462V179.972H572.902V163.93L564.781 138.264H553.199V179.972H528.838V136.927ZM599.265 179.972V73.0283H621.896L614.841 141.606V141.873C614.841 143.032 615.417 143.611 616.571 143.611C617.636 143.611 618.213 142.943 618.302 141.606L625.357 73.0283H649.586V179.972H626.955L632.014 125.297V125.03C632.014 123.871 631.436 123.292 630.283 123.292C629.306 123.292 628.73 123.96 628.552 125.297L623.494 179.972H599.265Z" fill="#0E0E0E"/>
</g>
<defs>
<clipPath id="clip0_624_268">
<rect width="639" height="109" fill="white" transform="translate(11 72)"/>
</clipPath>
</defs>
</svg>
