<svg width="662" height="350" viewBox="0 0 662 350" fill="none" xmlns="http://www.w3.org/2000/svg">
<g clip-path="url(#clip0_624_268)">
<path d="M35.4656 115.907C29.3418 115.907 24.5938 114.615 21.2212 112.031C17.8487 109.357 15.4081 104.768 13.8994 98.2618C12.3906 91.756 11.6362 82.3985 11.6362 70.1892V52.8109C11.6362 40.6015 12.3906 31.244 13.8994 24.7382C15.4081 18.2325 17.8487 13.6874 21.2212 11.1029C24.5938 8.42934 29.3418 7.09254 35.4656 7.09254H36.7968C42.7431 7.09254 47.3581 8.34022 50.6418 10.8356C54.0144 13.2418 56.455 17.475 57.9637 23.5351C59.4725 29.5952 60.2268 38.1953 60.2268 49.3352V59.7622H37.995V30.3527C37.995 29.818 37.8175 29.3725 37.4625 29.0159C37.1075 28.6594 36.6637 28.4812 36.1312 28.4812C35.5987 28.4812 35.155 28.6594 34.8 29.0159C34.445 29.3725 34.2675 29.818 34.2675 30.3527V92.6473C34.2675 93.182 34.445 93.6275 34.8 93.9841C35.155 94.3406 35.5987 94.5188 36.1312 94.5188C36.6637 94.5188 37.1075 94.3406 37.4625 93.9841C37.8175 93.6275 37.995 93.182 37.995 92.6473V63.2378H60.2268V70.1892C60.2268 82.3985 59.4725 91.756 57.9637 98.2618C56.5438 104.768 54.1919 109.357 50.9081 112.031C47.6244 114.615 42.9206 115.907 36.7968 115.907H35.4656ZM107.049 8.0283V30.7538H95.6007V114.972H73.6351V30.7538H62.1863V8.0283H107.049ZM132.802 8.0283C140.08 8.0283 145.538 8.96406 149.176 10.8356C152.904 12.7071 155.477 16.1382 156.898 21.1289C158.406 26.0305 159.161 33.4719 159.161 43.4533C159.161 53.5238 158.318 61.1881 156.631 66.4461C154.945 71.6151 152.238 75.1798 148.511 77.1405C144.783 79.012 139.547 79.9477 132.802 79.9477V114.972H110.836V8.0283H132.802ZM136.529 31.8232C136.529 30.0409 135.642 29.1496 133.867 29.1496H132.802V58.5591H133.867C135.642 58.5591 136.529 57.7125 136.529 56.0192V31.8232ZM182.662 114.972H156.57L165.889 8.0283H203.164L212.482 114.972H186.39V82.354H182.662V114.972ZM182.662 60.9653H186.39V31.2885C186.39 30.7538 186.213 30.3082 185.857 29.9517C185.502 29.5952 185.059 29.417 184.526 29.417C183.994 29.417 183.55 29.5952 183.195 29.9517C182.84 30.3082 182.662 30.7538 182.662 31.2885V60.9653ZM219.097 79.9477H255.307V14.0439H238.4V43.4533H215.769V8.0283H303.099V43.4533H280.467V14.0439H263.56V79.9477H299.77V114.972H219.097V79.9477ZM341.877 8.0283V30.7538H329.629V50.0036H341.877V72.7291H329.629V92.2462H341.877V114.972H307.664V8.0283H341.877ZM379.318 8.0283V30.7538H367.07V114.972H345.105V8.0283H379.318ZM383.197 114.972V8.0283H405.828L398.772 76.6058V76.8731C398.772 78.0317 399.349 78.6109 400.503 78.6109C401.568 78.6109 402.145 77.9426 402.234 76.6058L409.289 8.0283H433.518V114.972H410.887L415.946 60.2969V60.0295C415.946 58.8709 415.368 58.2917 414.215 58.2917C413.238 58.2917 412.661 58.9601 412.484 60.2969L407.426 114.972H383.197ZM484.804 8.0283V114.972H462.838V76.071H461.773C459.999 76.071 459.111 76.9623 459.111 78.7446V114.972H437.145V84.4928C437.145 74.8679 439.231 68.0948 443.402 64.1736C438.787 59.8067 436.48 52.0979 436.48 41.0471C436.48 32.3134 437.278 25.6294 438.876 20.9952C440.562 16.2719 443.269 12.9299 446.996 10.9692C450.724 9.00862 456.005 8.0283 462.838 8.0283H484.804ZM462.838 56.6876V29.1496H461.241C459.821 29.1496 459.111 30.0409 459.111 31.8232V54.5487C459.111 55.9746 459.821 56.6876 461.241 56.6876H462.838ZM528.838 71.927H509.135V114.972H489.299V8.0283H523.246L539.221 59.2275H542.416V8.0283H573.834L594.734 72.4617V114.972H572.902V98.9302L564.781 73.2638H553.199V114.972H528.838V71.927ZM599.265 114.972V8.0283H621.896L614.841 76.6058V76.8731C614.841 78.0317 615.417 78.6109 616.571 78.6109C617.636 78.6109 618.213 77.9426 618.302 76.6058L625.357 8.0283H649.586V114.972H626.955L632.014 60.2969V60.0295C632.014 58.8709 631.436 58.2917 630.283 58.2917C629.306 58.2917 628.73 58.9601 628.552 60.2969L623.494 114.972H599.265Z" fill="#0E0E0E"/>
</g>
<defs>
<clipPath id="clip0_624_268">
<rect width="639" height="109" fill="white" transform="translate(11 7)"/>
</clipPath>
</defs>
</svg>
