<svg width="662" height="350" viewBox="0 0 662 350" fill="none" xmlns="http://www.w3.org/2000/svg">
<g clip-path="url(#clip0_624_263)">
<path d="M249.29 195.933C241.737 195.933 235.935 193.818 231.882 189.588C227.829 185.266 225.803 179.749 225.803 173.036C225.803 169.173 226.448 165.955 227.737 163.38C229.119 160.713 230.685 158.644 232.435 157.173C234.277 155.701 236.533 154.184 239.205 152.621C241.323 151.425 242.843 150.414 243.763 149.586C244.686 148.759 245.146 147.793 245.146 146.689C245.146 145.402 244.502 144.206 243.211 143.103C242.013 141.908 240.541 140.988 238.79 140.344C237.132 139.609 235.843 139.241 234.922 139.241H225.112C224.375 139.241 224.007 138.873 224.007 138.137L223.869 84.6171C223.869 83.8814 224.237 83.5136 224.974 83.5136H278.305C279.041 83.5136 279.409 83.8814 279.409 84.6171V118.826C287.238 114.872 293.593 111.975 298.476 110.136C303.448 108.296 307.917 107.377 311.878 107.377C315.008 107.377 317.405 107.975 319.061 109.17C320.719 110.366 321.549 111.975 321.549 113.998C321.549 116.113 320.719 118.044 319.061 119.792C317.405 121.447 315.1 123.286 312.154 125.309C310.22 126.688 308.837 127.746 308.009 128.482C307.179 129.217 306.765 129.953 306.765 130.689C306.765 131.608 307.409 132.206 308.699 132.482C310.082 132.666 312.246 132.758 315.192 132.758C320.075 132.85 323.898 133.309 326.66 134.137C329.425 134.965 330.805 136.896 330.805 139.931C330.805 142.137 330.069 144.299 328.594 146.414C327.12 148.437 325.048 150.782 322.378 153.448C320.443 155.472 319.061 156.989 318.233 158C317.497 159.012 317.127 159.931 317.127 160.759C317.127 161.679 317.543 162.598 318.371 163.518C319.291 164.346 320.719 165.449 322.653 166.828C325.878 169.127 328.456 171.427 330.391 173.725C332.325 175.932 333.293 178.645 333.293 181.864C333.293 185.542 331.957 188.485 329.287 190.692C326.614 192.807 323.297 193.864 319.337 193.864C315.839 193.864 312.568 193.083 309.53 191.52C306.581 189.956 303.218 187.749 299.442 184.898C296.588 182.691 294.193 181.082 292.259 180.07C290.325 178.967 288.436 178.415 286.594 178.415C284.844 178.415 283.139 178.921 281.481 179.933C279.917 180.852 277.705 182.462 274.85 184.76C270.798 188.255 266.837 191.014 262.968 193.037C259.192 194.968 254.633 195.933 249.29 195.933ZM247.632 173.174C247.632 175.105 248.23 176.714 249.428 178.001C250.719 179.289 252.469 179.933 254.679 179.933C256.798 179.933 258.686 179.381 260.344 178.277C262 177.082 264.026 175.243 266.423 172.76C269.369 169.725 272.042 167.426 274.436 165.863C276.831 164.299 279.823 163.518 283.415 163.518C285.442 163.518 287.1 163.794 288.39 164.346C289.773 164.805 291.383 165.541 293.225 166.553C294.423 167.38 295.527 168.024 296.542 168.484C297.646 168.852 298.844 169.035 300.134 169.035C302.068 169.035 303.54 168.576 304.555 167.656C305.569 166.644 306.075 165.403 306.075 163.932C306.075 162.736 305.753 161.725 305.107 160.897C304.555 160.069 303.773 159.288 302.758 158.552C301.838 157.724 301.146 157.035 300.686 156.483C300.318 155.931 300.134 155.288 300.134 154.552C300.134 153.448 300.548 152.575 301.376 151.931C302.298 151.287 303.681 150.598 305.521 149.862C306.995 149.218 308.055 148.667 308.699 148.207C309.435 147.747 309.806 147.195 309.806 146.551C309.806 144.988 307.687 144.206 303.448 144.206H298.89C295.481 144.206 292.811 143.885 290.877 143.241C289.034 142.597 288.114 141.172 288.114 138.965C288.114 137.861 288.344 136.85 288.804 135.93C289.264 135.011 289.865 133.953 290.601 132.758C291.613 131.194 292.121 130.137 292.121 129.585C292.121 128.849 291.659 128.298 290.739 127.93C289.819 127.562 288.85 127.378 287.838 127.378C286.272 127.378 284.844 127.838 283.553 128.757C282.265 129.677 280.883 130.964 279.409 132.62V138.137C279.409 138.873 279.041 139.241 278.305 139.241H257.166C257.35 139.792 257.902 140.85 258.824 142.413C259.652 143.793 260.252 144.988 260.62 146C261.08 146.919 261.31 147.931 261.31 149.034C261.31 150.966 260.758 152.805 259.652 154.552C258.548 156.207 256.844 158.368 254.541 161.035C252.237 163.61 250.489 165.817 249.29 167.656C248.184 169.403 247.632 171.243 247.632 173.174ZM373.502 83.5136V106.963H360.79V126.826H373.502V150.276H360.79V170.415H373.502V193.864H337.994V83.5136H373.502ZM399.648 126.274C406.833 126.274 412.358 127.378 416.227 129.585C420.187 131.792 422.952 135.332 424.518 140.206C426.174 144.988 427.004 151.609 427.004 160.069C427.004 168.53 426.174 175.197 424.518 180.07C422.952 184.852 420.187 188.347 416.227 190.554C412.358 192.761 406.833 193.864 399.648 193.864H376.851V83.5136H423.964V106.963H399.648V126.274ZM403.517 150.414C403.517 148.575 402.597 147.655 400.755 147.655H399.648V172.484H400.755C402.597 172.484 403.517 171.564 403.517 169.725V150.414ZM32.4342 216.699C39.9872 216.699 45.6516 217.664 49.428 219.595C53.2966 221.527 55.9678 225.067 57.4414 230.217C59.0072 235.275 59.7902 242.953 59.7902 253.252C59.7902 263.644 58.915 271.552 57.1652 276.978C55.4151 282.311 52.6059 285.99 48.7373 288.013C44.8687 289.944 39.4345 290.91 32.4342 290.91V327.049H9.6377V216.699H32.4342ZM36.3028 241.252C36.3028 239.413 35.3816 238.493 33.5396 238.493H32.4342V268.84H33.5396C35.3816 268.84 36.3028 267.966 36.3028 266.219V241.252ZM63.3563 217.526C63.3563 216.791 63.7248 216.423 64.4617 216.423H124.7C125.529 216.423 125.943 216.791 125.943 217.526V325.809C125.943 326.544 125.575 326.911 124.838 326.911H99.6928C98.9559 326.911 98.5875 326.544 98.5875 325.809V270.357C98.5875 269.805 98.3112 269.529 97.7585 269.529H91.5412C90.9885 269.529 90.7123 269.805 90.7123 270.357V325.809C90.7123 326.544 90.3438 326.911 89.6069 326.911H64.4617C63.7248 326.911 63.3563 326.544 63.3563 325.809V217.526ZM85.1858 253.252C88.1333 254.724 91.357 255.459 94.8571 255.459C98.3572 255.459 101.581 254.724 104.528 253.252C107.476 251.781 109.779 249.85 111.436 247.459C113.186 244.976 114.061 242.263 114.061 239.321C114.061 236.378 113.186 233.665 111.436 231.182C109.779 228.699 107.476 226.722 104.528 225.251C101.581 223.78 98.3572 223.044 94.8571 223.044C91.357 223.044 88.1333 223.78 85.1858 225.251C82.2384 226.722 79.8896 228.699 78.1396 231.182C76.4817 233.665 75.6528 236.378 75.6528 239.321C75.6528 242.263 76.4817 244.976 78.1396 247.459C79.8896 249.85 82.2384 251.781 85.1858 253.252ZM171.592 271.736C174.539 273.667 176.565 276.886 177.671 281.392C178.776 285.806 179.329 291.967 179.329 299.876C179.329 309.439 177.348 316.521 173.388 321.118C169.519 325.715 163.026 328.016 153.907 328.016C147.551 328.016 142.578 327.095 138.986 325.256C135.393 323.325 132.814 320.062 131.249 315.462C129.683 310.865 128.9 304.428 128.9 296.151V286.91H151.973V306.221C151.973 306.773 152.157 307.232 152.525 307.6C152.894 307.968 153.354 308.152 153.907 308.152C154.46 308.152 154.92 307.968 155.288 307.6C155.657 307.232 155.841 306.773 155.841 306.221V286.082C155.841 284.243 154.92 283.323 153.078 283.323H131.663V260.563H153.078C154.92 260.563 155.841 259.644 155.841 257.804V237.527C155.841 236.976 155.657 236.516 155.288 236.148C154.92 235.78 154.46 235.596 153.907 235.596C153.354 235.596 152.894 235.78 152.525 236.148C152.157 236.516 151.973 236.976 151.973 237.527V256.977H128.9V248.011C128.9 236.792 130.788 228.607 134.564 223.458C138.341 218.308 144.788 215.733 153.907 215.733C163.026 215.733 169.519 218.032 173.388 222.63C177.348 227.228 179.329 234.309 179.329 243.873C179.329 251.321 178.73 257.299 177.532 261.805C176.335 266.311 174.355 269.621 171.592 271.736ZM205.54 216.699C213.093 216.699 218.758 217.664 222.534 219.595C226.403 221.527 229.074 225.067 230.547 230.217C232.113 235.275 232.896 242.953 232.896 253.252C232.896 263.644 232.021 271.552 230.271 276.978C228.521 282.311 225.712 285.99 221.843 288.013C217.975 289.944 212.541 290.91 205.54 290.91V327.049H182.744V216.699H205.54ZM209.409 241.252C209.409 239.413 208.488 238.493 206.646 238.493H205.54V268.84H206.646C208.488 268.84 209.409 267.966 209.409 266.219V241.252ZM258.707 327.049H231.627L241.298 216.699H279.984L289.655 327.049H262.575V293.393H258.707V327.049ZM258.707 271.323H262.575V240.7C262.575 240.148 262.391 239.688 262.023 239.321C261.653 238.953 261.193 238.769 260.641 238.769C260.089 238.769 259.627 238.953 259.259 239.321C258.891 239.688 258.707 240.148 258.707 240.7V271.323ZM315.034 259.46C322.216 259.46 327.743 260.563 331.612 262.77C335.573 264.977 338.337 268.518 339.901 273.391C341.559 278.173 342.39 284.794 342.39 293.255C342.39 301.715 341.559 308.382 339.901 313.255C338.337 318.039 335.573 321.531 331.612 323.738C327.743 325.947 322.216 327.049 315.034 327.049H292.236V216.699H339.349V240.148H315.034V259.46ZM318.902 283.599C318.902 281.76 317.98 280.84 316.138 280.84H315.034V305.669H316.138C317.98 305.669 318.902 304.749 318.902 302.91V283.599ZM369.58 328.016C363.225 328.016 358.297 326.682 354.798 324.016C351.298 321.256 348.765 316.521 347.199 309.807C345.633 303.094 344.851 293.439 344.851 280.84V262.908C344.851 250.31 345.633 240.654 347.199 233.941C348.765 227.228 351.298 222.538 354.798 219.871C358.297 217.113 363.225 215.733 369.58 215.733H370.963C377.318 215.733 382.244 217.113 385.745 219.871C389.245 222.538 391.778 227.228 393.344 233.941C394.91 240.654 395.692 250.31 395.692 262.908V280.84C395.692 293.439 394.91 303.094 393.344 309.807C391.778 316.521 389.245 321.256 385.745 324.016C382.244 326.682 377.318 328.016 370.963 328.016H369.58ZM370.27 305.945C370.825 305.945 371.285 305.761 371.653 305.393C372.021 305.025 372.205 304.566 372.205 304.014V239.734C372.205 239.183 372.021 238.723 371.653 238.355C371.285 237.987 370.825 237.803 370.27 237.803C369.718 237.803 369.258 237.987 368.89 238.355C368.522 238.723 368.336 239.183 368.336 239.734V304.014C368.336 304.566 368.522 305.025 368.89 305.393C369.258 305.761 369.718 305.945 370.27 305.945ZM443.199 216.699V240.148H431.317V327.049H408.519V240.148H396.638V216.699H443.199ZM447.127 327.049V216.699H469.925V260.839H471.167C472.917 260.839 473.793 259.965 473.793 258.218V216.699H503.498L493.136 272.012L503.498 327.049H473.793V286.22C473.793 284.472 472.917 283.599 471.167 283.599H469.925V327.049H447.127ZM498.629 274.909L542.977 214.492L596.724 265.805L556.517 329.256L498.629 274.909ZM544.774 299.876C549.102 299.876 553.341 298.45 557.486 295.6C561.722 292.657 565.131 288.611 567.709 283.461C570.38 278.219 571.716 272.334 571.716 265.805C571.716 259 570.15 253.252 567.017 248.563C563.887 243.873 558.82 241.528 551.821 241.528C546.294 241.528 541.459 243.091 537.312 246.218C533.26 249.252 530.13 253.252 527.919 258.218C525.801 263.184 524.741 268.472 524.741 274.081C524.741 279.139 525.615 283.645 527.365 287.599C529.115 291.461 531.51 294.496 534.55 296.703C537.683 298.818 541.089 299.876 544.774 299.876ZM625.8 213.94C622.024 213.94 618.525 213.02 615.301 211.181C612.168 209.342 609.682 206.859 607.84 203.733C605.997 200.514 605.077 197.02 605.077 193.249V191.87H624.004V194.905C624.004 195.364 624.19 195.778 624.558 196.146C624.926 196.514 625.34 196.698 625.8 196.698C626.263 196.698 626.677 196.514 627.045 196.146C627.413 195.778 627.597 195.364 627.597 194.905V191.87H646.526V193.249C646.526 197.02 645.603 200.514 643.761 203.733C641.921 206.859 639.386 209.342 636.164 211.181C633.032 213.02 629.577 213.94 625.8 213.94ZM600.102 327.049V216.699H623.59L616.269 287.461V287.737C616.269 288.933 616.867 289.53 618.063 289.53C619.169 289.53 619.767 288.841 619.859 287.461L627.183 216.699H652.329V327.049H628.841L634.092 270.633V270.357C634.092 269.161 633.492 268.564 632.296 268.564C631.281 268.564 630.683 269.253 630.499 270.633L625.248 327.049H600.102Z" fill="#0E0E0E"/>
</g>
<defs>
<clipPath id="clip0_624_263">
<rect width="662" height="350" fill="white"/>
</clipPath>
</defs>
</svg>
