<svg width="662" height="350" viewBox="0 0 662 350" fill="none" xmlns="http://www.w3.org/2000/svg">
<g clip-path="url(#clip0_624_263)">
<path d="M249.29 128.933C241.737 128.933 235.935 126.818 231.882 122.588C227.829 118.266 225.803 112.749 225.803 106.036C225.803 102.173 226.448 98.9549 227.737 96.3801C229.119 93.7131 230.685 91.6442 232.435 90.1727C234.277 88.7015 236.533 87.1841 239.205 85.6208C241.323 84.4253 242.843 83.4138 243.763 82.5862C244.686 81.7586 245.146 80.793 245.146 79.6894C245.146 78.4021 244.502 77.2064 243.211 76.1031C242.013 74.9076 240.541 73.988 238.79 73.3443C237.132 72.6086 235.843 72.2407 234.922 72.2407H225.112C224.375 72.2407 224.007 71.8728 224.007 71.1373L223.869 17.6171C223.869 16.8814 224.237 16.5136 224.974 16.5136H278.305C279.041 16.5136 279.409 16.8814 279.409 17.6171V51.8259C287.238 47.8717 293.593 44.9749 298.476 43.1358C303.448 41.2965 307.917 40.3771 311.878 40.3771C315.008 40.3771 317.405 40.9748 319.061 42.1702C320.719 43.3657 321.549 44.9749 321.549 46.998C321.549 49.1131 320.719 51.0443 319.061 52.7915C317.405 54.4467 315.1 56.2858 312.154 58.3091C310.22 59.6884 308.837 60.7459 308.009 61.4816C307.179 62.2171 306.765 62.9529 306.765 63.6886C306.765 64.6083 307.409 65.206 308.699 65.4818C310.082 65.6657 312.246 65.7576 315.192 65.7576C320.075 65.8496 323.898 66.3094 326.66 67.1369C329.425 67.9648 330.805 69.8957 330.805 72.9305C330.805 75.1375 330.069 77.2985 328.594 79.4136C327.12 81.4367 325.048 83.7817 322.378 86.4483C320.443 88.4716 319.061 89.9888 318.233 91.0003C317.497 92.012 317.127 92.9315 317.127 93.7591C317.127 94.6787 317.543 95.5984 318.371 96.5178C319.291 97.3456 320.719 98.449 322.653 99.8284C325.878 102.127 328.456 104.427 330.391 106.725C332.325 108.932 333.293 111.645 333.293 114.864C333.293 118.542 331.957 121.485 329.287 123.692C326.614 125.807 323.297 126.864 319.337 126.864C315.839 126.864 312.568 126.083 309.53 124.52C306.581 122.956 303.218 120.749 299.442 117.898C296.588 115.691 294.193 114.082 292.259 113.07C290.325 111.967 288.436 111.415 286.594 111.415C284.844 111.415 283.139 111.921 281.481 112.933C279.917 113.852 277.705 115.462 274.85 117.76C270.798 121.255 266.837 124.014 262.968 126.037C259.192 127.968 254.633 128.933 249.29 128.933ZM247.632 106.174C247.632 108.105 248.23 109.714 249.428 111.001C250.719 112.289 252.469 112.933 254.679 112.933C256.798 112.933 258.686 112.381 260.344 111.277C262 110.082 264.026 108.243 266.423 105.76C269.369 102.725 272.042 100.426 274.436 98.8628C276.831 97.2995 279.823 96.5178 283.415 96.5178C285.442 96.5178 287.1 96.7938 288.39 97.3456C289.773 97.8054 291.383 98.5411 293.225 99.5526C294.423 100.38 295.527 101.024 296.542 101.484C297.646 101.852 298.844 102.035 300.134 102.035C302.068 102.035 303.54 101.576 304.555 100.656C305.569 99.6445 306.075 98.4031 306.075 96.9318C306.075 95.7364 305.753 94.7246 305.107 93.8971C304.555 93.0695 303.773 92.2878 302.758 91.5521C301.838 90.7245 301.146 90.0349 300.686 89.4831C300.318 88.9313 300.134 88.2877 300.134 87.5519C300.134 86.4483 300.548 85.5748 301.376 84.9312C302.298 84.2873 303.681 83.5977 305.521 82.862C306.995 82.2183 308.055 81.6665 308.699 81.2068C309.435 80.7469 309.806 80.1953 309.806 79.5514C309.806 77.9881 307.687 77.2064 303.448 77.2064H298.89C295.481 77.2064 292.811 76.8847 290.877 76.2411C289.034 75.5972 288.114 74.1719 288.114 71.9649C288.114 70.8613 288.344 69.8498 288.804 68.9301C289.264 68.0107 289.865 66.953 290.601 65.7576C291.613 64.1942 292.121 63.1368 292.121 62.585C292.121 61.8495 291.659 61.2977 290.739 60.9298C289.819 60.562 288.85 60.378 287.838 60.378C286.272 60.378 284.844 60.8377 283.553 61.7574C282.265 62.6771 280.883 63.9644 279.409 65.6198V71.1373C279.409 71.8728 279.041 72.2407 278.305 72.2407H257.166C257.35 72.7925 257.902 73.8499 258.824 75.4133C259.652 76.7926 260.252 77.9881 260.62 78.9998C261.08 79.9193 261.31 80.9308 261.31 82.0344C261.31 83.9656 260.758 85.8047 259.652 87.5519C258.548 89.2071 256.844 91.3681 254.541 94.0351C252.237 96.6099 250.489 98.8169 249.29 100.656C248.184 102.403 247.632 104.243 247.632 106.174ZM373.502 16.5136V39.963H360.79V59.8262H373.502V83.2758H360.79V103.415H373.502V126.864H337.994V16.5136H373.502ZM399.648 59.2744C406.833 59.2744 412.358 60.378 416.227 62.585C420.187 64.792 422.952 68.3324 424.518 73.2063C426.174 77.9881 427.004 84.6092 427.004 93.0695C427.004 101.53 426.174 108.197 424.518 113.07C422.952 117.852 420.187 121.347 416.227 123.554C412.358 125.761 406.833 126.864 399.648 126.864H376.851V16.5136H423.964V39.963H399.648V59.2744ZM403.517 83.4138C403.517 81.5747 402.597 80.655 400.755 80.655H399.648V105.484H400.755C402.597 105.484 403.517 104.564 403.517 102.725V83.4138ZM32.4342 149.699C39.9872 149.699 45.6516 150.664 49.428 152.595C53.2966 154.527 55.9678 158.067 57.4414 163.217C59.0072 168.275 59.7902 175.953 59.7902 186.252C59.7902 196.644 58.915 204.552 57.1652 209.978C55.4151 215.311 52.6059 218.99 48.7373 221.013C44.8687 222.944 39.4345 223.91 32.4342 223.91V260.049H9.6377V149.699H32.4342ZM36.3028 174.252C36.3028 172.413 35.3816 171.493 33.5396 171.493H32.4342V201.84H33.5396C35.3816 201.84 36.3028 200.966 36.3028 199.219V174.252ZM63.3563 150.526C63.3563 149.791 63.7248 149.423 64.4617 149.423H124.7C125.529 149.423 125.943 149.791 125.943 150.526V258.809C125.943 259.544 125.575 259.911 124.838 259.911H99.6928C98.9559 259.911 98.5875 259.544 98.5875 258.809V203.357C98.5875 202.805 98.3112 202.529 97.7585 202.529H91.5412C90.9885 202.529 90.7123 202.805 90.7123 203.357V258.809C90.7123 259.544 90.3438 259.911 89.6069 259.911H64.4617C63.7248 259.911 63.3563 259.544 63.3563 258.809V150.526ZM85.1858 186.252C88.1333 187.724 91.357 188.459 94.8571 188.459C98.3572 188.459 101.581 187.724 104.528 186.252C107.476 184.781 109.779 182.85 111.436 180.459C113.186 177.976 114.061 175.263 114.061 172.321C114.061 169.378 113.186 166.665 111.436 164.182C109.779 161.699 107.476 159.722 104.528 158.251C101.581 156.78 98.3572 156.044 94.8571 156.044C91.357 156.044 88.1333 156.78 85.1858 158.251C82.2384 159.722 79.8896 161.699 78.1396 164.182C76.4817 166.665 75.6528 169.378 75.6528 172.321C75.6528 175.263 76.4817 177.976 78.1396 180.459C79.8896 182.85 82.2384 184.781 85.1858 186.252ZM171.592 204.736C174.539 206.667 176.565 209.886 177.671 214.392C178.776 218.806 179.329 224.967 179.329 232.876C179.329 242.439 177.348 249.521 173.388 254.118C169.519 258.715 163.026 261.016 153.907 261.016C147.551 261.016 142.578 260.095 138.986 258.256C135.393 256.325 132.814 253.062 131.249 248.462C129.683 243.865 128.9 237.428 128.9 229.151V219.91H151.973V239.221C151.973 239.773 152.157 240.232 152.525 240.6C152.894 240.968 153.354 241.152 153.907 241.152C154.46 241.152 154.92 240.968 155.288 240.6C155.657 240.232 155.841 239.773 155.841 239.221V219.082C155.841 217.243 154.92 216.323 153.078 216.323H131.663V193.563H153.078C154.92 193.563 155.841 192.644 155.841 190.804V170.527C155.841 169.976 155.657 169.516 155.288 169.148C154.92 168.78 154.46 168.596 153.907 168.596C153.354 168.596 152.894 168.78 152.525 169.148C152.157 169.516 151.973 169.976 151.973 170.527V189.977H128.9V181.011C128.9 169.792 130.788 161.607 134.564 156.458C138.341 151.308 144.788 148.733 153.907 148.733C163.026 148.733 169.519 151.032 173.388 155.63C177.348 160.228 179.329 167.309 179.329 176.873C179.329 184.321 178.73 190.299 177.532 194.805C176.335 199.311 174.355 202.621 171.592 204.736ZM205.54 149.699C213.093 149.699 218.758 150.664 222.534 152.595C226.403 154.527 229.074 158.067 230.547 163.217C232.113 168.275 232.896 175.953 232.896 186.252C232.896 196.644 232.021 204.552 230.271 209.978C228.521 215.311 225.712 218.99 221.843 221.013C217.975 222.944 212.541 223.91 205.54 223.91V260.049H182.744V149.699H205.54ZM209.409 174.252C209.409 172.413 208.488 171.493 206.646 171.493H205.54V201.84H206.646C208.488 201.84 209.409 200.966 209.409 199.219V174.252ZM258.707 260.049H231.627L241.298 149.699H279.984L289.655 260.049H262.575V226.393H258.707V260.049ZM258.707 204.323H262.575V173.7C262.575 173.148 262.391 172.688 262.023 172.321C261.653 171.953 261.193 171.769 260.641 171.769C260.089 171.769 259.627 171.953 259.259 172.321C258.891 172.688 258.707 173.148 258.707 173.7V204.323ZM315.034 192.46C322.216 192.46 327.743 193.563 331.612 195.77C335.573 197.977 338.337 201.518 339.901 206.391C341.559 211.173 342.39 217.794 342.39 226.255C342.39 234.715 341.559 241.382 339.901 246.255C338.337 251.039 335.573 254.531 331.612 256.738C327.743 258.947 322.216 260.049 315.034 260.049H292.236V149.699H339.349V173.148H315.034V192.46ZM318.902 216.599C318.902 214.76 317.98 213.84 316.138 213.84H315.034V238.669H316.138C317.98 238.669 318.902 237.749 318.902 235.91V216.599ZM369.58 261.016C363.225 261.016 358.297 259.682 354.798 257.016C351.298 254.256 348.765 249.521 347.199 242.807C345.633 236.094 344.851 226.439 344.851 213.84V195.908C344.851 183.31 345.633 173.654 347.199 166.941C348.765 160.228 351.298 155.538 354.798 152.871C358.297 150.113 363.225 148.733 369.58 148.733H370.963C377.318 148.733 382.244 150.113 385.745 152.871C389.245 155.538 391.778 160.228 393.344 166.941C394.91 173.654 395.692 183.31 395.692 195.908V213.84C395.692 226.439 394.91 236.094 393.344 242.807C391.778 249.521 389.245 254.256 385.745 257.016C382.244 259.682 377.318 261.016 370.963 261.016H369.58ZM370.27 238.945C370.825 238.945 371.285 238.761 371.653 238.393C372.021 238.025 372.205 237.566 372.205 237.014V172.734C372.205 172.183 372.021 171.723 371.653 171.355C371.285 170.987 370.825 170.803 370.27 170.803C369.718 170.803 369.258 170.987 368.89 171.355C368.522 171.723 368.336 172.183 368.336 172.734V237.014C368.336 237.566 368.522 238.025 368.89 238.393C369.258 238.761 369.718 238.945 370.27 238.945ZM443.199 149.699V173.148H431.317V260.049H408.519V173.148H396.638V149.699H443.199ZM447.127 260.049V149.699H469.925V193.839H471.167C472.917 193.839 473.793 192.965 473.793 191.218V149.699H503.498L493.136 205.012L503.498 260.049H473.793V219.22C473.793 217.472 472.917 216.599 471.167 216.599H469.925V260.049H447.127ZM498.629 207.909L542.977 147.492L596.724 198.805L556.517 262.256L498.629 207.909ZM544.774 232.876C549.102 232.876 553.341 231.45 557.486 228.6C561.722 225.657 565.131 221.611 567.709 216.461C570.38 211.219 571.716 205.334 571.716 198.805C571.716 192 570.15 186.252 567.017 181.563C563.887 176.873 558.82 174.528 551.821 174.528C546.294 174.528 541.459 176.091 537.312 179.218C533.26 182.252 530.13 186.252 527.919 191.218C525.801 196.184 524.741 201.472 524.741 207.081C524.741 212.139 525.615 216.645 527.365 220.599C529.115 224.461 531.51 227.496 534.55 229.703C537.683 231.818 541.089 232.876 544.774 232.876ZM625.8 146.94C622.024 146.94 618.525 146.02 615.301 144.181C612.168 142.342 609.682 139.859 607.84 136.733C605.997 133.514 605.077 130.02 605.077 126.249V124.87H624.004V127.905C624.004 128.364 624.19 128.778 624.558 129.146C624.926 129.514 625.34 129.698 625.8 129.698C626.263 129.698 626.677 129.514 627.045 129.146C627.413 128.778 627.597 128.364 627.597 127.905V124.87H646.526V126.249C646.526 130.02 645.603 133.514 643.761 136.733C641.921 139.859 639.386 142.342 636.164 144.181C633.032 146.02 629.577 146.94 625.8 146.94ZM600.102 260.049V149.699H623.59L616.269 220.461V220.737C616.269 221.933 616.867 222.53 618.063 222.53C619.169 222.53 619.767 221.841 619.859 220.461L627.183 149.699H652.329V260.049H628.841L634.092 203.633V203.357C634.092 202.161 633.492 201.564 632.296 201.564C631.281 201.564 630.683 202.253 630.499 203.633L625.248 260.049H600.102Z" fill="#0E0E0E"/>
</g>
<defs>
<clipPath id="clip0_624_263">
<rect width="662" height="350" fill="white"/>
</clipPath>
</defs>
</svg>
