<svg width="910" height="145" viewBox="0 0 910 145" fill="none" xmlns="http://www.w3.org/2000/svg">
<g clip-path="url(#clip0_646_12)">
<path d="M358.549 129.718C357.162 127.378 355.949 124.734 354.909 121.788C353.869 118.841 352.656 114.898 351.269 109.958C349.622 104.238 348.149 99.7308 346.849 96.4375C345.636 93.0575 343.989 90.2408 341.909 87.9875C339.916 85.6475 337.402 84.4775 334.369 84.4775C331.769 84.4775 329.472 85.3442 327.479 87.0775C325.486 88.7242 323.796 90.7608 322.409 93.1875C321.109 95.6142 319.636 98.7775 317.989 102.678C315.822 108.051 313.872 111.778 312.139 113.858C310.406 111.778 308.456 108.051 306.289 102.678C304.642 98.7775 303.126 95.6142 301.739 93.1875C300.439 90.7608 298.792 88.7242 296.799 87.0775C294.806 85.3442 292.509 84.4775 289.909 84.4775C286.876 84.4775 284.319 85.6475 282.239 87.9875C280.246 90.2408 278.599 93.0575 277.299 96.4375C276.086 99.7308 274.656 104.238 273.009 109.958C271.622 114.898 270.409 118.841 269.369 121.788C268.329 124.734 267.116 127.378 265.729 129.718V21.6875C267.116 23.5942 268.286 25.6742 269.239 27.9275C270.279 30.1808 271.666 33.4742 273.399 37.8075C275.219 42.6608 276.822 46.5608 278.209 49.5075C279.682 52.3675 281.459 54.7942 283.539 56.7875C285.619 58.6942 288.089 59.6475 290.949 59.6475C293.722 59.6475 296.062 58.7375 297.969 56.9175C299.876 55.0108 301.392 52.7575 302.519 50.1575C303.732 47.5575 305.119 44.0475 306.679 39.6275C307.892 36.1608 308.846 33.5175 309.539 31.6975C310.319 29.8775 311.186 28.2742 312.139 26.8875C313.092 28.2742 313.916 29.8775 314.609 31.6975C315.389 33.5175 316.386 36.1608 317.599 39.6275C319.159 44.0475 320.502 47.5575 321.629 50.1575C322.842 52.7575 324.402 55.0108 326.309 56.9175C328.216 58.7375 330.556 59.6475 333.329 59.6475C336.189 59.6475 338.659 58.6942 340.739 56.7875C342.819 54.7942 344.552 52.3675 345.939 49.5075C347.412 46.5608 349.059 42.6608 350.879 37.8075C352.612 33.4742 353.956 30.1808 354.909 27.9275C355.949 25.6742 357.162 23.5942 358.549 21.6875V129.718ZM396.367 23.6375V45.7375H384.407V64.4575H396.367V86.5575H384.407V105.538H396.367V127.638H362.957V23.6375H396.367ZM420.969 23.6375C428.076 23.6375 433.406 24.5475 436.959 26.3675C440.599 28.1875 443.113 31.5242 444.499 36.3775C445.973 41.1442 446.709 48.3808 446.709 58.0875C446.709 67.8808 445.886 75.3342 444.239 80.4475C442.593 85.4742 439.949 88.9408 436.309 90.8475C432.669 92.6675 427.556 93.5775 420.969 93.5775V127.638H399.519V23.6375H420.969ZM424.609 46.7775C424.609 45.0442 423.743 44.1775 422.009 44.1775H420.969V72.7775H422.009C423.743 72.7775 424.609 71.9542 424.609 70.3075V46.7775ZM473.855 23.6375H495.305V127.638H473.855V95.9175C471.775 96.1775 469.608 96.3075 467.355 96.3075C460.508 96.3075 455.698 94.6175 452.925 91.2375C450.152 87.7708 448.765 82.0942 448.765 74.2075V23.6375H470.215V73.5575C470.215 74.1642 470.388 74.6408 470.735 74.9875C471.082 75.3342 471.515 75.5075 472.035 75.5075C472.555 75.5075 472.988 75.3342 473.335 74.9875C473.682 74.6408 473.855 74.1642 473.855 73.5575V23.6375ZM521.934 128.548C515.954 128.548 511.317 127.291 508.024 124.778C504.73 122.178 502.347 117.714 500.874 111.388C499.4 105.061 498.664 95.9608 498.664 84.0875V67.1875C498.664 55.3142 499.4 46.2142 500.874 39.8875C502.347 33.5608 504.73 29.1408 508.024 26.6275C511.317 24.0275 515.954 22.7275 521.934 22.7275H523.234C529.214 22.7275 533.85 24.0275 537.144 26.6275C540.437 29.1408 542.82 33.5608 544.294 39.8875C545.767 46.2142 546.504 55.3142 546.504 67.1875V84.0875C546.504 95.9608 545.767 105.061 544.294 111.388C542.82 117.714 540.437 122.178 537.144 124.778C533.85 127.291 529.214 128.548 523.234 128.548H521.934ZM522.584 107.748C523.104 107.748 523.537 107.574 523.884 107.228C524.23 106.881 524.404 106.448 524.404 105.928V45.3475C524.404 44.8275 524.23 44.3942 523.884 44.0475C523.537 43.7008 523.104 43.5275 522.584 43.5275C522.064 43.5275 521.63 43.7008 521.284 44.0475C520.937 44.3942 520.764 44.8275 520.764 45.3475V105.928C520.764 106.448 520.937 106.881 521.284 107.228C521.63 107.574 522.064 107.748 522.584 107.748ZM643.432 129.718C642.045 127.378 640.832 124.734 639.792 121.788C638.752 118.841 637.538 114.898 636.152 109.958C634.505 104.238 633.032 99.7308 631.732 96.4375C630.518 93.0575 628.872 90.2408 626.792 87.9875C624.798 85.6475 622.285 84.4775 619.252 84.4775C616.652 84.4775 614.355 85.3442 612.362 87.0775C610.368 88.7242 608.678 90.7608 607.292 93.1875C605.992 95.6142 604.518 98.7775 602.872 102.678C600.705 108.051 598.755 111.778 597.022 113.858C595.288 111.778 593.338 108.051 591.172 102.678C589.525 98.7775 588.008 95.6142 586.622 93.1875C585.322 90.7608 583.675 88.7242 581.682 87.0775C579.688 85.3442 577.392 84.4775 574.792 84.4775C571.758 84.4775 569.202 85.6475 567.122 87.9875C565.128 90.2408 563.482 93.0575 562.182 96.4375C560.968 99.7308 559.538 104.238 557.892 109.958C556.505 114.898 555.292 118.841 554.252 121.788C553.212 124.734 551.998 127.378 550.612 129.718V21.6875C551.998 23.5942 553.168 25.6742 554.122 27.9275C555.162 30.1808 556.548 33.4742 558.282 37.8075C560.102 42.6608 561.705 46.5608 563.092 49.5075C564.565 52.3675 566.342 54.7942 568.422 56.7875C570.502 58.6942 572.972 59.6475 575.832 59.6475C578.605 59.6475 580.945 58.7375 582.852 56.9175C584.758 55.0108 586.275 52.7575 587.402 50.1575C588.615 47.5575 590.002 44.0475 591.562 39.6275C592.775 36.1608 593.728 33.5175 594.422 31.6975C595.202 29.8775 596.068 28.2742 597.022 26.8875C597.975 28.2742 598.798 29.8775 599.492 31.6975C600.272 33.5175 601.268 36.1608 602.482 39.6275C604.042 44.0475 605.385 47.5575 606.512 50.1575C607.725 52.7575 609.285 55.0108 611.192 56.9175C613.098 58.7375 615.438 59.6475 618.212 59.6475C621.072 59.6475 623.542 58.6942 625.622 56.7875C627.702 54.7942 629.435 52.3675 630.822 49.5075C632.295 46.5608 633.942 42.6608 635.762 37.8075C637.495 33.4742 638.838 30.1808 639.792 27.9275C640.832 25.6742 642.045 23.5942 643.432 21.6875V129.718Z" fill="#0E0E0E"/>
</g>
<defs>
<clipPath id="clip0_646_12">
<rect width="379" height="109" fill="white" transform="translate(265 21)"/>
</clipPath>
</defs>
</svg>
