<svg width="910" height="135" viewBox="0 0 910 135" fill="none" xmlns="http://www.w3.org/2000/svg">
<g clip-path="url(#clip0_620_63)">
<path d="M358.549 121.718C357.162 119.378 355.949 116.734 354.909 113.788C353.869 110.841 352.656 106.898 351.269 101.958C349.622 96.2377 348.149 91.731 346.849 88.4377C345.636 85.0577 343.989 82.241 341.909 79.9877C339.916 77.6477 337.402 76.4777 334.369 76.4777C331.769 76.4777 329.472 77.3444 327.479 79.0777C325.486 80.7244 323.796 82.761 322.409 85.1877C321.109 87.6144 319.636 90.7777 317.989 94.6777C315.822 100.051 313.872 103.778 312.139 105.858C310.406 103.778 308.456 100.051 306.289 94.6777C304.642 90.7777 303.126 87.6144 301.739 85.1877C300.439 82.761 298.792 80.7244 296.799 79.0777C294.806 77.3444 292.509 76.4777 289.909 76.4777C286.876 76.4777 284.319 77.6477 282.239 79.9877C280.246 82.241 278.599 85.0577 277.299 88.4377C276.086 91.731 274.656 96.2377 273.009 101.958C271.622 106.898 270.409 110.841 269.369 113.788C268.329 116.734 267.116 119.378 265.729 121.718V13.6877C267.116 15.5944 268.286 17.6744 269.239 19.9277C270.279 22.181 271.666 25.4744 273.399 29.8077C275.219 34.661 276.822 38.561 278.209 41.5077C279.682 44.3677 281.459 46.7944 283.539 48.7877C285.619 50.6944 288.089 51.6477 290.949 51.6477C293.722 51.6477 296.062 50.7377 297.969 48.9177C299.876 47.011 301.392 44.7577 302.519 42.1577C303.732 39.5577 305.119 36.0477 306.679 31.6277C307.892 28.161 308.846 25.5177 309.539 23.6977C310.319 21.8777 311.186 20.2743 312.139 18.8877C313.092 20.2743 313.916 21.8777 314.609 23.6977C315.389 25.5177 316.386 28.161 317.599 31.6277C319.159 36.0477 320.502 39.5577 321.629 42.1577C322.842 44.7577 324.402 47.011 326.309 48.9177C328.216 50.7377 330.556 51.6477 333.329 51.6477C336.189 51.6477 338.659 50.6944 340.739 48.7877C342.819 46.7944 344.552 44.3677 345.939 41.5077C347.412 38.561 349.059 34.661 350.879 29.8077C352.612 25.4744 353.956 22.181 354.909 19.9277C355.949 17.6744 357.162 15.5944 358.549 13.6877V121.718ZM396.367 15.6377V37.7377H384.407V56.4577H396.367V78.5577H384.407V97.5377H396.367V119.638H362.957V15.6377H396.367ZM420.969 15.6377C428.076 15.6377 433.406 16.5477 436.959 18.3677C440.599 20.1877 443.113 23.5244 444.499 28.3777C445.973 33.1444 446.709 40.381 446.709 50.0877C446.709 59.881 445.886 67.3344 444.239 72.4477C442.593 77.4744 439.949 80.941 436.309 82.8477C432.669 84.6677 427.556 85.5777 420.969 85.5777V119.638H399.519V15.6377H420.969ZM424.609 38.7777C424.609 37.0444 423.743 36.1777 422.009 36.1777H420.969V64.7777H422.009C423.743 64.7777 424.609 63.9544 424.609 62.3077V38.7777ZM473.855 15.6377H495.305V119.638H473.855V87.9177C471.775 88.1777 469.608 88.3077 467.355 88.3077C460.508 88.3077 455.698 86.6177 452.925 83.2377C450.152 79.771 448.765 74.0944 448.765 66.2077V15.6377H470.215V65.5577C470.215 66.1644 470.388 66.641 470.735 66.9877C471.082 67.3344 471.515 67.5077 472.035 67.5077C472.555 67.5077 472.988 67.3344 473.335 66.9877C473.682 66.641 473.855 66.1644 473.855 65.5577V15.6377ZM521.934 120.548C515.954 120.548 511.317 119.291 508.024 116.778C504.73 114.178 502.347 109.714 500.874 103.388C499.4 97.061 498.664 87.961 498.664 76.0877V59.1877C498.664 47.3144 499.4 38.2144 500.874 31.8877C502.347 25.561 504.73 21.141 508.024 18.6277C511.317 16.0277 515.954 14.7277 521.934 14.7277H523.234C529.214 14.7277 533.85 16.0277 537.144 18.6277C540.437 21.141 542.82 25.561 544.294 31.8877C545.767 38.2144 546.504 47.3144 546.504 59.1877V76.0877C546.504 87.961 545.767 97.061 544.294 103.388C542.82 109.714 540.437 114.178 537.144 116.778C533.85 119.291 529.214 120.548 523.234 120.548H521.934ZM522.584 99.7477C523.104 99.7477 523.537 99.5744 523.884 99.2277C524.23 98.881 524.404 98.4477 524.404 97.9277V37.3477C524.404 36.8277 524.23 36.3944 523.884 36.0477C523.537 35.701 523.104 35.5277 522.584 35.5277C522.064 35.5277 521.63 35.701 521.284 36.0477C520.937 36.3944 520.764 36.8277 520.764 37.3477V97.9277C520.764 98.4477 520.937 98.881 521.284 99.2277C521.63 99.5744 522.064 99.7477 522.584 99.7477ZM643.432 121.718C642.045 119.378 640.832 116.734 639.792 113.788C638.752 110.841 637.538 106.898 636.152 101.958C634.505 96.2377 633.032 91.731 631.732 88.4377C630.518 85.0577 628.872 82.241 626.792 79.9877C624.798 77.6477 622.285 76.4777 619.252 76.4777C616.652 76.4777 614.355 77.3444 612.362 79.0777C610.368 80.7244 608.678 82.761 607.292 85.1877C605.992 87.6144 604.518 90.7777 602.872 94.6777C600.705 100.051 598.755 103.778 597.022 105.858C595.288 103.778 593.338 100.051 591.172 94.6777C589.525 90.7777 588.008 87.6144 586.622 85.1877C585.322 82.761 583.675 80.7244 581.682 79.0777C579.688 77.3444 577.392 76.4777 574.792 76.4777C571.758 76.4777 569.202 77.6477 567.122 79.9877C565.128 82.241 563.482 85.0577 562.182 88.4377C560.968 91.731 559.538 96.2377 557.892 101.958C556.505 106.898 555.292 110.841 554.252 113.788C553.212 116.734 551.998 119.378 550.612 121.718V13.6877C551.998 15.5944 553.168 17.6744 554.122 19.9277C555.162 22.181 556.548 25.4744 558.282 29.8077C560.102 34.661 561.705 38.561 563.092 41.5077C564.565 44.3677 566.342 46.7944 568.422 48.7877C570.502 50.6944 572.972 51.6477 575.832 51.6477C578.605 51.6477 580.945 50.7377 582.852 48.9177C584.758 47.011 586.275 44.7577 587.402 42.1577C588.615 39.5577 590.002 36.0477 591.562 31.6277C592.775 28.161 593.728 25.5177 594.422 23.6977C595.202 21.8777 596.068 20.2743 597.022 18.8877C597.975 20.2743 598.798 21.8777 599.492 23.6977C600.272 25.5177 601.268 28.161 602.482 31.6277C604.042 36.0477 605.385 39.5577 606.512 42.1577C607.725 44.7577 609.285 47.011 611.192 48.9177C613.098 50.7377 615.438 51.6477 618.212 51.6477C621.072 51.6477 623.542 50.6944 625.622 48.7877C627.702 46.7944 629.435 44.3677 630.822 41.5077C632.295 38.561 633.942 34.661 635.762 29.8077C637.495 25.4744 638.838 22.181 639.792 19.9277C640.832 17.6744 642.045 15.5944 643.432 13.6877V121.718Z" fill="#0E0E0E"/>
</g>
<defs>
<clipPath id="clip0_620_63">
<rect width="379" height="109" fill="white" transform="translate(265 13)"/>
</clipPath>
</defs>
</svg>
