<svg width="910" height="135" viewBox="0 0 910 135" fill="none" xmlns="http://www.w3.org/2000/svg">
<g clip-path="url(#clip0_620_57)">
<path d="M143.301 10.6377V114.638H121.851V32.7377H118.211V114.638H96.7615V10.6377H143.301ZM179.408 48.2077C177.155 48.0344 175.335 47.9477 173.948 47.9477C168.488 47.9477 165.758 49.6377 165.758 53.0177C165.758 54.751 166.321 55.9644 167.448 56.6577C168.575 57.2644 170.308 57.8277 172.648 58.3477C175.075 58.8677 177.025 59.4744 178.498 60.1677C179.971 60.861 181.228 62.0744 182.268 63.8077C183.395 65.4544 183.958 67.881 183.958 71.0877C183.958 75.0744 183.048 78.2377 181.228 80.5777C179.495 82.831 176.721 85.2577 172.908 87.8577C168.835 90.631 165.888 93.361 164.068 96.0477C162.248 98.6477 161.338 102.114 161.338 106.448L161.208 114.638H147.818L147.688 106.838C147.688 98.951 148.251 93.7077 149.378 91.1077C149.985 89.721 150.981 88.421 152.368 87.2077C153.755 85.9944 155.878 84.391 158.738 82.3977C162.118 80.0577 164.675 78.021 166.408 76.2877C168.141 74.5544 169.008 72.691 169.008 70.6977C169.008 68.8777 168.315 67.5777 166.928 66.7977C165.628 66.0177 163.591 65.2377 160.818 64.4577C158.478 63.7644 156.615 63.1577 155.228 62.6377C153.841 62.031 152.628 61.121 151.588 59.9077C150.635 58.6077 150.158 56.8744 150.158 54.7077C150.158 51.4144 151.285 48.5544 153.538 46.1277C155.791 43.701 158.565 41.881 161.858 40.6677C165.151 39.3677 168.358 38.7177 171.478 38.7177L154.318 18.0477C166.798 11.8077 178.801 8.68768 190.328 8.68768C197.695 8.68768 204.801 10.031 211.648 12.7177C218.495 15.3177 224.171 19.7377 228.678 25.9777C233.271 32.2177 235.568 40.4077 235.568 50.5477C235.568 60.601 233.488 68.661 229.328 74.7277C225.255 80.7944 220.185 85.951 214.118 90.1977L179.408 48.2077ZM215.678 69.6577C219.405 64.4577 221.268 58.0877 221.268 50.5477C221.268 40.7544 218.365 33.7344 212.558 29.4877C206.751 25.1544 199.341 22.9877 190.328 22.9877C186.255 22.9877 182.181 23.4644 178.108 24.4177L215.678 69.6577ZM262.975 115.548C256.995 115.548 252.358 114.291 249.065 111.778C245.771 109.178 243.388 104.714 241.915 98.3877C240.441 92.061 239.705 82.961 239.705 71.0877V54.1877C239.705 42.3144 240.441 33.2144 241.915 26.8877C243.388 20.561 245.771 16.141 249.065 13.6277C252.358 11.0277 256.995 9.72768 262.975 9.72768H264.275C270.255 9.72768 274.891 11.0277 278.185 13.6277C281.478 16.141 283.861 20.561 285.335 26.8877C286.808 33.2144 287.545 42.3144 287.545 54.1877V71.0877C287.545 82.961 286.808 92.061 285.335 98.3877C283.861 104.714 281.478 109.178 278.185 111.778C274.891 114.291 270.255 115.548 264.275 115.548H262.975ZM263.625 94.7477C264.145 94.7477 264.578 94.5744 264.925 94.2277C265.271 93.881 265.445 93.4477 265.445 92.9277V32.3477C265.445 31.8277 265.271 31.3944 264.925 31.0477C264.578 30.701 264.145 30.5277 263.625 30.5277C263.105 30.5277 262.671 30.701 262.325 31.0477C261.978 31.3944 261.805 31.8277 261.805 32.3477V92.9277C261.805 93.4477 261.978 93.881 262.325 94.2277C262.671 94.5744 263.105 94.7477 263.625 94.7477ZM344.448 93.1877H349.648V126.598H328.198V114.638H310.258V126.598H288.808V93.1877H292.318C294.745 89.5477 296.348 84.9977 297.128 79.5377C297.995 74.0777 298.428 67.4477 298.428 59.6477V10.6377H344.448V93.1877ZM322.998 93.1877V32.7377H319.358V63.0277C319.358 70.1344 319.055 76.0277 318.448 80.7077C317.841 85.3877 316.845 89.5477 315.458 93.1877H322.998ZM376.374 114.638H350.894L359.994 10.6377H396.394L405.494 114.638H380.014V82.9177H376.374V114.638ZM376.374 62.1177H380.014V33.2577C380.014 32.7377 379.841 32.3044 379.494 31.9577C379.147 31.611 378.714 31.4377 378.194 31.4377C377.674 31.4377 377.241 31.611 376.894 31.9577C376.547 32.3044 376.374 32.7377 376.374 33.2577V62.1177ZM407.924 114.638V10.6377H429.374V52.2377H430.544C432.19 52.2377 433.014 51.4144 433.014 49.7677V10.6377H460.964L451.214 62.7677L460.964 114.638H433.014V76.1577C433.014 74.511 432.19 73.6877 430.544 73.6877H429.374V114.638H407.924ZM513.582 93.1877V10.6377H535.032V114.638H463.402V10.6377H484.852V93.1877H488.492V10.6377H509.942V93.1877H513.582ZM543.105 89.0277C540.679 85.4744 539.465 81.3144 539.465 76.5477C539.465 67.1877 543.625 57.1777 551.945 46.5177C560.265 35.771 570.449 26.7577 582.495 19.4777C594.629 12.1977 605.809 8.55768 616.035 8.55768C622.622 8.55768 627.735 10.421 631.375 14.1477C635.102 17.8743 636.965 22.6844 636.965 28.5777C636.965 37.5044 632.805 47.3844 624.485 58.2177C616.165 68.9644 606.112 78.1077 594.325 85.6477C582.625 93.1877 572.139 96.9577 562.865 96.9577C561.565 96.9577 560.222 96.871 558.835 96.6977V102.678H635.145V114.638H543.105V89.0277ZM560.135 76.9377C567.502 76.9377 575.649 74.1644 584.575 68.6177C593.502 62.9844 601.129 56.3977 607.455 48.8577C613.869 41.3177 617.075 35.0344 617.075 30.0077C617.075 29.0544 617.032 28.5344 616.945 28.4477C616.859 28.2744 616.555 28.1877 616.035 28.1877C609.102 28.1877 601.085 31.0477 591.985 36.7677C582.972 42.401 575.215 49.1177 568.715 56.9177C562.215 64.631 558.965 71.3044 558.965 76.9377H560.135ZM662.84 114.638H641.39V10.6377H662.84V51.8477H666.48V10.6377H687.93V114.638H666.48V73.2977H662.84V114.638ZM714.547 115.548C708.567 115.548 703.93 114.291 700.637 111.778C697.343 109.178 694.96 104.714 693.487 98.3877C692.013 92.061 691.277 82.961 691.277 71.0877V54.1877C691.277 42.3144 692.013 33.2144 693.487 26.8877C694.96 20.561 697.343 16.141 700.637 13.6277C703.93 11.0277 708.567 9.72768 714.547 9.72768H715.847C721.827 9.72768 726.463 11.0277 729.757 13.6277C733.05 16.141 735.433 20.561 736.907 26.8877C738.38 33.2144 739.117 42.3144 739.117 54.1877V71.0877C739.117 82.961 738.38 92.061 736.907 98.3877C735.433 104.714 733.05 109.178 729.757 111.778C726.463 114.291 721.827 115.548 715.847 115.548H714.547ZM715.197 94.7477C715.717 94.7477 716.15 94.5744 716.497 94.2277C716.843 93.881 717.017 93.4477 717.017 92.9277V32.3477C717.017 31.8277 716.843 31.3944 716.497 31.0477C716.15 30.701 715.717 30.5277 715.197 30.5277C714.677 30.5277 714.243 30.701 713.897 31.0477C713.55 31.3944 713.377 31.8277 713.377 32.3477V92.9277C713.377 93.4477 713.55 93.881 713.897 94.2277C714.243 94.5744 714.677 94.7477 715.197 94.7477ZM742.445 114.638V10.6377H775.595V48.8577C775.595 49.3777 775.768 49.811 776.115 50.1577C776.462 50.5044 776.895 50.6777 777.415 50.6777C777.935 50.6777 778.368 50.5044 778.715 50.1577C779.062 49.811 779.235 49.3777 779.235 48.8577V10.6377H812.385V114.638H788.855L792.755 36.2477C792.755 35.7277 792.582 35.2944 792.235 34.9477C791.888 34.5144 791.455 34.2977 790.935 34.2977C790.415 34.2977 789.982 34.5144 789.635 34.9477C789.288 35.2944 789.115 35.7277 789.115 36.2477L785.215 114.638H769.615L765.715 36.2477C765.715 35.7277 765.542 35.2944 765.195 34.9477C764.848 34.5144 764.415 34.2977 763.895 34.2977C763.375 34.2977 762.942 34.5144 762.595 34.9477C762.248 35.2944 762.075 35.7277 762.075 36.2477L765.975 114.638H742.445Z" fill="#0E0E0E"/>
</g>
<defs>
<clipPath id="clip0_620_57">
<rect width="717" height="119" fill="white" transform="translate(96 8)"/>
</clipPath>
</defs>
</svg>
