<svg width="910" height="145" viewBox="0 0 910 145" fill="none" xmlns="http://www.w3.org/2000/svg">
<g clip-path="url(#clip0_646_21)">
<path d="M143.301 23.6376V127.638H121.851V45.7376H118.211V127.638H96.7615V23.6376H143.301ZM179.408 61.2076C177.155 61.0343 175.335 60.9476 173.948 60.9476C168.488 60.9476 165.758 62.6376 165.758 66.0176C165.758 67.7509 166.321 68.9643 167.448 69.6576C168.575 70.2643 170.308 70.8276 172.648 71.3476C175.075 71.8676 177.025 72.4743 178.498 73.1676C179.971 73.8609 181.228 75.0743 182.268 76.8076C183.395 78.4543 183.958 80.8809 183.958 84.0876C183.958 88.0743 183.048 91.2376 181.228 93.5776C179.495 95.8309 176.721 98.2576 172.908 100.858C168.835 103.631 165.888 106.361 164.068 109.048C162.248 111.648 161.338 115.114 161.338 119.448L161.208 127.638H147.818L147.688 119.838C147.688 111.951 148.251 106.708 149.378 104.108C149.985 102.721 150.981 101.421 152.368 100.208C153.755 98.9943 155.878 97.3909 158.738 95.3976C162.118 93.0576 164.675 91.0209 166.408 89.2876C168.141 87.5543 169.008 85.6909 169.008 83.6976C169.008 81.8776 168.315 80.5776 166.928 79.7976C165.628 79.0176 163.591 78.2376 160.818 77.4576C158.478 76.7643 156.615 76.1576 155.228 75.6376C153.841 75.0309 152.628 74.1209 151.588 72.9076C150.635 71.6076 150.158 69.8743 150.158 67.7076C150.158 64.4143 151.285 61.5543 153.538 59.1276C155.791 56.7009 158.565 54.8809 161.858 53.6676C165.151 52.3676 168.358 51.7176 171.478 51.7176L154.318 31.0476C166.798 24.8076 178.801 21.6876 190.328 21.6876C197.695 21.6876 204.801 23.0309 211.648 25.7176C218.495 28.3176 224.171 32.7376 228.678 38.9776C233.271 45.2176 235.568 53.4076 235.568 63.5476C235.568 73.6009 233.488 81.6609 229.328 87.7276C225.255 93.7943 220.185 98.9509 214.118 103.198L179.408 61.2076ZM215.678 82.6576C219.405 77.4576 221.268 71.0876 221.268 63.5476C221.268 53.7543 218.365 46.7343 212.558 42.4876C206.751 38.1543 199.341 35.9876 190.328 35.9876C186.255 35.9876 182.181 36.4643 178.108 37.4176L215.678 82.6576ZM262.975 128.548C256.995 128.548 252.358 127.291 249.065 124.778C245.771 122.178 243.388 117.714 241.915 111.388C240.441 105.061 239.705 95.9609 239.705 84.0876V67.1876C239.705 55.3143 240.441 46.2143 241.915 39.8876C243.388 33.5609 245.771 29.141 249.065 26.6276C252.358 24.0276 256.995 22.7276 262.975 22.7276H264.275C270.255 22.7276 274.891 24.0276 278.185 26.6276C281.478 29.141 283.861 33.5609 285.335 39.8876C286.808 46.2143 287.545 55.3143 287.545 67.1876V84.0876C287.545 95.9609 286.808 105.061 285.335 111.388C283.861 117.714 281.478 122.178 278.185 124.778C274.891 127.291 270.255 128.548 264.275 128.548H262.975ZM263.625 107.748C264.145 107.748 264.578 107.574 264.925 107.228C265.271 106.881 265.445 106.448 265.445 105.928V45.3476C265.445 44.8276 265.271 44.3943 264.925 44.0476C264.578 43.7009 264.145 43.5276 263.625 43.5276C263.105 43.5276 262.671 43.7009 262.325 44.0476C261.978 44.3943 261.805 44.8276 261.805 45.3476V105.928C261.805 106.448 261.978 106.881 262.325 107.228C262.671 107.574 263.105 107.748 263.625 107.748ZM344.448 106.188H349.648V139.598H328.198V127.638H310.258V139.598H288.808V106.188H292.318C294.745 102.548 296.348 97.9976 297.128 92.5376C297.995 87.0776 298.428 80.4476 298.428 72.6476V23.6376H344.448V106.188ZM322.998 106.188V45.7376H319.358V76.0276C319.358 83.1343 319.055 89.0276 318.448 93.7076C317.841 98.3876 316.845 102.548 315.458 106.188H322.998ZM376.374 127.638H350.894L359.994 23.6376H396.394L405.494 127.638H380.014V95.9176H376.374V127.638ZM376.374 75.1176H380.014V46.2576C380.014 45.7376 379.841 45.3043 379.494 44.9576C379.147 44.6109 378.714 44.4376 378.194 44.4376C377.674 44.4376 377.241 44.6109 376.894 44.9576C376.547 45.3043 376.374 45.7376 376.374 46.2576V75.1176ZM407.924 127.638V23.6376H429.374V65.2376H430.544C432.19 65.2376 433.014 64.4143 433.014 62.7676V23.6376H460.964L451.214 75.7676L460.964 127.638H433.014V89.1576C433.014 87.5109 432.19 86.6876 430.544 86.6876H429.374V127.638H407.924ZM513.582 106.188V23.6376H535.032V127.638H463.402V23.6376H484.852V106.188H488.492V23.6376H509.942V106.188H513.582ZM543.105 102.028C540.679 98.4743 539.465 94.3143 539.465 89.5476C539.465 80.1876 543.625 70.1776 551.945 59.5176C560.265 48.7709 570.449 39.7576 582.495 32.4776C594.629 25.1976 605.809 21.5576 616.035 21.5576C622.622 21.5576 627.735 23.4209 631.375 27.1476C635.102 30.8743 636.965 35.6843 636.965 41.5776C636.965 50.5043 632.805 60.3843 624.485 71.2176C616.165 81.9643 606.112 91.1076 594.325 98.6476C582.625 106.188 572.139 109.958 562.865 109.958C561.565 109.958 560.222 109.871 558.835 109.698V115.678H635.145V127.638H543.105V102.028ZM560.135 89.9376C567.502 89.9376 575.649 87.1643 584.575 81.6176C593.502 75.9843 601.129 69.3976 607.455 61.8576C613.869 54.3176 617.075 48.0343 617.075 43.0076C617.075 42.0543 617.032 41.5343 616.945 41.4476C616.859 41.2743 616.555 41.1876 616.035 41.1876C609.102 41.1876 601.085 44.0476 591.985 49.7676C582.972 55.4009 575.215 62.1176 568.715 69.9176C562.215 77.6309 558.965 84.3043 558.965 89.9376H560.135ZM662.84 127.638H641.39V23.6376H662.84V64.8476H666.48V23.6376H687.93V127.638H666.48V86.2976H662.84V127.638ZM714.547 128.548C708.567 128.548 703.93 127.291 700.637 124.778C697.343 122.178 694.96 117.714 693.487 111.388C692.013 105.061 691.277 95.9609 691.277 84.0876V67.1876C691.277 55.3143 692.013 46.2143 693.487 39.8876C694.96 33.5609 697.343 29.141 700.637 26.6276C703.93 24.0276 708.567 22.7276 714.547 22.7276H715.847C721.827 22.7276 726.463 24.0276 729.757 26.6276C733.05 29.141 735.433 33.5609 736.907 39.8876C738.38 46.2143 739.117 55.3143 739.117 67.1876V84.0876C739.117 95.9609 738.38 105.061 736.907 111.388C735.433 117.714 733.05 122.178 729.757 124.778C726.463 127.291 721.827 128.548 715.847 128.548H714.547ZM715.197 107.748C715.717 107.748 716.15 107.574 716.497 107.228C716.843 106.881 717.017 106.448 717.017 105.928V45.3476C717.017 44.8276 716.843 44.3943 716.497 44.0476C716.15 43.7009 715.717 43.5276 715.197 43.5276C714.677 43.5276 714.243 43.7009 713.897 44.0476C713.55 44.3943 713.377 44.8276 713.377 45.3476V105.928C713.377 106.448 713.55 106.881 713.897 107.228C714.243 107.574 714.677 107.748 715.197 107.748ZM742.445 127.638V23.6376H775.595V61.8576C775.595 62.3776 775.768 62.8109 776.115 63.1576C776.462 63.5043 776.895 63.6776 777.415 63.6776C777.935 63.6776 778.368 63.5043 778.715 63.1576C779.062 62.8109 779.235 62.3776 779.235 61.8576V23.6376H812.385V127.638H788.855L792.755 49.2476C792.755 48.7276 792.582 48.2943 792.235 47.9476C791.888 47.5143 791.455 47.2976 790.935 47.2976C790.415 47.2976 789.982 47.5143 789.635 47.9476C789.288 48.2943 789.115 48.7276 789.115 49.2476L785.215 127.638H769.615L765.715 49.2476C765.715 48.7276 765.542 48.2943 765.195 47.9476C764.848 47.5143 764.415 47.2976 763.895 47.2976C763.375 47.2976 762.942 47.5143 762.595 47.9476C762.248 48.2943 762.075 48.7276 762.075 49.2476L765.975 127.638H742.445Z" fill="#0E0E0E"/>
</g>
<defs>
<clipPath id="clip0_646_21">
<rect width="717" height="119" fill="white" transform="translate(96 21)"/>
</clipPath>
</defs>
</svg>
