<svg width="387" height="114" viewBox="0 0 387 114" fill="none" xmlns="http://www.w3.org/2000/svg">
<mask id="path-1-outside-1_622_251" maskUnits="userSpaceOnUse" x="0" y="0" width="387" height="114" fill="black">
<rect fill="white" width="387" height="114"/>
<path d="M44.8579 60.4023C48.9185 64.1173 50.9488 70.4674 50.9488 79.4526V109H29.5659V73.8801C29.5659 72.1522 28.7019 71.2882 26.974 71.2882H25.9372V109H4.55424V5.32494H25.9372C32.5897 5.32494 37.7303 6.27529 41.3589 8.176C44.9875 10.0767 47.5794 13.3166 49.1345 17.8955C50.776 22.3881 51.5968 28.8678 51.5968 37.3346C51.5968 48.3069 49.3505 55.9961 44.8579 60.4023ZM29.5659 28.3926C29.5659 27.4423 29.4363 26.7943 29.1771 26.4487C28.9179 26.0168 28.3563 25.8008 27.4924 25.8008H25.9372V52.4971H27.4924C28.8747 52.4971 29.5659 51.8059 29.5659 50.4236V28.3926ZM87.7231 5.32494V27.3559H75.8005V46.0174H87.7231V68.0483H75.8005V86.969H87.7231V109H54.4175V5.32494H87.7231ZM115.1 109H89.6994L98.771 5.32494H135.057L144.129 109H118.728V77.3791H115.1V109ZM115.1 56.6441H118.728V27.8743C118.728 27.3559 118.556 26.9239 118.21 26.5783C117.864 26.2327 117.433 26.0599 116.914 26.0599C116.396 26.0599 115.964 26.2327 115.618 26.5783C115.273 26.9239 115.1 27.3559 115.1 27.8743V56.6441ZM146.551 109V5.32494H167.934C174.672 5.32494 179.856 6.62087 183.485 9.21275C187.113 11.7182 189.705 16.0812 191.26 22.3017C192.816 28.4358 193.593 37.2482 193.593 48.7389V65.5861C193.593 77.1631 192.816 86.0619 191.26 92.2824C189.705 98.4165 187.113 102.736 183.485 105.242C179.856 107.747 174.672 109 167.934 109H146.551ZM168.97 88.265C170.698 88.265 171.562 87.401 171.562 85.6731V28.6518C171.562 26.9239 170.698 26.0599 168.97 26.0599H167.934V88.265H168.97ZM200.35 109V86.969H218.753C219.271 86.969 219.703 86.7963 220.049 86.4507C220.394 86.1051 220.567 85.6731 220.567 85.1547C220.567 84.6364 220.394 84.2044 220.049 83.8588C219.703 83.5132 219.271 83.3404 218.753 83.3404H200.35L193.223 5.32494H218.623V62.6054C218.623 63.1238 218.796 63.5558 219.141 63.9013C219.487 64.2469 219.919 64.4197 220.437 64.4197C220.956 64.4197 221.388 64.2469 221.733 63.9013C222.079 63.5558 222.252 63.1238 222.252 62.6054V5.32494H247.652L238.58 109H200.35ZM309.652 49.1277H288.009V26.9671C288.009 26.4487 287.837 26.0167 287.491 25.6712C287.145 25.3256 286.713 25.1528 286.195 25.1528C285.677 25.1528 285.245 25.3256 284.899 25.6712C284.554 26.0167 284.381 26.4487 284.381 26.9671V52.2379H309.652V109H290.601L288.528 97.8549C287.75 102.175 286.411 105.285 284.51 107.186C282.61 109 280.147 109.907 277.123 109.907C273.927 109.907 271.205 108.654 268.959 106.149C266.799 103.643 265.114 99.1509 263.905 92.6712C262.695 86.1915 262.091 77.1631 262.091 65.5861V48.7389C262.091 36.9026 262.825 27.8311 264.294 21.5242C265.762 15.2173 268.181 10.8111 271.551 8.3056C274.92 5.71372 279.672 4.41778 285.806 4.41778H287.102C293.064 4.41778 297.642 5.62732 300.839 8.0464C304.036 10.4655 306.282 14.5693 307.578 20.3578C308.96 26.1463 309.652 34.4835 309.652 45.3694V49.1277ZM288.009 68.5667H284.381V86.969C284.381 87.4874 284.554 87.9194 284.899 88.265C285.245 88.6106 285.677 88.7834 286.195 88.7834C286.713 88.7834 287.145 88.6106 287.491 88.265C287.837 87.9194 288.009 87.4874 288.009 86.969V68.5667ZM335.911 109.907C329.949 109.907 325.327 108.654 322.044 106.149C318.761 103.557 316.385 99.1077 314.916 92.8008C313.448 86.4939 312.713 77.4223 312.713 65.5861V48.7389C312.713 36.9026 313.448 27.8311 314.916 21.5242C316.385 15.2173 318.761 10.8111 322.044 8.3056C325.327 5.71372 329.949 4.41778 335.911 4.41778H337.206C343.168 4.41778 347.79 5.71372 351.073 8.3056C354.356 10.8111 356.732 15.2173 358.201 21.5242C359.669 27.8311 360.404 36.9026 360.404 48.7389V65.5861C360.404 77.4223 359.669 86.4939 358.201 92.8008C356.732 99.1077 354.356 103.557 351.073 106.149C347.79 108.654 343.168 109.907 337.206 109.907H335.911ZM336.558 89.1721C337.077 89.1721 337.509 88.9994 337.854 88.6538C338.2 88.3082 338.373 87.8762 338.373 87.3578V26.9671C338.373 26.4487 338.2 26.0167 337.854 25.6712C337.509 25.3256 337.077 25.1528 336.558 25.1528C336.04 25.1528 335.608 25.3256 335.263 25.6712C334.917 26.0167 334.744 26.4487 334.744 26.9671V87.3578C334.744 87.8762 334.917 88.3082 335.263 88.6538C335.608 88.9994 336.04 89.1721 336.558 89.1721ZM382.673 109H361.938V87.617H382.673V109Z"/>
</mask>
<path d="M44.8579 60.4023C48.9185 64.1173 50.9488 70.4674 50.9488 79.4526V109H29.5659V73.8801C29.5659 72.1522 28.7019 71.2882 26.974 71.2882H25.9372V109H4.55424V5.32494H25.9372C32.5897 5.32494 37.7303 6.27529 41.3589 8.176C44.9875 10.0767 47.5794 13.3166 49.1345 17.8955C50.776 22.3881 51.5968 28.8678 51.5968 37.3346C51.5968 48.3069 49.3505 55.9961 44.8579 60.4023ZM29.5659 28.3926C29.5659 27.4423 29.4363 26.7943 29.1771 26.4487C28.9179 26.0168 28.3563 25.8008 27.4924 25.8008H25.9372V52.4971H27.4924C28.8747 52.4971 29.5659 51.8059 29.5659 50.4236V28.3926ZM87.7231 5.32494V27.3559H75.8005V46.0174H87.7231V68.0483H75.8005V86.969H87.7231V109H54.4175V5.32494H87.7231ZM115.1 109H89.6994L98.771 5.32494H135.057L144.129 109H118.728V77.3791H115.1V109ZM115.1 56.6441H118.728V27.8743C118.728 27.3559 118.556 26.9239 118.21 26.5783C117.864 26.2327 117.433 26.0599 116.914 26.0599C116.396 26.0599 115.964 26.2327 115.618 26.5783C115.273 26.9239 115.1 27.3559 115.1 27.8743V56.6441ZM146.551 109V5.32494H167.934C174.672 5.32494 179.856 6.62087 183.485 9.21275C187.113 11.7182 189.705 16.0812 191.26 22.3017C192.816 28.4358 193.593 37.2482 193.593 48.7389V65.5861C193.593 77.1631 192.816 86.0619 191.26 92.2824C189.705 98.4165 187.113 102.736 183.485 105.242C179.856 107.747 174.672 109 167.934 109H146.551ZM168.97 88.265C170.698 88.265 171.562 87.401 171.562 85.6731V28.6518C171.562 26.9239 170.698 26.0599 168.97 26.0599H167.934V88.265H168.97ZM200.35 109V86.969H218.753C219.271 86.969 219.703 86.7963 220.049 86.4507C220.394 86.1051 220.567 85.6731 220.567 85.1547C220.567 84.6364 220.394 84.2044 220.049 83.8588C219.703 83.5132 219.271 83.3404 218.753 83.3404H200.35L193.223 5.32494H218.623V62.6054C218.623 63.1238 218.796 63.5558 219.141 63.9013C219.487 64.2469 219.919 64.4197 220.437 64.4197C220.956 64.4197 221.388 64.2469 221.733 63.9013C222.079 63.5558 222.252 63.1238 222.252 62.6054V5.32494H247.652L238.58 109H200.35ZM309.652 49.1277H288.009V26.9671C288.009 26.4487 287.837 26.0167 287.491 25.6712C287.145 25.3256 286.713 25.1528 286.195 25.1528C285.677 25.1528 285.245 25.3256 284.899 25.6712C284.554 26.0167 284.381 26.4487 284.381 26.9671V52.2379H309.652V109H290.601L288.528 97.8549C287.75 102.175 286.411 105.285 284.51 107.186C282.61 109 280.147 109.907 277.123 109.907C273.927 109.907 271.205 108.654 268.959 106.149C266.799 103.643 265.114 99.1509 263.905 92.6712C262.695 86.1915 262.091 77.1631 262.091 65.5861V48.7389C262.091 36.9026 262.825 27.8311 264.294 21.5242C265.762 15.2173 268.181 10.8111 271.551 8.3056C274.92 5.71372 279.672 4.41778 285.806 4.41778H287.102C293.064 4.41778 297.642 5.62732 300.839 8.0464C304.036 10.4655 306.282 14.5693 307.578 20.3578C308.96 26.1463 309.652 34.4835 309.652 45.3694V49.1277ZM288.009 68.5667H284.381V86.969C284.381 87.4874 284.554 87.9194 284.899 88.265C285.245 88.6106 285.677 88.7834 286.195 88.7834C286.713 88.7834 287.145 88.6106 287.491 88.265C287.837 87.9194 288.009 87.4874 288.009 86.969V68.5667ZM335.911 109.907C329.949 109.907 325.327 108.654 322.044 106.149C318.761 103.557 316.385 99.1077 314.916 92.8008C313.448 86.4939 312.713 77.4223 312.713 65.5861V48.7389C312.713 36.9026 313.448 27.8311 314.916 21.5242C316.385 15.2173 318.761 10.8111 322.044 8.3056C325.327 5.71372 329.949 4.41778 335.911 4.41778H337.206C343.168 4.41778 347.79 5.71372 351.073 8.3056C354.356 10.8111 356.732 15.2173 358.201 21.5242C359.669 27.8311 360.404 36.9026 360.404 48.7389V65.5861C360.404 77.4223 359.669 86.4939 358.201 92.8008C356.732 99.1077 354.356 103.557 351.073 106.149C347.79 108.654 343.168 109.907 337.206 109.907H335.911ZM336.558 89.1721C337.077 89.1721 337.509 88.9994 337.854 88.6538C338.2 88.3082 338.373 87.8762 338.373 87.3578V26.9671C338.373 26.4487 338.2 26.0167 337.854 25.6712C337.509 25.3256 337.077 25.1528 336.558 25.1528C336.04 25.1528 335.608 25.3256 335.263 25.6712C334.917 26.0167 334.744 26.4487 334.744 26.9671V87.3578C334.744 87.8762 334.917 88.3082 335.263 88.6538C335.608 88.9994 336.04 89.1721 336.558 89.1721ZM382.673 109H361.938V87.617H382.673V109Z" fill="#FFFDFB"/>
<path d="M44.8579 60.4023L42.0571 57.5466L39.0424 60.5032L42.1579 63.3535L44.8579 60.4023ZM50.9488 109V113H54.9488V109H50.9488ZM29.5659 109H25.5659V113H29.5659V109ZM25.9372 71.2882V67.2882H21.9372V71.2882H25.9372ZM25.9372 109V113H29.9372V109H25.9372ZM4.55423 109H0.55423V113H4.55423V109ZM4.55423 5.32494V1.32494H0.55423V5.32494H4.55423ZM41.3589 8.176L43.2149 4.63267V4.63267L41.3589 8.176ZM49.1345 17.8955L45.347 19.1819L45.3617 19.2253L45.3775 19.2683L49.1345 17.8955ZM29.1771 26.4487L25.7471 28.5067L25.8533 28.6837L25.9771 28.8487L29.1771 26.4487ZM25.9372 25.8008V21.8008H21.9372V25.8008H25.9372ZM25.9372 52.4971H21.9372V56.4971H25.9372V52.4971ZM44.8579 60.4023L42.1579 63.3535C44.9919 65.9464 46.9488 70.9031 46.9488 79.4526H50.9488H54.9488C54.9488 70.0318 52.8452 62.2883 47.558 57.4511L44.8579 60.4023ZM50.9488 79.4526H46.9488V109H50.9488H54.9488V79.4526H50.9488ZM50.9488 109V105H29.5659V109V113H50.9488V109ZM29.5659 109H33.5659V73.8801H29.5659H25.5659V109H29.5659ZM29.5659 73.8801H33.5659C33.5659 72.3995 33.193 70.5544 31.7463 69.1077C30.2996 67.661 28.4545 67.2882 26.974 67.2882V71.2882V75.2882C27.2213 75.2882 26.6722 75.3473 26.0894 74.7646C25.5067 74.1819 25.5659 73.6327 25.5659 73.8801H29.5659ZM26.974 71.2882V67.2882H25.9372V71.2882V75.2882H26.974V71.2882ZM25.9372 71.2882H21.9372V109H25.9372H29.9372V71.2882H25.9372ZM25.9372 109V105H4.55423V109V113H25.9372V109ZM4.55423 109H8.55423V5.32494H4.55423H0.55423V109H4.55423ZM4.55423 5.32494V9.32494H25.9372V5.32494V1.32494H4.55423V5.32494ZM25.9372 5.32494V9.32494C32.3022 9.32494 36.6974 10.2498 39.5029 11.7193L41.3589 8.176L43.2149 4.63267C38.7632 2.30081 32.8773 1.32494 25.9372 1.32494V5.32494ZM41.3589 8.176L39.5029 11.7193C42.0604 13.059 44.0584 15.3878 45.347 19.1819L49.1345 17.8955L52.9221 16.6092C51.1003 11.2453 47.9146 7.09444 43.2149 4.63267L41.3589 8.176ZM49.1345 17.8955L45.3775 19.2683C46.7796 23.1058 47.5968 29.033 47.5968 37.3346H51.5968H55.5968C55.5968 28.7027 54.7725 21.6705 52.8916 16.5228L49.1345 17.8955ZM51.5968 37.3346H47.5968C47.5968 47.9751 45.3788 54.2888 42.0571 57.5466L44.8579 60.4023L47.6588 63.2581C53.3223 57.7035 55.5968 48.6387 55.5968 37.3346H51.5968ZM29.5659 28.3926H33.5659C33.5659 27.758 33.5244 27.0768 33.391 26.4094C33.2653 25.7808 33.0044 24.8852 32.3771 24.0487L29.1771 26.4487L25.9771 28.8487C25.7814 28.5878 25.6757 28.359 25.6222 28.2222C25.5681 28.0839 25.5495 27.9942 25.5463 27.9784C25.5424 27.9589 25.5659 28.0769 25.5659 28.3926H29.5659ZM29.1771 26.4487L32.607 24.3907C31.2208 22.0804 28.7392 21.8008 27.4923 21.8008V25.8008V29.8008C27.6296 29.8008 27.4561 29.8233 27.1256 29.6961C26.741 29.5482 26.1612 29.1969 25.7471 28.5067L29.1771 26.4487ZM27.4923 25.8008V21.8008H25.9372V25.8008V29.8008H27.4923V25.8008ZM25.9372 25.8008H21.9372V52.4971H25.9372H29.9372V25.8008H25.9372ZM25.9372 52.4971V56.4971H27.4923V52.4971V48.4971H25.9372V52.4971ZM27.4923 52.4971V56.4971C28.8001 56.4971 30.5156 56.1674 31.8759 54.8071C33.2362 53.4468 33.5659 51.7313 33.5659 50.4236H29.5659H25.5659C25.5659 50.4982 25.5499 49.8194 26.2191 49.1503C26.8882 48.4812 27.5669 48.4971 27.4923 48.4971V52.4971ZM29.5659 50.4236H33.5659V28.3926H29.5659H25.5659V50.4236H29.5659ZM87.7231 5.32494H91.7231V1.32494H87.7231V5.32494ZM87.7231 27.3559V31.3559H91.7231V27.3559H87.7231ZM75.8005 27.3559V23.3559H71.8005V27.3559H75.8005ZM75.8005 46.0174H71.8005V50.0174H75.8005V46.0174ZM87.7231 46.0174H91.7231V42.0174H87.7231V46.0174ZM87.7231 68.0483V72.0483H91.7231V68.0483H87.7231ZM75.8005 68.0483V64.0483H71.8005V68.0483H75.8005ZM75.8005 86.969H71.8005V90.969H75.8005V86.969ZM87.7231 86.969H91.7231V82.969H87.7231V86.969ZM87.7231 109V113H91.7231V109H87.7231ZM54.4175 109H50.4175V113H54.4175V109ZM54.4175 5.32494V1.32494H50.4175V5.32494H54.4175ZM87.7231 5.32494H83.7231V27.3559H87.7231H91.7231V5.32494H87.7231ZM87.7231 27.3559V23.3559H75.8005V27.3559V31.3559H87.7231V27.3559ZM75.8005 27.3559H71.8005V46.0174H75.8005H79.8005V27.3559H75.8005ZM75.8005 46.0174V50.0174H87.7231V46.0174V42.0174H75.8005V46.0174ZM87.7231 46.0174H83.7231V68.0483H87.7231H91.7231V46.0174H87.7231ZM87.7231 68.0483V64.0483H75.8005V68.0483V72.0483H87.7231V68.0483ZM75.8005 68.0483H71.8005V86.969H75.8005H79.8005V68.0483H75.8005ZM75.8005 86.969V90.969H87.7231V86.969V82.969H75.8005V86.969ZM87.7231 86.969H83.7231V109H87.7231H91.7231V86.969H87.7231ZM87.7231 109V105H54.4175V109V113H87.7231V109ZM54.4175 109H58.4175V5.32494H54.4175H50.4175V109H54.4175ZM54.4175 5.32494V9.32494H87.7231V5.32494V1.32494H54.4175V5.32494ZM115.1 109V113H119.1V109H115.1ZM89.6994 109L85.7147 108.651L85.3341 113H89.6994V109ZM98.771 5.32494V1.32494H95.1057L94.7862 4.97627L98.771 5.32494ZM135.057 5.32494L139.042 4.97627L138.723 1.32494H135.057V5.32494ZM144.129 109V113H148.494L148.114 108.651L144.129 109ZM118.728 109H114.728V113H118.728V109ZM118.728 77.3791H122.728V73.3791H118.728V77.3791ZM115.1 77.3791V73.3791H111.1V77.3791H115.1ZM115.1 56.6441H111.1V60.6441H115.1V56.6441ZM118.728 56.6441V60.6441H122.728V56.6441H118.728ZM118.21 26.5783L115.382 29.4067L115.382 29.4067L118.21 26.5783ZM115.618 26.5783L118.447 29.4067V29.4067L115.618 26.5783ZM115.1 109V105H89.6994V109V113H115.1V109ZM89.6994 109L93.6842 109.349L102.756 5.67361L98.771 5.32494L94.7862 4.97627L85.7147 108.651L89.6994 109ZM98.771 5.32494V9.32494H135.057V5.32494V1.32494H98.771V5.32494ZM135.057 5.32494L131.072 5.67361L140.144 109.349L144.129 109L148.114 108.651L139.042 4.97627L135.057 5.32494ZM144.129 109V105H118.728V109V113H144.129V109ZM118.728 109H122.728V77.3791H118.728H114.728V109H118.728ZM118.728 77.3791V73.3791H115.1V77.3791V81.3791H118.728V77.3791ZM115.1 77.3791H111.1V109H115.1H119.1V77.3791H115.1ZM115.1 56.6441V60.6441H118.728V56.6441V52.6441H115.1V56.6441ZM118.728 56.6441H122.728V27.8743H118.728H114.728V56.6441H118.728ZM118.728 27.8743H122.728C122.728 26.3664 122.183 24.8947 121.038 23.7499L118.21 26.5783L115.382 29.4067C115.191 29.2162 115.01 28.9592 114.885 28.6471C114.762 28.3395 114.728 28.0659 114.728 27.8743H118.728ZM118.21 26.5783L121.038 23.7499C119.894 22.6051 118.422 22.0599 116.914 22.0599V26.0599V30.0599C116.722 30.0599 116.449 30.0265 116.141 29.9034C115.829 29.7786 115.572 29.5973 115.382 29.4067L118.21 26.5783ZM116.914 26.0599V22.0599C115.406 22.0599 113.935 22.6051 112.79 23.7499L115.618 26.5783L118.447 29.4067C118.256 29.5973 117.999 29.7786 117.687 29.9034C117.379 30.0265 117.106 30.0599 116.914 30.0599V26.0599ZM115.618 26.5783L112.79 23.7499C111.645 24.8947 111.1 26.3664 111.1 27.8743H115.1H119.1C119.1 28.0659 119.066 28.3395 118.943 28.6471C118.818 28.9592 118.637 29.2162 118.447 29.4067L115.618 26.5783ZM115.1 27.8743H111.1V56.6441H115.1H119.1V27.8743H115.1ZM146.551 109H142.551V113H146.551V109ZM146.551 5.32494V1.32494H142.551V5.32494H146.551ZM183.485 9.21275L181.16 12.4677L181.186 12.4862L181.212 12.5043L183.485 9.21275ZM191.26 22.3017L187.38 23.2719L187.383 23.2847L191.26 22.3017ZM191.26 92.2824L195.138 93.2654L195.141 93.2525L191.26 92.2824ZM183.485 105.242L185.758 108.533L183.485 105.242ZM167.934 26.0599V22.0599H163.934V26.0599H167.934ZM167.934 88.265H163.934V92.265H167.934V88.265ZM146.551 109H150.551V5.32494H146.551H142.551V109H146.551ZM146.551 5.32494V9.32494H167.934V5.32494V1.32494H146.551V5.32494ZM167.934 5.32494V9.32494C174.24 9.32494 178.476 10.5507 181.16 12.4677L183.485 9.21275L185.81 5.95781C181.236 2.691 175.104 1.32494 167.934 1.32494V5.32494ZM183.485 9.21275L181.212 12.5043C183.744 14.2525 185.956 17.5742 187.38 23.2719L191.26 22.3017L195.141 21.3316C193.455 14.5882 190.483 9.18396 185.758 5.92116L183.485 9.21275ZM191.26 22.3017L187.383 23.2847C188.816 28.9365 189.593 37.3574 189.593 48.7389H193.593H197.593C197.593 37.139 196.815 27.9351 195.138 21.3187L191.26 22.3017ZM193.593 48.7389H189.593V65.5861H193.593H197.593V48.7389H193.593ZM193.593 65.5861H189.593C189.593 77.0531 188.816 85.5668 187.38 91.3123L191.26 92.2824L195.141 93.2525C196.815 86.557 197.593 77.2731 197.593 65.5861H193.593ZM191.26 92.2824L187.383 91.2994C185.964 96.8977 183.758 100.192 181.212 101.95L183.485 105.242L185.758 108.533C190.469 105.281 193.447 99.9353 195.138 93.2654L191.26 92.2824ZM183.485 105.242L181.212 101.95C178.519 103.81 174.261 105 167.934 105V109V113C175.083 113 181.193 111.685 185.758 108.533L183.485 105.242ZM167.934 109V105H146.551V109V113H167.934V109ZM168.97 88.265V92.265C170.451 92.265 172.296 91.8921 173.743 90.4454C175.189 88.9987 175.562 87.1536 175.562 85.6731H171.562H167.562C167.562 85.9205 167.503 85.3713 168.086 84.7886C168.669 84.2058 169.218 84.265 168.97 84.265V88.265ZM171.562 85.6731H175.562V28.6518H171.562H167.562V85.6731H171.562ZM171.562 28.6518H175.562C175.562 27.1713 175.189 25.3262 173.743 23.8795C172.296 22.4328 170.451 22.0599 168.97 22.0599V26.0599V30.0599C169.218 30.0599 168.669 30.1191 168.086 29.5363C167.503 28.9536 167.562 28.4044 167.562 28.6518H171.562ZM168.97 26.0599V22.0599H167.934V26.0599V30.0599H168.97V26.0599ZM167.934 26.0599H163.934V88.265H167.934H171.934V26.0599H167.934ZM167.934 88.265V92.265H168.97V88.265V84.265H167.934V88.265ZM200.35 109H196.35V113H200.35V109ZM200.35 86.969V82.969H196.35V86.969H200.35ZM200.35 83.3404L196.367 83.7044L196.699 87.3404H200.35V83.3404ZM193.223 5.32494V1.32494H188.841L189.239 5.68887L193.223 5.32494ZM218.623 5.32494H222.623V1.32494H218.623V5.32494ZM219.141 63.9013L221.97 61.0729V61.0729L219.141 63.9013ZM221.733 63.9013L218.905 61.0729V61.0729L221.733 63.9013ZM222.252 5.32494V1.32494H218.252V5.32494H222.252ZM247.652 5.32494L251.637 5.67361L252.017 1.32494H247.652V5.32494ZM238.58 109V113H242.246L242.565 109.349L238.58 109ZM200.35 109H204.35V86.969H200.35H196.35V109H200.35ZM200.35 86.969V90.969H218.753V86.969V82.969H200.35V86.969ZM218.753 86.969V90.969C220.26 90.969 221.732 90.4239 222.877 89.2791L220.049 86.4507L217.22 83.6222C217.411 83.4317 217.668 83.2504 217.98 83.1255C218.287 83.0025 218.561 82.969 218.753 82.969V86.969ZM220.049 86.4507L222.877 89.2791C224.022 88.1343 224.567 86.6626 224.567 85.1547H220.567H216.567C216.567 84.9631 216.6 84.6895 216.723 84.3819C216.848 84.0698 217.03 83.8128 217.22 83.6222L220.049 86.4507ZM220.567 85.1547H224.567C224.567 83.6469 224.022 82.1751 222.877 81.0304L220.049 83.8588L217.22 86.6872C217.03 86.4967 216.848 86.2397 216.723 85.9275C216.6 85.62 216.567 85.3464 216.567 85.1547H220.567ZM220.049 83.8588L222.877 81.0304C221.732 79.8856 220.26 79.3404 218.753 79.3404V83.3404V87.3404C218.561 87.3404 218.287 87.3069 217.98 87.1839C217.668 87.059 217.411 86.8778 217.22 86.6872L220.049 83.8588ZM218.753 83.3404V79.3404H200.35V83.3404V87.3404H218.753V83.3404ZM200.35 83.3404L204.334 82.9765L197.206 4.961L193.223 5.32494L189.239 5.68887L196.367 83.7044L200.35 83.3404ZM193.223 5.32494V9.32494H218.623V5.32494V1.32494H193.223V5.32494ZM218.623 5.32494H214.623V62.6054H218.623H222.623V5.32494H218.623ZM218.623 62.6054H214.623C214.623 64.1132 215.168 65.585 216.313 66.7298L219.141 63.9013L221.97 61.0729C222.16 61.2635 222.342 61.5204 222.466 61.8326C222.59 62.1401 222.623 62.4137 222.623 62.6054H218.623ZM219.141 63.9013L216.313 66.7298C217.458 67.8745 218.93 68.4197 220.437 68.4197V64.4197V60.4197C220.629 60.4197 220.903 60.4532 221.21 60.5762C221.522 60.7011 221.779 60.8824 221.97 61.0729L219.141 63.9013ZM220.437 64.4197V68.4197C221.945 68.4197 223.417 67.8745 224.562 66.7298L221.733 63.9013L218.905 61.0729C219.095 60.8824 219.352 60.7011 219.665 60.5762C219.972 60.4532 220.246 60.4197 220.437 60.4197V64.4197ZM221.733 63.9013L224.562 66.7298C225.706 65.585 226.252 64.1132 226.252 62.6054H222.252H218.252C218.252 62.4137 218.285 62.1401 218.408 61.8326C218.533 61.5204 218.714 61.2635 218.905 61.0729L221.733 63.9013ZM222.252 62.6054H226.252V5.32494H222.252H218.252V62.6054H222.252ZM222.252 5.32494V9.32494H247.652V5.32494V1.32494H222.252V5.32494ZM247.652 5.32494L243.667 4.97627L234.596 108.651L238.58 109L242.565 109.349L251.637 5.67361L247.652 5.32494ZM238.58 109V105H200.35V109V113H238.58V109ZM309.652 49.1277V53.1277H313.652V49.1277H309.652ZM288.009 49.1277H284.009V53.1277H288.009V49.1277ZM287.491 25.6712L284.663 28.4996L284.663 28.4996L287.491 25.6712ZM284.899 25.6712L287.728 28.4996V28.4996L284.899 25.6712ZM284.381 52.2379H280.381V56.2379H284.381V52.2379ZM309.652 52.2379H313.652V48.2379H309.652V52.2379ZM309.652 109V113H313.652V109H309.652ZM290.601 109L286.669 109.732L287.277 113H290.601V109ZM288.528 97.8549L292.46 97.1233L284.591 97.1463L288.528 97.8549ZM284.51 107.186L287.272 110.079L287.306 110.047L287.339 110.014L284.51 107.186ZM268.959 106.149L265.929 108.761L265.955 108.79L265.981 108.819L268.959 106.149ZM263.905 92.6712L259.973 93.4052L263.905 92.6712ZM264.294 21.5242L268.189 22.4314L264.294 21.5242ZM271.551 8.3056L273.938 11.5154L273.964 11.496L273.99 11.4761L271.551 8.3056ZM307.578 20.3578L303.675 21.2317L303.681 21.2594L303.687 21.2869L307.578 20.3578ZM288.009 68.5667H292.009V64.5667H288.009V68.5667ZM284.381 68.5667V64.5667H280.381V68.5667H284.381ZM284.899 88.265L287.728 85.4366L284.899 88.265ZM287.491 88.265L284.663 85.4366V85.4366L287.491 88.265ZM309.652 49.1277V45.1277H288.009V49.1277V53.1277H309.652V49.1277ZM288.009 49.1277H292.009V26.9671H288.009H284.009V49.1277H288.009ZM288.009 26.9671H292.009C292.009 25.4593 291.464 23.9875 290.319 22.8427L287.491 25.6712L284.663 28.4996C284.472 28.309 284.291 28.0521 284.166 27.7399C284.043 27.4324 284.009 27.1588 284.009 26.9671H288.009ZM287.491 25.6712L290.319 22.8427C289.175 21.698 287.703 21.1528 286.195 21.1528V25.1528V29.1528C286.003 29.1528 285.73 29.1193 285.422 28.9963C285.11 28.8714 284.853 28.6902 284.663 28.4996L287.491 25.6712ZM286.195 25.1528V21.1528C284.687 21.1528 283.215 21.698 282.071 22.8427L284.899 25.6712L287.728 28.4996C287.537 28.6902 287.28 28.8714 286.968 28.9963C286.66 29.1193 286.387 29.1528 286.195 29.1528V25.1528ZM284.899 25.6712L282.071 22.8427C280.926 23.9875 280.381 25.4593 280.381 26.9671H284.381H288.381C288.381 27.1588 288.347 27.4324 288.224 27.7399C288.099 28.0521 287.918 28.309 287.728 28.4996L284.899 25.6712ZM284.381 26.9671H280.381V52.2379H284.381H288.381V26.9671H284.381ZM284.381 52.2379V56.2379H309.652V52.2379V48.2379H284.381V52.2379ZM309.652 52.2379H305.652V109H309.652H313.652V52.2379H309.652ZM309.652 109V105H290.601V109V113H309.652V109ZM290.601 109L294.534 108.268L292.46 97.1233L288.528 97.8549L284.595 98.5866L286.669 109.732L290.601 109ZM288.528 97.8549L284.591 97.1463C283.875 101.126 282.744 103.295 281.682 104.357L284.51 107.186L287.339 110.014C290.078 107.275 291.626 103.224 292.464 98.5635L288.528 97.8549ZM284.51 107.186L281.748 104.292C280.704 105.289 279.286 105.907 277.123 105.907V109.907V113.907C281.009 113.907 284.515 112.711 287.272 110.079L284.51 107.186ZM277.123 109.907V105.907C275.129 105.907 273.47 105.188 271.937 103.479L268.959 106.149L265.981 108.819C268.941 112.12 272.724 113.907 277.123 113.907V109.907ZM268.959 106.149L271.989 103.537C270.558 101.878 269.022 98.2862 267.837 91.9372L263.905 92.6712L259.973 93.4052C261.207 100.016 263.04 105.409 265.929 108.761L268.959 106.149ZM263.905 92.6712L267.837 91.9372C266.694 85.8149 266.091 77.0715 266.091 65.5861H262.091H258.091C258.091 77.2547 258.697 86.5681 259.973 93.4052L263.905 92.6712ZM262.091 65.5861H266.091V48.7389H262.091H258.091V65.5861H262.091ZM262.091 48.7389H266.091C266.091 37.0011 266.825 28.2908 268.189 22.4314L264.294 21.5242L260.398 20.6169C258.825 27.3713 258.091 36.8041 258.091 48.7389H262.091ZM264.294 21.5242L268.189 22.4314C269.555 16.5693 271.645 13.2201 273.938 11.5154L271.551 8.3056L269.164 5.09575C264.718 8.40207 261.97 13.8652 260.398 20.6169L264.294 21.5242ZM271.551 8.3056L273.99 11.4761C276.41 9.61436 280.176 8.41778 285.806 8.41778V4.41778V0.417777C279.168 0.417777 273.431 1.81307 269.112 5.1351L271.551 8.3056ZM285.806 4.41778V8.41778H287.102V4.41778V0.417777H285.806V4.41778ZM287.102 4.41778V8.41778C292.597 8.41778 296.189 9.54371 298.425 11.236L300.839 8.0464L303.253 4.85678C299.096 1.71092 293.53 0.417777 287.102 0.417777V4.41778ZM300.839 8.0464L298.425 11.236C300.578 12.8648 302.489 15.9371 303.675 21.2317L307.578 20.3578L311.481 19.4839C310.075 13.2015 307.494 8.06622 303.253 4.85678L300.839 8.0464ZM307.578 20.3578L303.687 21.2869C304.96 26.6173 305.652 34.5841 305.652 45.3694H309.652H313.652C313.652 34.383 312.96 25.6754 311.469 19.4287L307.578 20.3578ZM309.652 45.3694H305.652V49.1277H309.652H313.652V45.3694H309.652ZM288.009 68.5667V64.5667H284.381V68.5667V72.5667H288.009V68.5667ZM284.381 68.5667H280.381V86.969H284.381H288.381V68.5667H284.381ZM284.381 86.969H280.381C280.381 88.4769 280.926 89.9486 282.071 91.0934L284.899 88.265L287.728 85.4366C287.918 85.6271 288.099 85.8841 288.224 86.1963C288.347 86.5038 288.381 86.7774 288.381 86.969H284.381ZM284.899 88.265L282.071 91.0934C283.215 92.2382 284.687 92.7834 286.195 92.7834V88.7834V84.7834C286.387 84.7834 286.66 84.8169 286.968 84.9399C287.28 85.0647 287.537 85.246 287.728 85.4366L284.899 88.265ZM286.195 88.7834V92.7834C287.703 92.7834 289.175 92.2382 290.319 91.0934L287.491 88.265L284.663 85.4366C284.853 85.246 285.11 85.0647 285.422 84.9399C285.73 84.8169 286.003 84.7834 286.195 84.7834V88.7834ZM287.491 88.265L290.319 91.0934C291.464 89.9487 292.009 88.4769 292.009 86.969H288.009H284.009C284.009 86.7774 284.043 86.5038 284.166 86.1963C284.291 85.8841 284.472 85.6271 284.663 85.4366L287.491 88.265ZM288.009 86.969H292.009V68.5667H288.009H284.009V86.969H288.009ZM322.044 106.149L319.565 109.288L319.591 109.309L319.617 109.329L322.044 106.149ZM314.916 92.8008L311.021 93.708L314.916 92.8008ZM314.916 21.5242L318.812 22.4314L314.916 21.5242ZM322.044 8.3056L324.471 11.4854L324.497 11.4655L324.523 11.4451L322.044 8.3056ZM351.073 8.3056L348.594 11.4451L348.62 11.4655L348.646 11.4854L351.073 8.3056ZM358.201 21.5242L354.305 22.4314V22.4314L358.201 21.5242ZM358.201 92.8008L354.305 91.8935L358.201 92.8008ZM351.073 106.149L353.5 109.329L353.526 109.309L353.552 109.288L351.073 106.149ZM337.854 88.6538L340.683 91.4822V91.4822L337.854 88.6538ZM337.854 25.6712L335.026 28.4996V28.4996L337.854 25.6712ZM335.263 25.6712L338.091 28.4996V28.4996L335.263 25.6712ZM335.263 88.6538L332.434 91.4822V91.4822L335.263 88.6538ZM335.911 109.907V105.907C330.45 105.907 326.807 104.752 324.471 102.969L322.044 106.149L319.617 109.329C323.847 112.556 329.448 113.907 335.911 113.907V109.907ZM322.044 106.149L324.523 103.009C322.249 101.214 320.182 97.775 318.812 91.8935L314.916 92.8008L311.021 93.708C312.588 100.44 315.273 105.9 319.565 109.288L322.044 106.149ZM314.916 92.8008L318.812 91.8935C317.448 86.0341 316.713 77.3238 316.713 65.5861H312.713H308.713C308.713 77.5208 309.448 86.9536 311.021 93.708L314.916 92.8008ZM312.713 65.5861H316.713V48.7389H312.713H308.713V65.5861H312.713ZM312.713 48.7389H316.713C316.713 37.0011 317.448 28.2908 318.812 22.4314L314.916 21.5242L311.021 20.6169C309.448 27.3713 308.713 36.8041 308.713 48.7389H312.713ZM314.916 21.5242L318.812 22.4314C320.183 16.5439 322.244 13.1846 324.471 11.4854L322.044 8.3056L319.617 5.12579C315.278 8.43753 312.587 13.8906 311.021 20.6169L314.916 21.5242ZM322.044 8.3056L324.523 11.4451C326.854 9.60449 330.476 8.41778 335.911 8.41778V4.41778V0.417777C329.423 0.417777 323.8 1.82294 319.565 5.16607L322.044 8.3056ZM335.911 4.41778V8.41778H337.206V4.41778V0.417777H335.911V4.41778ZM337.206 4.41778V8.41778C342.641 8.41778 346.263 9.60449 348.594 11.4451L351.073 8.3056L353.552 5.16607C349.317 1.82294 343.694 0.417777 337.206 0.417777V4.41778ZM351.073 8.3056L348.646 11.4854C350.873 13.1846 352.934 16.5439 354.305 22.4314L358.201 21.5242L362.096 20.6169C360.53 13.8906 357.839 8.43753 353.5 5.12579L351.073 8.3056ZM358.201 21.5242L354.305 22.4314C355.669 28.2908 356.404 37.0012 356.404 48.7389H360.404H364.404C364.404 36.8041 363.669 27.3713 362.096 20.6169L358.201 21.5242ZM360.404 48.7389H356.404V65.5861H360.404H364.404V48.7389H360.404ZM360.404 65.5861H356.404C356.404 77.3238 355.669 86.0341 354.305 91.8935L358.201 92.8008L362.096 93.708C363.669 86.9536 364.404 77.5208 364.404 65.5861H360.404ZM358.201 92.8008L354.305 91.8935C352.935 97.775 350.868 101.214 348.594 103.009L351.073 106.149L353.552 109.288C357.844 105.9 360.529 100.44 362.096 93.708L358.201 92.8008ZM351.073 106.149L348.646 102.969C346.31 104.752 342.667 105.907 337.206 105.907V109.907V113.907C343.669 113.907 349.27 112.556 353.5 109.329L351.073 106.149ZM337.206 109.907V105.907H335.911V109.907V113.907H337.206V109.907ZM336.558 89.1721V93.1721C338.066 93.1721 339.538 92.627 340.683 91.4822L337.854 88.6538L335.026 85.8253C335.217 85.6348 335.474 85.4535 335.786 85.3286C336.093 85.2056 336.367 85.1721 336.558 85.1721V89.1721ZM337.854 88.6538L340.683 91.4822C341.828 90.3374 342.373 88.8656 342.373 87.3578H338.373H334.373C334.373 87.1661 334.406 86.8926 334.529 86.585C334.654 86.2729 334.835 86.0159 335.026 85.8253L337.854 88.6538ZM338.373 87.3578H342.373V26.9671H338.373H334.373V87.3578H338.373ZM338.373 26.9671H342.373C342.373 25.4593 341.828 23.9875 340.683 22.8427L337.854 25.6712L335.026 28.4996C334.835 28.309 334.654 28.0521 334.529 27.7399C334.406 27.4324 334.373 27.1588 334.373 26.9671H338.373ZM337.854 25.6712L340.683 22.8427C339.538 21.698 338.066 21.1528 336.558 21.1528V25.1528V29.1528C336.367 29.1528 336.093 29.1193 335.786 28.9963C335.474 28.8714 335.217 28.6902 335.026 28.4996L337.854 25.6712ZM336.558 25.1528V21.1528C335.051 21.1528 333.579 21.698 332.434 22.8427L335.263 25.6712L338.091 28.4996C337.9 28.6902 337.643 28.8714 337.331 28.9963C337.024 29.1193 336.75 29.1528 336.558 29.1528V25.1528ZM335.263 25.6712L332.434 22.8427C331.289 23.9875 330.744 25.4593 330.744 26.9671H334.744H338.744C338.744 27.1588 338.711 27.4324 338.588 27.7399C338.463 28.0521 338.282 28.309 338.091 28.4996L335.263 25.6712ZM334.744 26.9671H330.744V87.3578H334.744H338.744V26.9671H334.744ZM334.744 87.3578H330.744C330.744 88.8656 331.289 90.3374 332.434 91.4822L335.263 88.6538L338.091 85.8253C338.282 86.0159 338.463 86.2729 338.588 86.585C338.711 86.8926 338.744 87.1661 338.744 87.3578H334.744ZM335.263 88.6538L332.434 91.4822C333.579 92.627 335.051 93.1721 336.558 93.1721V89.1721V85.1721C336.75 85.1721 337.024 85.2056 337.331 85.3286C337.643 85.4535 337.9 85.6348 338.091 85.8253L335.263 88.6538ZM382.673 109V113H386.673V109H382.673ZM361.938 109H357.938V113H361.938V109ZM361.938 87.617V83.617H357.938V87.617H361.938ZM382.673 87.617H386.673V83.617H382.673V87.617ZM382.673 109V105H361.938V109V113H382.673V109ZM361.938 109H365.938V87.617H361.938H357.938V109H361.938ZM361.938 87.617V91.617H382.673V87.617V83.617H361.938V87.617ZM382.673 87.617H378.673V109H382.673H386.673V87.617H382.673Z" fill="#0E0E0E" mask="url(#path-1-outside-1_622_251)"/>
</svg>
