<svg width="387" height="114" viewBox="0 0 387 114" fill="none" xmlns="http://www.w3.org/2000/svg">
<g clip-path="url(#clip0_636_80)">
<mask id="mask0_636_80" style="mask-type:luminance" maskUnits="userSpaceOnUse" x="0" y="0" width="387" height="114">
<path d="M387 0H0V114H387V0Z" fill="white"/>
<path d="M44.8579 60.4022C48.9185 64.1172 50.9488 70.4673 50.9488 79.4525V109H29.5659V73.88C29.5659 72.1521 28.7019 71.2881 26.974 71.2881H25.9372V109H4.5542V5.32488H25.9372C32.5897 5.32488 37.7303 6.27523 41.3589 8.17594C44.9875 10.0766 47.5794 13.3165 49.1345 17.8954C50.776 22.388 51.5968 28.8677 51.5968 37.3345C51.5968 48.3068 49.3505 55.996 44.8579 60.4022ZM29.5659 28.3925C29.5659 27.4422 29.4363 26.7942 29.1771 26.4486C28.9179 26.0167 28.3563 25.8007 27.4924 25.8007H25.9372V52.497H27.4924C28.8747 52.497 29.5659 51.8058 29.5659 50.4235V28.3925ZM87.7231 5.32488V27.3558H75.8005V46.0173H87.7231V68.0482H75.8005V86.9689H87.7231V109H54.4175V5.32488H87.7231ZM115.1 109H89.6994L98.771 5.32488H135.057L144.129 109H118.728V77.379H115.1V109ZM115.1 56.644H118.728V27.8742C118.728 27.3558 118.556 26.9238 118.21 26.5782C117.864 26.2326 117.433 26.0598 116.914 26.0598C116.396 26.0598 115.964 26.2326 115.618 26.5782C115.273 26.9238 115.1 27.3558 115.1 27.8742V56.644ZM146.551 109V5.32488H167.934C174.672 5.32488 179.856 6.62082 183.485 9.2127C187.113 11.7181 189.705 16.0811 191.26 22.3016C192.816 28.4357 193.593 37.2481 193.593 48.7388V65.586C193.593 77.163 192.816 86.0618 191.26 92.2823C189.705 98.4164 187.113 102.736 183.485 105.242C179.856 107.747 174.672 109 167.934 109H146.551ZM168.97 88.2649C170.698 88.2649 171.562 87.4009 171.562 85.673V28.6517C171.562 26.9238 170.698 26.0598 168.97 26.0598H167.934V88.2649H168.97ZM200.35 109V86.9689H218.753C219.271 86.9689 219.703 86.7962 220.049 86.4506C220.394 86.105 220.567 85.673 220.567 85.1546C220.567 84.6363 220.394 84.2043 220.049 83.8587C219.703 83.5131 219.271 83.3403 218.753 83.3403H200.35L193.223 5.32488H218.623V62.6053C218.623 63.1237 218.796 63.5557 219.141 63.9012C219.487 64.2468 219.919 64.4196 220.437 64.4196C220.956 64.4196 221.388 64.2468 221.733 63.9012C222.079 63.5557 222.252 63.1237 222.252 62.6053V5.32488H247.652L238.58 109H200.35ZM309.652 49.1276H288.009V26.967C288.009 26.4486 287.837 26.0166 287.491 25.6711C287.145 25.3255 286.713 25.1527 286.195 25.1527C285.677 25.1527 285.245 25.3255 284.899 25.6711C284.554 26.0166 284.381 26.4486 284.381 26.967V52.2378H309.652V109H290.601L288.528 97.8548C287.75 102.175 286.411 105.285 284.51 107.186C282.61 109 280.147 109.907 277.123 109.907C273.927 109.907 271.205 108.654 268.959 106.149C266.799 103.643 265.114 99.1509 263.905 92.6712C262.695 86.1915 262.091 77.163 262.091 65.586V48.7388C262.091 36.9025 262.825 27.831 264.294 21.5241C265.762 15.2172 268.181 10.811 271.551 8.30554C274.92 5.71366 279.672 4.41772 285.806 4.41772H287.102C293.064 4.41772 297.642 5.62726 300.839 8.04634C304.036 10.4654 306.282 14.5692 307.578 20.3577C308.96 26.1462 309.652 34.4834 309.652 45.3693V49.1276ZM288.009 68.5667H284.381V86.9689C284.381 87.4873 284.554 87.9193 284.899 88.2649C285.245 88.6105 285.677 88.7833 286.195 88.7833C286.713 88.7833 287.145 88.6105 287.491 88.2649C287.837 87.9193 288.009 87.4873 288.009 86.9689V68.5667ZM335.911 109.907C329.949 109.907 325.327 108.654 322.044 106.149C318.761 103.557 316.385 99.1076 314.916 92.8007C313.448 86.4938 312.713 77.4222 312.713 65.586V48.7388C312.713 36.9025 313.448 27.831 314.916 21.5241C316.385 15.2172 318.761 10.811 322.044 8.30554C325.327 5.71366 329.949 4.41772 335.911 4.41772H337.206C343.168 4.41772 347.79 5.71366 351.073 8.30554C354.356 10.811 356.732 15.2172 358.201 21.5241C359.669 27.831 360.404 36.9025 360.404 48.7388V65.586C360.404 77.4222 359.669 86.4938 358.201 92.8007C356.732 99.1076 354.356 103.557 351.073 106.149C347.79 108.654 343.168 109.907 337.206 109.907H335.911ZM336.558 89.172C337.077 89.172 337.509 88.9993 337.854 88.6537C338.2 88.3081 338.373 87.8761 338.373 87.3577V26.967C338.373 26.4486 338.2 26.0166 337.854 25.6711C337.509 25.3255 337.077 25.1527 336.558 25.1527C336.04 25.1527 335.608 25.3255 335.263 25.6711C334.917 26.0166 334.744 26.4486 334.744 26.967V87.3577C334.744 87.8761 334.917 88.3081 335.263 88.6537C335.608 88.9993 336.04 89.172 336.558 89.172ZM382.673 109H361.938V87.6169H382.673V109Z" fill="black"/>
</mask>
<g mask="url(#mask0_636_80)">
<path d="M44.8579 60.4022L42.0571 57.5465L39.0424 60.5031L42.1579 63.3534L44.8579 60.4022ZM50.9488 109V113H54.9488V109H50.9488ZM29.5659 109H25.5659V113H29.5659V109ZM25.9372 71.2881V67.2881H21.9372V71.2881H25.9372ZM25.9372 109V113H29.9372V109H25.9372ZM4.5542 109H0.554199V113H4.5542V109ZM4.5542 5.32489V1.32489H0.554199V5.32489H4.5542ZM49.1345 17.8954L45.347 19.1818L45.3617 19.2252L45.3775 19.2682L49.1345 17.8954ZM29.1771 26.4486L25.7471 28.5066L25.8533 28.6836L25.9771 28.8486L29.1771 26.4486ZM25.9372 25.8007V21.8007H21.9372V25.8007H25.9372ZM25.9372 52.497H21.9372V56.497H25.9372V52.497ZM44.8579 60.4022L42.1579 63.3534C44.9919 65.9463 46.9488 70.903 46.9488 79.4525H50.9488H54.9488C54.9488 70.0317 52.8452 62.2882 47.558 57.451L44.8579 60.4022ZM50.9488 79.4525H46.9488V109H50.9488H54.9488V79.4525H50.9488ZM50.9488 109V105H29.5659V109V113H50.9488V109ZM29.5659 109H33.5659V73.88H29.5659H25.5659V109H29.5659ZM29.5659 73.88H33.5659C33.5659 72.3994 33.193 70.5543 31.7463 69.1076C30.2996 67.6609 28.4545 67.2881 26.974 67.2881V71.2881V75.2881C27.2213 75.2881 26.6722 75.3472 26.0894 74.7645C25.5067 74.1818 25.5659 73.6326 25.5659 73.88H29.5659ZM26.974 71.2881V67.2881H25.9372V71.2881V75.2881H26.974V71.2881ZM25.9372 71.2881H21.9372V109H25.9372H29.9372V71.2881H25.9372ZM25.9372 109V105H4.5542V109V113H25.9372V109ZM4.5542 109H8.5542V5.32489H4.5542H0.554199V109H4.5542ZM4.5542 5.32489V9.32489H25.9372V5.32489V1.32489H4.5542V5.32489ZM25.9372 5.32489V9.32489C32.3022 9.32489 36.6974 10.2497 39.5029 11.7192L41.3589 8.17595L43.2149 4.63262C38.7632 2.30076 32.8773 1.32489 25.9372 1.32489V5.32489ZM41.3589 8.17595L39.5029 11.7192C42.0604 13.0589 44.0584 15.3877 45.347 19.1818L49.1345 17.8954L52.9221 16.6091C51.1003 11.2452 47.9146 7.09439 43.2149 4.63262L41.3589 8.17595ZM49.1345 17.8954L45.3775 19.2682C46.7796 23.1057 47.5968 29.0329 47.5968 37.3345H51.5968H55.5968C55.5968 28.7026 54.7725 21.6704 52.8916 16.5227L49.1345 17.8954ZM51.5968 37.3345H47.5968C47.5968 47.975 45.3788 54.2887 42.0571 57.5465L44.8579 60.4022L47.6588 63.258C53.3223 57.7034 55.5968 48.6386 55.5968 37.3345H51.5968ZM29.5659 28.3925H33.5659C33.5659 27.7579 33.5244 27.0767 33.391 26.4093C33.2653 25.7807 33.0044 24.8851 32.3771 24.0486L29.1771 26.4486L25.9771 28.8486C25.7814 28.5877 25.6757 28.3589 25.6222 28.2221C25.5681 28.0838 25.5495 27.9941 25.5463 27.9783C25.5424 27.9588 25.5659 28.0768 25.5659 28.3925H29.5659ZM29.1771 26.4486L32.607 24.3906C31.2208 22.0803 28.7392 21.8007 27.4923 21.8007V25.8007V29.8007C27.6296 29.8007 27.4561 29.8232 27.1256 29.696C26.741 29.5481 26.1612 29.1968 25.7471 28.5066L29.1771 26.4486ZM27.4923 25.8007V21.8007H25.9372V25.8007V29.8007H27.4923V25.8007ZM25.9372 25.8007H21.9372V52.497H25.9372H29.9372V25.8007H25.9372ZM25.9372 52.497V56.497H27.4923V52.497V48.497H25.9372V52.497ZM27.4923 52.497V56.497C28.8001 56.497 30.5156 56.1673 31.8759 54.807C33.2362 53.4467 33.5659 51.7312 33.5659 50.4235H29.5659H25.5659C25.5659 50.4981 25.5499 49.8193 26.2191 49.1502C26.8882 48.4811 27.5669 48.497 27.4923 48.497V52.497ZM29.5659 50.4235H33.5659V28.3925H29.5659H25.5659V50.4235H29.5659ZM87.7231 5.32489H91.7231V1.32489H87.7231V5.32489ZM87.7231 27.3558V31.3558H91.7231V27.3558H87.7231ZM75.8005 27.3558V23.3558H71.8005V27.3558H75.8005ZM75.8005 46.0173H71.8005V50.0173H75.8005V46.0173ZM87.7231 46.0173H91.7231V42.0173H87.7231V46.0173ZM87.7231 68.0482V72.0482H91.7231V68.0482H87.7231ZM75.8005 68.0482V64.0482H71.8005V68.0482H75.8005ZM75.8005 86.9689H71.8005V90.9689H75.8005V86.9689ZM87.7231 86.9689H91.7231V82.9689H87.7231V86.9689ZM87.7231 109V113H91.7231V109H87.7231ZM54.4175 109H50.4175V113H54.4175V109ZM54.4175 5.32489V1.32489H50.4175V5.32489H54.4175ZM87.7231 5.32489H83.7231V27.3558H87.7231H91.7231V5.32489H87.7231ZM87.7231 27.3558V23.3558H75.8005V27.3558V31.3558H87.7231V27.3558ZM75.8005 27.3558H71.8005V46.0173H75.8005H79.8005V27.3558H75.8005ZM75.8005 46.0173V50.0173H87.7231V46.0173V42.0173H75.8005V46.0173ZM87.7231 46.0173H83.7231V68.0482H87.7231H91.7231V46.0173H87.7231ZM87.7231 68.0482V64.0482H75.8005V68.0482V72.0482H87.7231V68.0482ZM75.8005 68.0482H71.8005V86.9689H75.8005H79.8005V68.0482H75.8005ZM75.8005 86.9689V90.9689H87.7231V86.9689V82.9689H75.8005V86.9689ZM87.7231 86.9689H83.7231V109H87.7231H91.7231V86.9689H87.7231ZM87.7231 109V105H54.4175V109V113H87.7231V109ZM54.4175 109H58.4175V5.32489H54.4175H50.4175V109H54.4175ZM54.4175 5.32489V9.32489H87.7231V5.32489V1.32489H54.4175V5.32489ZM115.1 109V113H119.1V109H115.1ZM89.6994 109L85.7147 108.651L85.3341 113H89.6994V109ZM98.771 5.32489V1.32489H95.1057L94.7862 4.97622L98.771 5.32489ZM135.057 5.32489L139.042 4.97622L138.723 1.32489H135.057V5.32489ZM144.129 109V113H148.494L148.114 108.651L144.129 109ZM118.728 109H114.728V113H118.728V109ZM118.728 77.379H122.728V73.379H118.728V77.379ZM115.1 77.379V73.379H111.1V77.379H115.1ZM115.1 56.644H111.1V60.644H115.1V56.644ZM118.728 56.644V60.644H122.728V56.644H118.728ZM115.1 109V105H89.6994V109V113H115.1V109ZM89.6994 109L93.6842 109.349L102.756 5.67356L98.771 5.32489L94.7862 4.97622L85.7147 108.651L89.6994 109ZM98.771 5.32489V9.32489H135.057V5.32489V1.32489H98.771V5.32489ZM135.057 5.32489L131.072 5.67356L140.144 109.349L144.129 109L148.114 108.651L139.042 4.97622L135.057 5.32489ZM144.129 109V105H118.728V109V113H144.129V109ZM118.728 109H122.728V77.379H118.728H114.728V109H118.728ZM118.728 77.379V73.379H115.1V77.379V81.379H118.728V77.379ZM115.1 77.379H111.1V109H115.1H119.1V77.379H115.1ZM115.1 56.644V60.644H118.728V56.644V52.644H115.1V56.644ZM118.728 56.644H122.728V27.8742H118.728H114.728V56.644H118.728ZM118.728 27.8742H122.728C122.728 26.3663 122.183 24.8946 121.038 23.7498L118.21 26.5782L115.382 29.4066C115.191 29.2161 115.01 28.9591 114.885 28.647C114.762 28.3394 114.728 28.0658 114.728 27.8742H118.728ZM118.21 26.5782L121.038 23.7498C119.894 22.605 118.422 22.0598 116.914 22.0598V26.0598V30.0598C116.722 30.0598 116.449 30.0264 116.141 29.9033C115.829 29.7785 115.572 29.5972 115.382 29.4066L118.21 26.5782ZM116.914 26.0598V22.0598C115.406 22.0598 113.935 22.605 112.79 23.7498L115.618 26.5782L118.447 29.4066C118.256 29.5972 117.999 29.7785 117.687 29.9033C117.379 30.0264 117.106 30.0598 116.914 30.0598V26.0598ZM115.618 26.5782L112.79 23.7498C111.645 24.8946 111.1 26.3663 111.1 27.8742H115.1H119.1C119.1 28.0658 119.066 28.3394 118.943 28.647C118.818 28.9591 118.637 29.2161 118.447 29.4066L115.618 26.5782ZM115.1 27.8742H111.1V56.644H115.1H119.1V27.8742H115.1ZM146.551 109H142.551V113H146.551V109ZM146.551 5.32489V1.32489H142.551V5.32489H146.551ZM183.485 9.2127L181.16 12.4676L181.186 12.4861L181.212 12.5042L183.485 9.2127ZM191.26 22.3016L187.38 23.2718L187.383 23.2846L191.26 22.3016ZM191.26 92.2823L195.138 93.2654L195.141 93.2524L191.26 92.2823ZM167.934 26.0598V22.0598H163.934V26.0598H167.934ZM167.934 88.2649H163.934V92.2649H167.934V88.2649ZM146.551 109H150.551V5.32489H146.551H142.551V109H146.551ZM146.551 5.32489V9.32489H167.934V5.32489V1.32489H146.551V5.32489ZM167.934 5.32489V9.32489C174.24 9.32489 178.476 10.5506 181.16 12.4676L183.485 9.2127L185.81 5.95776C181.236 2.69095 175.104 1.32489 167.934 1.32489V5.32489ZM183.485 9.2127L181.212 12.5042C183.744 14.2524 185.956 17.5741 187.38 23.2718L191.26 22.3016L195.141 21.3315C193.455 14.5881 190.483 9.18391 185.758 5.92111L183.485 9.2127ZM191.26 22.3016L187.383 23.2846C188.816 28.9364 189.593 37.3573 189.593 48.7388H193.593H197.593C197.593 37.1389 196.815 27.935 195.138 21.3186L191.26 22.3016ZM193.593 48.7388H189.593V65.586H193.593H197.593V48.7388H193.593ZM193.593 65.586H189.593C189.593 77.053 188.816 85.5667 187.38 91.3122L191.26 92.2823L195.141 93.2524C196.815 86.5569 197.593 77.273 197.593 65.586H193.593ZM191.26 92.2823L187.383 91.2993C185.964 96.8976 183.758 100.192 181.212 101.95L183.485 105.242L185.758 108.533C190.469 105.281 193.447 99.9353 195.138 93.2654L191.26 92.2823ZM183.485 105.242L181.212 101.95C178.519 103.81 174.261 105 167.934 105V109V113C175.083 113 181.193 111.685 185.758 108.533L183.485 105.242ZM167.934 109V105H146.551V109V113H167.934V109ZM168.97 88.2649V92.2649C170.451 92.2649 172.296 91.892 173.743 90.4453C175.189 88.9986 175.562 87.1535 175.562 85.673H171.562H167.562C167.562 85.9204 167.503 85.3712 168.086 84.7885C168.669 84.2057 169.218 84.2649 168.97 84.2649V88.2649ZM171.562 85.673H175.562V28.6517H171.562H167.562V85.673H171.562ZM171.562 28.6517H175.562C175.562 27.1712 175.189 25.3261 173.743 23.8794C172.296 22.4327 170.451 22.0598 168.97 22.0598V26.0598V30.0598C169.218 30.0598 168.669 30.119 168.086 29.5362C167.503 28.9535 167.562 28.4043 167.562 28.6517H171.562ZM168.97 26.0598V22.0598H167.934V26.0598V30.0598H168.97V26.0598ZM167.934 26.0598H163.934V88.2649H167.934H171.934V26.0598H167.934ZM167.934 88.2649V92.2649H168.97V88.2649V84.2649H167.934V88.2649ZM200.35 109H196.35V113H200.35V109ZM200.35 86.9689V82.9689H196.35V86.9689H200.35ZM200.35 83.3403L196.367 83.7043L196.699 87.3403H200.35V83.3403ZM193.223 5.32489V1.32489H188.841L189.239 5.68882L193.223 5.32489ZM218.623 5.32489H222.623V1.32489H218.623V5.32489ZM222.252 5.32489V1.32489H218.252V5.32489H222.252ZM247.652 5.32489L251.637 5.67356L252.017 1.32489H247.652V5.32489ZM238.58 109V113H242.246L242.565 109.349L238.58 109ZM200.35 109H204.35V86.9689H200.35H196.35V109H200.35ZM200.35 86.9689V90.9689H218.753V86.9689V82.9689H200.35V86.9689ZM218.753 86.9689V90.9689C220.26 90.9689 221.732 90.4238 222.877 89.279L220.049 86.4506L217.22 83.6221C217.411 83.4316 217.668 83.2504 217.98 83.1255C218.287 83.0025 218.561 82.9689 218.753 82.9689V86.9689ZM220.049 86.4506L222.877 89.279C224.022 88.1342 224.567 86.6625 224.567 85.1546H220.567H216.567C216.567 84.963 216.6 84.6894 216.723 84.3818C216.848 84.0697 217.03 83.8127 217.22 83.6221L220.049 86.4506ZM220.567 85.1546H224.567C224.567 83.6468 224.022 82.175 222.877 81.0303L220.049 83.8587L217.22 86.6871C217.03 86.4966 216.848 86.2396 216.723 85.9274C216.6 85.6199 216.567 85.3463 216.567 85.1546H220.567ZM220.049 83.8587L222.877 81.0303C221.732 79.8855 220.26 79.3403 218.753 79.3403V83.3403V87.3403C218.561 87.3403 218.287 87.3068 217.98 87.1838C217.668 87.0589 217.411 86.8777 217.22 86.6871L220.049 83.8587ZM218.753 83.3403V79.3403H200.35V83.3403V87.3403H218.753V83.3403ZM200.35 83.3403L204.334 82.9764L197.206 4.96095L193.223 5.32489L189.239 5.68882L196.367 83.7043L200.35 83.3403ZM193.223 5.32489V9.32489H218.623V5.32489V1.32489H193.223V5.32489ZM218.623 5.32489H214.623V62.6053H218.623H222.623V5.32489H218.623ZM218.623 62.6053H214.623C214.623 64.1131 215.168 65.5849 216.313 66.7297L219.141 63.9012L221.97 61.0728C222.16 61.2634 222.342 61.5203 222.466 61.8325C222.59 62.14 222.623 62.4136 222.623 62.6053H218.623ZM219.141 63.9012L216.313 66.7297C217.458 67.8744 218.93 68.4196 220.437 68.4196V64.4196V60.4196C220.629 60.4196 220.903 60.4531 221.21 60.5761C221.522 60.701 221.779 60.8823 221.97 61.0728L219.141 63.9012ZM220.437 64.4196V68.4196C221.945 68.4196 223.417 67.8744 224.562 66.7297L221.733 63.9012L218.905 61.0728C219.095 60.8823 219.352 60.701 219.665 60.5761C219.972 60.4531 220.246 60.4196 220.437 60.4196V64.4196ZM221.733 63.9012L224.562 66.7297C225.706 65.5849 226.252 64.1131 226.252 62.6053H222.252H218.252C218.252 62.4136 218.285 62.14 218.408 61.8325C218.533 61.5203 218.714 61.2634 218.905 61.0728L221.733 63.9012ZM222.252 62.6053H226.252V5.32489H222.252H218.252V62.6053H222.252ZM222.252 5.32489V9.32489H247.652V5.32489V1.32489H222.252V5.32489ZM247.652 5.32489L243.667 4.97622L234.596 108.651L238.58 109L242.565 109.349L251.637 5.67356L247.652 5.32489ZM238.58 109V105H200.35V109V113H238.58V109ZM309.652 49.1276V53.1276H313.652V49.1276H309.652ZM288.009 49.1276H284.009V53.1276H288.009V49.1276ZM284.381 52.2378H280.381V56.2378H284.381V52.2378ZM309.652 52.2378H313.652V48.2378H309.652V52.2378ZM309.652 109V113H313.652V109H309.652ZM290.601 109L286.669 109.732L287.277 113H290.601V109ZM288.528 97.8548L292.46 97.1232L284.591 97.1462L288.528 97.8548ZM284.51 107.186L287.272 110.079L287.306 110.047L287.339 110.014L284.51 107.186ZM268.959 106.149L265.929 108.761L265.955 108.79L265.981 108.819L268.959 106.149ZM271.551 8.30555L273.938 11.5153L273.964 11.4959L273.99 11.476L271.551 8.30555ZM307.578 20.3577L303.675 21.2316L303.681 21.2593L303.687 21.2868L307.578 20.3577ZM288.009 68.5667H292.009V64.5667H288.009V68.5667ZM284.381 68.5667V64.5667H280.381V68.5667H284.381ZM309.652 49.1276V45.1276H288.009V49.1276V53.1276H309.652V49.1276ZM288.009 49.1276H292.009V26.967H288.009H284.009V49.1276H288.009ZM288.009 26.967H292.009C292.009 25.4592 291.464 23.9874 290.319 22.8426L287.491 25.6711L284.663 28.4995C284.472 28.3089 284.291 28.052 284.166 27.7398C284.043 27.4323 284.009 27.1587 284.009 26.967H288.009ZM287.491 25.6711L290.319 22.8426C289.175 21.6979 287.703 21.1527 286.195 21.1527V25.1527V29.1527C286.003 29.1527 285.73 29.1192 285.422 28.9962C285.11 28.8713 284.853 28.6901 284.663 28.4995L287.491 25.6711ZM286.195 25.1527V21.1527C284.687 21.1527 283.215 21.6979 282.071 22.8426L284.899 25.6711L287.728 28.4995C287.537 28.6901 287.28 28.8713 286.968 28.9962C286.66 29.1192 286.387 29.1527 286.195 29.1527V25.1527ZM284.899 25.6711L282.071 22.8426C280.926 23.9874 280.381 25.4592 280.381 26.967H284.381H288.381C288.381 27.1587 288.347 27.4323 288.224 27.7398C288.099 28.052 287.918 28.3089 287.728 28.4995L284.899 25.6711ZM284.381 26.967H280.381V52.2378H284.381H288.381V26.967H284.381ZM284.381 52.2378V56.2378H309.652V52.2378V48.2378H284.381V52.2378ZM309.652 52.2378H305.652V109H309.652H313.652V52.2378H309.652ZM309.652 109V105H290.601V109V113H309.652V109ZM290.601 109L294.534 108.268L292.46 97.1232L288.528 97.8548L284.595 98.5865L286.669 109.732L290.601 109ZM288.528 97.8548L284.591 97.1462C283.875 101.126 282.744 103.295 281.682 104.357L284.51 107.186L287.339 110.014C290.078 107.275 291.626 103.224 292.464 98.5634L288.528 97.8548ZM284.51 107.186L281.748 104.292C280.704 105.289 279.286 105.907 277.123 105.907V109.907V113.907C281.009 113.907 284.515 112.711 287.272 110.079L284.51 107.186ZM277.123 109.907V105.907C275.129 105.907 273.47 105.188 271.937 103.479L268.959 106.149L265.981 108.819C268.941 112.12 272.724 113.907 277.123 113.907V109.907ZM268.959 106.149L271.989 103.537C270.558 101.878 269.022 98.2861 267.837 91.9371L263.905 92.6712L259.973 93.4051C261.207 100.016 263.04 105.409 265.929 108.761L268.959 106.149ZM263.905 92.6712L267.837 91.9371C266.694 85.8148 266.091 77.0714 266.091 65.586H262.091H258.091C258.091 77.2546 258.697 86.568 259.973 93.4051L263.905 92.6712ZM262.091 65.586H266.091V48.7388H262.091H258.091V65.586H262.091ZM262.091 48.7388H266.091C266.091 37.001 266.825 28.2907 268.189 22.4313L264.294 21.5241L260.398 20.6168C258.825 27.3712 258.091 36.804 258.091 48.7388H262.091ZM264.294 21.5241L268.189 22.4313C269.555 16.5692 271.645 13.22 273.938 11.5153L271.551 8.30555L269.164 5.0957C264.718 8.40202 261.97 13.8651 260.398 20.6168L264.294 21.5241ZM271.551 8.30555L273.99 11.476C276.41 9.61431 280.176 8.41773 285.806 8.41773V4.41773V0.417725C279.168 0.417725 273.431 1.81302 269.112 5.13505L271.551 8.30555ZM285.806 4.41773V8.41773H287.102V4.41773V0.417725H285.806V4.41773ZM287.102 4.41773V8.41773C292.597 8.41773 296.189 9.54366 298.425 11.2359L300.839 8.04635L303.253 4.85673C299.096 1.71087 293.53 0.417725 287.102 0.417725V4.41773ZM300.839 8.04635L298.425 11.2359C300.578 12.8647 302.489 15.937 303.675 21.2316L307.578 20.3577L311.481 19.4838C310.075 13.2014 307.494 8.06617 303.253 4.85673L300.839 8.04635ZM307.578 20.3577L303.687 21.2868C304.96 26.6172 305.652 34.584 305.652 45.3693H309.652H313.652C313.652 34.3829 312.96 25.6753 311.469 19.4286L307.578 20.3577ZM309.652 45.3693H305.652V49.1276H309.652H313.652V45.3693H309.652ZM288.009 68.5667V64.5667H284.381V68.5667V72.5667H288.009V68.5667ZM284.381 68.5667H280.381V86.9689H284.381H288.381V68.5667H284.381ZM284.381 86.9689H280.381C280.381 88.4768 280.926 89.9485 282.071 91.0933L284.899 88.2649L287.728 85.4365C287.918 85.627 288.099 85.884 288.224 86.1962C288.347 86.5037 288.381 86.7773 288.381 86.9689H284.381ZM284.899 88.2649L282.071 91.0933C283.215 92.2381 284.687 92.7833 286.195 92.7833V88.7833V84.7833C286.387 84.7833 286.66 84.8168 286.968 84.9398C287.28 85.0646 287.537 85.2459 287.728 85.4365L284.899 88.2649ZM286.195 88.7833V92.7833C287.703 92.7833 289.175 92.2381 290.319 91.0933L287.491 88.2649L284.663 85.4365C284.853 85.2459 285.11 85.0646 285.422 84.9398C285.73 84.8168 286.003 84.7833 286.195 84.7833V88.7833ZM287.491 88.2649L290.319 91.0933C291.464 89.9486 292.009 88.4768 292.009 86.9689H288.009H284.009C284.009 86.7773 284.043 86.5037 284.166 86.1962C284.291 85.884 284.472 85.627 284.663 85.4365L287.491 88.2649ZM288.009 86.9689H292.009V68.5667H288.009H284.009V86.9689H288.009ZM322.044 106.149L319.565 109.288L319.591 109.309L319.617 109.329L322.044 106.149ZM322.044 8.30555L324.471 11.4853L324.497 11.4654L324.523 11.445L322.044 8.30555ZM351.073 8.30555L348.594 11.445L348.62 11.4654L348.646 11.4853L351.073 8.30555ZM351.073 106.149L353.5 109.329L353.526 109.309L353.552 109.288L351.073 106.149ZM335.911 109.907V105.907C330.45 105.907 326.807 104.752 324.471 102.969L322.044 106.149L319.617 109.329C323.847 112.556 329.448 113.907 335.911 113.907V109.907ZM322.044 106.149L324.523 103.009C322.249 101.214 320.182 97.7749 318.812 91.8934L314.916 92.8007L311.021 93.7079C312.588 100.44 315.273 105.9 319.565 109.288L322.044 106.149ZM314.916 92.8007L318.812 91.8934C317.448 86.034 316.713 77.3237 316.713 65.586H312.713H308.713C308.713 77.5207 309.448 86.9535 311.021 93.7079L314.916 92.8007ZM312.713 65.586H316.713V48.7388H312.713H308.713V65.586H312.713ZM312.713 48.7388H316.713C316.713 37.001 317.448 28.2907 318.812 22.4313L314.916 21.5241L311.021 20.6168C309.448 27.3712 308.713 36.804 308.713 48.7388H312.713ZM314.916 21.5241L318.812 22.4313C320.183 16.5438 322.244 13.1845 324.471 11.4853L322.044 8.30555L319.617 5.12574C315.278 8.43748 312.587 13.8905 311.021 20.6168L314.916 21.5241ZM322.044 8.30555L324.523 11.445C326.854 9.60444 330.476 8.41773 335.911 8.41773V4.41773V0.417725C329.423 0.417725 323.8 1.82289 319.565 5.16602L322.044 8.30555ZM335.911 4.41773V8.41773H337.206V4.41773V0.417725H335.911V4.41773ZM337.206 4.41773V8.41773C342.641 8.41773 346.263 9.60444 348.594 11.445L351.073 8.30555L353.552 5.16602C349.317 1.82289 343.694 0.417725 337.206 0.417725V4.41773ZM351.073 8.30555L348.646 11.4853C350.873 13.1845 352.934 16.5438 354.305 22.4313L358.201 21.5241L362.096 20.6168C360.53 13.8905 357.839 8.43748 353.5 5.12574L351.073 8.30555ZM358.201 21.5241L354.305 22.4313C355.669 28.2907 356.404 37.0011 356.404 48.7388H360.404H364.404C364.404 36.804 363.669 27.3712 362.096 20.6168L358.201 21.5241ZM360.404 48.7388H356.404V65.586H360.404H364.404V48.7388H360.404ZM360.404 65.586H356.404C356.404 77.3237 355.669 86.034 354.305 91.8934L358.201 92.8007L362.096 93.7079C363.669 86.9535 364.404 77.5207 364.404 65.586H360.404ZM358.201 92.8007L354.305 91.8934C352.935 97.7749 350.868 101.214 348.594 103.009L351.073 106.149L353.552 109.288C357.844 105.9 360.529 100.44 362.096 93.7079L358.201 92.8007ZM351.073 106.149L348.646 102.969C346.31 104.752 342.667 105.907 337.206 105.907V109.907V113.907C343.669 113.907 349.27 112.556 353.5 109.329L351.073 106.149ZM337.206 109.907V105.907H335.911V109.907V113.907H337.206V109.907ZM336.558 89.172V93.172C338.066 93.172 339.538 92.6269 340.683 91.4821L337.854 88.6537L335.026 85.8252C335.217 85.6347 335.474 85.4534 335.786 85.3285C336.093 85.2055 336.367 85.172 336.558 85.172V89.172ZM337.854 88.6537L340.683 91.4821C341.828 90.3373 342.373 88.8655 342.373 87.3577H338.373H334.373C334.373 87.166 334.406 86.8925 334.529 86.5849C334.654 86.2728 334.835 86.0158 335.026 85.8252L337.854 88.6537ZM338.373 87.3577H342.373V26.967H338.373H334.373V87.3577H338.373ZM338.373 26.967H342.373C342.373 25.4592 341.828 23.9874 340.683 22.8426L337.854 25.6711L335.026 28.4995C334.835 28.3089 334.654 28.052 334.529 27.7398C334.406 27.4323 334.373 27.1587 334.373 26.967H338.373ZM337.854 25.6711L340.683 22.8426C339.538 21.6979 338.066 21.1527 336.558 21.1527V25.1527V29.1527C336.367 29.1527 336.093 29.1192 335.786 28.9962C335.474 28.8713 335.217 28.6901 335.026 28.4995L337.854 25.6711ZM336.558 25.1527V21.1527C335.051 21.1527 333.579 21.6979 332.434 22.8426L335.263 25.6711L338.091 28.4995C337.9 28.6901 337.643 28.8713 337.331 28.9962C337.024 29.1192 336.75 29.1527 336.558 29.1527V25.1527ZM335.263 25.6711L332.434 22.8426C331.289 23.9874 330.744 25.4592 330.744 26.967H334.744H338.744C338.744 27.1587 338.711 27.4323 338.588 27.7398C338.463 28.052 338.282 28.3089 338.091 28.4995L335.263 25.6711ZM334.744 26.967H330.744V87.3577H334.744H338.744V26.967H334.744ZM334.744 87.3577H330.744C330.744 88.8655 331.289 90.3373 332.434 91.4821L335.263 88.6537L338.091 85.8252C338.282 86.0158 338.463 86.2728 338.588 86.5849C338.711 86.8925 338.744 87.166 338.744 87.3577H334.744ZM335.263 88.6537L332.434 91.4821C333.579 92.6269 335.051 93.172 336.558 93.172V89.172V85.172C336.75 85.172 337.024 85.2055 337.331 85.3285C337.643 85.4534 337.9 85.6347 338.091 85.8252L335.263 88.6537ZM382.673 109V113H386.673V109H382.673ZM361.938 109H357.938V113H361.938V109ZM361.938 87.6169V83.6169H357.938V87.6169H361.938ZM382.673 87.6169H386.673V83.6169H382.673V87.6169ZM382.673 109V105H361.938V109V113H382.673V109ZM361.938 109H365.938V87.6169H361.938H357.938V109H361.938ZM361.938 87.6169V91.6169H382.673V87.6169V83.6169H361.938V87.6169ZM382.673 87.6169H378.673V109H382.673H386.673V87.6169H382.673Z" fill="#0E0E0E"/>
</g>
</g>
<defs>
<clipPath id="clip0_636_80">
<rect width="387" height="114" fill="white"/>
</clipPath>
</defs>
</svg>
