<svg width="387" height="114" viewBox="0 0 387 114" fill="none" xmlns="http://www.w3.org/2000/svg">
<mask id="path-1-outside-1_211_530" maskUnits="userSpaceOnUse" x="-0.241211" y="-0.00012207" width="387" height="114" fill="black">
<rect fill="white" x="-0.241211" y="-0.00012207" width="387" height="114"/>
<path d="M44.6167 60.4022C48.6773 64.1172 50.7076 70.4673 50.7076 79.4525V109H29.3246V73.8799C29.3246 72.152 28.4607 71.2881 26.7328 71.2881H25.696V109H4.31303V5.32482H25.696C32.3485 5.32482 37.4891 6.27517 41.1177 8.17587C44.7463 10.0766 47.3382 13.3164 48.8933 17.8954C50.5348 22.388 51.3556 28.8677 51.3556 37.3345C51.3556 48.3068 49.1093 55.996 44.6167 60.4022ZM29.3246 28.3925C29.3246 27.4422 29.195 26.7942 28.9359 26.4486C28.6767 26.0166 28.1151 25.8006 27.2511 25.8006H25.696V52.497H27.2511C28.6335 52.497 29.3246 51.8058 29.3246 50.4235V28.3925ZM87.4819 5.32482V27.3558H75.5593V46.0173H87.4819V68.0482H75.5593V86.9689H87.4819V109H54.1763V5.32482H87.4819ZM114.859 109H89.4582L98.5298 5.32482H134.816L143.888 109H118.487V77.379H114.859V109ZM114.859 56.644H118.487V27.8741C118.487 27.3558 118.314 26.9238 117.969 26.5782C117.623 26.2326 117.191 26.0598 116.673 26.0598C116.155 26.0598 115.723 26.2326 115.377 26.5782C115.031 26.9238 114.859 27.3558 114.859 27.8741V56.644ZM146.309 109V5.32482H167.692C174.431 5.32482 179.615 6.62075 183.244 9.21263C186.872 11.7181 189.464 16.0811 191.019 22.3016C192.574 28.4357 193.352 37.2481 193.352 48.7387V65.5859C193.352 77.163 192.574 86.0618 191.019 92.2823C189.464 98.4164 186.872 102.736 183.244 105.242C179.615 107.747 174.431 109 167.692 109H146.309ZM168.729 88.2649C170.457 88.2649 171.321 87.4009 171.321 85.673V28.6517C171.321 26.9238 170.457 26.0598 168.729 26.0598H167.692V88.2649H168.729ZM200.109 109V86.9689H218.511C219.03 86.9689 219.462 86.7961 219.807 86.4506C220.153 86.105 220.326 85.673 220.326 85.1546C220.326 84.6362 220.153 84.2043 219.807 83.8587C219.462 83.5131 219.03 83.3403 218.511 83.3403H200.109L192.981 5.32482H218.382V62.6053C218.382 63.1237 218.555 63.5556 218.9 63.9012C219.246 64.2468 219.678 64.4196 220.196 64.4196C220.714 64.4196 221.146 64.2468 221.492 63.9012C221.838 63.5556 222.01 63.1237 222.01 62.6053V5.32482H247.411L238.339 109H200.109ZM309.41 49.1275H287.768V26.967C287.768 26.4486 287.595 26.0166 287.25 25.671C286.904 25.3255 286.472 25.1527 285.954 25.1527C285.435 25.1527 285.003 25.3255 284.658 25.671C284.312 26.0166 284.14 26.4486 284.14 26.967V52.2378H309.41V109H290.36L288.287 97.8548C287.509 102.175 286.17 105.285 284.269 107.186C282.368 109 279.906 109.907 276.882 109.907C273.686 109.907 270.964 108.654 268.718 106.149C266.558 103.643 264.873 99.1507 263.664 92.6711C262.454 86.1914 261.849 77.163 261.849 65.5859V48.7387C261.849 36.9025 262.584 27.8309 264.052 21.524C265.521 15.2171 267.94 10.811 271.31 8.30547C274.679 5.71359 279.431 4.41765 285.565 4.41765H286.861C292.822 4.41765 297.401 5.6272 300.598 8.04628C303.795 10.4654 306.041 14.5692 307.337 20.3577C308.719 26.1462 309.41 34.4834 309.41 45.3693V49.1275ZM287.768 68.5666H284.14V86.9689C284.14 87.4873 284.312 87.9193 284.658 88.2649C285.003 88.6104 285.435 88.7832 285.954 88.7832C286.472 88.7832 286.904 88.6104 287.25 88.2649C287.595 87.9193 287.768 87.4873 287.768 86.9689V68.5666ZM335.669 109.907C329.708 109.907 325.086 108.654 321.803 106.149C318.52 103.557 316.144 99.1075 314.675 92.8006C313.206 86.4937 312.472 77.4222 312.472 65.5859V48.7387C312.472 36.9025 313.206 27.8309 314.675 21.524C316.144 15.2171 318.52 10.811 321.803 8.30547C325.086 5.71359 329.708 4.41765 335.669 4.41765H336.965C342.927 4.41765 347.549 5.71359 350.832 8.30547C354.115 10.811 356.491 15.2171 357.959 21.524C359.428 27.8309 360.163 36.9025 360.163 48.7387V65.5859C360.163 77.4222 359.428 86.4937 357.959 92.8006C356.491 99.1075 354.115 103.557 350.832 106.149C347.549 108.654 342.927 109.907 336.965 109.907H335.669ZM336.317 89.172C336.836 89.172 337.268 88.9992 337.613 88.6536C337.959 88.3081 338.132 87.8761 338.132 87.3577V26.967C338.132 26.4486 337.959 26.0166 337.613 25.671C337.268 25.3255 336.836 25.1527 336.317 25.1527C335.799 25.1527 335.367 25.3255 335.021 25.671C334.676 26.0166 334.503 26.4486 334.503 26.967V87.3577C334.503 87.8761 334.676 88.3081 335.021 88.6536C335.367 88.9992 335.799 89.172 336.317 89.172ZM382.431 109H361.696V87.6169H382.431V109Z"/>
</mask>
<path d="M44.6167 60.4022C48.6773 64.1172 50.7076 70.4673 50.7076 79.4525V109H29.3246V73.8799C29.3246 72.152 28.4607 71.2881 26.7328 71.2881H25.696V109H4.31303V5.32482H25.696C32.3485 5.32482 37.4891 6.27517 41.1177 8.17587C44.7463 10.0766 47.3382 13.3164 48.8933 17.8954C50.5348 22.388 51.3556 28.8677 51.3556 37.3345C51.3556 48.3068 49.1093 55.996 44.6167 60.4022ZM29.3246 28.3925C29.3246 27.4422 29.195 26.7942 28.9359 26.4486C28.6767 26.0166 28.1151 25.8006 27.2511 25.8006H25.696V52.497H27.2511C28.6335 52.497 29.3246 51.8058 29.3246 50.4235V28.3925ZM87.4819 5.32482V27.3558H75.5593V46.0173H87.4819V68.0482H75.5593V86.9689H87.4819V109H54.1763V5.32482H87.4819ZM114.859 109H89.4582L98.5298 5.32482H134.816L143.888 109H118.487V77.379H114.859V109ZM114.859 56.644H118.487V27.8741C118.487 27.3558 118.314 26.9238 117.969 26.5782C117.623 26.2326 117.191 26.0598 116.673 26.0598C116.155 26.0598 115.723 26.2326 115.377 26.5782C115.031 26.9238 114.859 27.3558 114.859 27.8741V56.644ZM146.309 109V5.32482H167.692C174.431 5.32482 179.615 6.62075 183.244 9.21263C186.872 11.7181 189.464 16.0811 191.019 22.3016C192.574 28.4357 193.352 37.2481 193.352 48.7387V65.5859C193.352 77.163 192.574 86.0618 191.019 92.2823C189.464 98.4164 186.872 102.736 183.244 105.242C179.615 107.747 174.431 109 167.692 109H146.309ZM168.729 88.2649C170.457 88.2649 171.321 87.4009 171.321 85.673V28.6517C171.321 26.9238 170.457 26.0598 168.729 26.0598H167.692V88.2649H168.729ZM200.109 109V86.9689H218.511C219.03 86.9689 219.462 86.7961 219.807 86.4506C220.153 86.105 220.326 85.673 220.326 85.1546C220.326 84.6362 220.153 84.2043 219.807 83.8587C219.462 83.5131 219.03 83.3403 218.511 83.3403H200.109L192.981 5.32482H218.382V62.6053C218.382 63.1237 218.555 63.5556 218.9 63.9012C219.246 64.2468 219.678 64.4196 220.196 64.4196C220.714 64.4196 221.146 64.2468 221.492 63.9012C221.838 63.5556 222.01 63.1237 222.01 62.6053V5.32482H247.411L238.339 109H200.109ZM309.41 49.1275H287.768V26.967C287.768 26.4486 287.595 26.0166 287.25 25.671C286.904 25.3255 286.472 25.1527 285.954 25.1527C285.435 25.1527 285.003 25.3255 284.658 25.671C284.312 26.0166 284.14 26.4486 284.14 26.967V52.2378H309.41V109H290.36L288.287 97.8548C287.509 102.175 286.17 105.285 284.269 107.186C282.368 109 279.906 109.907 276.882 109.907C273.686 109.907 270.964 108.654 268.718 106.149C266.558 103.643 264.873 99.1507 263.664 92.6711C262.454 86.1914 261.849 77.163 261.849 65.5859V48.7387C261.849 36.9025 262.584 27.8309 264.052 21.524C265.521 15.2171 267.94 10.811 271.31 8.30547C274.679 5.71359 279.431 4.41765 285.565 4.41765H286.861C292.822 4.41765 297.401 5.6272 300.598 8.04628C303.795 10.4654 306.041 14.5692 307.337 20.3577C308.719 26.1462 309.41 34.4834 309.41 45.3693V49.1275ZM287.768 68.5666H284.14V86.9689C284.14 87.4873 284.312 87.9193 284.658 88.2649C285.003 88.6104 285.435 88.7832 285.954 88.7832C286.472 88.7832 286.904 88.6104 287.25 88.2649C287.595 87.9193 287.768 87.4873 287.768 86.9689V68.5666ZM335.669 109.907C329.708 109.907 325.086 108.654 321.803 106.149C318.52 103.557 316.144 99.1075 314.675 92.8006C313.206 86.4937 312.472 77.4222 312.472 65.5859V48.7387C312.472 36.9025 313.206 27.8309 314.675 21.524C316.144 15.2171 318.52 10.811 321.803 8.30547C325.086 5.71359 329.708 4.41765 335.669 4.41765H336.965C342.927 4.41765 347.549 5.71359 350.832 8.30547C354.115 10.811 356.491 15.2171 357.959 21.524C359.428 27.8309 360.163 36.9025 360.163 48.7387V65.5859C360.163 77.4222 359.428 86.4937 357.959 92.8006C356.491 99.1075 354.115 103.557 350.832 106.149C347.549 108.654 342.927 109.907 336.965 109.907H335.669ZM336.317 89.172C336.836 89.172 337.268 88.9992 337.613 88.6536C337.959 88.3081 338.132 87.8761 338.132 87.3577V26.967C338.132 26.4486 337.959 26.0166 337.613 25.671C337.268 25.3255 336.836 25.1527 336.317 25.1527C335.799 25.1527 335.367 25.3255 335.021 25.671C334.676 26.0166 334.503 26.4486 334.503 26.967V87.3577C334.503 87.8761 334.676 88.3081 335.021 88.6536C335.367 88.9992 335.799 89.172 336.317 89.172ZM382.431 109H361.696V87.6169H382.431V109Z" fill="#FFFDFB"/>
<path d="M44.6167 60.4022L41.8159 57.5464L38.8012 60.5031L41.9167 63.3534L44.6167 60.4022ZM50.7076 109V113H54.7076V109H50.7076ZM29.3246 109H25.3246V113H29.3246V109ZM25.696 71.2881V67.2881H21.696V71.2881H25.696ZM25.696 109V113H29.696V109H25.696ZM4.31302 109H0.313019V113H4.31302V109ZM4.31302 5.32482V1.32482H0.313019V5.32482H4.31302ZM41.1177 8.17587L42.9737 4.63255V4.63255L41.1177 8.17587ZM48.8933 17.8954L45.1058 19.1817L45.1205 19.2251L45.1363 19.2682L48.8933 17.8954ZM28.9359 26.4486L25.5059 28.5066L25.6121 28.6835L25.7359 28.8486L28.9359 26.4486ZM25.696 25.8006V21.8006H21.696V25.8006H25.696ZM25.696 52.497H21.696V56.497H25.696V52.497ZM44.6167 60.4022L41.9167 63.3534C44.7507 65.9462 46.7076 70.903 46.7076 79.4525H50.7076H54.7076C54.7076 70.0316 52.604 62.2882 47.3168 57.451L44.6167 60.4022ZM50.7076 79.4525H46.7076V109H50.7076H54.7076V79.4525H50.7076ZM50.7076 109V105H29.3246V109V113H50.7076V109ZM29.3246 109H33.3246V73.8799H29.3246H25.3246V109H29.3246ZM29.3246 73.8799H33.3246C33.3246 72.3994 32.9518 70.5543 31.5051 69.1076C30.0584 67.6609 28.2133 67.2881 26.7328 67.2881V71.2881V75.2881C26.9801 75.2881 26.431 75.3472 25.8482 74.7645C25.2655 74.1817 25.3246 73.6326 25.3246 73.8799H29.3246ZM26.7328 71.2881V67.2881H25.696V71.2881V75.2881H26.7328V71.2881ZM25.696 71.2881H21.696V109H25.696H29.696V71.2881H25.696ZM25.696 109V105H4.31302V109V113H25.696V109ZM4.31302 109H8.31302V5.32482H4.31302H0.313019V109H4.31302ZM4.31302 5.32482V9.32482H25.696V5.32482V1.32482H4.31302V5.32482ZM25.696 5.32482V9.32482C32.0609 9.32482 36.4561 10.2497 39.2617 11.7192L41.1177 8.17587L42.9737 4.63255C38.522 2.30068 32.636 1.32482 25.696 1.32482V5.32482ZM41.1177 8.17587L39.2617 11.7192C41.8192 13.0589 43.8172 15.3877 45.1058 19.1817L48.8933 17.8954L52.6808 16.6091C50.8591 11.2452 47.6734 7.09432 42.9737 4.63255L41.1177 8.17587ZM48.8933 17.8954L45.1363 19.2682C46.5384 23.1057 47.3556 29.0328 47.3556 37.3345H51.3556H55.3556C55.3556 28.7025 54.5312 21.6703 52.6504 16.5226L48.8933 17.8954ZM51.3556 37.3345H47.3556C47.3556 47.9749 45.1375 54.2887 41.8159 57.5464L44.6167 60.4022L47.4175 63.2579C53.0811 57.7033 55.3556 48.6386 55.3556 37.3345H51.3556ZM29.3246 28.3925H33.3246C33.3246 27.7579 33.2832 27.0767 33.1498 26.4093C33.024 25.7807 32.7632 24.8851 32.1359 24.0486L28.9359 26.4486L25.7359 28.8486C25.5402 28.5877 25.4345 28.3588 25.381 28.2221C25.3269 28.0838 25.3083 27.9941 25.3051 27.9782C25.3012 27.9588 25.3246 28.0768 25.3246 28.3925H29.3246ZM28.9359 26.4486L32.3658 24.3906C30.9796 22.0803 28.498 21.8006 27.2511 21.8006V25.8006V29.8006C27.3884 29.8006 27.2149 29.8231 26.8844 29.696C26.4998 29.5481 25.92 29.1968 25.5059 28.5066L28.9359 26.4486ZM27.2511 25.8006V21.8006H25.696V25.8006V29.8006H27.2511V25.8006ZM25.696 25.8006H21.696V52.497H25.696H29.696V25.8006H25.696ZM25.696 52.497V56.497H27.2511V52.497V48.497H25.696V52.497ZM27.2511 52.497V56.497C28.5589 56.497 30.2744 56.1673 31.6347 54.807C32.995 53.4467 33.3246 51.7312 33.3246 50.4235H29.3246H25.3246C25.3246 50.4981 25.3087 49.8193 25.9778 49.1502C26.647 48.481 27.3257 48.497 27.2511 48.497V52.497ZM29.3246 50.4235H33.3246V28.3925H29.3246H25.3246V50.4235H29.3246ZM87.4819 5.32482H91.4819V1.32482H87.4819V5.32482ZM87.4819 27.3558V31.3558H91.4819V27.3558H87.4819ZM75.5593 27.3558V23.3558H71.5593V27.3558H75.5593ZM75.5593 46.0173H71.5593V50.0173H75.5593V46.0173ZM87.4819 46.0173H91.4819V42.0173H87.4819V46.0173ZM87.4819 68.0482V72.0482H91.4819V68.0482H87.4819ZM75.5593 68.0482V64.0482H71.5593V68.0482H75.5593ZM75.5593 86.9689H71.5593V90.9689H75.5593V86.9689ZM87.4819 86.9689H91.4819V82.9689H87.4819V86.9689ZM87.4819 109V113H91.4819V109H87.4819ZM54.1763 109H50.1763V113H54.1763V109ZM54.1763 5.32482V1.32482H50.1763V5.32482H54.1763ZM87.4819 5.32482H83.4819V27.3558H87.4819H91.4819V5.32482H87.4819ZM87.4819 27.3558V23.3558H75.5593V27.3558V31.3558H87.4819V27.3558ZM75.5593 27.3558H71.5593V46.0173H75.5593H79.5593V27.3558H75.5593ZM75.5593 46.0173V50.0173H87.4819V46.0173V42.0173H75.5593V46.0173ZM87.4819 46.0173H83.4819V68.0482H87.4819H91.4819V46.0173H87.4819ZM87.4819 68.0482V64.0482H75.5593V68.0482V72.0482H87.4819V68.0482ZM75.5593 68.0482H71.5593V86.9689H75.5593H79.5593V68.0482H75.5593ZM75.5593 86.9689V90.9689H87.4819V86.9689V82.9689H75.5593V86.9689ZM87.4819 86.9689H83.4819V109H87.4819H91.4819V86.9689H87.4819ZM87.4819 109V105H54.1763V109V113H87.4819V109ZM54.1763 109H58.1763V5.32482H54.1763H50.1763V109H54.1763ZM54.1763 5.32482V9.32482H87.4819V5.32482V1.32482H54.1763V5.32482ZM114.859 109V113H118.859V109H114.859ZM89.4582 109L85.4734 108.651L85.0929 113H89.4582V109ZM98.5298 5.32482V1.32482H94.8645L94.545 4.97615L98.5298 5.32482ZM134.816 5.32482L138.801 4.97615L138.481 1.32482H134.816V5.32482ZM143.888 109V113H148.253L147.872 108.651L143.888 109ZM118.487 109H114.487V113H118.487V109ZM118.487 77.379H122.487V73.379H118.487V77.379ZM114.859 77.379V73.379H110.859V77.379H114.859ZM114.859 56.644H110.859V60.644H114.859V56.644ZM118.487 56.644V60.644H122.487V56.644H118.487ZM117.969 26.5782L115.14 29.4066L115.14 29.4066L117.969 26.5782ZM115.377 26.5782L118.205 29.4066V29.4066L115.377 26.5782ZM114.859 109V105H89.4582V109V113H114.859V109ZM89.4582 109L93.443 109.349L102.515 5.67348L98.5298 5.32482L94.545 4.97615L85.4734 108.651L89.4582 109ZM98.5298 5.32482V9.32482H134.816V5.32482V1.32482H98.5298V5.32482ZM134.816 5.32482L130.831 5.67348L139.903 109.349L143.888 109L147.872 108.651L138.801 4.97615L134.816 5.32482ZM143.888 109V105H118.487V109V113H143.888V109ZM118.487 109H122.487V77.379H118.487H114.487V109H118.487ZM118.487 77.379V73.379H114.859V77.379V81.379H118.487V77.379ZM114.859 77.379H110.859V109H114.859H118.859V77.379H114.859ZM114.859 56.644V60.644H118.487V56.644V52.644H114.859V56.644ZM118.487 56.644H122.487V27.8741H118.487H114.487V56.644H118.487ZM118.487 27.8741H122.487C122.487 26.3663 121.942 24.8945 120.797 23.7498L117.969 26.5782L115.14 29.4066C114.95 29.2161 114.769 28.9591 114.644 28.6469C114.521 28.3394 114.487 28.0658 114.487 27.8741H118.487ZM117.969 26.5782L120.797 23.7498C119.653 22.605 118.181 22.0598 116.673 22.0598V26.0598V30.0598C116.481 30.0598 116.208 30.0263 115.9 29.9033C115.588 29.7784 115.331 29.5972 115.14 29.4066L117.969 26.5782ZM116.673 26.0598V22.0598C115.165 22.0598 113.693 22.605 112.549 23.7498L115.377 26.5782L118.205 29.4066C118.015 29.5972 117.758 29.7784 117.446 29.9033C117.138 30.0263 116.865 30.0598 116.673 30.0598V26.0598ZM115.377 26.5782L112.549 23.7498C111.404 24.8945 110.859 26.3663 110.859 27.8741H114.859H118.859C118.859 28.0658 118.825 28.3394 118.702 28.6469C118.577 28.9591 118.396 29.2161 118.205 29.4066L115.377 26.5782ZM114.859 27.8741H110.859V56.644H114.859H118.859V27.8741H114.859ZM146.309 109H142.309V113H146.309V109ZM146.309 5.32482V1.32482H142.309V5.32482H146.309ZM183.244 9.21263L180.919 12.4676L180.945 12.4861L180.971 12.5042L183.244 9.21263ZM191.019 22.3016L187.139 23.2718L187.142 23.2846L191.019 22.3016ZM191.019 92.2823L194.897 93.2653L194.9 93.2524L191.019 92.2823ZM183.244 105.242L185.516 108.533L183.244 105.242ZM167.692 26.0598V22.0598H163.692V26.0598H167.692ZM167.692 88.2649H163.692V92.2649H167.692V88.2649ZM146.309 109H150.309V5.32482H146.309H142.309V109H146.309ZM146.309 5.32482V9.32482H167.692V5.32482V1.32482H146.309V5.32482ZM167.692 5.32482V9.32482C173.999 9.32482 178.235 10.5506 180.919 12.4676L183.244 9.21263L185.569 5.95769C180.995 2.69088 174.863 1.32482 167.692 1.32482V5.32482ZM183.244 9.21263L180.971 12.5042C183.503 14.2524 185.714 17.5741 187.139 23.2717L191.019 22.3016L194.9 21.3315C193.214 14.5881 190.242 9.18384 185.516 5.92104L183.244 9.21263ZM191.019 22.3016L187.142 23.2846C188.575 28.9364 189.352 37.3573 189.352 48.7387H193.352H197.352C197.352 37.1389 196.574 27.935 194.897 21.3186L191.019 22.3016ZM193.352 48.7387H189.352V65.5859H193.352H197.352V48.7387H193.352ZM193.352 65.5859H189.352C189.352 77.053 188.575 85.5666 187.139 91.3121L191.019 92.2823L194.9 93.2524C196.574 86.5569 197.352 77.273 197.352 65.5859H193.352ZM191.019 92.2823L187.142 91.2993C185.723 96.8976 183.517 100.192 180.971 101.95L183.244 105.242L185.516 108.533C190.227 105.28 193.206 99.9352 194.897 93.2653L191.019 92.2823ZM183.244 105.242L180.971 101.95C178.278 103.809 174.02 105 167.692 105V109V113C174.842 113 180.952 111.685 185.516 108.533L183.244 105.242ZM167.692 109V105H146.309V109V113H167.692V109ZM168.729 88.2649V92.2649C170.21 92.2649 172.055 91.892 173.501 90.4453C174.948 88.9986 175.321 87.1535 175.321 85.673H171.321H167.321C167.321 85.9204 167.262 85.3712 167.845 84.7885C168.427 84.2057 168.977 84.2649 168.729 84.2649V88.2649ZM171.321 85.673H175.321V28.6517H171.321H167.321V85.673H171.321ZM171.321 28.6517H175.321C175.321 27.1712 174.948 25.3261 173.501 23.8794C172.055 22.4327 170.21 22.0598 168.729 22.0598V26.0598V30.0598C168.977 30.0598 168.427 30.119 167.845 29.5362C167.262 28.9535 167.321 28.4043 167.321 28.6517H171.321ZM168.729 26.0598V22.0598H167.692V26.0598V30.0598H168.729V26.0598ZM167.692 26.0598H163.692V88.2649H167.692H171.692V26.0598H167.692ZM167.692 88.2649V92.2649H168.729V88.2649V84.2649H167.692V88.2649ZM200.109 109H196.109V113H200.109V109ZM200.109 86.9689V82.9689H196.109V86.9689H200.109ZM200.109 83.3403L196.126 83.7042L196.458 87.3403H200.109V83.3403ZM192.981 5.32482V1.32482H188.599L188.998 5.68875L192.981 5.32482ZM218.382 5.32482H222.382V1.32482H218.382V5.32482ZM218.9 63.9012L221.729 61.0728V61.0728L218.9 63.9012ZM221.492 63.9012L218.664 61.0728V61.0728L221.492 63.9012ZM222.01 5.32482V1.32482H218.01V5.32482H222.01ZM247.411 5.32482L251.396 5.67348L251.776 1.32482H247.411V5.32482ZM238.339 109V113H242.005L242.324 109.349L238.339 109ZM200.109 109H204.109V86.9689H200.109H196.109V109H200.109ZM200.109 86.9689V90.9689H218.511V86.9689V82.9689H200.109V86.9689ZM218.511 86.9689V90.9689C220.019 90.9689 221.491 90.4237 222.636 89.279L219.807 86.4506L216.979 83.6221C217.169 83.4316 217.426 83.2503 217.739 83.1254C218.046 83.0024 218.32 82.9689 218.511 82.9689V86.9689ZM219.807 86.4506L222.636 89.279C223.781 88.1342 224.326 86.6624 224.326 85.1546H220.326H216.326C216.326 84.9629 216.359 84.6893 216.482 84.3818C216.607 84.0696 216.788 83.8127 216.979 83.6221L219.807 86.4506ZM220.326 85.1546H224.326C224.326 83.6468 223.781 82.175 222.636 81.0303L219.807 83.8587L216.979 86.6871C216.788 86.4965 216.607 86.2396 216.482 85.9274C216.359 85.6199 216.326 85.3463 216.326 85.1546H220.326ZM219.807 83.8587L222.636 81.0303C221.491 79.8855 220.019 79.3403 218.511 79.3403V83.3403V87.3403C218.32 87.3403 218.046 87.3068 217.739 87.1838C217.426 87.0589 217.169 86.8777 216.979 86.6871L219.807 83.8587ZM218.511 83.3403V79.3403H200.109V83.3403V87.3403H218.511V83.3403ZM200.109 83.3403L204.092 82.9764L196.965 4.96088L192.981 5.32482L188.998 5.68875L196.126 83.7042L200.109 83.3403ZM192.981 5.32482V9.32482H218.382V5.32482V1.32482H192.981V5.32482ZM218.382 5.32482H214.382V62.6053H218.382H222.382V5.32482H218.382ZM218.382 62.6053H214.382C214.382 64.1131 214.927 65.5849 216.072 66.7297L218.9 63.9012L221.729 61.0728C221.919 61.2634 222.1 61.5203 222.225 61.8325C222.348 62.14 222.382 62.4136 222.382 62.6053H218.382ZM218.9 63.9012L216.072 66.7296C217.216 67.8744 218.688 68.4196 220.196 68.4196V64.4196V60.4196C220.388 60.4196 220.661 60.4531 220.969 60.5761C221.281 60.701 221.538 60.8822 221.729 61.0728L218.9 63.9012ZM220.196 64.4196V68.4196C221.704 68.4196 223.176 67.8744 224.32 66.7296L221.492 63.9012L218.664 61.0728C218.854 60.8822 219.111 60.701 219.423 60.5761C219.731 60.4531 220.004 60.4196 220.196 60.4196V64.4196ZM221.492 63.9012L224.32 66.7297C225.465 65.5849 226.01 64.1131 226.01 62.6053H222.01H218.01C218.01 62.4136 218.044 62.14 218.167 61.8325C218.292 61.5203 218.473 61.2634 218.664 61.0728L221.492 63.9012ZM222.01 62.6053H226.01V5.32482H222.01H218.01V62.6053H222.01ZM222.01 5.32482V9.32482H247.411V5.32482V1.32482H222.01V5.32482ZM247.411 5.32482L243.426 4.97615L234.354 108.651L238.339 109L242.324 109.349L251.396 5.67348L247.411 5.32482ZM238.339 109V105H200.109V109V113H238.339V109ZM309.41 49.1275V53.1275H313.41V49.1275H309.41ZM287.768 49.1275H283.768V53.1275H287.768V49.1275ZM287.25 25.671L284.421 28.4995L284.421 28.4995L287.25 25.671ZM284.658 25.671L287.486 28.4995V28.4995L284.658 25.671ZM284.14 52.2378H280.14V56.2378H284.14V52.2378ZM309.41 52.2378H313.41V48.2378H309.41V52.2378ZM309.41 109V113H313.41V109H309.41ZM290.36 109L286.427 109.732L287.036 113H290.36V109ZM288.286 97.8548L292.219 97.1232L284.35 97.1462L288.286 97.8548ZM284.269 107.186L287.031 110.079L287.065 110.047L287.098 110.014L284.269 107.186ZM268.718 106.149L265.688 108.761L265.714 108.79L265.74 108.819L268.718 106.149ZM263.664 92.6711L259.732 93.405L263.664 92.6711ZM264.052 21.524L267.948 22.4313L264.052 21.524ZM271.31 8.30547L273.697 11.5153L273.723 11.4959L273.749 11.476L271.31 8.30547ZM307.337 20.3577L303.433 21.2316L303.44 21.2592L303.446 21.2868L307.337 20.3577ZM287.768 68.5666H291.768V64.5666H287.768V68.5666ZM284.14 68.5666V64.5666H280.14V68.5666H284.14ZM284.658 88.2649L287.486 85.4364L284.658 88.2649ZM287.25 88.2649L284.421 85.4364V85.4364L287.25 88.2649ZM309.41 49.1275V45.1275H287.768V49.1275V53.1275H309.41V49.1275ZM287.768 49.1275H291.768V26.967H287.768H283.768V49.1275H287.768ZM287.768 26.967H291.768C291.768 25.4592 291.223 23.9874 290.078 22.8426L287.25 25.671L284.421 28.4995C284.231 28.3089 284.049 28.052 283.925 27.7398C283.802 27.4323 283.768 27.1587 283.768 26.967H287.768ZM287.25 25.671L290.078 22.8426C288.933 21.6979 287.462 21.1527 285.954 21.1527V25.1527V29.1527C285.762 29.1527 285.489 29.1192 285.181 28.9962C284.869 28.8713 284.612 28.69 284.421 28.4995L287.25 25.671ZM285.954 25.1527V21.1527C284.446 21.1527 282.974 21.6979 281.829 22.8426L284.658 25.671L287.486 28.4995C287.296 28.69 287.039 28.8713 286.727 28.9962C286.419 29.1192 286.146 29.1527 285.954 29.1527V25.1527ZM284.658 25.671L281.829 22.8426C280.685 23.9874 280.14 25.4592 280.14 26.967H284.14H288.14C288.14 27.1587 288.106 27.4323 287.983 27.7398C287.858 28.052 287.677 28.3089 287.486 28.4995L284.658 25.671ZM284.14 26.967H280.14V52.2378H284.14H288.14V26.967H284.14ZM284.14 52.2378V56.2378H309.41V52.2378V48.2378H284.14V52.2378ZM309.41 52.2378H305.41V109H309.41H313.41V52.2378H309.41ZM309.41 109V105H290.36V109V113H309.41V109ZM290.36 109L294.293 108.268L292.219 97.1232L288.286 97.8548L284.354 98.5864L286.427 109.732L290.36 109ZM288.286 97.8548L284.35 97.1462C283.633 101.126 282.503 103.295 281.441 104.357L284.269 107.186L287.098 110.014C289.836 107.275 291.384 103.224 292.223 98.5634L288.286 97.8548ZM284.269 107.186L281.507 104.292C280.463 105.289 279.044 105.907 276.882 105.907V109.907V113.907C280.768 113.907 284.274 112.711 287.031 110.079L284.269 107.186ZM276.882 109.907V105.907C274.888 105.907 273.229 105.188 271.696 103.479L268.718 106.149L265.74 108.819C268.699 112.12 272.483 113.907 276.882 113.907V109.907ZM268.718 106.149L271.747 103.537C270.317 101.878 268.781 98.2861 267.596 91.9371L263.664 92.6711L259.732 93.405C260.966 100.015 262.799 105.409 265.688 108.761L268.718 106.149ZM263.664 92.6711L267.596 91.9371C266.453 85.8147 265.849 77.0714 265.849 65.5859H261.849H257.849C257.849 77.2546 258.455 86.568 259.732 93.405L263.664 92.6711ZM261.849 65.5859H265.849V48.7387H261.849H257.849V65.5859H261.849ZM261.849 48.7387H265.849C265.849 37.001 266.584 28.2907 267.948 22.4313L264.052 21.524L260.157 20.6168C258.584 27.3712 257.849 36.804 257.849 48.7387H261.849ZM264.052 21.524L267.948 22.4313C269.313 16.5692 271.404 13.22 273.697 11.5153L271.31 8.30547L268.923 5.09562C264.477 8.40195 261.729 13.8651 260.157 20.6168L264.052 21.524ZM271.31 8.30547L273.749 11.476C276.169 9.61424 279.935 8.41765 285.565 8.41765V4.41765V0.417655C278.927 0.417655 273.19 1.81295 268.871 5.13498L271.31 8.30547ZM285.565 4.41765V8.41765H286.861V4.41765V0.417655H285.565V4.41765ZM286.861 4.41765V8.41765C292.356 8.41765 295.948 9.54359 298.184 11.2359L300.598 8.04628L303.012 4.85666C298.855 1.7108 293.289 0.417655 286.861 0.417655V4.41765ZM300.598 8.04628L298.184 11.2359C300.336 12.8646 302.248 15.9369 303.433 21.2316L307.337 20.3577L311.24 19.4838C309.834 13.2014 307.253 8.06609 303.012 4.85666L300.598 8.04628ZM307.337 20.3577L303.446 21.2868C304.719 26.6172 305.41 34.584 305.41 45.3693H309.41H313.41C313.41 34.3829 312.719 25.6752 311.227 19.4286L307.337 20.3577ZM309.41 45.3693H305.41V49.1275H309.41H313.41V45.3693H309.41ZM287.768 68.5666V64.5666H284.14V68.5666V72.5666H287.768V68.5666ZM284.14 68.5666H280.14V86.9689H284.14H288.14V68.5666H284.14ZM284.14 86.9689H280.14C280.14 88.4767 280.685 89.9485 281.829 91.0933L284.658 88.2649L287.486 85.4364C287.677 85.627 287.858 85.8839 287.983 86.1961C288.106 86.5036 288.14 86.7772 288.14 86.9689H284.14ZM284.658 88.2649L281.829 91.0933C282.974 92.2381 284.446 92.7832 285.954 92.7832V88.7832V84.7832C286.146 84.7832 286.419 84.8167 286.727 84.9397C287.039 85.0646 287.296 85.2459 287.486 85.4364L284.658 88.2649ZM285.954 88.7832V92.7832C287.462 92.7832 288.933 92.2381 290.078 91.0933L287.25 88.2649L284.421 85.4364C284.612 85.2459 284.869 85.0646 285.181 84.9397C285.489 84.8167 285.762 84.7832 285.954 84.7832V88.7832ZM287.25 88.2649L290.078 91.0933C291.223 89.9485 291.768 88.4768 291.768 86.9689H287.768H283.768C283.768 86.7772 283.802 86.5036 283.925 86.1961C284.049 85.8839 284.231 85.627 284.421 85.4364L287.25 88.2649ZM287.768 86.9689H291.768V68.5666H287.768H283.768V86.9689H287.768ZM321.803 106.149L319.324 109.288L319.35 109.309L319.376 109.329L321.803 106.149ZM314.675 92.8007L310.779 93.7079L314.675 92.8007ZM314.675 21.524L318.571 22.4313L314.675 21.524ZM321.803 8.30547L324.229 11.4853L324.256 11.4654L324.281 11.445L321.803 8.30547ZM350.832 8.30547L348.353 11.445L348.379 11.4654L348.405 11.4853L350.832 8.30547ZM357.959 21.524L354.064 22.4313V22.4313L357.959 21.524ZM357.959 92.8007L354.064 91.8934L357.959 92.8007ZM350.832 106.149L353.258 109.329L353.285 109.309L353.31 109.288L350.832 106.149ZM337.613 88.6536L340.442 91.4821V91.4821L337.613 88.6536ZM337.613 25.671L334.785 28.4995V28.4995L337.613 25.671ZM335.021 25.671L337.85 28.4995V28.4995L335.021 25.671ZM335.021 88.6536L332.193 91.4821V91.4821L335.021 88.6536ZM335.669 109.907V105.907C330.209 105.907 326.566 104.752 324.229 102.969L321.803 106.149L319.376 109.329C323.605 112.556 329.207 113.907 335.669 113.907V109.907ZM321.803 106.149L324.281 103.009C322.007 101.214 319.94 97.7749 318.571 91.8934L314.675 92.8007L310.779 93.7079C312.347 100.44 315.032 105.9 319.324 109.288L321.803 106.149ZM314.675 92.8007L318.571 91.8934C317.206 86.034 316.472 77.3237 316.472 65.5859H312.472H308.472C308.472 77.5207 309.206 86.9535 310.779 93.7079L314.675 92.8007ZM312.472 65.5859H316.472V48.7387H312.472H308.472V65.5859H312.472ZM312.472 48.7387H316.472C316.472 37.001 317.206 28.2907 318.571 22.4313L314.675 21.524L310.779 20.6168C309.206 27.3712 308.472 36.804 308.472 48.7387H312.472ZM314.675 21.524L318.571 22.4313C319.942 16.5438 322.003 13.1845 324.229 11.4853L321.803 8.30547L319.376 5.12567C315.037 8.4374 312.346 13.8905 310.779 20.6168L314.675 21.524ZM321.803 8.30547L324.281 11.445C326.613 9.60437 330.234 8.41765 335.669 8.41765V4.41765V0.417655C329.182 0.417655 323.559 1.82282 319.324 5.16594L321.803 8.30547ZM335.669 4.41765V8.41765H336.965V4.41765V0.417655H335.669V4.41765ZM336.965 4.41765V8.41765C342.4 8.41765 346.022 9.60437 348.353 11.445L350.832 8.30547L353.31 5.16594C349.076 1.82282 343.453 0.417655 336.965 0.417655V4.41765ZM350.832 8.30547L348.405 11.4853C350.632 13.1845 352.693 16.5438 354.064 22.4313L357.959 21.524L361.855 20.6168C360.289 13.8905 357.598 8.4374 353.258 5.12567L350.832 8.30547ZM357.959 21.524L354.064 22.4313C355.428 28.2907 356.163 37.001 356.163 48.7387H360.163H364.163C364.163 36.804 363.428 27.3712 361.855 20.6168L357.959 21.524ZM360.163 48.7387H356.163V65.5859H360.163H364.163V48.7387H360.163ZM360.163 65.5859H356.163C356.163 77.3237 355.428 86.034 354.064 91.8934L357.959 92.8007L361.855 93.7079C363.428 86.9535 364.163 77.5207 364.163 65.5859H360.163ZM357.959 92.8007L354.064 91.8934C352.694 97.7749 350.627 101.214 348.353 103.009L350.832 106.149L353.31 109.288C357.603 105.9 360.287 100.44 361.855 93.7079L357.959 92.8007ZM350.832 106.149L348.405 102.969C346.068 104.752 342.426 105.907 336.965 105.907V109.907V113.907C343.428 113.907 349.029 112.556 353.258 109.329L350.832 106.149ZM336.965 109.907V105.907H335.669V109.907V113.907H336.965V109.907ZM336.317 89.172V93.172C337.825 93.172 339.297 92.6268 340.442 91.4821L337.613 88.6536L334.785 85.8252C334.975 85.6346 335.232 85.4534 335.544 85.3285C335.852 85.2055 336.126 85.172 336.317 85.172V89.172ZM337.613 88.6536L340.442 91.4821C341.586 90.3373 342.132 88.8655 342.132 87.3577H338.132H334.132C334.132 87.166 334.165 86.8924 334.288 86.5849C334.413 86.2727 334.594 86.0158 334.785 85.8252L337.613 88.6536ZM338.132 87.3577H342.132V26.967H338.132H334.132V87.3577H338.132ZM338.132 26.967H342.132C342.132 25.4592 341.586 23.9874 340.442 22.8426L337.613 25.671L334.785 28.4995C334.594 28.3089 334.413 28.052 334.288 27.7398C334.165 27.4323 334.132 27.1587 334.132 26.967H338.132ZM337.613 25.671L340.442 22.8426C339.297 21.6979 337.825 21.1527 336.317 21.1527V25.1527V29.1527C336.126 29.1527 335.852 29.1192 335.544 28.9962C335.232 28.8713 334.975 28.69 334.785 28.4995L337.613 25.671ZM336.317 25.1527V21.1527C334.809 21.1527 333.338 21.6979 332.193 22.8426L335.021 25.671L337.85 28.4995C337.659 28.69 337.402 28.8713 337.09 28.9962C336.783 29.1192 336.509 29.1527 336.317 29.1527V25.1527ZM335.021 25.671L332.193 22.8426C331.048 23.9874 330.503 25.4592 330.503 26.967H334.503H338.503C338.503 27.1587 338.469 27.4323 338.346 27.7398C338.222 28.052 338.04 28.3089 337.85 28.4995L335.021 25.671ZM334.503 26.967H330.503V87.3577H334.503H338.503V26.967H334.503ZM334.503 87.3577H330.503C330.503 88.8655 331.048 90.3373 332.193 91.4821L335.021 88.6536L337.85 85.8252C338.04 86.0158 338.222 86.2727 338.346 86.5849C338.469 86.8924 338.503 87.166 338.503 87.3577H334.503ZM335.021 88.6536L332.193 91.4821C333.338 92.6268 334.809 93.172 336.317 93.172V89.172V85.172C336.509 85.172 336.783 85.2055 337.09 85.3285C337.402 85.4534 337.659 85.6346 337.85 85.8252L335.021 88.6536ZM382.431 109V113H386.431V109H382.431ZM361.696 109H357.696V113H361.696V109ZM361.696 87.6169V83.6169H357.696V87.6169H361.696ZM382.431 87.6169H386.431V83.6169H382.431V87.6169ZM382.431 109V105H361.696V109V113H382.431V109ZM361.696 109H365.696V87.6169H361.696H357.696V109H361.696ZM361.696 87.6169V91.6169H382.431V87.6169V83.6169H361.696V87.6169ZM382.431 87.6169H378.431V109H382.431H386.431V87.6169H382.431Z" fill="#0E0E0E" mask="url(#path-1-outside-1_211_530)"/>
</svg>
