<svg width="910" height="135" viewBox="0 0 910 135" fill="none" xmlns="http://www.w3.org/2000/svg">
<g clip-path="url(#clip0_620_29)">
<path d="M366.877 120.91C357.864 120.91 349.977 119.567 343.217 116.88C336.544 114.193 331.387 110.467 327.747 105.7C324.107 100.933 322.287 95.5167 322.287 89.45C322.287 84.4233 323.5 80.1333 325.927 76.58C328.44 73.0267 331.82 70.34 336.067 68.52C340.4 66.6133 345.21 65.66 350.497 65.66C362.544 65.66 371.167 70.5133 376.367 80.22C376.887 76.84 377.884 73.5467 379.357 70.34C380.83 67.1333 382.65 64.49 384.817 62.41L378.577 62.93C371.99 63.6233 366.617 63.97 362.457 63.97C351.017 63.97 342.394 62.3667 336.587 59.16C330.78 55.9533 327.877 50.7967 327.877 43.69C327.877 38.5767 329.567 33.8533 332.947 29.52C336.327 25.1 341.484 21.5467 348.417 18.86C355.35 16.1733 363.887 14.83 374.027 14.83C381.827 14.83 388.154 15.74 393.007 17.56C397.947 19.2933 400.417 22.1967 400.417 26.27C400.417 29.0433 399.204 31.6867 396.777 34.2C394.35 36.6267 391.534 38.75 388.327 40.57C385.207 42.39 380.57 44.8167 374.417 47.85C382.564 47.85 389.974 49.0633 396.647 51.49C403.407 53.83 408.78 57.34 412.767 62.02C416.84 66.6133 418.877 72.2467 418.877 78.92C418.877 85.68 416.797 92.31 412.637 98.81C408.564 105.223 402.584 110.51 394.697 114.67C386.81 118.83 377.537 120.91 366.877 120.91ZM423.324 120V16H456.474V54.22C456.474 54.74 456.647 55.1733 456.994 55.52C457.34 55.8667 457.774 56.04 458.294 56.04C458.814 56.04 459.247 55.8667 459.594 55.52C459.94 55.1733 460.114 54.74 460.114 54.22V16H493.264V120H469.734L473.634 41.61C473.634 41.09 473.46 40.6567 473.114 40.31C472.767 39.8767 472.334 39.66 471.814 39.66C471.294 39.66 470.86 39.8767 470.514 40.31C470.167 40.6567 469.994 41.09 469.994 41.61L466.094 120H450.494L446.594 41.61C446.594 41.09 446.42 40.6567 446.074 40.31C445.727 39.8767 445.294 39.66 444.774 39.66C444.254 39.66 443.82 39.8767 443.474 40.31C443.127 40.6567 442.954 41.09 442.954 41.61L446.854 120H423.324ZM586.916 119.61C586.916 119.957 586.786 120.173 586.526 120.26C586.353 120.347 586.136 120.26 585.876 120C579.636 113.24 574.74 106.653 571.186 100.24C567.633 93.8267 565.856 88.15 565.856 83.21C565.856 79.57 566.766 74.8033 568.586 68.91C570.493 63.0167 572.833 57.2533 575.606 51.62C575.78 51.2733 575.736 51.0567 575.476 50.97C571.403 47.07 568.24 41.2633 565.986 33.55C565.813 33.03 565.596 32.8133 565.336 32.9C565.163 32.9 564.99 33.1167 564.816 33.55C563.17 41.09 560.786 48.37 557.666 55.39C554.633 62.41 551.6 68.1733 548.566 72.68C545.62 77.1 543.54 79.31 542.326 79.31C541.113 79.31 538.99 77.1 535.956 72.68C533.01 68.1733 529.976 62.41 526.856 55.39C523.823 48.37 521.483 41.09 519.836 33.55C519.663 33.1167 519.446 32.9 519.186 32.9C519.013 32.8133 518.84 33.03 518.666 33.55C516.413 41.2633 513.25 47.07 509.176 50.97C508.916 51.0567 508.873 51.2733 509.046 51.62C511.82 57.2533 514.116 63.0167 515.936 68.91C517.843 74.8033 518.796 79.57 518.796 83.21C518.796 88.15 517.02 93.8267 513.466 100.24C509.913 106.653 505.016 113.24 498.776 120C498.516 120.26 498.256 120.347 497.996 120.26C497.823 120.173 497.736 119.957 497.736 119.61V16.78C497.736 16.26 497.996 16 498.516 16H586.136C586.656 16 586.916 16.26 586.916 16.78V119.61Z" fill="#0E0E0E"/>
</g>
<defs>
<clipPath id="clip0_620_29">
<rect width="265" height="107" fill="white" transform="translate(322 14)"/>
</clipPath>
</defs>
</svg>
