<svg width="910" height="145" viewBox="0 0 910 145" fill="none" xmlns="http://www.w3.org/2000/svg">
<g clip-path="url(#clip0_646_9)">
<path d="M366.877 128.91C357.864 128.91 349.977 127.567 343.217 124.88C336.544 122.193 331.387 118.467 327.747 113.7C324.107 108.933 322.287 103.517 322.287 97.4501C322.287 92.4234 323.501 88.1334 325.927 84.5801C328.441 81.0268 331.821 78.3401 336.067 76.5201C340.401 74.6134 345.211 73.6601 350.497 73.6601C362.544 73.6601 371.167 78.5134 376.367 88.2201C376.887 84.8401 377.884 81.5468 379.357 78.3401C380.831 75.1334 382.651 72.4901 384.817 70.4101L378.577 70.9301C371.991 71.6234 366.617 71.9701 362.457 71.9701C351.017 71.9701 342.394 70.3668 336.587 67.1601C330.781 63.9534 327.877 58.7968 327.877 51.6901C327.877 46.5768 329.567 41.8534 332.947 37.5201C336.327 33.1001 341.484 29.5467 348.417 26.8601C355.351 24.1734 363.887 22.8301 374.027 22.8301C381.827 22.8301 388.154 23.7401 393.007 25.5601C397.947 27.2934 400.417 30.1968 400.417 34.2701C400.417 37.0434 399.204 39.6868 396.777 42.2001C394.351 44.6268 391.534 46.7501 388.327 48.5701C385.207 50.3901 380.571 52.8168 374.417 55.8501C382.564 55.8501 389.974 57.0634 396.647 59.4901C403.407 61.8301 408.781 65.3401 412.767 70.0201C416.841 74.6134 418.877 80.2468 418.877 86.9201C418.877 93.6801 416.797 100.31 412.637 106.81C408.564 113.223 402.584 118.51 394.697 122.67C386.811 126.83 377.537 128.91 366.877 128.91ZM423.324 128V24.0001H456.474V62.2201C456.474 62.7401 456.647 63.1734 456.994 63.5201C457.34 63.8668 457.774 64.0401 458.294 64.0401C458.814 64.0401 459.247 63.8668 459.594 63.5201C459.94 63.1734 460.114 62.7401 460.114 62.2201V24.0001H493.264V128H469.734L473.634 49.6101C473.634 49.0901 473.46 48.6568 473.114 48.3101C472.767 47.8768 472.334 47.6601 471.814 47.6601C471.294 47.6601 470.86 47.8768 470.514 48.3101C470.167 48.6568 469.994 49.0901 469.994 49.6101L466.094 128H450.494L446.594 49.6101C446.594 49.0901 446.42 48.6568 446.074 48.3101C445.727 47.8768 445.294 47.6601 444.774 47.6601C444.254 47.6601 443.82 47.8768 443.474 48.3101C443.127 48.6568 442.954 49.0901 442.954 49.6101L446.854 128H423.324ZM586.916 127.61C586.916 127.957 586.786 128.173 586.526 128.26C586.353 128.347 586.136 128.26 585.876 128C579.636 121.24 574.74 114.653 571.186 108.24C567.633 101.827 565.856 96.1501 565.856 91.2101C565.856 87.5701 566.766 82.8034 568.586 76.9101C570.493 71.0168 572.833 65.2534 575.606 59.6201C575.78 59.2734 575.736 59.0568 575.476 58.9701C571.403 55.0701 568.24 49.2634 565.986 41.5501C565.813 41.0301 565.596 40.8134 565.336 40.9001C565.163 40.9001 564.99 41.1168 564.816 41.5501C563.17 49.0901 560.786 56.3701 557.666 63.3901C554.633 70.4101 551.6 76.1734 548.566 80.6801C545.62 85.1001 543.54 87.3101 542.326 87.3101C541.113 87.3101 538.99 85.1001 535.956 80.6801C533.01 76.1734 529.976 70.4101 526.856 63.3901C523.823 56.3701 521.483 49.0901 519.836 41.5501C519.663 41.1168 519.446 40.9001 519.186 40.9001C519.013 40.8134 518.84 41.0301 518.666 41.5501C516.413 49.2634 513.25 55.0701 509.176 58.9701C508.916 59.0568 508.873 59.2734 509.046 59.6201C511.82 65.2534 514.116 71.0168 515.936 76.9101C517.843 82.8034 518.796 87.5701 518.796 91.2101C518.796 96.1501 517.02 101.827 513.466 108.24C509.913 114.653 505.016 121.24 498.776 128C498.516 128.26 498.256 128.347 497.996 128.26C497.823 128.173 497.736 127.957 497.736 127.61V24.7801C497.736 24.2601 497.996 24.0001 498.516 24.0001H586.136C586.656 24.0001 586.916 24.2601 586.916 24.7801V127.61Z" fill="#0E0E0E"/>
</g>
<defs>
<clipPath id="clip0_646_9">
<rect width="265" height="107" fill="white" transform="translate(322 22)"/>
</clipPath>
</defs>
</svg>
