<svg width="910" height="135" viewBox="0 0 910 135" fill="none" xmlns="http://www.w3.org/2000/svg">
<g clip-path="url(#clip0_620_23)">
<path d="M166.892 120.91C160.912 120.91 156.275 119.653 152.982 117.14C149.688 114.54 147.305 110.077 145.832 103.75C144.358 97.4233 143.622 88.3233 143.622 76.45V59.55C143.622 47.6767 144.358 38.5767 145.832 32.25C147.305 25.9233 149.688 21.5033 152.982 18.99C156.275 16.39 160.912 15.09 166.892 15.09H168.192C173.998 15.09 178.505 16.3033 181.712 18.73C185.005 21.07 187.388 25.1867 188.862 31.08C190.335 36.9733 191.072 45.3367 191.072 56.17V66.31H169.362V37.71C169.362 37.19 169.188 36.7567 168.842 36.41C168.495 36.0633 168.062 35.89 167.542 35.89C167.022 35.89 166.588 36.0633 166.242 36.41C165.895 36.7567 165.722 37.19 165.722 37.71V98.29C165.722 98.81 165.895 99.2433 166.242 99.59C166.588 99.9367 167.022 100.11 167.542 100.11C168.062 100.11 168.495 99.9367 168.842 99.59C169.188 99.2433 169.362 98.81 169.362 98.29V69.69H191.072V76.45C191.072 88.3233 190.335 97.4233 188.862 103.75C187.475 110.077 185.178 114.54 181.972 117.14C178.765 119.653 174.172 120.91 168.192 120.91H166.892ZM236.795 16V38.1H225.615V120H204.165V38.1H192.985V16H236.795ZM261.943 16C269.05 16 274.38 16.91 277.933 18.73C281.573 20.55 284.086 23.8867 285.473 28.74C286.946 33.5067 287.683 40.7433 287.683 50.45C287.683 60.2433 286.86 67.6967 285.213 72.81C283.566 77.8367 280.923 81.3033 277.283 83.21C273.643 85.03 268.53 85.94 261.943 85.94V120H240.493V16H261.943ZM265.583 39.14C265.583 37.4067 264.716 36.54 262.983 36.54H261.943V65.14H262.983C264.716 65.14 265.583 64.3167 265.583 62.67V39.14ZM310.633 120H285.153L294.253 16H330.653L339.753 120H314.273V88.28H310.633V120ZM310.633 67.48H314.273V38.62C314.273 38.1 314.1 37.6667 313.753 37.32C313.406 36.9733 312.973 36.8 312.453 36.8C311.933 36.8 311.5 36.9733 311.153 37.32C310.806 37.6667 310.633 38.1 310.633 38.62V67.48ZM346.212 85.94H381.572V21.85H365.062V50.45H342.962V16H428.242V50.45H406.142V21.85H389.632V85.94H424.992V120H346.212V85.94ZM466.11 16V38.1H454.15V56.82H466.11V78.92H454.15V97.9H466.11V120H432.7V16H466.11ZM502.672 16V38.1H490.712V120H469.262V16H502.672ZM506.46 120V16H528.56L521.67 82.69V82.95C521.67 84.0767 522.233 84.64 523.36 84.64C524.4 84.64 524.963 83.99 525.05 82.69L531.94 16H555.6V120H533.5L538.44 66.83V66.57C538.44 65.4433 537.876 64.88 536.75 64.88C535.796 64.88 535.233 65.53 535.06 66.83L530.12 120H506.46ZM605.682 16V120H584.232V82.17H583.192C581.459 82.17 580.592 83.0367 580.592 84.77V120H559.142V90.36C559.142 81 561.179 74.4133 565.252 70.6C560.745 66.3533 558.492 58.8567 558.492 48.11C558.492 39.6167 559.272 33.1167 560.832 28.61C562.479 24.0167 565.122 20.7667 568.762 18.86C572.402 16.9533 577.559 16 584.232 16H605.682ZM584.232 63.32V36.54H582.672C581.285 36.54 580.592 37.4067 580.592 39.14V61.24C580.592 62.6267 581.285 63.32 582.672 63.32H584.232ZM648.682 78.14H629.442V120H610.072V16H643.222L658.822 65.79H661.942V16H692.622L713.032 78.66V120H691.712V104.4L683.782 79.44H672.472V120H648.682V78.14ZM717.456 120V16H739.556L732.666 82.69V82.95C732.666 84.0767 733.229 84.64 734.356 84.64C735.396 84.64 735.959 83.99 736.046 82.69L742.936 16H766.596V120H744.496L749.436 66.83V66.57C749.436 65.4433 748.872 64.88 747.746 64.88C746.792 64.88 746.229 65.53 746.056 66.83L741.116 120H717.456Z" fill="#0E0E0E"/>
</g>
<defs>
<clipPath id="clip0_620_23">
<rect width="624" height="106" fill="white" transform="translate(143 15)"/>
</clipPath>
</defs>
</svg>
