<svg width="910" height="145" viewBox="0 0 910 145" fill="none" xmlns="http://www.w3.org/2000/svg">
<path d="M189.972 128C184.069 128 179.491 126.753 176.24 124.259C172.989 121.679 170.636 117.251 169.182 110.973C167.727 104.695 167 95.6658 167 83.8845V67.1155C167 55.3342 167.727 46.3047 169.182 40.027C170.636 33.7494 172.989 29.3636 176.24 26.8698C179.491 24.2899 184.069 23 189.972 23H191.255C196.988 23 201.437 24.2039 204.602 26.6118C207.854 28.9337 210.206 33.0185 211.661 38.8661C213.115 44.7137 213.843 53.0123 213.843 63.7617V73.8231H192.41V45.4447C192.41 44.9287 192.239 44.4988 191.897 44.1548C191.555 43.8108 191.127 43.6388 190.614 43.6388C190.1 43.6388 189.673 43.8108 189.33 44.1548C188.988 44.4988 188.817 44.9287 188.817 45.4447V105.555C188.817 106.071 188.988 106.501 189.33 106.845C189.673 107.189 190.1 107.361 190.614 107.361C191.127 107.361 191.555 107.189 191.897 106.845C192.239 106.501 192.41 106.071 192.41 105.555V77.1769H213.843V83.8845C213.843 95.6658 213.115 104.695 211.661 110.973C210.292 117.251 208.025 121.679 204.859 124.259C201.694 126.753 197.159 128 191.255 128H189.972ZM258.981 23.903V45.8317H247.944V127.097H226.768V45.8317H215.732V23.903H258.981ZM283.807 23.903C290.823 23.903 296.085 24.8059 299.592 26.6118C303.186 28.4177 305.666 31.7285 307.036 36.5442C308.49 41.274 309.217 48.4545 309.217 58.086C309.217 67.8034 308.405 75.1991 306.779 80.2727C305.153 85.2605 302.544 88.7002 298.951 90.5921C295.357 92.398 290.31 93.301 283.807 93.301V127.097H262.631V23.903H283.807ZM287.4 46.8636C287.4 45.1438 286.544 44.2838 284.834 44.2838H283.807V72.6622H284.834C286.544 72.6622 287.4 71.8452 287.4 70.2113V46.8636ZM331.874 127.097H306.72L315.703 23.903H351.637L360.621 127.097H335.467V95.6228H331.874V127.097ZM331.874 74.984H335.467V46.3477C335.467 45.8317 335.296 45.4018 334.954 45.0577C334.611 44.7137 334.184 44.5418 333.67 44.5418C333.157 44.5418 332.73 44.7137 332.387 45.0577C332.044 45.4018 331.874 45.8317 331.874 46.3477V74.984ZM366.997 93.301H401.905V29.7076H385.606V58.086H363.789V23.903H447.977V58.086H426.16V29.7076H409.861V93.301H444.769V127.097H366.997V93.301ZM485.36 23.903V45.8317H473.553V64.4066H485.36V86.3354H473.553V105.168H485.36V127.097H452.378V23.903H485.36ZM521.454 23.903V45.8317H509.647V127.097H488.472V23.903H521.454ZM525.194 127.097V23.903H547.011L540.209 90.0762V90.3341C540.209 91.4521 540.765 92.0111 541.878 92.0111C542.904 92.0111 543.46 91.3661 543.546 90.0762L550.348 23.903H573.705V127.097H551.888L556.765 74.3391V74.0811C556.765 72.9631 556.208 72.4042 555.096 72.4042C554.154 72.4042 553.599 73.0491 553.428 74.3391L548.551 127.097H525.194ZM623.146 23.903V127.097H601.97V89.5602H600.944C599.233 89.5602 598.377 90.4202 598.377 92.14V127.097H577.202V97.6867C577.202 88.3993 579.212 81.8636 583.233 78.0799C578.784 73.8661 576.56 66.4276 576.56 55.7641C576.56 47.3366 577.33 40.887 578.87 36.4152C580.496 31.8575 583.105 28.6327 586.698 26.7408C590.292 24.8489 595.383 23.903 601.97 23.903H623.146ZM601.97 70.8563V44.2838H600.43C599.061 44.2838 598.377 45.1438 598.377 46.8636V68.7924C598.377 70.1683 599.061 70.8563 600.43 70.8563H601.97ZM665.595 85.5614H646.602V127.097H627.48V23.903H660.205L675.606 73.3071H678.686V23.903H708.973L729.122 86.0774V127.097H708.075V111.618L700.246 86.8514H689.081V127.097H665.595V85.5614ZM733.489 127.097V23.903H755.306L748.504 90.0762V90.3341C748.504 91.4521 749.06 92.0111 750.173 92.0111C751.199 92.0111 751.755 91.3661 751.841 90.0762L758.643 23.903H782V127.097H760.183L765.06 74.3391V74.0811C765.06 72.9631 764.503 72.4042 763.391 72.4042C762.449 72.4042 761.894 73.0491 761.723 74.3391L756.846 127.097H733.489Z" fill="#0E0E0E"/>
</svg>
