<svg width="310" height="112" viewBox="0 0 310 112" fill="none" xmlns="http://www.w3.org/2000/svg">
<mask id="path-1-outside-1_211_529" maskUnits="userSpaceOnUse" x="0.611328" y="0.00012207" width="309" height="112" fill="black">
<rect fill="white" x="0.611328" y="0.00012207" width="309" height="112"/>
<path d="M4.69066 108V4.32506H37.7371V42.4256C37.7371 42.944 37.9099 43.376 38.2555 43.7216C38.601 44.0672 39.033 44.24 39.5514 44.24C40.0698 44.24 40.5018 44.0672 40.8473 43.7216C41.1929 43.376 41.3657 42.944 41.3657 42.4256V4.32506H74.4121V108H50.9557L54.8435 29.855C54.8435 29.3367 54.6707 28.9047 54.3251 28.5591C53.9795 28.1271 53.5475 27.9111 53.0292 27.9111C52.5108 27.9111 52.0788 28.1271 51.7332 28.5591C51.3876 28.9047 51.2148 29.3367 51.2148 29.855L47.327 108H31.7758L27.888 29.855C27.888 29.3367 27.7152 28.9047 27.3696 28.5591C27.024 28.1271 26.592 27.9111 26.0736 27.9111C25.5553 27.9111 25.1233 28.1271 24.7777 28.5591C24.4321 28.9047 24.2593 29.3367 24.2593 29.855L28.1471 108H4.69066ZM99.4764 38.0195C106.215 38.0195 111.399 39.1426 115.028 41.3889C118.743 43.5488 121.335 47.1342 122.803 52.1452C124.358 57.0697 125.136 64.0246 125.136 73.0098C125.136 81.995 124.358 88.993 122.803 94.004C121.335 98.9286 118.743 102.514 115.028 104.76C111.399 106.92 106.215 108 99.4764 108H78.0934V4.32506H99.4764V38.0195ZM103.105 61.3463C103.105 59.6184 102.241 58.7545 100.513 58.7545H99.4764V87.2651H100.513C102.241 87.2651 103.105 86.4011 103.105 84.6732V61.3463ZM149.37 108H127.987V4.32506H149.37V108ZM305.346 77.8048H175.752V56.4218H305.346V77.8048Z"/>
</mask>
<path d="M4.69066 108V4.32506H37.7371V42.4256C37.7371 42.944 37.9099 43.376 38.2555 43.7216C38.601 44.0672 39.033 44.24 39.5514 44.24C40.0698 44.24 40.5018 44.0672 40.8473 43.7216C41.1929 43.376 41.3657 42.944 41.3657 42.4256V4.32506H74.4121V108H50.9557L54.8435 29.855C54.8435 29.3367 54.6707 28.9047 54.3251 28.5591C53.9795 28.1271 53.5475 27.9111 53.0292 27.9111C52.5108 27.9111 52.0788 28.1271 51.7332 28.5591C51.3876 28.9047 51.2148 29.3367 51.2148 29.855L47.327 108H31.7758L27.888 29.855C27.888 29.3367 27.7152 28.9047 27.3696 28.5591C27.024 28.1271 26.592 27.9111 26.0736 27.9111C25.5553 27.9111 25.1233 28.1271 24.7777 28.5591C24.4321 28.9047 24.2593 29.3367 24.2593 29.855L28.1471 108H4.69066ZM99.4764 38.0195C106.215 38.0195 111.399 39.1426 115.028 41.3889C118.743 43.5488 121.335 47.1342 122.803 52.1452C124.358 57.0697 125.136 64.0246 125.136 73.0098C125.136 81.995 124.358 88.993 122.803 94.004C121.335 98.9286 118.743 102.514 115.028 104.76C111.399 106.92 106.215 108 99.4764 108H78.0934V4.32506H99.4764V38.0195ZM103.105 61.3463C103.105 59.6184 102.241 58.7545 100.513 58.7545H99.4764V87.2651H100.513C102.241 87.2651 103.105 86.4011 103.105 84.6732V61.3463ZM149.37 108H127.987V4.32506H149.37V108ZM305.346 77.8048H175.752V56.4218H305.346V77.8048Z" fill="#FFFDFB"/>
<path d="M4.69066 108H0.690656V112H4.69066V108ZM4.69066 4.32506V0.325059H0.690656V4.32506H4.69066ZM37.7371 4.32506H41.7371V0.325059H37.7371V4.32506ZM40.8473 43.7216L38.0189 40.8931L38.0189 40.8932L40.8473 43.7216ZM41.3657 4.32506V0.325059H37.3657V4.32506H41.3657ZM74.4121 4.32506H78.4121V0.325059H74.4121V4.32506ZM74.4121 108V112H78.4121V108H74.4121ZM50.9557 108L46.9606 107.801L46.7517 112H50.9557V108ZM54.8435 29.855L58.8385 30.0538L58.8435 29.9545V29.855H54.8435ZM54.3251 28.5591L51.2016 31.0579L51.34 31.2309L51.4967 31.3875L54.3251 28.5591ZM51.7332 28.5591L54.5617 31.3875L54.7183 31.2309L54.8567 31.0579L51.7332 28.5591ZM51.2148 29.855L55.2099 30.0538L55.2148 29.9545V29.855H51.2148ZM47.327 108V112H51.133L51.3221 108.199L47.327 108ZM31.7758 108L27.7807 108.199L27.9698 112H31.7758V108ZM27.888 29.855H23.888V29.9545L23.8929 30.0538L27.888 29.855ZM27.3696 28.5591L24.2461 31.0579L24.3845 31.2309L24.5411 31.3875L27.3696 28.5591ZM24.7777 28.5591L27.6061 31.3875L27.7628 31.2309L27.9012 31.0579L24.7777 28.5591ZM24.2593 29.855H20.2593V29.9545L20.2643 30.0538L24.2593 29.855ZM28.1471 108V112H32.3511L32.1422 107.801L28.1471 108ZM4.69066 108H8.69066V4.32506H4.69066H0.690656V108H4.69066ZM4.69066 4.32506V8.32506H37.7371V4.32506V0.325059H4.69066V4.32506ZM37.7371 4.32506H33.7371V42.4256H37.7371H41.7371V4.32506H37.7371ZM37.7371 42.4256H33.7371C33.7371 43.9334 34.2823 45.4052 35.427 46.55L38.2555 43.7216L41.0839 40.8932C41.2745 41.0837 41.4557 41.3407 41.5806 41.6529C41.7036 41.9604 41.7371 42.234 41.7371 42.4256H37.7371ZM38.2555 43.7216L35.427 46.55C36.5718 47.6948 38.0436 48.24 39.5514 48.24V44.24V40.24C39.7431 40.24 40.0167 40.2734 40.3242 40.3965C40.6364 40.5213 40.8933 40.7026 41.0839 40.8932L38.2555 43.7216ZM39.5514 44.24V48.24C41.0592 48.24 42.531 47.6948 43.6758 46.55L40.8473 43.7216L38.0189 40.8932C38.2095 40.7026 38.4664 40.5213 38.7786 40.3965C39.0861 40.2734 39.3597 40.24 39.5514 40.24V44.24ZM40.8473 43.7216L43.6758 46.55C44.8205 45.4052 45.3657 43.9335 45.3657 42.4256H41.3657H37.3657C37.3657 42.234 37.3992 41.9604 37.5222 41.6528C37.6471 41.3407 37.8283 41.0837 38.0189 40.8931L40.8473 43.7216ZM41.3657 42.4256H45.3657V4.32506H41.3657H37.3657V42.4256H41.3657ZM41.3657 4.32506V8.32506H74.4121V4.32506V0.325059H41.3657V4.32506ZM74.4121 4.32506H70.4121V108H74.4121H78.4121V4.32506H74.4121ZM74.4121 108V104H50.9557V108V112H74.4121V108ZM50.9557 108L54.9507 108.199L58.8385 30.0538L54.8435 29.855L50.8484 29.6563L46.9606 107.801L50.9557 108ZM54.8435 29.855H58.8435C58.8435 28.3472 58.2983 26.8754 57.1535 25.7307L54.3251 28.5591L51.4967 31.3875C51.3061 31.197 51.1248 30.94 51 30.6278C50.877 30.3203 50.8435 30.0467 50.8435 29.855H54.8435ZM54.3251 28.5591L57.4486 26.0603C56.4026 24.7528 54.8536 23.9111 53.0292 23.9111V27.9111V31.9111C52.7139 31.9111 52.3327 31.8406 51.9531 31.6508C51.5811 31.4649 51.3379 31.2282 51.2016 31.0579L54.3251 28.5591ZM53.0292 27.9111V23.9111C51.2047 23.9111 49.6557 24.7528 48.6097 26.0603L51.7332 28.5591L54.8567 31.0579C54.7204 31.2282 54.4772 31.4649 54.1052 31.6508C53.7256 31.8406 53.3444 31.9111 53.0292 31.9111V27.9111ZM51.7332 28.5591L48.9048 25.7307C47.76 26.8755 47.2148 28.3472 47.2148 29.855H51.2148H55.2148C55.2148 30.0467 55.1814 30.3203 55.0583 30.6278C54.9335 30.94 54.7522 31.1969 54.5617 31.3875L51.7332 28.5591ZM51.2148 29.855L47.2198 29.6563L43.332 107.801L47.327 108L51.3221 108.199L55.2099 30.0538L51.2148 29.855ZM47.327 108V104H31.7758V108V112H47.327V108ZM31.7758 108L35.7708 107.801L31.883 29.6563L27.888 29.855L23.8929 30.0538L27.7807 108.199L31.7758 108ZM27.888 29.855H31.888C31.888 28.3472 31.3428 26.8754 30.198 25.7307L27.3696 28.5591L24.5411 31.3875C24.3506 31.197 24.1693 30.94 24.0445 30.6278C23.9214 30.3203 23.888 30.0467 23.888 29.855H27.888ZM27.3696 28.5591L30.493 26.0603C29.4471 24.7528 27.8981 23.9111 26.0736 23.9111V27.9111V31.9111C25.7584 31.9111 25.3772 31.8406 24.9976 31.6508C24.6256 31.4649 24.3824 31.2282 24.2461 31.0579L27.3696 28.5591ZM26.0736 27.9111V23.9111C24.2492 23.9111 22.7002 24.7528 21.6542 26.0603L24.7777 28.5591L27.9012 31.0579C27.7649 31.2282 27.5217 31.4649 27.1497 31.6508C26.7701 31.8406 26.3889 31.9111 26.0736 31.9111V27.9111ZM24.7777 28.5591L21.9493 25.7307C20.8045 26.8754 20.2593 28.3472 20.2593 29.855H24.2593H28.2593C28.2593 30.0467 28.2258 30.3203 28.1028 30.6278C27.9779 30.94 27.7967 31.197 27.6061 31.3875L24.7777 28.5591ZM24.2593 29.855L20.2643 30.0538L24.1521 108.199L28.1471 108L32.1422 107.801L28.2544 29.6563L24.2593 29.855ZM28.1471 108V104H4.69066V108V112H28.1471V108ZM99.4764 38.0195H95.4764V42.0195H99.4764V38.0195ZM115.028 41.3889L112.922 44.79L112.969 44.8191L113.017 44.8469L115.028 41.3889ZM122.803 52.1452L118.965 53.2703L118.976 53.3101L118.989 53.3497L122.803 52.1452ZM122.803 94.004L118.983 92.8184L118.976 92.8395L118.97 92.8608L122.803 94.004ZM115.028 104.76L117.074 108.197L117.085 108.19L117.097 108.183L115.028 104.76ZM78.0934 108H74.0934V112H78.0934V108ZM78.0934 4.32506V0.325059H74.0934V4.32506H78.0934ZM99.4764 4.32506H103.476V0.325059H99.4764V4.32506ZM99.4764 58.7545V54.7545H95.4764V58.7545H99.4764ZM99.4764 87.2651H95.4764V91.2651H99.4764V87.2651ZM149.37 108V112H153.37V108H149.37ZM127.987 108H123.987V112H127.987V108ZM127.987 4.32506V0.325059H123.987V4.32506H127.987ZM149.37 4.32506H153.37V0.325059H149.37V4.32506ZM99.4764 38.0195V42.0195C105.865 42.0195 110.193 43.1004 112.922 44.79L115.028 41.3889L117.133 37.9878C112.605 35.1848 106.566 34.0195 99.4764 34.0195V38.0195ZM115.028 41.3889L113.017 44.8469C115.664 46.3856 117.719 49.0187 118.965 53.2703L122.803 52.1452L126.642 51.0201C124.95 45.2497 121.822 40.7119 117.038 37.9309L115.028 41.3889ZM122.803 52.1452L118.989 53.3497C120.363 57.6995 121.136 64.1785 121.136 73.0098H125.136H129.136C129.136 63.8707 128.354 56.44 126.618 50.9407L122.803 52.1452ZM125.136 73.0098H121.136C121.136 81.8358 120.364 88.3694 118.983 92.8184L122.803 94.004L126.624 95.1896C128.353 89.6166 129.136 82.1541 129.136 73.0098H125.136ZM122.803 94.004L118.97 92.8608C117.73 97.0181 115.67 99.6974 112.958 101.337L115.028 104.76L117.097 108.183C121.815 105.331 124.939 100.839 126.636 95.1472L122.803 94.004ZM115.028 104.76L112.982 101.323C110.237 102.957 105.884 104 99.4764 104V108V112C106.547 112 112.561 110.884 117.074 108.197L115.028 104.76ZM99.4764 108V104H78.0934V108V112H99.4764V108ZM78.0934 108H82.0934V4.32506H78.0934H74.0934V108H78.0934ZM78.0934 4.32506V8.32506H99.4764V4.32506V0.325059H78.0934V4.32506ZM99.4764 4.32506H95.4764V38.0195H99.4764H103.476V4.32506H99.4764ZM103.105 61.3463H107.105C107.105 59.8658 106.732 58.0207 105.285 56.574C103.839 55.1273 101.994 54.7545 100.513 54.7545V58.7545V62.7545C100.761 62.7545 100.211 62.8136 99.6286 62.2309C99.0459 61.6481 99.105 61.099 99.105 61.3463H103.105ZM100.513 58.7545V54.7545H99.4764V58.7545V62.7545H100.513V58.7545ZM99.4764 58.7545H95.4764V87.2651H99.4764H103.476V58.7545H99.4764ZM99.4764 87.2651V91.2651H100.513V87.2651V83.2651H99.4764V87.2651ZM100.513 87.2651V91.2651C101.994 91.2651 103.839 90.8923 105.285 89.4456C106.732 87.9989 107.105 86.1538 107.105 84.6732H103.105H99.105C99.105 84.9206 99.0459 84.3715 99.6286 83.7887C100.211 83.206 100.761 83.2651 100.513 83.2651V87.2651ZM103.105 84.6732H107.105V61.3463H103.105H99.105V84.6732H103.105ZM149.37 108V104H127.987V108V112H149.37V108ZM127.987 108H131.987V4.32506H127.987H123.987V108H127.987ZM127.987 4.32506V8.32506H149.37V4.32506V0.325059H127.987V4.32506ZM149.37 4.32506H145.37V108H149.37H153.37V4.32506H149.37ZM305.346 77.8048V81.8048H309.346V77.8048H305.346ZM175.752 77.8048H171.752V81.8048H175.752V77.8048ZM175.752 56.4218V52.4218H171.752V56.4218H175.752ZM305.346 56.4218H309.346V52.4218H305.346V56.4218ZM305.346 77.8048V73.8048H175.752V77.8048V81.8048H305.346V77.8048ZM175.752 77.8048H179.752V56.4218H175.752H171.752V77.8048H175.752ZM175.752 56.4218V60.4218H305.346V56.4218V52.4218H175.752V56.4218ZM305.346 56.4218H301.346V77.8048H305.346H309.346V56.4218H305.346Z" fill="#0E0E0E" mask="url(#path-1-outside-1_211_529)"/>
</svg>
