<svg width="310" height="112" viewBox="0 0 310 112" fill="none" xmlns="http://www.w3.org/2000/svg">
<mask id="path-1-outside-1_211_753" maskUnits="userSpaceOnUse" x="0.798828" y="0.00012207" width="309" height="112" fill="black">
<rect fill="white" x="0.798828" y="0.00012207" width="309" height="112"/>
<path d="M4.87816 108V4.32506H37.9246V42.4256C37.9246 42.944 38.0974 43.376 38.443 43.7216C38.7885 44.0672 39.2205 44.24 39.7389 44.24C40.2573 44.24 40.6893 44.0672 41.0348 43.7216C41.3804 43.376 41.5532 42.944 41.5532 42.4256V4.32506H74.5996V108H51.1432L55.031 29.855C55.031 29.3367 54.8582 28.9047 54.5126 28.5591C54.167 28.1271 53.735 27.9111 53.2167 27.9111C52.6983 27.9111 52.2663 28.1271 51.9207 28.5591C51.5751 28.9047 51.4023 29.3367 51.4023 29.855L47.5145 108H31.9633L28.0755 29.855C28.0755 29.3367 27.9027 28.9047 27.5571 28.5591C27.2115 28.1271 26.7795 27.9111 26.2611 27.9111C25.7428 27.9111 25.3108 28.1271 24.9652 28.5591C24.6196 28.9047 24.4468 29.3367 24.4468 29.855L28.3346 108H4.87816ZM99.6639 38.0195C106.403 38.0195 111.587 39.1426 115.215 41.3889C118.93 43.5488 121.522 47.1342 122.991 52.1452C124.546 57.0697 125.323 64.0246 125.323 73.0098C125.323 81.995 124.546 88.993 122.991 94.004C121.522 98.9286 118.93 102.514 115.215 104.76C111.587 106.92 106.403 108 99.6639 108H78.2809V4.32506H99.6639V38.0195ZM103.293 61.3463C103.293 59.6184 102.429 58.7545 100.701 58.7545H99.6639V87.2651H100.701C102.429 87.2651 103.293 86.4011 103.293 84.6732V61.3463ZM149.558 108H128.175V4.32506H149.558V108ZM305.534 77.8048H175.94V56.4218H305.534V77.8048Z"/>
</mask>
<path d="M4.87816 108V4.32506H37.9246V42.4256C37.9246 42.944 38.0974 43.376 38.443 43.7216C38.7885 44.0672 39.2205 44.24 39.7389 44.24C40.2573 44.24 40.6893 44.0672 41.0348 43.7216C41.3804 43.376 41.5532 42.944 41.5532 42.4256V4.32506H74.5996V108H51.1432L55.031 29.855C55.031 29.3367 54.8582 28.9047 54.5126 28.5591C54.167 28.1271 53.735 27.9111 53.2167 27.9111C52.6983 27.9111 52.2663 28.1271 51.9207 28.5591C51.5751 28.9047 51.4023 29.3367 51.4023 29.855L47.5145 108H31.9633L28.0755 29.855C28.0755 29.3367 27.9027 28.9047 27.5571 28.5591C27.2115 28.1271 26.7795 27.9111 26.2611 27.9111C25.7428 27.9111 25.3108 28.1271 24.9652 28.5591C24.6196 28.9047 24.4468 29.3367 24.4468 29.855L28.3346 108H4.87816ZM99.6639 38.0195C106.403 38.0195 111.587 39.1426 115.215 41.3889C118.93 43.5488 121.522 47.1342 122.991 52.1452C124.546 57.0697 125.323 64.0246 125.323 73.0098C125.323 81.995 124.546 88.993 122.991 94.004C121.522 98.9286 118.93 102.514 115.215 104.76C111.587 106.92 106.403 108 99.6639 108H78.2809V4.32506H99.6639V38.0195ZM103.293 61.3463C103.293 59.6184 102.429 58.7545 100.701 58.7545H99.6639V87.2651H100.701C102.429 87.2651 103.293 86.4011 103.293 84.6732V61.3463ZM149.558 108H128.175V4.32506H149.558V108ZM305.534 77.8048H175.94V56.4218H305.534V77.8048Z" fill="#FFFDFB"/>
<path d="M4.87816 108H0.878156V112H4.87816V108ZM4.87816 4.32506V0.325059H0.878156V4.32506H4.87816ZM37.9246 4.32506H41.9246V0.325059H37.9246V4.32506ZM41.0348 43.7216L38.2064 40.8931L38.2064 40.8932L41.0348 43.7216ZM41.5532 4.32506V0.325059H37.5532V4.32506H41.5532ZM74.5996 4.32506H78.5996V0.325059H74.5996V4.32506ZM74.5996 108V112H78.5996V108H74.5996ZM51.1432 108L47.1481 107.801L46.9392 112H51.1432V108ZM55.031 29.855L59.026 30.0538L59.031 29.9545V29.855H55.031ZM54.5126 28.5591L51.3891 31.0579L51.5275 31.2309L51.6842 31.3875L54.5126 28.5591ZM51.9207 28.5591L54.7492 31.3875L54.9058 31.2309L55.0442 31.0579L51.9207 28.5591ZM51.4023 29.855L55.3974 30.0538L55.4023 29.9545V29.855H51.4023ZM47.5145 108V112H51.3205L51.5096 108.199L47.5145 108ZM31.9633 108L27.9682 108.199L28.1573 112H31.9633V108ZM28.0755 29.855H24.0755V29.9545L24.0804 30.0538L28.0755 29.855ZM27.5571 28.5591L24.4336 31.0579L24.572 31.2309L24.7286 31.3875L27.5571 28.5591ZM24.9652 28.5591L27.7936 31.3875L27.9503 31.2309L28.0887 31.0579L24.9652 28.5591ZM24.4468 29.855H20.4468V29.9545L20.4518 30.0538L24.4468 29.855ZM28.3346 108V112H32.5386L32.3297 107.801L28.3346 108ZM4.87816 108H8.87816V4.32506H4.87816H0.878156V108H4.87816ZM4.87816 4.32506V8.32506H37.9246V4.32506V0.325059H4.87816V4.32506ZM37.9246 4.32506H33.9246V42.4256H37.9246H41.9246V4.32506H37.9246ZM37.9246 42.4256H33.9246C33.9246 43.9334 34.4698 45.4052 35.6145 46.55L38.443 43.7216L41.2714 40.8932C41.462 41.0837 41.6432 41.3407 41.7681 41.6529C41.8911 41.9604 41.9246 42.234 41.9246 42.4256H37.9246ZM38.443 43.7216L35.6145 46.55C36.7593 47.6948 38.2311 48.24 39.7389 48.24V44.24V40.24C39.9306 40.24 40.2042 40.2734 40.5117 40.3965C40.8239 40.5213 41.0808 40.7026 41.2714 40.8932L38.443 43.7216ZM39.7389 44.24V48.24C41.2467 48.24 42.7185 47.6948 43.8633 46.55L41.0348 43.7216L38.2064 40.8932C38.397 40.7026 38.6539 40.5213 38.9661 40.3965C39.2736 40.2734 39.5472 40.24 39.7389 40.24V44.24ZM41.0348 43.7216L43.8633 46.55C45.008 45.4052 45.5532 43.9335 45.5532 42.4256H41.5532H37.5532C37.5532 42.234 37.5867 41.9604 37.7097 41.6528C37.8346 41.3407 38.0158 41.0837 38.2064 40.8931L41.0348 43.7216ZM41.5532 42.4256H45.5532V4.32506H41.5532H37.5532V42.4256H41.5532ZM41.5532 4.32506V8.32506H74.5996V4.32506V0.325059H41.5532V4.32506ZM74.5996 4.32506H70.5996V108H74.5996H78.5996V4.32506H74.5996ZM74.5996 108V104H51.1432V108V112H74.5996V108ZM51.1432 108L55.1382 108.199L59.026 30.0538L55.031 29.855L51.0359 29.6563L47.1481 107.801L51.1432 108ZM55.031 29.855H59.031C59.031 28.3472 58.4858 26.8754 57.341 25.7307L54.5126 28.5591L51.6842 31.3875C51.4936 31.197 51.3123 30.94 51.1875 30.6278C51.0645 30.3203 51.031 30.0467 51.031 29.855H55.031ZM54.5126 28.5591L57.6361 26.0603C56.5901 24.7528 55.0411 23.9111 53.2167 23.9111V27.9111V31.9111C52.9014 31.9111 52.5202 31.8406 52.1406 31.6508C51.7686 31.4649 51.5254 31.2282 51.3891 31.0579L54.5126 28.5591ZM53.2167 27.9111V23.9111C51.3922 23.9111 49.8432 24.7528 48.7972 26.0603L51.9207 28.5591L55.0442 31.0579C54.9079 31.2282 54.6647 31.4649 54.2927 31.6508C53.9131 31.8406 53.5319 31.9111 53.2167 31.9111V27.9111ZM51.9207 28.5591L49.0923 25.7307C47.9475 26.8755 47.4023 28.3472 47.4023 29.855H51.4023H55.4023C55.4023 30.0467 55.3689 30.3203 55.2458 30.6278C55.121 30.94 54.9397 31.1969 54.7492 31.3875L51.9207 28.5591ZM51.4023 29.855L47.4073 29.6563L43.5195 107.801L47.5145 108L51.5096 108.199L55.3974 30.0538L51.4023 29.855ZM47.5145 108V104H31.9633V108V112H47.5145V108ZM31.9633 108L35.9583 107.801L32.0705 29.6563L28.0755 29.855L24.0804 30.0538L27.9682 108.199L31.9633 108ZM28.0755 29.855H32.0755C32.0755 28.3472 31.5303 26.8754 30.3855 25.7307L27.5571 28.5591L24.7286 31.3875C24.5381 31.197 24.3568 30.94 24.232 30.6278C24.1089 30.3203 24.0755 30.0467 24.0755 29.855H28.0755ZM27.5571 28.5591L30.6805 26.0603C29.6346 24.7528 28.0856 23.9111 26.2611 23.9111V27.9111V31.9111C25.9459 31.9111 25.5647 31.8406 25.1851 31.6508C24.8131 31.4649 24.5699 31.2282 24.4336 31.0579L27.5571 28.5591ZM26.2611 27.9111V23.9111C24.4367 23.9111 22.8877 24.7528 21.8417 26.0603L24.9652 28.5591L28.0887 31.0579C27.9524 31.2282 27.7092 31.4649 27.3372 31.6508C26.9576 31.8406 26.5764 31.9111 26.2611 31.9111V27.9111ZM24.9652 28.5591L22.1368 25.7307C20.992 26.8754 20.4468 28.3472 20.4468 29.855H24.4468H28.4468C28.4468 30.0467 28.4133 30.3203 28.2903 30.6278C28.1654 30.94 27.9842 31.197 27.7936 31.3875L24.9652 28.5591ZM24.4468 29.855L20.4518 30.0538L24.3396 108.199L28.3346 108L32.3297 107.801L28.4419 29.6563L24.4468 29.855ZM28.3346 108V104H4.87816V108V112H28.3346V108ZM99.6639 38.0195H95.6639V42.0195H99.6639V38.0195ZM115.215 41.3889L113.11 44.79L113.157 44.8191L113.205 44.8469L115.215 41.3889ZM122.991 52.1452L119.152 53.2703L119.164 53.3101L119.176 53.3497L122.991 52.1452ZM122.991 94.004L119.171 92.8184L119.164 92.8395L119.158 92.8608L122.991 94.004ZM115.215 104.76L117.261 108.197L117.273 108.19L117.285 108.183L115.215 104.76ZM78.2809 108H74.2809V112H78.2809V108ZM78.2809 4.32506V0.325059H74.2809V4.32506H78.2809ZM99.6639 4.32506H103.664V0.325059H99.6639V4.32506ZM99.6639 58.7545V54.7545H95.6639V58.7545H99.6639ZM99.6639 87.2651H95.6639V91.2651H99.6639V87.2651ZM149.558 108V112H153.558V108H149.558ZM128.175 108H124.175V112H128.175V108ZM128.175 4.32506V0.325059H124.175V4.32506H128.175ZM149.558 4.32506H153.558V0.325059H149.558V4.32506ZM99.6639 38.0195V42.0195C106.052 42.0195 110.38 43.1004 113.11 44.79L115.215 41.3889L117.321 37.9878C112.793 35.1848 106.754 34.0195 99.6639 34.0195V38.0195ZM115.215 41.3889L113.205 44.8469C115.851 46.3856 117.906 49.0187 119.152 53.2703L122.991 52.1452L126.829 51.0201C125.138 45.2497 122.009 40.7119 117.226 37.9309L115.215 41.3889ZM122.991 52.1452L119.176 53.3497C120.55 57.6995 121.323 64.1785 121.323 73.0098H125.323H129.323C129.323 63.8707 128.542 56.44 126.805 50.9407L122.991 52.1452ZM125.323 73.0098H121.323C121.323 81.8358 120.551 88.3694 119.171 92.8184L122.991 94.004L126.811 95.1896C128.541 89.6166 129.323 82.1541 129.323 73.0098H125.323ZM122.991 94.004L119.158 92.8608C117.918 97.0181 115.858 99.6974 113.145 101.337L115.215 104.76L117.285 108.183C122.003 105.331 125.126 100.839 126.824 95.1472L122.991 94.004ZM115.215 104.76L113.169 101.323C110.425 102.957 106.071 104 99.6639 104V108V112C106.734 112 112.748 110.884 117.261 108.197L115.215 104.76ZM99.6639 108V104H78.2809V108V112H99.6639V108ZM78.2809 108H82.2809V4.32506H78.2809H74.2809V108H78.2809ZM78.2809 4.32506V8.32506H99.6639V4.32506V0.325059H78.2809V4.32506ZM99.6639 4.32506H95.6639V38.0195H99.6639H103.664V4.32506H99.6639ZM103.293 61.3463H107.293C107.293 59.8658 106.92 58.0207 105.473 56.574C104.026 55.1273 102.181 54.7545 100.701 54.7545V58.7545V62.7545C100.948 62.7545 100.399 62.8136 99.8161 62.2309C99.2334 61.6481 99.2925 61.099 99.2925 61.3463H103.293ZM100.701 58.7545V54.7545H99.6639V58.7545V62.7545H100.701V58.7545ZM99.6639 58.7545H95.6639V87.2651H99.6639H103.664V58.7545H99.6639ZM99.6639 87.2651V91.2651H100.701V87.2651V83.2651H99.6639V87.2651ZM100.701 87.2651V91.2651C102.181 91.2651 104.026 90.8923 105.473 89.4456C106.92 87.9989 107.293 86.1538 107.293 84.6732H103.293H99.2925C99.2925 84.9206 99.2334 84.3715 99.8161 83.7887C100.399 83.206 100.948 83.2651 100.701 83.2651V87.2651ZM103.293 84.6732H107.293V61.3463H103.293H99.2925V84.6732H103.293ZM149.558 108V104H128.175V108V112H149.558V108ZM128.175 108H132.175V4.32506H128.175H124.175V108H128.175ZM128.175 4.32506V8.32506H149.558V4.32506V0.325059H128.175V4.32506ZM149.558 4.32506H145.558V108H149.558H153.558V4.32506H149.558ZM305.534 77.8048V81.8048H309.534V77.8048H305.534ZM175.94 77.8048H171.94V81.8048H175.94V77.8048ZM175.94 56.4218V52.4218H171.94V56.4218H175.94ZM305.534 56.4218H309.534V52.4218H305.534V56.4218ZM305.534 77.8048V73.8048H175.94V77.8048V81.8048H305.534V77.8048ZM175.94 77.8048H179.94V56.4218H175.94H171.94V77.8048H175.94ZM175.94 56.4218V60.4218H305.534V56.4218V52.4218H175.94V56.4218ZM305.534 56.4218H301.534V77.8048H305.534H309.534V56.4218H305.534Z" fill="#0E0E0E" mask="url(#path-1-outside-1_211_753)"/>
</svg>
