<svg width="910" height="145" viewBox="0 0 910 145" fill="none" xmlns="http://www.w3.org/2000/svg">
<g clip-path="url(#clip0_646_15)">
<path d="M37.3961 129.588C30.2894 129.588 24.8294 127.594 21.0161 123.608C17.2027 119.534 15.2961 114.334 15.2961 108.008C15.2961 104.368 15.9027 101.334 17.1161 98.9078C18.4161 96.3945 19.8894 94.4445 21.5361 93.0578C23.2694 91.6711 25.3927 90.2411 27.9061 88.7678C29.8994 87.6411 31.3294 86.6878 32.1961 85.9078C33.0627 85.1278 33.4961 84.2178 33.4961 83.1778C33.4961 81.9645 32.8894 80.8378 31.6761 79.7978C30.5494 78.6711 29.1627 77.8045 27.5161 77.1978C25.9561 76.5045 24.7427 76.1578 23.8761 76.1578H14.6461C13.9527 76.1578 13.6061 75.8111 13.6061 75.1178L13.4761 24.6778C13.4761 23.9845 13.8227 23.6378 14.5161 23.6378H64.6961C65.3894 23.6378 65.7361 23.9845 65.7361 24.6778V56.9178C73.1027 53.1911 79.0827 50.4611 83.6761 48.7278C88.3561 46.9945 92.5594 46.1278 96.2861 46.1278C99.2327 46.1278 101.486 46.6911 103.046 47.8178C104.606 48.9445 105.386 50.4611 105.386 52.3678C105.386 54.3611 104.606 56.1811 103.046 57.8278C101.486 59.3878 99.3194 61.1211 96.5461 63.0278C94.7261 64.3278 93.4261 65.3245 92.6461 66.0178C91.8661 66.7111 91.4761 67.4045 91.4761 68.0978C91.4761 68.9645 92.0827 69.5278 93.2961 69.7878C94.5961 69.9611 96.6327 70.0478 99.4061 70.0478C103.999 70.1345 107.596 70.5678 110.196 71.3478C112.796 72.1278 114.096 73.9478 114.096 76.8078C114.096 78.8878 113.403 80.9245 112.016 82.9178C110.629 84.8245 108.679 87.0345 106.166 89.5478C104.346 91.4545 103.046 92.8845 102.266 93.8378C101.573 94.7911 101.226 95.6578 101.226 96.4378C101.226 97.3045 101.616 98.1711 102.396 99.0378C103.263 99.8178 104.606 100.858 106.426 102.158C109.459 104.324 111.886 106.491 113.706 108.658C115.526 110.738 116.436 113.294 116.436 116.328C116.436 119.794 115.179 122.568 112.666 124.648C110.153 126.641 107.033 127.638 103.306 127.638C100.013 127.638 96.9361 126.901 94.0761 125.428C91.3027 123.954 88.1394 121.874 84.5861 119.188C81.8994 117.108 79.6461 115.591 77.8261 114.638C76.0061 113.598 74.2294 113.078 72.4961 113.078C70.8494 113.078 69.2461 113.554 67.6861 114.508C66.2127 115.374 64.1327 116.891 61.4461 119.058C57.6327 122.351 53.9061 124.951 50.2661 126.858C46.7127 128.678 42.4227 129.588 37.3961 129.588ZM35.8361 108.138C35.8361 109.958 36.3994 111.474 37.5261 112.688C38.7394 113.901 40.3861 114.508 42.4661 114.508C44.4594 114.508 46.2361 113.988 47.7961 112.948C49.3561 111.821 51.2627 110.088 53.5161 107.748C56.2894 104.888 58.8027 102.721 61.0561 101.248C63.3094 99.7745 66.1261 99.0378 69.5061 99.0378C71.4127 99.0378 72.9727 99.2978 74.1861 99.8178C75.4861 100.251 77.0027 100.944 78.7361 101.898C79.8627 102.678 80.9027 103.284 81.8561 103.718C82.8961 104.064 84.0227 104.238 85.2361 104.238C87.0561 104.238 88.4427 103.804 89.3961 102.938C90.3494 101.984 90.8261 100.814 90.8261 99.4278C90.8261 98.3011 90.5227 97.3478 89.9161 96.5678C89.3961 95.7878 88.6594 95.0511 87.7061 94.3578C86.8394 93.5778 86.1894 92.9278 85.7561 92.4078C85.4094 91.8878 85.2361 91.2811 85.2361 90.5878C85.2361 89.5478 85.6261 88.7245 86.4061 88.1178C87.2727 87.5111 88.5727 86.8611 90.3061 86.1678C91.6927 85.5611 92.6894 85.0411 93.2961 84.6078C93.9894 84.1745 94.3361 83.6545 94.3361 83.0478C94.3361 81.5745 92.3427 80.8378 88.3561 80.8378H84.0661C80.8594 80.8378 78.3461 80.5345 76.5261 79.9278C74.7927 79.3211 73.9261 77.9778 73.9261 75.8978C73.9261 74.8578 74.1427 73.9045 74.5761 73.0378C75.0094 72.1711 75.5727 71.1745 76.2661 70.0478C77.2194 68.5745 77.6961 67.5778 77.6961 67.0578C77.6961 66.3645 77.2627 65.8445 76.3961 65.4978C75.5294 65.1511 74.6194 64.9778 73.6661 64.9778C72.1927 64.9778 70.8494 65.4111 69.6361 66.2778C68.4227 67.1445 67.1227 68.3578 65.7361 69.9178V75.1178C65.7361 75.8111 65.3894 76.1578 64.6961 76.1578H44.8061C44.9794 76.6778 45.4994 77.6745 46.3661 79.1478C47.1461 80.4478 47.7094 81.5745 48.0561 82.5278C48.4894 83.3945 48.7061 84.3478 48.7061 85.3878C48.7061 87.2078 48.1861 88.9411 47.1461 90.5878C46.1061 92.1478 44.5027 94.1845 42.3361 96.6978C40.1694 99.1245 38.5227 101.204 37.3961 102.938C36.3561 104.584 35.8361 106.318 35.8361 108.138ZM154.27 23.6378V45.7378H142.31V64.4578H154.27V86.5578H142.31V105.538H154.27V127.638H120.86V23.6378H154.27ZM178.873 63.9378C185.633 63.9378 190.833 64.9778 194.473 67.0578C198.199 69.1378 200.799 72.4745 202.273 77.0678C203.833 81.5745 204.613 87.8145 204.613 95.7878C204.613 103.761 203.833 110.044 202.273 114.638C200.799 119.144 198.199 122.438 194.473 124.518C190.833 126.598 185.633 127.638 178.873 127.638H157.423V23.6378H201.753V45.7378H178.873V63.9378ZM182.513 86.6878C182.513 84.9545 181.646 84.0878 179.913 84.0878H178.873V107.488H179.913C181.646 107.488 182.513 106.621 182.513 104.888V86.6878ZM288.828 97.3478H206.668V75.8978H288.828V97.3478ZM313.443 23.6378C320.55 23.6378 325.88 24.5478 329.433 26.3678C333.073 28.1878 335.586 31.5245 336.973 36.3778C338.446 41.1445 339.183 48.3811 339.183 58.0878C339.183 67.8811 338.36 75.3345 336.713 80.4478C335.066 85.4745 332.423 88.9411 328.783 90.8478C325.143 92.6678 320.03 93.5778 313.443 93.5778V127.638H291.993V23.6378H313.443ZM317.083 46.7778C317.083 45.0445 316.216 44.1778 314.483 44.1778H313.443V72.7778H314.483C316.216 72.7778 317.083 71.9545 317.083 70.3078V46.7778ZM342.538 24.4178C342.538 23.7245 342.885 23.3778 343.578 23.3778H400.258C401.038 23.3778 401.428 23.7245 401.428 24.4178V126.468C401.428 127.161 401.082 127.508 400.388 127.508H376.728C376.035 127.508 375.688 127.161 375.688 126.468V74.2078C375.688 73.6878 375.428 73.4278 374.908 73.4278H369.058C368.538 73.4278 368.278 73.6878 368.278 74.2078V126.468C368.278 127.161 367.932 127.508 367.238 127.508H343.578C342.885 127.508 342.538 127.161 342.538 126.468V24.4178ZM363.078 58.0878C365.852 59.4745 368.885 60.1678 372.178 60.1678C375.472 60.1678 378.505 59.4745 381.278 58.0878C384.052 56.7011 386.218 54.8811 387.778 52.6278C389.425 50.2878 390.248 47.7311 390.248 44.9578C390.248 42.1845 389.425 39.6278 387.778 37.2878C386.218 34.9478 384.052 33.0845 381.278 31.6978C378.505 30.3111 375.472 29.6178 372.178 29.6178C368.885 29.6178 365.852 30.3111 363.078 31.6978C360.305 33.0845 358.095 34.9478 356.448 37.2878C354.888 39.6278 354.108 42.1845 354.108 44.9578C354.108 47.7311 354.888 50.2878 356.448 52.6278C358.095 54.8811 360.305 56.7011 363.078 58.0878ZM444.38 75.5078C447.154 77.3278 449.06 80.3611 450.1 84.6078C451.14 88.7678 451.66 94.5745 451.66 102.028C451.66 111.041 449.797 117.714 446.07 122.048C442.43 126.381 436.32 128.548 427.74 128.548C421.76 128.548 417.08 127.681 413.7 125.948C410.32 124.128 407.894 121.051 406.42 116.718C404.947 112.384 404.21 106.318 404.21 98.5178V89.8078H425.92V108.008C425.92 108.528 426.094 108.961 426.44 109.308C426.787 109.654 427.22 109.828 427.74 109.828C428.26 109.828 428.694 109.654 429.04 109.308C429.387 108.961 429.56 108.528 429.56 108.008V89.0278C429.56 87.2945 428.694 86.4278 426.96 86.4278H406.81V64.9778H426.96C428.694 64.9778 429.56 64.1111 429.56 62.3778V43.2678C429.56 42.7478 429.387 42.3145 429.04 41.9678C428.694 41.6211 428.26 41.4478 427.74 41.4478C427.22 41.4478 426.787 41.6211 426.44 41.9678C426.094 42.3145 425.92 42.7478 425.92 43.2678V61.5978H404.21V53.1478C404.21 42.5745 405.987 34.8611 409.54 30.0078C413.094 25.1545 419.16 22.7278 427.74 22.7278C436.32 22.7278 442.43 24.8945 446.07 29.2278C449.797 33.5611 451.66 40.2345 451.66 49.2478C451.66 56.2678 451.097 61.9011 449.97 66.1478C448.844 70.3945 446.98 73.5145 444.38 75.5078ZM476.324 23.6378C483.43 23.6378 488.76 24.5478 492.314 26.3678C495.954 28.1878 498.467 31.5245 499.854 36.3778C501.327 41.1445 502.064 48.3811 502.064 58.0878C502.064 67.8811 501.24 75.3345 499.594 80.4478C497.947 85.4745 495.304 88.9411 491.664 90.8478C488.024 92.6678 482.91 93.5778 476.324 93.5778V127.638H454.874V23.6378H476.324ZM479.964 46.7778C479.964 45.0445 479.097 44.1778 477.364 44.1778H476.324V72.7778H477.364C479.097 72.7778 479.964 71.9545 479.964 70.3078V46.7778ZM526.349 127.638H500.869L509.969 23.6378H546.369L555.469 127.638H529.989V95.9178H526.349V127.638ZM526.349 75.1178H529.989V46.2578C529.989 45.7378 529.816 45.3045 529.469 44.9578C529.123 44.6111 528.689 44.4378 528.169 44.4378C527.649 44.4378 527.216 44.6111 526.869 44.9578C526.523 45.3045 526.349 45.7378 526.349 46.2578V75.1178ZM579.349 63.9378C586.109 63.9378 591.309 64.9778 594.949 67.0578C598.675 69.1378 601.275 72.4745 602.749 77.0678C604.309 81.5745 605.089 87.8145 605.089 95.7878C605.089 103.761 604.309 110.044 602.749 114.638C601.275 119.144 598.675 122.438 594.949 124.518C591.309 126.598 586.109 127.638 579.349 127.638H557.899V23.6378H602.229V45.7378H579.349V63.9378ZM582.989 86.6878C582.989 84.9545 582.122 84.0878 580.389 84.0878H579.349V107.488H580.389C582.122 107.488 582.989 106.621 582.989 104.888V86.6878ZM630.674 128.548C624.694 128.548 620.058 127.291 616.764 124.778C613.471 122.178 611.088 117.714 609.614 111.388C608.141 105.061 607.404 95.9611 607.404 84.0878V67.1878C607.404 55.3145 608.141 46.2145 609.614 39.8878C611.088 33.5611 613.471 29.1411 616.764 26.6278C620.058 24.0278 624.694 22.7278 630.674 22.7278H631.974C637.954 22.7278 642.591 24.0278 645.884 26.6278C649.178 29.1411 651.561 33.5611 653.034 39.8878C654.508 46.2145 655.244 55.3145 655.244 67.1878V84.0878C655.244 95.9611 654.508 105.061 653.034 111.388C651.561 117.714 649.178 122.178 645.884 124.778C642.591 127.291 637.954 128.548 631.974 128.548H630.674ZM631.324 107.748C631.844 107.748 632.278 107.574 632.624 107.228C632.971 106.881 633.144 106.448 633.144 105.928V45.3478C633.144 44.8278 632.971 44.3945 632.624 44.0478C632.278 43.7011 631.844 43.5278 631.324 43.5278C630.804 43.5278 630.371 43.7011 630.024 44.0478C629.678 44.3945 629.504 44.8278 629.504 45.3478V105.928C629.504 106.448 629.678 106.881 630.024 107.228C630.371 107.574 630.804 107.748 631.324 107.748ZM699.943 23.6378V45.7378H688.763V127.638H667.313V45.7378H656.133V23.6378H699.943ZM703.641 127.638V23.6378H725.091V65.2378H726.261C727.908 65.2378 728.731 64.4145 728.731 62.7678V23.6378H756.681L746.931 75.7678L756.681 127.638H728.731V89.1578C728.731 87.5111 727.908 86.6878 726.261 86.6878H725.091V127.638H703.641ZM752.099 78.4978L793.829 21.5578L844.399 69.9178L806.569 129.718L752.099 78.4978ZM795.519 102.028C799.593 102.028 803.579 100.684 807.479 97.9978C811.466 95.2245 814.673 91.4111 817.099 86.5578C819.613 81.6178 820.869 76.0711 820.869 69.9178C820.869 63.5045 819.396 58.0878 816.449 53.6678C813.503 49.2478 808.736 47.0378 802.149 47.0378C796.949 47.0378 792.399 48.5111 788.499 51.4578C784.686 54.3178 781.739 58.0878 779.659 62.7678C777.666 67.4478 776.669 72.4311 776.669 77.7178C776.669 82.4845 777.493 86.7311 779.139 90.4578C780.786 94.0978 783.039 96.9578 785.899 99.0378C788.846 101.031 792.053 102.028 795.519 102.028ZM871.76 21.0378C868.207 21.0378 864.914 20.1711 861.88 18.4378C858.934 16.7045 856.594 14.3645 854.86 11.4178C853.127 8.38446 852.26 5.09113 852.26 1.53779V0.237793H870.07V3.09779C870.07 3.53112 870.244 3.92112 870.59 4.26779C870.937 4.61445 871.327 4.78779 871.76 4.78779C872.194 4.78779 872.584 4.61445 872.93 4.26779C873.277 3.92112 873.45 3.53112 873.45 3.09779V0.237793H891.26V1.53779C891.26 5.09113 890.394 8.38446 888.66 11.4178C886.927 14.3645 884.544 16.7045 881.51 18.4378C878.564 20.1711 875.314 21.0378 871.76 21.0378ZM847.58 127.638V23.6378H869.68L862.79 90.3278V90.5878C862.79 91.7145 863.354 92.2778 864.48 92.2778C865.52 92.2778 866.084 91.6278 866.17 90.3278L873.06 23.6378H896.72V127.638H874.62L879.56 74.4678V74.2078C879.56 73.0811 878.997 72.5178 877.87 72.5178C876.917 72.5178 876.354 73.1678 876.18 74.4678L871.24 127.638H847.58Z" fill="#0E0E0E"/>
</g>
<defs>
<clipPath id="clip0_646_15">
<rect width="884" height="130" fill="white" transform="translate(13)"/>
</clipPath>
</defs>
</svg>
