<svg width="910" height="135" viewBox="0 0 910 135" fill="none" xmlns="http://www.w3.org/2000/svg">
<g clip-path="url(#clip0_620_41)">
<path d="M37.3961 132.588C30.2894 132.588 24.8294 130.594 21.0161 126.608C17.2027 122.534 15.2961 117.334 15.2961 111.008C15.2961 107.368 15.9027 104.334 17.1161 101.908C18.4161 99.3944 19.8894 97.4444 21.5361 96.0577C23.2694 94.671 25.3927 93.241 27.9061 91.7677C29.8994 90.641 31.3294 89.6877 32.1961 88.9077C33.0627 88.1277 33.4961 87.2177 33.4961 86.1777C33.4961 84.9644 32.8894 83.8377 31.6761 82.7977C30.5494 81.671 29.1627 80.8044 27.5161 80.1977C25.9561 79.5044 24.7427 79.1577 23.8761 79.1577H14.6461C13.9527 79.1577 13.6061 78.811 13.6061 78.1177L13.4761 27.6777C13.4761 26.9844 13.8227 26.6377 14.5161 26.6377H64.6961C65.3894 26.6377 65.7361 26.9844 65.7361 27.6777V59.9177C73.1027 56.191 79.0827 53.461 83.6761 51.7277C88.3561 49.9944 92.5594 49.1277 96.2861 49.1277C99.2327 49.1277 101.486 49.691 103.046 50.8177C104.606 51.9444 105.386 53.461 105.386 55.3677C105.386 57.361 104.606 59.181 103.046 60.8277C101.486 62.3877 99.3194 64.121 96.5461 66.0277C94.7261 67.3277 93.4261 68.3244 92.6461 69.0177C91.8661 69.711 91.4761 70.4044 91.4761 71.0977C91.4761 71.9644 92.0827 72.5277 93.2961 72.7877C94.5961 72.961 96.6327 73.0477 99.4061 73.0477C103.999 73.1344 107.596 73.5677 110.196 74.3477C112.796 75.1277 114.096 76.9477 114.096 79.8077C114.096 81.8877 113.403 83.9244 112.016 85.9177C110.629 87.8244 108.679 90.0344 106.166 92.5477C104.346 94.4544 103.046 95.8844 102.266 96.8377C101.573 97.791 101.226 98.6577 101.226 99.4377C101.226 100.304 101.616 101.171 102.396 102.038C103.263 102.818 104.606 103.858 106.426 105.158C109.459 107.324 111.886 109.491 113.706 111.658C115.526 113.738 116.436 116.294 116.436 119.328C116.436 122.794 115.179 125.568 112.666 127.648C110.153 129.641 107.033 130.638 103.306 130.638C100.013 130.638 96.9361 129.901 94.0761 128.428C91.3027 126.954 88.1394 124.874 84.5861 122.188C81.8994 120.108 79.6461 118.591 77.8261 117.638C76.0061 116.598 74.2294 116.078 72.4961 116.078C70.8494 116.078 69.2461 116.554 67.6861 117.508C66.2127 118.374 64.1327 119.891 61.4461 122.058C57.6327 125.351 53.9061 127.951 50.2661 129.858C46.7127 131.678 42.4227 132.588 37.3961 132.588ZM35.8361 111.138C35.8361 112.958 36.3994 114.474 37.5261 115.688C38.7394 116.901 40.3861 117.508 42.4661 117.508C44.4594 117.508 46.2361 116.988 47.7961 115.948C49.3561 114.821 51.2627 113.088 53.5161 110.748C56.2894 107.888 58.8027 105.721 61.0561 104.248C63.3094 102.774 66.1261 102.038 69.5061 102.038C71.4127 102.038 72.9727 102.298 74.1861 102.818C75.4861 103.251 77.0027 103.944 78.7361 104.898C79.8627 105.678 80.9027 106.284 81.8561 106.718C82.8961 107.064 84.0227 107.238 85.2361 107.238C87.0561 107.238 88.4427 106.804 89.3961 105.938C90.3494 104.984 90.8261 103.814 90.8261 102.428C90.8261 101.301 90.5227 100.348 89.9161 99.5677C89.3961 98.7877 88.6594 98.051 87.7061 97.3577C86.8394 96.5777 86.1894 95.9277 85.7561 95.4077C85.4094 94.8877 85.2361 94.281 85.2361 93.5877C85.2361 92.5477 85.6261 91.7244 86.4061 91.1177C87.2727 90.511 88.5727 89.861 90.3061 89.1677C91.6927 88.561 92.6894 88.041 93.2961 87.6077C93.9894 87.1744 94.3361 86.6544 94.3361 86.0477C94.3361 84.5744 92.3427 83.8377 88.3561 83.8377H84.0661C80.8594 83.8377 78.3461 83.5344 76.5261 82.9277C74.7927 82.321 73.9261 80.9777 73.9261 78.8977C73.9261 77.8577 74.1427 76.9044 74.5761 76.0377C75.0094 75.171 75.5727 74.1744 76.2661 73.0477C77.2194 71.5744 77.6961 70.5777 77.6961 70.0577C77.6961 69.3644 77.2627 68.8444 76.3961 68.4977C75.5294 68.151 74.6194 67.9777 73.6661 67.9777C72.1927 67.9777 70.8494 68.411 69.6361 69.2777C68.4227 70.1444 67.1227 71.3577 65.7361 72.9177V78.1177C65.7361 78.811 65.3894 79.1577 64.6961 79.1577H44.8061C44.9794 79.6777 45.4994 80.6744 46.3661 82.1477C47.1461 83.4477 47.7094 84.5744 48.0561 85.5277C48.4894 86.3944 48.7061 87.3477 48.7061 88.3877C48.7061 90.2077 48.1861 91.941 47.1461 93.5877C46.1061 95.1477 44.5027 97.1844 42.3361 99.6977C40.1694 102.124 38.5227 104.204 37.3961 105.938C36.3561 107.584 35.8361 109.318 35.8361 111.138ZM154.27 26.6377V48.7377H142.31V67.4577H154.27V89.5577H142.31V108.538H154.27V130.638H120.86V26.6377H154.27ZM178.873 66.9377C185.633 66.9377 190.833 67.9777 194.473 70.0577C198.199 72.1377 200.799 75.4744 202.273 80.0677C203.833 84.5744 204.613 90.8144 204.613 98.7877C204.613 106.761 203.833 113.044 202.273 117.638C200.799 122.144 198.199 125.438 194.473 127.518C190.833 129.598 185.633 130.638 178.873 130.638H157.423V26.6377H201.753V48.7377H178.873V66.9377ZM182.513 89.6877C182.513 87.9544 181.646 87.0877 179.913 87.0877H178.873V110.488H179.913C181.646 110.488 182.513 109.621 182.513 107.888V89.6877ZM288.828 100.348H206.668V78.8977H288.828V100.348ZM313.443 26.6377C320.55 26.6377 325.88 27.5477 329.433 29.3677C333.073 31.1877 335.586 34.5244 336.973 39.3777C338.446 44.1444 339.183 51.381 339.183 61.0877C339.183 70.881 338.36 78.3344 336.713 83.4477C335.066 88.4744 332.423 91.941 328.783 93.8477C325.143 95.6677 320.03 96.5777 313.443 96.5777V130.638H291.993V26.6377H313.443ZM317.083 49.7777C317.083 48.0444 316.216 47.1777 314.483 47.1777H313.443V75.7777H314.483C316.216 75.7777 317.083 74.9544 317.083 73.3077V49.7777ZM342.538 27.4177C342.538 26.7244 342.885 26.3777 343.578 26.3777H400.258C401.038 26.3777 401.428 26.7244 401.428 27.4177V129.468C401.428 130.161 401.082 130.508 400.388 130.508H376.728C376.035 130.508 375.688 130.161 375.688 129.468V77.2077C375.688 76.6877 375.428 76.4277 374.908 76.4277H369.058C368.538 76.4277 368.278 76.6877 368.278 77.2077V129.468C368.278 130.161 367.932 130.508 367.238 130.508H343.578C342.885 130.508 342.538 130.161 342.538 129.468V27.4177ZM363.078 61.0877C365.852 62.4744 368.885 63.1677 372.178 63.1677C375.472 63.1677 378.505 62.4744 381.278 61.0877C384.052 59.701 386.218 57.881 387.778 55.6277C389.425 53.2877 390.248 50.731 390.248 47.9577C390.248 45.1844 389.425 42.6277 387.778 40.2877C386.218 37.9477 384.052 36.0844 381.278 34.6977C378.505 33.311 375.472 32.6177 372.178 32.6177C368.885 32.6177 365.852 33.311 363.078 34.6977C360.305 36.0844 358.095 37.9477 356.448 40.2877C354.888 42.6277 354.108 45.1844 354.108 47.9577C354.108 50.731 354.888 53.2877 356.448 55.6277C358.095 57.881 360.305 59.701 363.078 61.0877ZM444.38 78.5077C447.154 80.3277 449.06 83.361 450.1 87.6077C451.14 91.7677 451.66 97.5744 451.66 105.028C451.66 114.041 449.797 120.714 446.07 125.048C442.43 129.381 436.32 131.548 427.74 131.548C421.76 131.548 417.08 130.681 413.7 128.948C410.32 127.128 407.894 124.051 406.42 119.718C404.947 115.384 404.21 109.318 404.21 101.518V92.8077H425.92V111.008C425.92 111.528 426.094 111.961 426.44 112.308C426.787 112.654 427.22 112.828 427.74 112.828C428.26 112.828 428.694 112.654 429.04 112.308C429.387 111.961 429.56 111.528 429.56 111.008V92.0277C429.56 90.2944 428.694 89.4277 426.96 89.4277H406.81V67.9777H426.96C428.694 67.9777 429.56 67.111 429.56 65.3777V46.2677C429.56 45.7477 429.387 45.3144 429.04 44.9677C428.694 44.621 428.26 44.4477 427.74 44.4477C427.22 44.4477 426.787 44.621 426.44 44.9677C426.094 45.3144 425.92 45.7477 425.92 46.2677V64.5977H404.21V56.1477C404.21 45.5744 405.987 37.861 409.54 33.0077C413.094 28.1544 419.16 25.7277 427.74 25.7277C436.32 25.7277 442.43 27.8944 446.07 32.2277C449.797 36.561 451.66 43.2344 451.66 52.2477C451.66 59.2677 451.097 64.901 449.97 69.1477C448.844 73.3944 446.98 76.5144 444.38 78.5077ZM476.324 26.6377C483.43 26.6377 488.76 27.5477 492.314 29.3677C495.954 31.1877 498.467 34.5244 499.854 39.3777C501.327 44.1444 502.064 51.381 502.064 61.0877C502.064 70.881 501.24 78.3344 499.594 83.4477C497.947 88.4744 495.304 91.941 491.664 93.8477C488.024 95.6677 482.91 96.5777 476.324 96.5777V130.638H454.874V26.6377H476.324ZM479.964 49.7777C479.964 48.0444 479.097 47.1777 477.364 47.1777H476.324V75.7777H477.364C479.097 75.7777 479.964 74.9544 479.964 73.3077V49.7777ZM526.349 130.638H500.869L509.969 26.6377H546.369L555.469 130.638H529.989V98.9177H526.349V130.638ZM526.349 78.1177H529.989V49.2577C529.989 48.7377 529.816 48.3044 529.469 47.9577C529.123 47.611 528.689 47.4377 528.169 47.4377C527.649 47.4377 527.216 47.611 526.869 47.9577C526.523 48.3044 526.349 48.7377 526.349 49.2577V78.1177ZM579.349 66.9377C586.109 66.9377 591.309 67.9777 594.949 70.0577C598.675 72.1377 601.275 75.4744 602.749 80.0677C604.309 84.5744 605.089 90.8144 605.089 98.7877C605.089 106.761 604.309 113.044 602.749 117.638C601.275 122.144 598.675 125.438 594.949 127.518C591.309 129.598 586.109 130.638 579.349 130.638H557.899V26.6377H602.229V48.7377H579.349V66.9377ZM582.989 89.6877C582.989 87.9544 582.122 87.0877 580.389 87.0877H579.349V110.488H580.389C582.122 110.488 582.989 109.621 582.989 107.888V89.6877ZM630.674 131.548C624.694 131.548 620.058 130.291 616.764 127.778C613.471 125.178 611.088 120.714 609.614 114.388C608.141 108.061 607.404 98.961 607.404 87.0877V70.1877C607.404 58.3144 608.141 49.2144 609.614 42.8877C611.088 36.561 613.471 32.141 616.764 29.6277C620.058 27.0277 624.694 25.7277 630.674 25.7277H631.974C637.954 25.7277 642.591 27.0277 645.884 29.6277C649.178 32.141 651.561 36.561 653.034 42.8877C654.508 49.2144 655.244 58.3144 655.244 70.1877V87.0877C655.244 98.961 654.508 108.061 653.034 114.388C651.561 120.714 649.178 125.178 645.884 127.778C642.591 130.291 637.954 131.548 631.974 131.548H630.674ZM631.324 110.748C631.844 110.748 632.278 110.574 632.624 110.228C632.971 109.881 633.144 109.448 633.144 108.928V48.3477C633.144 47.8277 632.971 47.3944 632.624 47.0477C632.278 46.701 631.844 46.5277 631.324 46.5277C630.804 46.5277 630.371 46.701 630.024 47.0477C629.678 47.3944 629.504 47.8277 629.504 48.3477V108.928C629.504 109.448 629.678 109.881 630.024 110.228C630.371 110.574 630.804 110.748 631.324 110.748ZM699.943 26.6377V48.7377H688.763V130.638H667.313V48.7377H656.133V26.6377H699.943ZM703.641 130.638V26.6377H725.091V68.2377H726.261C727.908 68.2377 728.731 67.4144 728.731 65.7677V26.6377H756.681L746.931 78.7677L756.681 130.638H728.731V92.1577C728.731 90.511 727.908 89.6877 726.261 89.6877H725.091V130.638H703.641ZM752.099 81.4977L793.829 24.5577L844.399 72.9177L806.569 132.718L752.099 81.4977ZM795.519 105.028C799.593 105.028 803.579 103.684 807.479 100.998C811.466 98.2244 814.673 94.411 817.099 89.5577C819.613 84.6177 820.869 79.071 820.869 72.9177C820.869 66.5044 819.396 61.0877 816.449 56.6677C813.503 52.2477 808.736 50.0377 802.149 50.0377C796.949 50.0377 792.399 51.511 788.499 54.4577C784.686 57.3177 781.739 61.0877 779.659 65.7677C777.666 70.4477 776.669 75.431 776.669 80.7177C776.669 85.4844 777.493 89.731 779.139 93.4577C780.786 97.0977 783.039 99.9577 785.899 102.038C788.846 104.031 792.053 105.028 795.519 105.028ZM871.76 24.0377C868.207 24.0377 864.914 23.171 861.88 21.4377C858.934 19.7044 856.594 17.3644 854.86 14.4177C853.127 11.3844 852.26 8.09104 852.26 4.5377V3.2377H870.07V6.0977C870.07 6.53103 870.244 6.92103 870.59 7.2677C870.937 7.61436 871.327 7.7877 871.76 7.7877C872.194 7.7877 872.584 7.61436 872.93 7.2677C873.277 6.92103 873.45 6.53103 873.45 6.0977V3.2377H891.26V4.5377C891.26 8.09104 890.394 11.3844 888.66 14.4177C886.927 17.3644 884.544 19.7044 881.51 21.4377C878.564 23.171 875.314 24.0377 871.76 24.0377ZM847.58 130.638V26.6377H869.68L862.79 93.3277V93.5877C862.79 94.7144 863.354 95.2777 864.48 95.2777C865.52 95.2777 866.084 94.6277 866.17 93.3277L873.06 26.6377H896.72V130.638H874.62L879.56 77.4677V77.2077C879.56 76.081 878.997 75.5177 877.87 75.5177C876.917 75.5177 876.354 76.1677 876.18 77.4677L871.24 130.638H847.58Z" fill="#0E0E0E"/>
</g>
<defs>
<clipPath id="clip0_620_41">
<rect width="884" height="130" fill="white" transform="translate(13 3)"/>
</clipPath>
</defs>
</svg>
