<svg width="32" height="34" viewBox="0 0 32 34" fill="none" xmlns="http://www.w3.org/2000/svg">
<path d="M7.28381 25.508C6.72184 24.7855 6.01938 23.3203 4.79508 21.4939C4.09262 20.4904 2.36657 18.5837 1.84474 17.6003C1.46856 17.0026 1.35941 16.2749 1.54368 15.5932C1.85871 14.2971 3.08822 13.4373 4.41375 13.5862C5.43894 13.7921 6.38109 14.2946 7.12325 15.0313C7.64143 15.5193 8.11807 16.0497 8.54824 16.6168C8.86937 17.0182 8.94965 17.1788 9.31092 17.6404C9.67218 18.102 9.91303 18.5636 9.73239 17.8812C9.5919 16.8777 9.35106 15.1918 9.00986 13.6865C8.74895 12.5425 8.68874 12.3619 8.44789 11.4989C8.20705 10.6358 8.06655 9.91331 7.80564 8.92986C7.56714 7.96362 7.37956 6.98551 7.24367 5.99959C6.99069 4.73857 7.17474 3.429 7.7655 2.28657C8.46674 1.627 9.49543 1.45291 10.3746 1.84502C11.2589 2.49798 11.9183 3.40981 12.2613 4.45417C12.7872 5.73945 13.1383 7.08954 13.3049 8.46824C13.626 10.4753 14.2482 13.4056 14.2683 14.0077C14.2683 13.2651 14.1278 11.6996 14.2683 10.9971C14.4075 10.2648 14.9165 9.65703 15.613 9.39148C16.2107 9.20809 16.843 9.16685 17.4595 9.27106C18.0817 9.40115 18.6329 9.75906 19.0049 10.2746C19.4699 11.4455 19.728 12.6882 19.7676 13.9475C19.8213 12.8448 20.0101 11.7528 20.3296 10.6961C20.6649 10.2235 21.1547 9.88278 21.7144 9.73268C22.3779 9.61136 23.0579 9.61136 23.7214 9.73268C24.2655 9.91458 24.7415 10.2575 25.0862 10.7161C25.5113 11.7805 25.7685 12.9045 25.8489 14.0478C25.8489 14.3288 25.9894 13.2651 26.4309 12.5626C26.6604 11.8814 27.2358 11.3744 27.9405 11.2325C28.6451 11.0906 29.372 11.3354 29.8472 11.8747C30.3224 12.414 30.4738 13.1659 30.2443 13.8471C30.2443 15.1517 30.2443 15.0915 30.2443 15.9746C30.2443 16.8577 30.2443 17.6404 30.2443 18.383C30.1712 19.5575 30.0102 20.7248 29.7626 21.8752C29.4133 22.8931 28.9272 23.8586 28.3176 24.7453C27.343 25.829 26.5378 27.0538 25.9292 28.378C25.7782 29.036 25.7107 29.7103 25.7285 30.3851C25.7265 31.0085 25.8075 31.6295 25.9693 32.2316C25.1487 32.3183 24.3213 32.3183 23.5007 32.2316C22.7179 32.1111 21.7545 30.5456 21.4936 30.064C21.3645 29.8053 21.1003 29.6419 20.8112 29.6419C20.5222 29.6419 20.2579 29.8053 20.1288 30.064C19.6873 30.8266 18.7038 32.2115 18.0215 32.2918C16.6767 32.4523 13.907 32.2918 11.7194 32.2918C11.7194 32.2918 12.0806 30.2847 11.2577 29.5622C10.4349 28.8397 9.5919 27.9967 8.96972 27.4347L7.28381 25.508Z" fill="#FFFDFB"/>
<path fill-rule="evenodd" clip-rule="evenodd" d="M7.28381 25.508C6.72184 24.7855 6.01938 23.3203 4.79508 21.4939C4.09262 20.4904 2.36657 18.5837 1.84474 17.6003C1.46856 17.0026 1.35941 16.2749 1.54368 15.5932C1.85871 14.2971 3.08822 13.4373 4.41375 13.5862C5.43894 13.7921 6.38109 14.2946 7.12325 15.0313C7.64143 15.5193 8.11807 16.0497 8.54824 16.6168C8.86937 17.0182 8.94965 17.1788 9.31092 17.6404C9.67218 18.102 9.91303 18.5636 9.73239 17.8812C9.5919 16.8777 9.35106 15.1918 9.00986 13.6865C8.74895 12.5425 8.68874 12.3619 8.44789 11.4989C8.20705 10.6358 8.06655 9.91331 7.80564 8.92986C7.56714 7.96362 7.37956 6.98551 7.24367 5.99959C6.99069 4.73857 7.17474 3.429 7.7655 2.28657C8.46674 1.627 9.49542 1.45291 10.3746 1.84502C11.2589 2.49798 11.9183 3.40981 12.2613 4.45417C12.7872 5.73945 13.1383 7.08954 13.3049 8.46824C13.626 10.4753 14.2482 13.4056 14.2683 14.0077C14.2683 13.2651 14.1278 11.6996 14.2683 10.9971C14.4075 10.2648 14.9165 9.65703 15.613 9.39148C16.2107 9.20809 16.843 9.16685 17.4595 9.27106C18.0817 9.40115 18.6329 9.75906 19.0049 10.2746C19.4699 11.4455 19.728 12.6882 19.7676 13.9475C19.8213 12.8448 20.0101 11.7528 20.3296 10.6961C20.6649 10.2235 21.1547 9.88278 21.7144 9.73268C22.3779 9.61136 23.0579 9.61136 23.7214 9.73268C24.2655 9.91458 24.7415 10.2575 25.0862 10.7161C25.5113 11.7805 25.7685 12.9045 25.8489 14.0478C25.8489 14.3288 25.9894 13.2651 26.4309 12.5626C26.6604 11.8814 27.2358 11.3744 27.9405 11.2325C28.6451 11.0906 29.372 11.3354 29.8472 11.8747C30.3224 12.414 30.4738 13.1659 30.2443 13.8471C30.2443 15.1517 30.2443 15.0915 30.2443 15.9746C30.2443 16.8577 30.2443 17.6404 30.2443 18.383C30.1712 19.5575 30.0102 20.7248 29.7626 21.8752C29.4133 22.8931 28.9272 23.8586 28.3176 24.7453C27.343 25.829 26.5378 27.0538 25.9292 28.378C25.7782 29.036 25.7107 29.7103 25.7285 30.3851C25.7265 31.0085 25.8075 31.6295 25.9693 32.2316C25.1487 32.3183 24.3213 32.3183 23.5007 32.2316C22.7179 32.1111 21.7545 30.5456 21.4936 30.064C21.3645 29.8053 21.1003 29.6419 20.8112 29.6419C20.5222 29.6419 20.2579 29.8053 20.1288 30.064C19.6873 30.8266 18.7038 32.2115 18.0215 32.2918C16.6767 32.4523 13.907 32.2918 11.7194 32.2918C11.7194 32.2918 12.0806 30.2847 11.2577 29.5622C10.4349 28.8397 9.5919 27.9967 8.96972 27.4347L7.28381 25.508Z" stroke="#0E0E0E" stroke-width="1.50528" stroke-linecap="round" stroke-linejoin="round"/>
<path d="M24.3039 26.6039V19.676C24.3039 19.2614 23.9669 18.9252 23.5512 18.9252C23.1356 18.9252 22.7986 19.2614 22.7986 19.676V26.6039C22.7986 27.0186 23.1356 27.3547 23.5512 27.3547C23.9669 27.3547 24.3039 27.0186 24.3039 26.6039Z" fill="#0E0E0E"/>
<path d="M20.33 26.6013L20.2898 19.6699C20.2874 19.2562 19.9485 18.9228 19.5328 18.9252C19.1172 18.9276 18.7822 19.2649 18.7846 19.6786L18.8247 26.61C18.8271 27.0237 19.166 27.3571 19.5817 27.3547C19.9973 27.3523 20.3323 27.015 20.33 26.6013Z" fill="#0E0E0E"/>
<path d="M14.7697 19.6858L14.8098 26.6029C14.8122 27.0206 15.1512 27.3572 15.5668 27.3547C15.9825 27.3523 16.3175 27.0117 16.3151 26.5941L16.2749 19.677C16.2725 19.2594 15.9336 18.9228 15.5179 18.9252C15.1022 18.9276 14.7672 19.2682 14.7697 19.6858Z" fill="#0E0E0E"/>
</svg>
