<svg width="254" height="254" viewBox="0 0 254 254" fill="none" xmlns="http://www.w3.org/2000/svg">
<path d="M153.909 136.681C153.209 136.681 152.641 137.246 152.641 137.94V147.083C152.641 147.777 153.209 148.343 153.909 148.343H163.114C163.813 148.343 164.382 147.777 164.382 147.083V137.941C164.382 137.247 163.812 136.682 163.114 136.682H153.909V136.681ZM153.909 123.321C153.209 123.321 152.641 123.886 152.641 124.58V133.723C152.641 134.417 153.209 134.982 153.909 134.982H163.114C163.813 134.982 164.382 134.417 164.382 133.723V124.58C164.382 123.886 163.812 123.321 163.114 123.321H153.909ZM167.358 123.321C166.659 123.321 166.09 123.886 166.09 124.58V133.723C166.09 134.417 166.659 134.982 167.358 134.982H176.563C177.262 134.982 177.831 134.417 177.831 133.723V124.58C177.831 123.886 177.262 123.321 176.563 123.321H167.358ZM167.358 109.96C166.659 109.96 166.09 110.525 166.09 111.22V120.363C166.09 121.057 166.659 121.622 167.358 121.622H176.563C177.262 121.622 177.831 121.057 177.831 120.363V111.22C177.831 110.525 177.262 109.96 176.563 109.96H167.358ZM153.909 109.96C153.209 109.96 152.641 110.525 152.641 111.22V120.363C152.641 121.057 153.209 121.622 153.909 121.622H163.114C163.813 121.622 164.382 121.057 164.382 120.363V111.22C164.382 110.525 163.812 109.96 163.114 109.96H153.909ZM167.358 136.681C166.659 136.681 166.09 137.246 166.09 137.94V147.083C166.09 147.777 166.659 148.343 167.358 148.343H176.563C177.262 148.343 177.831 147.777 177.831 147.083V137.941C177.831 137.247 177.262 136.682 176.563 136.682H167.358V136.681Z" fill="#0E0E0E"/>
<path d="M183.232 119.093C182.897 119.059 182.562 119.158 182.301 119.369C182.04 119.58 181.873 119.885 181.838 120.217L180.891 129.321C180.819 130.013 181.327 130.634 182.023 130.705L191.189 131.646C191.886 131.717 192.511 131.212 192.583 130.521L193.53 121.417C193.564 121.085 193.464 120.752 193.252 120.493C193.04 120.233 192.732 120.068 192.398 120.033L183.232 119.093ZM181.869 132.19C181.534 132.156 181.2 132.255 180.939 132.466C180.677 132.677 180.511 132.982 180.476 133.314L179.528 142.417C179.456 143.109 179.964 143.73 180.66 143.801L189.826 144.742C190.523 144.813 191.148 144.309 191.22 143.618L192.167 134.514C192.201 134.182 192.102 133.849 191.889 133.59C191.677 133.33 191.37 133.165 191.035 133.13L181.869 132.19ZM184.595 105.994C184.26 105.96 183.925 106.059 183.664 106.27C183.403 106.481 183.236 106.786 183.201 107.119L182.254 116.222C182.182 116.914 182.689 117.534 183.386 117.606L192.552 118.546C193.248 118.618 193.873 118.114 193.945 117.422L194.892 108.318C194.926 107.986 194.826 107.653 194.614 107.394C194.402 107.135 194.095 106.97 193.76 106.935L184.595 105.994Z" fill="#0E0E0E"/>
<path fill-rule="evenodd" clip-rule="evenodd" d="M73.7852 121.957L73.7801 121.956L70.1783 132.214C70.0847 132.411 70.0363 132.626 70.0364 132.845C70.0364 133.668 70.7155 134.337 71.5536 134.337H78.9086C79.1069 134.338 79.3034 134.3 79.487 134.226C79.6706 134.151 79.8376 134.042 79.9784 133.903C80.1193 133.764 80.2313 133.6 80.3081 133.418C80.3849 133.236 80.4249 133.041 80.4258 132.845C80.4258 132.677 80.3977 132.516 80.3466 132.367L80.3487 132.364L76.6713 122.03C76.6567 121.981 76.6394 121.933 76.6194 121.886L76.6187 121.884C76.503 121.609 76.3081 121.375 76.0584 121.21C75.8088 121.046 75.5156 120.958 75.216 120.959C74.5549 120.959 73.9926 121.376 73.7852 121.957ZM141.474 116.918C141.452 117.716 140.78 118.356 139.956 118.356C139.618 118.356 139.306 118.249 139.054 118.067C139.047 118.064 139.041 118.061 139.035 118.057L139.026 118.054C138.791 117.914 138.552 117.78 138.311 117.651C138.022 117.495 137.731 117.341 137.44 117.19C137.114 117.029 136.781 116.883 136.442 116.752C136.053 116.601 135.659 116.466 135.26 116.345L135.255 116.344C134.828 116.212 134.39 116.116 133.947 116.057C133.456 115.992 132.961 115.96 132.466 115.963C131.974 115.963 131.524 115.993 131.116 116.056C130.732 116.112 130.354 116.206 129.988 116.337L129.981 116.34L129.979 116.341L129.978 116.34C129.792 116.406 129.609 116.481 129.43 116.566C129.018 116.755 128.636 117.004 128.298 117.306H128.296L128.296 117.306L128.293 117.309C128.174 117.415 128.062 117.529 127.958 117.65C127.69 117.961 127.478 118.316 127.33 118.698L127.328 118.707C127.215 118.979 127.13 119.261 127.074 119.549C127.017 119.85 126.989 120.154 126.991 120.46V120.463H126.989C126.989 120.915 127.043 121.335 127.151 121.721C127.252 122.092 127.411 122.445 127.622 122.766C127.84 123.099 128.092 123.415 128.38 123.71C128.669 124.007 128.995 124.283 129.363 124.539L129.362 124.54L129.37 124.546C129.584 124.699 129.803 124.845 130.025 124.986C130.606 125.354 131.244 125.699 131.938 126.017L131.941 126.019C132.953 126.489 133.966 126.955 134.982 127.417L134.984 127.417L134.986 127.42C135.278 127.554 135.568 127.691 135.856 127.832C136.602 128.195 137.336 128.58 138.058 128.987V128.989C138.581 129.286 139.07 129.605 139.526 129.946C139.984 130.289 140.418 130.661 140.825 131.061L140.826 131.062C141.659 131.886 142.331 132.855 142.81 133.922L142.81 133.921C143.067 134.481 143.258 135.087 143.386 135.742C143.512 136.386 143.574 137.08 143.574 137.829H143.576V137.832H143.574C143.574 138.703 143.492 139.527 143.327 140.304V140.306C143.169 141.071 142.92 141.813 142.586 142.519V142.521C142.261 143.198 141.863 143.838 141.4 144.43C140.938 145.019 140.411 145.555 139.829 146.028C139.24 146.511 138.603 146.933 137.927 147.287C137.244 147.645 136.508 147.943 135.719 148.179L135.72 148.18C134.926 148.423 134.115 148.604 133.294 148.721C132.451 148.84 131.584 148.901 130.688 148.901H130.682V148.899C129.984 148.9 129.286 148.864 128.592 148.791C128.126 148.741 127.663 148.67 127.203 148.579C126.695 148.483 126.19 148.37 125.69 148.237C125.232 148.116 124.78 147.973 124.335 147.809C123.945 147.67 123.561 147.517 123.182 147.35C122.85 147.205 122.525 147.045 122.209 146.869L122.203 146.866C121.95 146.722 121.703 146.567 121.462 146.404C121.276 146.279 121.102 146.137 120.943 145.979C120.801 145.833 120.68 145.669 120.581 145.492C120.483 145.313 120.404 145.125 120.345 144.93C120.278 144.706 120.232 144.475 120.209 144.242C120.18 143.968 120.166 143.692 120.168 143.416C120.168 142.995 120.19 142.642 120.231 142.339V142.335L120.232 142.333C120.239 142.285 120.246 142.244 120.252 142.211C120.26 142.159 120.268 142.119 120.272 142.096C120.342 141.754 120.528 141.447 120.8 141.227C121.073 141.007 121.413 140.888 121.764 140.89C122.295 140.89 122.562 141.112 122.954 141.373L122.956 141.376C123.18 141.526 123.444 141.685 123.745 141.852C124.051 142.023 124.385 142.196 124.743 142.373V142.372C124.957 142.475 125.174 142.573 125.392 142.665C125.986 142.918 126.651 143.159 127.387 143.382L127.39 143.383C127.681 143.47 127.975 143.543 128.272 143.603C129.062 143.762 129.944 143.841 130.91 143.841C131.417 143.841 131.897 143.807 132.353 143.742C132.813 143.675 133.245 143.577 133.652 143.45V143.448L133.654 143.448L133.654 143.449C133.878 143.38 134.097 143.299 134.312 143.207V143.205C134.823 142.991 135.301 142.708 135.735 142.365L135.734 142.364C136.022 142.132 136.274 141.876 136.491 141.596C136.71 141.313 136.894 141.004 137.046 140.673L137.048 140.667L137.05 140.664C137.092 140.57 137.132 140.476 137.167 140.383C137.199 140.297 137.233 140.198 137.268 140.085C137.435 139.521 137.518 138.936 137.513 138.348H137.51V138.345H137.513C137.516 137.848 137.442 137.353 137.294 136.878C137.195 136.576 137.058 136.288 136.885 136.021L136.883 136.021L136.883 136.021L136.877 136.009C136.817 135.917 136.755 135.827 136.69 135.738C136.624 135.648 136.556 135.559 136.485 135.473C136.097 135.008 135.649 134.596 135.153 134.247C134.77 133.975 134.373 133.723 133.964 133.491C133.52 133.242 133.066 133.012 132.602 132.801L132.6 132.799C131.595 132.332 130.587 131.87 129.577 131.411L129.577 131.411L129.577 131.41C129.284 131.278 128.993 131.141 128.705 131.001C127.964 130.636 127.237 130.245 126.526 129.828L126.523 129.826C126.023 129.532 125.542 129.208 125.082 128.854C124.63 128.506 124.201 128.129 123.799 127.724C123.392 127.314 123.024 126.869 122.698 126.393C122.364 125.905 122.073 125.389 121.828 124.851V124.849C121.567 124.264 121.377 123.651 121.261 123.022C121.132 122.32 121.069 121.608 121.072 120.895V120.892H121.075C121.075 120.112 121.148 119.372 121.292 118.675C121.431 117.99 121.65 117.324 121.945 116.691L121.947 116.687C122.242 116.067 122.592 115.497 122.998 114.978C123.406 114.456 123.873 113.982 124.388 113.565L124.391 113.563C124.921 113.139 125.492 112.77 126.097 112.46C126.733 112.135 127.397 111.868 128.081 111.661V111.66L128.085 111.659H128.087C128.273 111.602 128.473 111.546 128.686 111.491C128.898 111.436 129.101 111.389 129.296 111.347C130.393 111.121 131.511 111.009 132.632 111.013C133.049 111.013 133.469 111.033 133.891 111.07C134.3 111.106 134.722 111.159 135.152 111.229H135.158C135.563 111.3 135.971 111.383 136.379 111.48C136.77 111.574 137.153 111.681 137.528 111.804L137.528 111.803L137.531 111.804L137.533 111.805C137.618 111.832 137.72 111.866 137.84 111.907L137.84 111.905C138.419 112.099 138.983 112.334 139.527 112.61H139.528C139.679 112.687 139.829 112.767 139.978 112.848C140.35 113.055 140.615 113.239 140.767 113.389V113.391C140.87 113.492 140.954 113.58 141.019 113.657C141.099 113.748 141.161 113.835 141.207 113.919L141.208 113.921L141.21 113.924L141.243 113.989L141.244 113.988C141.255 114.011 141.266 114.034 141.276 114.058V114.06C141.324 114.172 141.364 114.298 141.39 114.431C141.413 114.523 141.434 114.624 141.449 114.733C141.466 114.843 141.479 114.954 141.49 115.067V115.069C141.498 115.172 141.506 115.307 141.511 115.478C141.524 115.804 141.524 116.132 141.511 116.458C141.505 116.609 141.495 116.76 141.479 116.91V116.912L141.474 116.918ZM106.257 130.2C109.528 129.67 112.024 126.902 112.024 123.567C112.024 120.085 109.303 117.22 105.818 116.878V116.88C105.667 116.864 105.516 116.854 105.364 116.849C105.082 116.833 104.799 116.826 104.516 116.825V116.823H102.068C101.869 116.812 101.67 116.842 101.482 116.91C101.295 116.978 101.124 117.082 100.979 117.218C100.833 117.354 100.717 117.517 100.637 117.698C100.558 117.88 100.516 118.075 100.514 118.273L100.511 118.274V128.866L100.514 128.869C100.522 129.246 100.675 129.604 100.942 129.871C101.209 130.138 101.569 130.293 101.948 130.303L101.952 130.306H104.405V130.308C104.655 130.308 104.904 130.303 105.153 130.291C105.523 130.289 105.892 130.259 106.257 130.2ZM106.512 111.87C120.985 111.87 121.899 132.847 108.274 134.878C107.027 135.064 105.668 135.241 104.168 135.241H100.512V146.464C100.528 146.665 100.503 146.867 100.437 147.057C100.371 147.248 100.266 147.423 100.129 147.572C99.9913 147.72 99.8245 147.839 99.6388 147.92C99.453 148.002 99.2524 148.044 99.0493 148.045H96.0783C95.6924 148.04 95.3241 147.884 95.0525 147.612C94.7809 147.339 94.6277 146.972 94.6259 146.589V113.513C94.6198 113.461 94.6167 113.409 94.6165 113.356C94.6165 112.557 95.2711 111.904 96.0862 111.879C96.0797 111.874 96.0999 111.871 96.174 111.871H104.912C105.29 111.871 105.683 111.879 106.095 111.895L106.257 111.902V111.873C106.342 111.872 106.427 111.87 106.512 111.87ZM75.3665 139.267H68.9412C68.1743 139.241 67.6313 139.565 67.3311 140.374L65.0081 146.918C64.9236 147.241 64.7332 147.528 64.4667 147.732C64.2002 147.936 63.8728 148.047 63.5362 148.046H60.527C60.1264 148.047 59.7416 147.891 59.4571 147.611C59.1726 147.331 59.0117 146.95 59.0098 146.552C59.0098 146.328 59.0602 146.117 59.1495 145.926L71.2397 112.992C71.3238 112.676 71.5095 112.395 71.7688 112.193C72.028 111.99 72.3466 111.878 72.6762 111.872H77.7845C78.4772 111.887 79.0555 112.358 79.2211 112.992L91.3113 145.926C91.4013 146.117 91.4517 146.328 91.4517 146.552C91.4508 146.749 91.4108 146.944 91.334 147.126C91.2573 147.307 91.1453 147.472 91.0044 147.611C90.8635 147.749 90.6965 147.859 90.5129 147.934C90.3294 148.008 90.1328 148.046 89.9345 148.045H86.9253C86.5887 148.046 86.2613 147.936 85.9948 147.731C85.7283 147.527 85.5379 147.241 85.4534 146.917L83.1297 140.373C82.8302 139.565 82.2872 139.241 81.5196 139.266L75.3665 139.267Z" fill="#0E0E0E"/>
</svg>
