<svg width="123" height="71" viewBox="0 0 123 71" fill="none" xmlns="http://www.w3.org/2000/svg">
<path d="M40.0422 64.178C41.6932 63.162 42.8362 61.3839 42.7092 58.2089C42.7092 56.5579 42.3282 54.7798 41.0582 53.3828C39.7882 51.9858 37.7562 50.9698 34.3271 50.9698H23.9129V70.0201H29.247V65.321H34.4541H34.5811L37.2481 70.1471H42.5822L39.2802 64.559C39.5342 64.432 39.7882 64.305 40.0422 64.178ZM33.6921 61.1299H29.247V55.2878H33.6921C36.2321 55.2878 37.3751 56.1769 37.3751 58.2089C37.3751 60.6219 36.1051 61.1299 33.6921 61.1299ZM82.4608 64.178C84.1119 63.162 85.2549 61.3839 85.2549 58.2089C85.2549 56.5579 84.8739 54.7798 83.6039 53.3828C82.3338 51.9858 80.3018 50.9698 76.8728 50.9698H66.4586V70.0201H71.7927V65.321H76.9998H77.1268L79.7938 70.1471H85.1279L81.8258 64.559C81.9528 64.432 82.2068 64.305 82.4608 64.178ZM76.1107 61.1299H71.6657V55.2878H76.1107C78.6508 55.2878 79.7938 56.1769 79.7938 58.2089C79.7938 60.6219 78.5238 61.1299 76.1107 61.1299ZM122.466 51.0968V55.2878H115.862V70.1471H111.036V55.2878H104.432V51.0968H122.466ZM11.5938 43.8577L0.798584 70.1471H5.62466L7.02168 66.591H16.1658L17.5628 70.1471H22.3889L11.5938 43.8577ZM8.79971 62.654L11.7208 55.0338L14.6418 62.654H8.79971ZM54.2664 43.8577L43.4712 70.1471H48.2973L49.8213 66.591H58.9655L60.3625 70.1471H65.1886L54.2664 43.8577ZM51.4724 62.654L54.3934 55.0338L57.3145 62.654H51.4724ZM96.8121 43.8577L86.0169 70.1471H90.843L92.24 66.591H101.384L102.781 70.1471H107.607L96.8121 43.8577ZM93.891 62.654L96.8121 55.0338L99.7331 62.654H93.891Z" fill="#0E0E0E"/>
<path d="M73.1877 28.4918L77.1247 38.017H70.2666L68.7426 34.3339C68.9966 33.9529 68.9966 33.5719 68.9966 33.4449C68.9966 33.3179 68.9966 33.3179 68.8696 33.3179C67.5996 33.4449 66.5836 31.9209 66.5836 31.7939H61.6305H56.6774C56.6774 31.9209 55.6614 33.4449 54.3914 33.3179C54.2644 33.3179 54.2644 33.3179 54.2644 33.4449C54.2644 33.6989 54.3914 33.9529 54.5184 34.3339L52.9943 38.017H46.1362L50.0733 28.4918C51.8513 29.6348 55.0264 30.2698 58.0744 27.8568H58.8364C59.4714 27.8568 64.6785 27.8568 65.3135 27.8568C67.9806 30.0158 71.0286 30.0158 73.1877 28.4918ZM58.0744 9.1875C58.3284 9.82251 59.0904 10.0765 59.7255 10.0765C60.6145 10.0765 61.5035 9.56851 62.3925 9.56851C62.9005 9.56851 63.5355 9.69551 63.9165 10.2035C64.1705 10.2035 64.4245 10.3305 64.5515 10.7115C65.0595 10.9655 65.6945 11.2195 65.6945 12.1085C65.6945 12.4896 65.5675 12.8706 65.3135 12.9976C65.0595 12.7436 64.1705 12.7436 63.7895 12.7436C62.7735 12.7436 61.3765 13.2516 62.0115 14.9026C62.3925 16.0456 64.2975 17.0616 64.8055 17.8236C66.0756 17.6966 67.2186 16.6806 68.1076 15.4106L61.8845 0.297363L58.0744 9.1875ZM57.3124 10.8385L55.4074 15.4106C55.9154 16.1726 56.5504 16.8076 57.3124 17.1886C56.4234 15.1566 56.6774 13.2516 58.2014 11.6005C57.8204 11.4735 57.5664 11.2195 57.3124 10.8385ZM61.6305 35.3499C61.6305 35.3499 61.2495 35.0959 60.9955 34.4609C60.8685 34.2069 60.7415 33.8259 60.7415 33.6989C60.7415 33.6989 60.6145 33.9529 60.3605 34.2069C60.1065 34.4609 59.9795 34.5879 59.8525 34.5879C59.9795 34.2069 59.9795 33.5719 60.1065 33.0639C60.1065 32.8099 60.1065 32.5559 60.1065 32.5559C59.9795 32.6829 59.3444 33.1909 58.5824 33.4449C58.4554 33.4449 58.0744 33.5719 57.6934 33.5719C57.8204 33.4449 58.0744 33.3179 58.2014 33.0639C58.3284 32.9369 58.7094 32.5559 58.8364 32.3019H57.0584C56.6774 32.6829 56.1694 33.6989 55.0264 33.6989C54.8994 33.8259 55.5344 34.4609 56.2964 34.5879C56.5504 34.5879 56.8044 34.5879 57.1854 34.5879C57.9474 34.4609 58.8364 34.0799 58.9634 33.9529C58.9634 34.2069 58.8364 34.8419 58.7094 35.2229C58.5824 35.7309 58.4554 35.9849 58.3284 36.1119C58.3284 36.2389 58.9634 36.2389 59.2174 36.1119C59.7254 35.8579 60.1065 35.6039 60.2335 35.4769C60.3605 35.7309 60.6145 36.2389 60.8685 36.6199C61.1225 36.8739 61.5035 37.5089 61.6305 37.5089C61.7575 37.5089 62.1385 37.0009 62.3925 36.6199C62.6465 36.2389 62.9005 35.7309 63.0275 35.4769C63.1545 35.6039 63.4085 35.8579 64.0435 36.1119C64.2975 36.2389 64.9325 36.2389 64.9325 36.1119C64.9325 35.9849 64.6785 35.7309 64.5515 35.2229C64.4245 34.9689 64.2975 34.3339 64.2975 33.9529C64.4245 34.0799 65.3135 34.4609 66.0756 34.5879C66.4566 34.5879 66.7106 34.5879 66.9646 34.5879C67.7266 34.4609 68.2346 33.8259 68.2346 33.6989C67.0916 33.5719 66.5836 32.6829 66.2026 32.3019H64.4245C64.5515 32.5559 64.8055 32.8099 65.0595 33.0639C65.1865 33.1909 65.4405 33.4449 65.5675 33.5719C65.3135 33.5719 64.8055 33.4449 64.6785 33.4449C63.9165 33.1909 63.2815 32.6829 63.1545 32.5559C63.1545 32.5559 63.1545 32.9369 63.1545 33.0639C63.1545 33.5719 63.2815 34.0799 63.4085 34.5879C63.2815 34.5879 63.0275 34.4609 62.9005 34.2069C62.7735 34.0799 62.6465 33.6989 62.5195 33.6989C62.5195 33.6989 62.3925 34.2069 62.2655 34.4609C62.0115 35.0959 61.7575 35.3499 61.6305 35.3499ZM72.2986 24.6817C73.9497 23.9197 76.6167 21.7607 76.7437 19.0937C76.7437 18.8397 76.7437 17.6966 76.6167 17.9506C76.2357 19.0937 75.4737 19.7287 74.7117 20.4907C74.0767 20.9987 73.4417 21.3797 73.3147 21.5067C73.1877 21.6337 73.0607 21.5067 73.1877 21.3797C75.4737 19.0937 77.1247 16.1726 75.6007 13.3786C75.4737 13.1246 75.0927 12.6166 74.9657 12.7436C74.8387 12.7436 74.9657 13.6326 74.8387 14.3946C74.3307 17.6966 71.6636 19.9827 72.2986 18.9667C74.8387 15.1566 74.7117 10.3305 70.1396 7.15547C68.7426 6.13946 67.9806 6.01245 67.4726 5.25044C67.2186 4.99644 67.2186 4.74243 67.2186 4.61543C67.0916 4.48843 67.0916 5.63145 67.4726 6.39346C68.3616 7.91748 69.5046 9.44151 69.7586 11.7275C70.0126 14.1406 68.2346 17.6966 65.1865 18.4586H65.0595C64.8055 18.4586 64.4245 18.5856 64.2975 18.4586C64.0435 17.9506 63.1545 17.4426 62.6465 16.9346C62.0115 16.2996 61.6305 15.9186 61.3765 15.2836C61.2495 14.9026 61.1225 14.2676 61.2495 13.7596C61.3765 12.9976 62.0115 12.4896 62.6465 12.3626H62.7735C63.5355 12.2355 64.1705 12.2356 64.2975 12.2356C64.4245 12.2356 64.6785 12.2355 64.8055 12.3626C65.0595 12.4896 65.0595 12.6166 65.0595 12.3626C65.0595 11.8545 64.8055 11.7275 64.4245 11.6005C64.2975 11.4735 64.1705 11.4735 64.1705 11.4735C63.9165 11.3465 64.0435 10.9655 63.7895 11.0925C63.5355 11.2195 63.6625 10.9655 63.4085 10.8385C62.3925 10.0765 61.1225 11.0925 59.5984 10.9655C58.9634 10.9655 58.4554 10.8385 58.2014 10.3305C58.0744 10.2035 58.0744 10.0765 58.0744 10.0765C58.0744 10.0765 58.0744 10.2035 58.0744 10.3305C58.0744 10.8385 58.5824 11.4735 59.7255 11.4735C59.9795 11.4735 59.9795 11.6005 59.7255 11.7275C59.2174 12.1085 58.7094 12.7436 58.5824 12.9976C56.5504 16.2996 59.7254 18.7127 58.7094 18.7127C58.5824 18.7127 58.5824 18.7127 58.5824 18.7127C55.5344 17.9506 53.7564 14.3946 54.0104 11.9815C54.2644 9.69551 55.4074 8.17149 56.2964 6.64746C56.8044 5.88545 56.6774 4.74243 56.5504 4.86943C56.4234 4.99644 56.4234 5.25044 56.2964 5.50444C55.7884 6.26646 55.0264 6.39346 53.6294 7.40947C49.1843 10.5845 48.9303 15.4106 51.4703 19.2207C52.1053 20.1097 49.4383 17.9506 48.9303 14.6486C48.8033 13.8866 48.9303 12.9976 48.8033 12.9976C48.6763 12.9976 48.2953 13.3786 48.1683 13.6326C46.5172 16.4266 48.2953 19.3477 50.5813 21.6337C50.7083 21.7607 50.5813 21.8877 50.4543 21.7607C50.3273 21.6337 49.5653 21.2527 49.0573 20.7447C48.1683 20.1097 47.5333 19.3477 47.1523 18.2046C47.0252 17.9506 47.0253 18.9667 47.0253 19.3477C47.2793 22.0147 49.8193 24.1737 51.4703 24.9358C52.2323 25.3168 49.1843 24.6817 47.6603 23.0307C47.5333 22.9037 47.5333 22.9037 47.5333 23.0307C47.6603 23.7927 47.7873 24.4277 48.4223 25.0628C48.6763 25.3168 48.9303 25.5708 49.1843 25.8248C51.0893 27.2218 53.6294 27.2218 53.6294 27.2218C53.6294 27.2218 53.2483 27.3488 52.9943 27.4758C52.6133 27.6028 51.7243 27.6028 51.3433 27.4758C50.4543 27.4758 49.9463 27.2218 49.9463 27.2218C49.8193 27.2218 49.9463 27.3488 49.9463 27.3488C50.8353 28.2378 52.1053 28.7458 53.2483 28.9998C54.7724 29.2538 56.8044 28.4918 58.0744 27.4758C59.0904 26.7138 59.9794 24.1737 59.5984 24.5547C57.5664 27.2218 54.1374 26.8408 54.1374 26.4598C55.5344 26.0788 58.0744 24.3007 56.4234 24.8087C52.7403 25.9518 49.5653 22.9037 51.3433 23.5387C53.7563 24.3007 56.8044 22.7767 55.5344 22.7767C51.9783 22.7767 50.3273 20.2367 51.3433 20.7447C53.2483 21.7607 56.5504 20.8717 55.6614 20.7447C55.1534 20.6177 54.2644 20.3637 52.8673 18.8397C50.0733 15.6646 52.1053 11.0925 52.3593 11.4735C52.3593 12.6166 52.1053 16.6806 55.6614 18.5856C56.5504 19.0937 57.6934 19.4747 58.3284 19.8557C58.8364 20.1097 59.0904 20.2367 59.2174 20.4907C59.3444 20.6177 59.3444 20.7447 59.2174 20.7447C58.4554 20.8717 57.9474 20.9987 57.5664 21.5067C57.3124 21.8877 58.9634 21.3797 59.2174 21.7607C59.3444 21.8877 57.9474 22.1417 57.5664 23.1577C57.4394 23.5387 58.3284 22.9037 59.4714 22.9037C60.1065 22.9037 58.7094 23.6657 58.4554 24.4277C58.3284 24.9357 60.3605 23.7927 60.6145 23.9197C60.6145 23.9197 60.3605 25.0628 59.8525 25.9518C59.4714 26.8408 59.0904 27.6028 59.0904 27.6028H61.8845H64.6785C64.6785 27.6028 64.2975 26.8408 63.9165 25.9518C63.5355 25.0628 63.1545 23.9197 63.1545 23.9197C63.4085 23.7927 65.4405 24.9357 65.3135 24.4277C65.0595 23.6657 63.6625 22.9037 64.2975 22.9037C65.3135 23.0307 66.3296 23.6657 66.2026 23.1577C65.8215 22.1417 64.4245 21.8877 64.5515 21.7607C64.8055 21.2527 66.3296 21.8877 66.2026 21.5067C65.9485 20.9987 65.3135 20.9987 64.5515 20.7447C64.4245 20.7447 64.4245 20.6177 64.5515 20.4907C64.6785 20.3637 65.0595 20.1097 65.4405 19.8557C66.2026 19.4747 67.2186 19.0937 68.2346 18.5856C71.7906 16.6806 71.5366 12.6166 71.5366 11.4735C71.7906 11.0925 73.8227 15.6646 71.0286 18.8397C69.6316 20.3637 68.7426 20.7447 68.2346 20.7447C67.3456 20.8717 70.6476 21.7607 72.5527 20.7447C73.5687 20.2367 71.9176 22.7767 68.3616 22.7767C67.0916 22.7767 70.1396 24.3007 72.5527 23.5387C74.3307 22.9037 71.2826 25.9518 67.4726 24.8087C65.8215 24.3007 68.3616 26.0788 69.7586 26.4598C69.8856 26.8408 66.3296 27.2218 64.2975 24.5547C63.9165 24.1737 64.9325 26.7138 65.8215 27.4758C67.0916 28.4918 68.9966 29.2538 70.6476 28.9998C71.7906 28.7458 73.0607 28.2378 73.9497 27.3488C74.0767 27.2218 74.0767 27.0948 73.9497 27.2218C73.9497 27.2218 73.4417 27.3488 72.5527 27.4758C72.1716 27.4758 71.4096 27.4758 70.9016 27.4758C70.6476 27.4758 70.2666 27.3488 70.2666 27.2218C70.2666 27.2218 72.8067 27.2218 74.7117 25.8248C74.9657 25.5708 75.2197 25.3168 75.4737 25.0628C76.1087 24.3007 76.2357 23.7927 76.3627 23.0307C76.3627 22.9037 76.3627 22.9037 76.2357 23.0307C74.4577 24.4277 71.4096 25.0628 72.2986 24.6817ZM62.1385 10.9655C62.2655 10.9655 62.2655 10.8385 62.3925 10.8385C62.6465 10.7115 63.0275 10.9655 63.0275 11.2195C62.7735 11.2195 62.6465 11.3465 62.3925 11.2195C62.2655 11.0925 62.2655 11.0925 62.1385 11.0925C62.0115 11.0925 61.8845 10.9655 61.8845 10.8385C62.0115 10.8385 62.1385 10.9655 62.1385 10.9655Z" fill="#0E0E0E"/>
</svg>
