<svg width="253" height="240" viewBox="0 0 253 240" fill="none" xmlns="http://www.w3.org/2000/svg">
<path d="M104.91 155.456C106.561 154.44 107.704 152.662 107.577 149.487C107.577 147.836 107.196 146.058 105.926 144.661C104.656 143.264 102.624 142.248 99.1945 142.248H88.7804V161.298H94.1145V156.599H99.3215H99.4485L102.116 161.425H107.45L104.148 155.837C104.402 155.71 104.656 155.583 104.91 155.456ZM98.5595 152.408H94.1145V146.566H98.5595C101.1 146.566 102.243 147.455 102.243 149.487C102.243 151.9 100.973 152.408 98.5595 152.408ZM147.328 155.456C148.979 154.44 150.122 152.662 150.122 149.487C150.122 147.836 149.741 146.058 148.471 144.661C147.201 143.264 145.169 142.248 141.74 142.248H131.326V161.298H136.66V156.599H141.867H141.994L144.661 161.425H149.995L146.693 155.837C146.82 155.71 147.074 155.583 147.328 155.456ZM140.978 152.408H136.533V146.566H140.978C143.518 146.566 144.661 147.455 144.661 149.487C144.661 151.9 143.391 152.408 140.978 152.408ZM187.334 142.375V146.566H180.73V161.425H175.904V146.566H169.3V142.375H187.334ZM76.4612 135.135L65.666 161.425H70.4921L71.8891 157.869H81.0333L82.4303 161.425H87.2564L76.4612 135.135ZM73.6671 153.932L76.5882 146.312L79.5092 153.932H73.6671ZM119.134 135.135L108.339 161.425H113.165L114.689 157.869H123.833L125.23 161.425H130.056L119.134 135.135ZM116.34 153.932L119.261 146.312L122.182 153.932H116.34ZM161.68 135.135L150.884 161.425H155.71L157.107 157.869H166.252L167.649 161.425H172.475L161.68 135.135ZM158.758 153.932L161.68 146.312L164.601 153.932H158.758Z" fill="#0E0E0E"/>
<path d="M138.055 119.77L141.992 129.295H135.134L133.61 125.612C133.864 125.231 133.864 124.85 133.864 124.723C133.864 124.596 133.864 124.596 133.737 124.596C132.467 124.723 131.451 123.199 131.451 123.072H126.498H121.545C121.545 123.199 120.529 124.723 119.259 124.596C119.132 124.596 119.132 124.596 119.132 124.723C119.132 124.977 119.259 125.231 119.386 125.612L117.862 129.295H111.004L114.941 119.77C116.719 120.913 119.894 121.548 122.942 119.135H123.704C124.339 119.135 129.546 119.135 130.181 119.135C132.848 121.294 135.896 121.294 138.055 119.77ZM122.942 100.465C123.196 101.1 123.958 101.354 124.593 101.354C125.482 101.354 126.371 100.846 127.26 100.846C127.768 100.846 128.403 100.973 128.784 101.481C129.038 101.481 129.292 101.608 129.419 101.989C129.927 102.243 130.562 102.497 130.562 103.386C130.562 103.767 130.435 104.148 130.181 104.275C129.927 104.021 129.038 104.021 128.657 104.021C127.641 104.021 126.244 104.529 126.879 106.18C127.26 107.323 129.165 108.339 129.673 109.101C130.943 108.974 132.086 107.958 132.975 106.688L126.752 91.5752L122.942 100.465ZM122.18 102.116L120.275 106.688C120.783 107.45 121.418 108.085 122.18 108.466C121.291 106.434 121.545 104.529 123.069 102.878C122.688 102.751 122.434 102.497 122.18 102.116ZM126.498 126.628C126.498 126.628 126.117 126.374 125.863 125.739C125.736 125.485 125.609 125.104 125.609 124.977C125.609 124.977 125.482 125.231 125.228 125.485C124.974 125.739 124.847 125.866 124.72 125.866C124.847 125.485 124.847 124.85 124.974 124.342C124.974 124.088 124.974 123.834 124.974 123.834C124.847 123.961 124.212 124.469 123.45 124.723C123.323 124.723 122.942 124.85 122.561 124.85C122.688 124.723 122.942 124.596 123.069 124.342C123.196 124.215 123.577 123.834 123.704 123.58H121.926C121.545 123.961 121.037 124.977 119.894 124.977C119.767 125.104 120.402 125.739 121.164 125.866C121.418 125.866 121.672 125.866 122.053 125.866C122.815 125.739 123.704 125.358 123.831 125.231C123.831 125.485 123.704 126.12 123.577 126.501C123.45 127.009 123.323 127.263 123.196 127.39C123.196 127.517 123.831 127.517 124.085 127.39C124.593 127.136 124.974 126.882 125.101 126.755C125.228 127.009 125.482 127.517 125.736 127.898C125.99 128.152 126.371 128.787 126.498 128.787C126.625 128.787 127.006 128.279 127.26 127.898C127.514 127.517 127.768 127.009 127.895 126.755C128.022 126.882 128.276 127.136 128.911 127.39C129.165 127.517 129.8 127.517 129.8 127.39C129.8 127.263 129.546 127.009 129.419 126.501C129.292 126.247 129.165 125.612 129.165 125.231C129.292 125.358 130.181 125.739 130.943 125.866C131.324 125.866 131.578 125.866 131.832 125.866C132.594 125.739 133.102 125.104 133.102 124.977C131.959 124.85 131.451 123.961 131.07 123.58H129.292C129.419 123.834 129.673 124.088 129.927 124.342C130.054 124.469 130.308 124.723 130.435 124.85C130.181 124.85 129.673 124.723 129.546 124.723C128.784 124.469 128.149 123.961 128.022 123.834C128.022 123.834 128.022 124.215 128.022 124.342C128.022 124.85 128.149 125.358 128.276 125.866C128.149 125.866 127.895 125.739 127.768 125.485C127.641 125.358 127.514 124.977 127.387 124.977C127.387 124.977 127.26 125.485 127.133 125.739C126.879 126.374 126.625 126.628 126.498 126.628ZM137.166 115.96C138.817 115.198 141.484 113.039 141.611 110.371C141.611 110.117 141.611 108.974 141.484 109.228C141.103 110.371 140.341 111.007 139.579 111.769C138.944 112.277 138.309 112.658 138.182 112.785C138.055 112.912 137.928 112.785 138.055 112.658C140.341 110.371 141.992 107.45 140.468 104.656C140.341 104.402 139.96 103.894 139.833 104.021C139.706 104.021 139.833 104.91 139.706 105.672C139.198 108.974 136.531 111.261 137.166 110.244C139.706 106.434 139.579 101.608 135.007 98.4333C133.61 97.4173 132.848 97.2903 132.34 96.5283C132.086 96.2743 132.086 96.0203 132.086 95.8933C131.959 95.7663 131.959 96.9093 132.34 97.6713C133.229 99.1953 134.372 100.719 134.626 103.005C134.88 105.418 133.102 108.974 130.054 109.736H129.927C129.673 109.736 129.292 109.863 129.165 109.736C128.911 109.228 128.022 108.72 127.514 108.212C126.879 107.577 126.498 107.196 126.244 106.561C126.117 106.18 125.99 105.545 126.117 105.037C126.244 104.275 126.879 103.767 127.514 103.64H127.641C128.403 103.513 129.038 103.513 129.165 103.513C129.292 103.513 129.546 103.513 129.673 103.64C129.927 103.767 129.927 103.894 129.927 103.64C129.927 103.132 129.673 103.005 129.292 102.878C129.165 102.751 129.038 102.751 129.038 102.751C128.784 102.624 128.911 102.243 128.657 102.37C128.403 102.497 128.53 102.243 128.276 102.116C127.26 101.354 125.99 102.37 124.466 102.243C123.831 102.243 123.323 102.116 123.069 101.608C122.942 101.481 122.942 101.354 122.942 101.354C122.942 101.354 122.942 101.481 122.942 101.608C122.942 102.116 123.45 102.751 124.593 102.751C124.847 102.751 124.847 102.878 124.593 103.005C124.085 103.386 123.577 104.021 123.45 104.275C121.418 107.577 124.593 109.99 123.577 109.99C123.45 109.99 123.45 109.99 123.45 109.99C120.402 109.228 118.624 105.672 118.878 103.259C119.132 100.973 120.275 99.4493 121.164 97.9253C121.672 97.1633 121.545 96.0203 121.418 96.1473C121.291 96.2743 121.291 96.5283 121.164 96.7823C120.656 97.5443 119.894 97.6713 118.497 98.6873C114.052 101.862 113.798 106.688 116.338 110.498C116.973 111.388 114.306 109.228 113.798 105.926C113.671 105.164 113.798 104.275 113.671 104.275C113.544 104.275 113.163 104.656 113.036 104.91C111.385 107.704 113.163 110.625 115.449 112.912C115.576 113.039 115.449 113.166 115.322 113.039C115.195 112.912 114.433 112.531 113.925 112.023C113.036 111.388 112.401 110.625 112.02 109.482C111.893 109.228 111.893 110.244 111.893 110.625C112.147 113.293 114.687 115.452 116.338 116.214C117.1 116.595 114.052 115.96 112.528 114.309C112.401 114.182 112.401 114.182 112.401 114.309C112.528 115.071 112.655 115.706 113.29 116.341C113.544 116.595 113.798 116.849 114.052 117.103C115.957 118.5 118.497 118.5 118.497 118.5C118.497 118.5 118.116 118.627 117.862 118.754C117.481 118.881 116.592 118.881 116.211 118.754C115.322 118.754 114.814 118.5 114.814 118.5C114.687 118.5 114.814 118.627 114.814 118.627C115.703 119.516 116.973 120.024 118.116 120.278C119.64 120.532 121.672 119.77 122.942 118.754C123.958 117.992 124.847 115.452 124.466 115.833C122.434 118.5 119.005 118.119 119.005 117.738C120.402 117.357 122.942 115.579 121.291 116.087C117.608 117.23 114.433 114.182 116.211 114.817C118.624 115.579 121.672 114.055 120.402 114.055C116.846 114.055 115.195 111.515 116.211 112.023C118.116 113.039 121.418 112.15 120.529 112.023C120.021 111.896 119.132 111.642 117.735 110.117C114.941 106.942 116.973 102.37 117.227 102.751C117.227 103.894 116.973 107.958 120.529 109.863C121.418 110.371 122.561 110.752 123.196 111.134C123.704 111.388 123.958 111.515 124.085 111.769C124.212 111.896 124.212 112.023 124.085 112.023C123.323 112.15 122.815 112.277 122.434 112.785C122.18 113.166 123.831 112.658 124.085 113.039C124.212 113.166 122.815 113.42 122.434 114.436C122.307 114.817 123.196 114.182 124.339 114.182C124.974 114.182 123.577 114.944 123.323 115.706C123.196 116.214 125.228 115.071 125.482 115.198C125.482 115.198 125.228 116.341 124.72 117.23C124.339 118.119 123.958 118.881 123.958 118.881H126.752H129.546C129.546 118.881 129.165 118.119 128.784 117.23C128.403 116.341 128.022 115.198 128.022 115.198C128.276 115.071 130.308 116.214 130.181 115.706C129.927 114.944 128.53 114.182 129.165 114.182C130.181 114.309 131.197 114.944 131.07 114.436C130.689 113.42 129.292 113.166 129.419 113.039C129.673 112.531 131.197 113.166 131.07 112.785C130.816 112.277 130.181 112.277 129.419 112.023C129.292 112.023 129.292 111.896 129.419 111.769C129.546 111.642 129.927 111.388 130.308 111.134C131.07 110.752 132.086 110.371 133.102 109.863C136.658 107.958 136.404 103.894 136.404 102.751C136.658 102.37 138.69 106.942 135.896 110.117C134.499 111.642 133.61 112.023 133.102 112.023C132.213 112.15 135.515 113.039 137.42 112.023C138.436 111.515 136.785 114.055 133.229 114.055C131.959 114.055 135.007 115.579 137.42 114.817C139.198 114.182 136.15 117.23 132.34 116.087C130.689 115.579 133.229 117.357 134.626 117.738C134.753 118.119 131.197 118.5 129.165 115.833C128.784 115.452 129.8 117.992 130.689 118.754C131.959 119.77 133.864 120.532 135.515 120.278C136.658 120.024 137.928 119.516 138.817 118.627C138.944 118.5 138.944 118.373 138.817 118.5C138.817 118.5 138.309 118.627 137.42 118.754C137.039 118.754 136.277 118.754 135.769 118.754C135.515 118.754 135.134 118.627 135.134 118.5C135.134 118.5 137.674 118.5 139.579 117.103C139.833 116.849 140.087 116.595 140.341 116.341C140.976 115.579 141.103 115.071 141.23 114.309C141.23 114.182 141.23 114.182 141.103 114.309C139.325 115.706 136.277 116.341 137.166 115.96ZM127.006 102.243C127.133 102.243 127.133 102.116 127.26 102.116C127.514 101.989 127.895 102.243 127.895 102.497C127.641 102.497 127.514 102.624 127.26 102.497C127.133 102.37 127.133 102.37 127.006 102.37C126.879 102.37 126.752 102.243 126.752 102.116C126.879 102.116 127.006 102.243 127.006 102.243Z" fill="#0E0E0E"/>
</svg>
