<svg width="242" height="240" viewBox="0 0 242 240" fill="none" xmlns="http://www.w3.org/2000/svg">
<path d="M121.534 106.85C120.548 104.498 118.879 102.45 116.755 101.084C114.63 99.6424 112.127 98.8079 109.395 98.8079C107.575 98.8079 105.83 99.1872 104.236 99.87C101.884 100.856 99.8359 102.525 98.4703 104.65C97.0288 106.774 96.1942 109.278 96.1942 112.009C96.1942 113.83 96.5736 115.575 97.2564 117.168C98.2427 119.52 99.9118 121.569 102.036 122.934C104.16 124.376 106.664 125.21 109.395 125.21C111.216 125.21 112.961 124.831 114.555 124.148C116.906 123.162 118.955 121.493 120.321 119.368C121.762 117.244 122.597 114.74 122.597 112.009C122.597 110.188 122.217 108.443 121.534 106.85ZM116.755 115.12C116.148 116.561 115.161 117.775 113.872 118.61C112.582 119.444 111.065 119.975 109.395 119.975C108.257 119.975 107.271 119.748 106.285 119.368C104.843 118.761 103.629 117.775 102.795 116.485C101.96 115.196 101.429 113.678 101.429 112.009C101.429 110.871 101.657 109.885 102.036 108.898C102.643 107.457 103.629 106.243 104.919 105.408C106.209 104.574 107.726 104.043 109.395 104.043C110.533 104.043 111.52 104.27 112.506 104.65C113.948 105.257 115.161 106.243 115.996 107.533C116.831 108.823 117.362 110.34 117.362 112.009C117.438 113.147 117.21 114.133 116.755 115.12Z" fill="#0E0E0E"/>
<path d="M92.9277 106.849C91.9414 104.497 90.2723 102.525 88.148 101.083C86.0237 99.6416 83.52 98.807 80.7887 98.807C78.9678 98.807 77.2228 99.1864 75.6296 99.8692C74.5674 100.324 73.657 100.855 72.7466 101.538C72.7466 98.4277 72.7466 95.3929 72.7466 92.3582H67.6633C67.6633 98.7312 67.6633 105.484 67.6633 111.857C67.6633 111.932 67.6633 111.932 67.6633 112.008C67.6633 113.829 68.0427 115.574 68.7255 117.167C69.7118 119.519 71.3809 121.568 73.5053 122.933C75.6296 124.375 78.1333 125.209 80.8646 125.209C82.6854 125.209 84.4304 124.83 86.0237 124.147C88.3756 123.161 90.4241 121.492 91.7897 119.368C93.2312 117.243 94.0658 114.74 94.0658 112.008C93.9899 110.187 93.6106 108.442 92.9277 106.849ZM88.2239 115.119C87.6169 116.56 86.6306 117.774 85.3408 118.609C84.0511 119.443 82.5337 119.975 80.8646 119.975C79.7265 119.975 78.7402 119.747 77.7539 119.368C76.3124 118.761 75.0985 117.774 74.2639 116.485C73.4294 115.195 72.8983 113.677 72.8983 112.008C72.8983 110.87 73.1259 109.884 73.5053 108.898C74.1122 107.456 75.0985 106.242 76.3883 105.408C77.6781 104.573 79.1954 104.042 80.8646 104.042C82.0026 104.042 82.9889 104.27 83.9752 104.649C85.4167 105.256 86.6306 106.242 87.4652 107.532C88.2997 108.822 88.8308 110.339 88.8308 112.008C88.8308 113.146 88.6032 114.133 88.2239 115.119Z" fill="#0E0E0E"/>
<path d="M122.597 140.84C122.597 139.095 122.217 137.426 121.534 135.908C120.548 133.556 118.879 131.508 116.755 130.142C114.63 128.701 112.127 127.866 109.395 127.866C107.575 127.866 105.83 128.246 104.236 128.928C101.884 129.915 99.8359 131.584 98.4703 133.708C97.0288 135.832 96.1942 138.336 96.1942 141.067C96.1942 142.888 96.5736 144.633 97.2564 146.227C98.2427 148.578 99.9118 150.627 102.036 151.993C104.16 153.434 106.664 154.269 109.395 154.269C111.216 154.269 112.961 153.889 114.555 153.206C115.617 152.751 116.527 152.22 117.438 151.537C117.438 154.572 117.438 157.683 117.438 160.642H122.597C122.597 154.193 122.597 147.289 122.597 140.84ZM116.755 144.178C116.148 145.62 115.161 146.833 113.872 147.668C112.582 148.503 111.065 149.034 109.395 149.034C108.257 149.034 107.271 148.806 106.285 148.427C104.843 147.82 103.629 146.833 102.795 145.544C101.96 144.254 101.429 142.737 101.429 141.067C101.429 139.929 101.657 138.943 102.036 137.957C102.643 136.515 103.629 135.301 104.919 134.467C106.209 133.632 107.726 133.101 109.395 133.101C110.533 133.101 111.52 133.329 112.506 133.708C113.948 134.315 115.161 135.301 115.996 136.591C116.831 137.881 117.362 139.398 117.362 141.067C117.438 142.205 117.21 143.192 116.755 144.178Z" fill="#0E0E0E"/>
<path d="M179.951 140.687C179.875 139.018 179.571 137.5 178.889 136.059C177.902 133.707 176.233 131.659 174.109 130.293C171.984 128.851 169.481 128.017 166.749 128.017C164.929 128.017 163.184 128.396 161.59 129.079C159.238 130.065 157.19 131.734 155.824 133.859C154.383 135.983 153.548 138.487 153.548 141.218C153.548 143.039 153.928 144.784 154.61 146.377C155.597 148.729 157.266 150.778 159.39 152.143C161.514 153.585 164.018 154.419 166.749 154.419C168.57 154.419 170.315 154.04 171.909 153.357C172.971 152.902 173.881 152.371 174.792 151.688C174.792 152.371 174.792 153.13 174.792 153.964H179.951C179.951 147.667 179.951 146.908 179.951 140.687ZM174.185 144.253C173.578 145.694 172.591 146.908 171.302 147.743C170.012 148.577 168.494 149.108 166.825 149.108C165.687 149.108 164.701 148.881 163.715 148.502C162.273 147.895 161.059 146.908 160.225 145.618C159.39 144.329 158.859 142.811 158.859 141.142C158.859 140.004 159.087 139.018 159.466 138.032C160.073 136.59 161.059 135.376 162.349 134.542C163.639 133.707 165.156 133.176 166.825 133.176C167.963 133.176 168.95 133.404 169.936 133.783C171.377 134.39 172.591 135.376 173.426 136.666C174.26 137.956 174.792 139.473 174.792 141.142C174.792 142.204 174.564 143.267 174.185 144.253Z" fill="#0E0E0E"/>
<path d="M93.9908 140.687C93.915 139.018 93.6115 137.5 92.9287 136.059C91.9424 133.707 90.2732 131.659 88.1489 130.293C86.0246 128.851 83.5209 128.017 80.7896 128.017C78.9687 128.017 77.2238 128.396 75.6305 129.079C73.2786 130.065 71.2301 131.734 69.8645 133.859C68.4229 135.983 67.5884 138.487 67.5884 141.218C67.5884 143.039 67.9677 144.784 68.6505 146.377C69.6368 148.729 71.306 150.778 73.4303 152.143C75.5546 153.585 78.0583 154.419 80.7896 154.419C82.6105 154.419 84.3555 154.04 85.9487 153.357C87.0109 152.902 87.9213 152.371 88.8317 151.688C88.8317 152.371 88.8317 153.13 88.8317 153.964H93.9908C93.9908 147.667 93.9908 146.908 93.9908 140.687ZM88.2248 144.253C87.6178 145.694 86.6315 146.908 85.3418 147.743C84.052 148.577 82.5346 149.108 80.8655 149.108C79.7274 149.108 78.7411 148.881 77.7548 148.502C76.3133 147.895 75.0994 146.908 74.2649 145.618C73.4303 144.329 72.8992 142.811 72.8992 141.142C72.8992 140.004 73.1268 139.018 73.5062 138.032C74.1131 136.59 75.0994 135.376 76.3892 134.542C77.679 133.707 79.1964 133.176 80.8655 133.176C82.0035 133.176 82.9898 133.404 83.9761 133.783C85.4176 134.39 86.6315 135.376 87.4661 136.666C88.3006 137.956 88.8317 139.473 88.8317 141.142C88.8317 142.204 88.6041 143.267 88.2248 144.253Z" fill="#0E0E0E"/>
<path d="M151.265 128.245C151.265 134.315 151.265 134.997 151.265 141.067C151.265 143.798 150.43 146.302 148.989 148.426C147.547 150.551 145.574 152.22 143.223 153.206C141.629 153.889 139.884 154.268 138.063 154.268C135.332 154.268 132.828 153.434 130.704 151.992C128.58 150.551 126.911 148.578 125.924 146.226C125.242 144.633 124.862 142.888 124.862 141.067C124.862 134.997 124.862 134.315 124.862 128.245H130.021C130.021 134.315 130.021 134.997 130.021 141.067C130.021 142.736 130.552 144.254 131.387 145.543C132.221 146.833 133.511 147.819 134.877 148.426C135.863 148.806 136.849 149.033 137.988 149.033C139.657 149.033 141.174 148.502 142.464 147.668C143.754 146.833 144.74 145.543 145.347 144.178C145.726 143.191 145.954 142.205 145.954 141.067C145.954 134.997 145.954 134.315 145.954 128.245H151.265Z" fill="#0E0E0E"/>
<path d="M146.111 124.756C146.111 118.687 146.111 118.004 146.111 111.934C146.111 110.796 145.883 109.81 145.504 108.824C144.897 107.382 143.911 106.168 142.621 105.334C141.331 104.499 139.814 103.968 138.145 103.968C137.007 103.968 136.02 104.196 135.034 104.575C133.593 105.182 132.379 106.168 131.544 107.458C130.71 108.748 130.179 110.265 130.179 111.934C130.179 118.004 130.179 118.687 130.179 124.756H125.019C125.019 118.687 125.019 118.004 125.019 111.934C125.019 110.114 125.399 108.369 126.082 106.775C127.068 104.423 128.737 102.375 130.861 101.009C132.986 99.5677 135.489 98.7332 138.221 98.7332C140.041 98.7332 141.786 99.1125 143.38 99.7953C145.732 100.782 147.78 102.451 149.146 104.575C150.587 106.699 151.422 109.203 151.422 111.934C151.422 118.004 151.422 118.687 151.422 124.756H146.111Z" fill="#0E0E0E"/>
<path d="M183.136 130.065C183.136 129.837 182.985 129.685 182.757 129.685H182.302V130.444H182.757C182.985 130.444 183.136 130.292 183.136 130.065ZM183.516 132.265C183.44 132.265 183.364 132.265 183.288 132.189L182.302 130.975V131.961C182.302 132.189 182.15 132.341 181.998 132.341C181.771 132.341 181.695 132.189 181.695 131.961V129.458C181.695 129.23 181.847 129.078 182.074 129.078H182.833C183.516 129.078 183.971 129.382 183.971 130.065C183.971 130.52 183.592 130.823 183.136 130.899L183.895 131.734C183.971 131.81 183.971 131.886 183.971 131.961C183.895 132.037 183.743 132.265 183.516 132.265Z" fill="#0E0E0E"/>
<path d="M182.605 133.479C181.087 133.479 179.798 132.19 179.798 130.672C179.798 129.155 181.087 127.865 182.605 127.865C184.198 127.865 185.412 129.155 185.412 130.672C185.412 132.19 184.122 133.479 182.605 133.479ZM182.605 128.472C181.391 128.472 180.405 129.458 180.405 130.672C180.405 131.886 181.391 132.872 182.605 132.872C183.819 132.872 184.805 131.886 184.805 130.672C184.805 129.458 183.819 128.472 182.605 128.472Z" fill="#0E0E0E"/>
<path d="M144.059 92.3591H131.996V97.5182H144.059V92.3591Z" fill="#0E0E0E"/>
</svg>
