<svg width="119" height="69" viewBox="0 0 119 69" fill="none" xmlns="http://www.w3.org/2000/svg">
<path d="M54.8901 14.5722C53.9038 12.2202 52.2347 10.1717 50.1103 8.8061C47.986 7.36459 45.4823 6.53003 42.751 6.53003C40.9302 6.53003 39.1852 6.90938 37.5919 7.5922C35.24 8.5785 33.1915 10.2476 31.8259 12.3719C30.3844 14.4963 29.5498 17 29.5498 19.7313C29.5498 21.5521 29.9292 23.2971 30.612 24.8904C31.5983 27.2423 33.2674 29.2908 35.3917 30.6564C37.5161 32.0979 40.0197 32.9325 42.751 32.9325C44.5719 32.9325 46.3169 32.5531 47.9101 31.8703C50.2621 30.884 52.3105 29.2149 53.6762 27.0906C55.1177 24.9662 55.9523 22.4625 55.9523 19.7313C55.9523 17.9104 55.5729 16.1654 54.8901 14.5722ZM50.1103 22.8419C49.5034 24.2834 48.5171 25.4973 47.2273 26.3319C45.9375 27.1664 44.4201 27.6975 42.751 27.6975C41.613 27.6975 40.6267 27.4699 39.6404 27.0906C38.1989 26.4836 36.985 25.4973 36.1504 24.2075C35.3159 22.9178 34.7848 21.4004 34.7848 19.7313C34.7848 18.5932 35.0124 17.6069 35.3917 16.6206C35.9987 15.1791 36.985 13.9652 38.2748 13.1306C39.5645 12.2961 41.0819 11.765 42.751 11.765C43.8891 11.765 44.8754 11.9926 45.8617 12.3719C47.3032 12.9789 48.5171 13.9652 49.3516 15.255C50.1862 16.5448 50.7173 18.0621 50.7173 19.7313C50.7932 20.8693 50.5655 21.8556 50.1103 22.8419Z" fill="#0E0E0E"/>
<path d="M26.2833 14.5713C25.297 12.2194 23.6279 10.2468 21.5036 8.80527C19.3792 7.36376 16.8756 6.5292 14.1443 6.5292C12.3234 6.5292 10.5784 6.90855 8.98518 7.59137C7.92301 8.04658 7.01258 8.57766 6.10215 9.26049C6.10215 6.14985 6.10215 3.11509 6.10215 0.0803223H1.01892C1.01892 6.45333 1.01892 13.2057 1.01892 19.5787C1.01892 19.6546 1.01892 19.6546 1.01892 19.7304C1.01892 21.5513 1.39827 23.2963 2.08109 24.8895C3.06739 27.2415 4.73651 29.2899 6.86084 30.6556C8.98518 32.0971 11.4889 32.9317 14.2201 32.9317C16.041 32.9317 17.786 32.5523 19.3792 31.8695C21.7312 30.8832 23.7797 29.2141 25.1453 27.0897C26.5868 24.9654 27.4214 22.4617 27.4214 19.7304C27.3455 17.9096 26.9662 16.1646 26.2833 14.5713ZM21.5794 22.8411C20.9725 24.2826 19.9862 25.4965 18.6964 26.331C17.4066 27.1656 15.8893 27.6967 14.2201 27.6967C13.0821 27.6967 12.0958 27.4691 11.1095 27.0897C9.668 26.4828 8.45409 25.4965 7.61953 24.2067C6.78497 22.9169 6.25389 21.3996 6.25389 19.7304C6.25389 18.5924 6.4815 17.6061 6.86084 16.6198C7.46779 15.1783 8.45409 13.9644 9.74387 13.1298C11.0336 12.2953 12.551 11.7642 14.2201 11.7642C15.3582 11.7642 16.3445 11.9918 17.3308 12.3711C18.7723 12.9781 19.9862 13.9644 20.8208 15.2541C21.6553 16.5439 22.1864 18.0613 22.1864 19.7304C22.1864 20.8685 21.9588 21.8548 21.5794 22.8411Z" fill="#0E0E0E"/>
<path d="M55.9523 48.562C55.9523 46.817 55.5729 45.1479 54.8901 43.6305C53.9038 41.2786 52.2347 39.2301 50.1103 37.8645C47.986 36.4229 45.4823 35.5884 42.751 35.5884C40.9302 35.5884 39.1852 35.9677 37.5919 36.6505C35.24 37.6368 33.1915 39.306 31.8259 41.4303C30.3844 43.5546 29.5498 46.0583 29.5498 48.7896C29.5498 50.6105 29.9292 52.3555 30.612 53.9487C31.5983 56.3006 33.2674 58.3491 35.3917 59.7148C37.5161 61.1563 40.0197 61.9908 42.751 61.9908C44.5719 61.9908 46.3169 61.6115 47.9101 60.9287C48.9723 60.4734 49.8827 59.9424 50.7932 59.2595C50.7932 62.2943 50.7932 65.4049 50.7932 68.3638H55.9523C55.9523 61.915 55.9523 55.0109 55.9523 48.562ZM50.1103 51.9002C49.5034 53.3418 48.5171 54.5557 47.2273 55.3902C45.9375 56.2248 44.4201 56.7559 42.751 56.7559C41.613 56.7559 40.6267 56.5282 39.6404 56.1489C38.1989 55.542 36.985 54.5557 36.1504 53.2659C35.3159 51.9761 34.7848 50.4587 34.7848 48.7896C34.7848 47.6516 35.0124 46.6653 35.3917 45.679C35.9987 44.2375 36.985 43.0236 38.2748 42.189C39.5645 41.3544 41.0819 40.8233 42.751 40.8233C43.8891 40.8233 44.8754 41.051 45.8617 41.4303C47.3032 42.0373 48.5171 43.0236 49.3516 44.3133C50.1862 45.6031 50.7173 47.1205 50.7173 48.7896C50.7932 49.9276 50.5655 50.9139 50.1103 51.9002Z" fill="#0E0E0E"/>
<path d="M113.306 48.4092C113.23 46.74 112.927 45.2227 112.244 43.7811C111.258 41.4292 109.589 39.3807 107.464 38.0151C105.34 36.5736 102.836 35.739 100.105 35.739C98.2842 35.739 96.5392 36.1184 94.9459 36.8012C92.594 37.7875 90.5455 39.4566 89.1799 41.5809C87.7384 43.7053 86.9038 46.2089 86.9038 48.9402C86.9038 50.7611 87.2832 52.5061 87.966 54.0993C88.9523 56.4513 90.6214 58.4997 92.7457 59.8654C94.8701 61.3069 97.3738 62.1415 100.105 62.1415C101.926 62.1415 103.671 61.7621 105.264 61.0793C106.326 60.6241 107.237 60.093 108.147 59.4102C108.147 60.093 108.147 60.8517 108.147 61.6862H113.306C113.306 55.3891 113.306 54.6304 113.306 48.4092ZM107.54 51.975C106.933 53.4165 105.947 54.6304 104.657 55.465C103.367 56.2995 101.85 56.8306 100.181 56.8306C99.0429 56.8306 98.0566 56.603 97.0703 56.2237C95.6288 55.6167 94.4149 54.6304 93.5803 53.3406C92.7457 52.0509 92.2146 50.5335 92.2146 48.8644C92.2146 47.7263 92.4423 46.74 92.8216 45.7537C93.4286 44.3122 94.4149 43.0983 95.7046 42.2638C96.9944 41.4292 98.5118 40.8981 100.181 40.8981C101.319 40.8981 102.305 41.1257 103.292 41.5051C104.733 42.112 105.947 43.0983 106.782 44.3881C107.616 45.6779 108.147 47.1953 108.147 48.8644C108.147 49.9265 107.92 50.9887 107.54 51.975Z" fill="#0E0E0E"/>
<path d="M27.3464 48.4092C27.2705 46.74 26.9671 45.2227 26.2843 43.7811C25.298 41.4292 23.6288 39.3807 21.5045 38.0151C19.3802 36.5736 16.8765 35.739 14.1452 35.739C12.3243 35.739 10.5793 36.1184 8.9861 36.8012C6.63415 37.7875 4.58569 39.4566 3.22004 41.5809C1.77853 43.7053 0.94397 46.2089 0.94397 48.9402C0.94397 50.7611 1.32331 52.5061 2.00614 54.0993C2.99243 56.4513 4.66155 58.4997 6.78589 59.8654C8.91022 61.3069 11.4139 62.1415 14.1452 62.1415C15.9661 62.1415 17.711 61.7621 19.3043 61.0793C20.3665 60.6241 21.2769 60.093 22.1873 59.4102C22.1873 60.093 22.1873 60.8517 22.1873 61.6862H27.3464C27.3464 55.3891 27.3464 54.6304 27.3464 48.4092ZM21.5804 51.975C20.9734 53.4165 19.9871 54.6304 18.6973 55.465C17.4076 56.2995 15.8902 56.8306 14.2211 56.8306C13.083 56.8306 12.0967 56.603 11.1104 56.2237C9.66892 55.6167 8.45501 54.6304 7.62045 53.3406C6.78589 52.0509 6.25481 50.5335 6.25481 48.8644C6.25481 47.7263 6.48241 46.74 6.86176 45.7537C7.46871 44.3122 8.45501 43.0983 9.74479 42.2638C11.0346 41.4292 12.5519 40.8981 14.2211 40.8981C15.3591 40.8981 16.3454 41.1257 17.3317 41.5051C18.7732 42.112 19.9871 43.0983 20.8217 44.3881C21.6562 45.6779 22.1873 47.1953 22.1873 48.8644C22.1873 49.9265 21.9597 50.9887 21.5804 51.975Z" fill="#0E0E0E"/>
<path d="M84.6202 35.9673C84.6202 42.0368 84.6202 42.7196 84.6202 48.7892C84.6202 51.5204 83.7857 54.0241 82.3442 56.1485C80.9026 58.2728 78.93 59.9419 76.5781 60.9282C74.9849 61.611 73.2399 61.9904 71.419 61.9904C68.6877 61.9904 66.184 61.1558 64.0597 59.7143C61.9354 58.2728 60.2662 56.3002 59.2799 53.9483C58.5971 52.355 58.2178 50.61 58.2178 48.7892C58.2178 42.7196 58.2178 42.0368 58.2178 35.9673H63.3769C63.3769 42.0368 63.3769 42.7196 63.3769 48.7892C63.3769 50.4583 63.908 51.9757 64.7425 53.2654C65.5771 54.5552 66.8669 55.5415 68.2325 56.1485C69.2188 56.5278 70.2051 56.7554 71.3431 56.7554C73.0122 56.7554 74.5296 56.2243 75.8194 55.3898C77.1092 54.5552 78.0955 53.2654 78.7024 51.8998C79.0818 50.9135 79.3094 49.9272 79.3094 48.7892C79.3094 42.7196 79.3094 42.0368 79.3094 35.9673H84.6202Z" fill="#0E0E0E"/>
<path d="M79.4666 32.4784C79.4666 26.4089 79.4666 25.7261 79.4666 19.6565C79.4666 18.5185 79.239 17.5322 78.8597 16.5459C78.2527 15.1044 77.2664 13.8905 75.9766 13.0559C74.6869 12.2214 73.1695 11.6903 71.5004 11.6903C70.3623 11.6903 69.376 11.9179 68.3897 12.2972C66.9482 12.9042 65.7343 13.8905 64.8997 15.1803C64.0652 16.47 63.5341 17.9874 63.5341 19.6565C63.5341 25.7261 63.5341 26.4089 63.5341 32.4784H58.375C58.375 26.4089 58.375 25.7261 58.375 19.6565C58.375 17.8357 58.7543 16.0907 59.4372 14.4974C60.4235 12.1455 62.0926 10.097 64.2169 8.7314C66.3413 7.28988 68.8449 6.45532 71.5762 6.45532C73.3971 6.45532 75.1421 6.83467 76.7353 7.51749C79.0873 8.50379 81.1357 10.1729 82.5014 12.2972C83.9429 14.4216 84.7775 16.9253 84.7775 19.6565C84.7775 25.7261 84.7775 26.4089 84.7775 32.4784H79.4666Z" fill="#0E0E0E"/>
<path d="M116.492 37.7868C116.492 37.5592 116.34 37.4075 116.113 37.4075H115.657V38.1662H116.113C116.34 38.1662 116.492 38.0144 116.492 37.7868ZM116.871 39.987C116.796 39.987 116.72 39.987 116.644 39.9112L115.657 38.6973V39.6836C115.657 39.9112 115.506 40.0629 115.354 40.0629C115.126 40.0629 115.051 39.9112 115.051 39.6836V37.1799C115.051 36.9523 115.202 36.8005 115.43 36.8005H116.189C116.871 36.8005 117.327 37.104 117.327 37.7868C117.327 38.242 116.947 38.5455 116.492 38.6214L117.251 39.456C117.327 39.5318 117.327 39.6077 117.327 39.6836C117.251 39.7594 117.099 39.987 116.871 39.987Z" fill="#0E0E0E"/>
<path d="M115.96 41.2015C114.443 41.2015 113.153 39.9117 113.153 38.3943C113.153 36.8769 114.443 35.5872 115.96 35.5872C117.554 35.5872 118.768 36.8769 118.768 38.3943C118.768 39.9117 117.478 41.2015 115.96 41.2015ZM115.96 36.1941C114.747 36.1941 113.76 37.1804 113.76 38.3943C113.76 39.6082 114.747 40.5945 115.96 40.5945C117.174 40.5945 118.161 39.6082 118.161 38.3943C118.161 37.1804 117.174 36.1941 115.96 36.1941Z" fill="#0E0E0E"/>
<path d="M77.415 0.0812988H65.3518V5.2404H77.415V0.0812988Z" fill="#0E0E0E"/>
</svg>
