<svg width="158" height="50" viewBox="0 0 158 50" fill="none" xmlns="http://www.w3.org/2000/svg">
<path d="M68.8385 49.9366C65.0782 47.2848 60.4951 46.1123 56.3404 46.2827C52.1313 46.4532 50.2477 49.6026 50.2477 49.6026C48.3505 46.2827 44.597 44.2513 38.7968 44.2922C29.4266 44.4013 20.138 48.7436 12.7738 48.7436C5.40952 48.7436 0.561229 44.2922 0.724425 36.3982C1.02362 22.5463 12.699 10.0646 21.4232 4.44745C26.4346 1.21624 30.6437 0.255057 33.3841 0.561817C35.3832 0.786775 37.7972 3.10452 36.2808 6.5266C34.0505 11.537 30.9633 11.1212 31.0789 8.72846C31.1401 7.17421 32.1737 6.19257 32.9489 5.65404C33.4453 5.31319 34.3157 5.21776 34.7713 5.21094C35.2132 4.82919 35.5532 2.09562 31.9493 3.00227C28.359 3.90891 24.0343 7.44007 19.9068 12.0074C15.7861 16.5679 9.37383 25.2185 7.78266 34.2782C7.04828 38.491 7.54467 46.1532 17.4792 46.0646C25.9043 45.9828 38.3412 40.4202 49.7649 40.5225C54.2052 40.5565 58.0607 41.7563 61.0663 43.6173C64.0378 45.4579 67.5805 48.1165 68.8385 49.9366ZM71.538 24.8231H73.2652C73.2652 24.8231 64.609 37.3662 59.7131 36.8004C56.9795 36.4869 57.7887 33.0989 57.7887 33.0989C57.7887 33.0989 53.9468 37.6048 50.4381 36.705C47.2422 35.887 49.2957 30.5562 49.2957 30.5562C48.9353 30.7061 42.0199 38.5251 37.1648 36.6505C32.0853 34.6872 34.7169 28.143 35.6824 26.1729C36.4984 24.5164 37.4028 22.9008 37.4028 22.9008C37.4028 22.9008 36.6208 23.1257 36.1448 23.2348C35.662 23.3439 34.9208 23.487 34.9208 23.487C34.9208 23.487 32.5137 27.4068 31.0517 29.3632C29.583 31.3128 23.3339 38.0479 19.6552 36.705C15.9765 35.3621 16.8809 30.2085 18.948 26.1047C22.3071 19.4583 30.2562 11.278 35.0432 12.505C39.8779 13.7389 35.8796 21.6192 35.8796 21.6192C35.8796 21.6192 36.8452 21.7419 39.1572 20.1672C42.4823 17.8904 46.8614 11.7756 51.6077 12.4914C53.8312 12.8254 55.912 15.1227 53.0764 19.4787C52.1653 20.8762 50.6421 22.1305 49.4725 20.8966C48.7449 20.1331 49.3773 18.7288 50.1389 17.7677C51.2133 16.4043 52.7024 16.5952 52.7024 16.5952C52.7024 16.5952 53.4844 14.7819 51.4921 14.8159C49.8737 14.85 45.787 18.6266 43.4819 22.4372C41.3603 25.9411 38.1576 31.9059 41.3875 33.2079C44.3386 34.4009 49.9485 27.7135 52.5528 24.2096C55.1504 20.7057 61.0663 12.7572 66.0437 12.43C67.7573 12.321 68.7773 13.882 68.7773 13.882L69.3553 12.9686H74.3192C74.3192 12.9686 64.9626 28.6406 64.2214 29.8268C63.6434 30.7607 62.8886 32.8466 65.0034 31.6741C67.1181 30.4948 71.5244 24.8163 71.5244 24.8163L71.538 24.8231ZM32.9965 23.2348C32.9149 23.2007 31.6569 22.8463 30.4398 22.0623C29.2158 21.2784 28.6514 20.1195 28.6106 20.0377C28.5698 19.9559 28.5222 20.0172 28.4678 20.0854C28.4202 20.1536 28.1618 20.4876 26.387 23.0985C24.6123 25.7093 21.9875 31.047 24.4491 31.9604C26.0267 32.5399 28.6718 29.7722 30.0998 27.9385C31.4257 26.2342 33.0033 23.6166 33.0713 23.4598C33.1393 23.303 33.0781 23.2689 32.9897 23.2348H32.9965ZM34.9616 14.9046C33.6561 13.9161 30.3446 16.2339 30.3242 18.5925C30.3038 21.0125 33.3229 21.701 33.7037 21.7146C33.7037 21.7146 34.0505 21.8033 34.1797 21.517C34.2681 21.3397 34.6693 20.583 35.1316 19.3765C35.594 18.1699 36.172 15.818 34.9616 14.8977V14.9046ZM60.2707 27.9589C62.2766 25.1981 67.8117 15.5385 67.8117 15.5385C67.8117 15.5385 67.7233 14.8637 67.0773 14.8296C66.3089 14.7955 65.0442 15.0545 62.4942 18.238C59.9511 21.4283 57.9927 23.9642 56.558 26.5955C54.9872 29.4723 54.3004 31.5037 55.2048 32.0559C55.4564 32.2127 55.844 32.2331 56.15 32.1513C56.7416 32.0082 57.5099 31.4151 58.5639 30.1949C59.0603 29.6222 59.6179 28.8588 60.2707 27.9589ZM82.6014 13.0027H77.8755L75.2167 17.3314H79.929L82.5946 13.0027H82.6014ZM144.473 45.2057C144.004 45.2057 143.603 45.3761 143.263 45.7169C142.93 46.0441 142.766 46.4532 142.766 46.9235C142.766 47.3939 142.93 47.8097 143.263 48.1506C143.589 48.471 143.997 48.6482 144.473 48.6482C144.949 48.6482 145.35 48.471 145.684 48.1506C146.017 47.8097 146.18 47.4007 146.18 46.9235C146.18 46.4463 146.017 46.0441 145.684 45.7169C145.344 45.3761 144.949 45.2057 144.473 45.2057ZM146.459 46.9235C146.459 47.4757 146.268 47.9461 145.881 48.3414C145.493 48.73 145.017 48.9209 144.473 48.9209C143.929 48.9209 143.453 48.7232 143.066 48.3414C142.678 47.9597 142.488 47.4757 142.488 46.9235C142.488 46.3714 142.678 45.9078 143.072 45.5192C143.453 45.1307 143.916 44.933 144.466 44.933C145.017 44.933 145.486 45.1307 145.874 45.5192C146.262 45.901 146.452 46.3782 146.452 46.9235H146.459ZM144.99 46.4941C144.99 46.3305 144.936 46.2214 144.84 46.1737C144.759 46.1191 144.589 46.085 144.378 46.085H144.052V46.8826H144.405C144.562 46.8826 144.684 46.8622 144.759 46.8417C144.902 46.7667 144.99 46.6645 144.99 46.4941ZM143.671 45.826H144.426C144.698 45.826 144.902 45.8601 145.017 45.901C145.255 45.9964 145.364 46.1805 145.364 46.4532C145.364 46.644 145.296 46.794 145.146 46.8826C145.078 46.9303 144.97 46.9781 144.834 46.9985C145.01 47.019 145.14 47.094 145.208 47.203C145.282 47.3189 145.33 47.4348 145.33 47.5439V47.7007C145.33 47.7552 145.33 47.8029 145.33 47.8574C145.337 47.9256 145.337 47.9597 145.35 47.9665V48.0006H145.004V47.9801C145.004 47.9801 144.99 47.9665 144.99 47.9597V47.8915V47.7143C144.99 47.4621 144.922 47.2985 144.779 47.2167C144.698 47.1689 144.555 47.1417 144.358 47.1417H144.052V48.0074H143.671V45.8192V45.826ZM152.225 5.22457C148.737 7.47415 143.909 9.5124 139.264 9.06249C138.088 10.2827 136.83 11.6938 135.565 13.2344C143.623 14.8228 150.668 9.82598 154.415 5.56542C156.754 2.90683 157.903 0.534549 157.903 0.534549C157.903 0.534549 155.666 3.00227 152.218 5.23139L152.225 5.22457ZM138.421 41.8927C137.748 42.9697 136.993 45.0148 139.203 43.74C141.889 42.1858 145.711 36.3642 145.711 36.3642H147.445C147.445 36.3642 145.167 39.9839 142.195 43.2833C139.468 46.3032 136.157 49.0572 133.818 48.7845C131.084 48.4641 131.941 44.8648 131.941 44.8648C131.941 44.8648 128.011 49.0368 125.325 48.7436C121.673 48.3346 122.788 43.8082 122.788 43.8082C122.788 43.8082 118.661 48.9072 115.853 48.7436C111.433 48.4914 112.541 43.0856 113.765 39.3159C114.425 37.2981 115.03 35.6961 115.03 35.6961C115.03 35.6961 114.595 35.812 113.656 35.9483C113.167 36.0165 112.269 36.0642 112.269 36.0642C112.269 36.0642 110.433 39.3159 108.971 41.2791C107.502 43.2356 101.26 49.9639 97.5746 48.6141C94.1815 47.3734 95.2967 42.1585 97.2754 38.007C100.165 31.9673 108.278 23.2825 112.963 24.421C117.818 25.6003 113.078 34.4827 113.078 34.4827C113.078 34.4827 113.078 34.51 113.133 34.5304C113.228 34.5713 113.479 34.5986 114.064 34.4827C115.003 34.3055 115.846 33.951 115.846 33.951C115.846 33.951 120.721 23.6984 126.114 16.9905C131.499 10.2827 142.256 -1.26511 146.486 1.52982C147.519 2.21151 147.05 4.57697 145.663 7.44688C145.044 7.63776 144.412 7.81499 143.759 7.95133C144.691 6.25393 145.31 4.82919 145.486 3.84074C146.119 0.377761 138.054 7.67866 132.295 15.5385C126.535 23.3984 123.074 30.5153 123.074 30.5153C123.074 30.5153 124.23 29.854 126.046 28.3884C127.943 26.8614 130.54 24.4619 133.369 21.5374C135.273 19.5673 137.51 17.0928 139.598 14.3251C140.223 14.2979 140.835 14.2297 141.434 14.1411C139.101 17.2905 136.647 20.1672 134.559 22.2873C132.261 24.6186 129.772 27.1341 127.603 28.961C124.162 31.865 121.51 33.5079 121.51 33.5079C121.51 33.5079 116.465 43.6923 119.205 44.3536C120.816 44.7353 123.999 39.8203 123.999 39.8203C123.999 39.8203 128.154 33.4602 130.649 30.6039C134.069 26.7046 137.007 24.455 139.944 24.4073C141.651 24.3801 142.671 26.207 142.671 26.207L143.474 24.9595H148.437C148.437 24.9595 139.176 40.7202 138.448 41.8995L138.421 41.8927ZM110.528 35.6893C110.44 35.6552 109.366 35.1644 108.244 34.2305C107.128 33.3034 106.571 32.2331 106.523 32.1513C106.482 32.0695 106.428 32.1309 106.38 32.199C106.333 32.2672 106.129 32.4444 104.361 35.0553C102.586 37.6662 99.8798 43.0447 102.341 43.9514C103.919 44.5308 106.537 41.77 107.965 39.9362C109.291 38.232 110.535 36.0642 110.603 35.9074C110.671 35.7575 110.603 35.7166 110.528 35.6893ZM113.031 31.2856C113.486 30.0858 114.071 27.7271 112.861 26.8069C111.555 25.8184 108.244 28.1293 108.216 30.488C108.203 32.9148 110.556 33.9987 111.127 34.1555C111.453 34.2441 111.562 34.2237 111.712 33.9714C111.813 33.801 112.568 32.4853 113.031 31.2856ZM141.515 27.9589C141.617 27.7817 141.658 27.6249 141.658 27.6249C141.658 27.6249 141.57 26.9432 140.924 26.9159C140.162 26.8819 139.108 27.025 136.375 30.0722C133.641 33.1057 131.982 35.737 130.547 38.3683C128.976 41.2451 128.351 43.3856 129.248 43.9377C129.5 44.0877 129.894 44.1082 130.193 44.0332C130.805 43.8832 131.492 43.3174 132.553 42.0903C133.049 41.5177 133.593 40.6997 134.246 39.8067C136.055 37.3322 140.604 29.5268 141.508 27.9589H141.515ZM152.218 5.21776C148.73 7.46733 143.902 9.50558 139.258 9.05567C138.081 10.2759 136.823 11.687 135.559 13.2276C143.616 14.8159 150.661 9.81916 154.408 5.5586C156.747 2.90001 157.896 0.527733 157.896 0.527733C157.896 0.527733 155.659 2.99545 152.211 5.22457L152.218 5.21776ZM129.588 11.0735C125.78 9.11702 123.006 6.73111 120.103 5.23821C117.335 3.82029 115.547 3.22722 113.316 3.52035C112.942 3.56807 112.391 3.75212 112.391 3.75212C112.391 3.75212 113.547 7.69229 108.971 14.3115C104.34 21.0193 100.131 20.9852 98.9346 19.131C97.6766 17.1882 99.295 13.2208 101.995 9.68964C104.816 5.99488 109.78 2.9341 109.78 2.9341C109.78 2.9341 108.196 1.9661 104.306 4.17477C100.512 6.32891 93.9707 11.4484 87.9257 20.099C81.8806 28.7429 80.6702 33.5011 79.7998 37.2435C78.9226 40.986 79.725 44.9943 83.8661 44.9943C88.0072 44.9943 92.8215 38.6546 94.1815 36.4528C96.6974 32.349 98.3566 26.0638 94.9091 26.9296C93.2159 27.359 91.8424 29.2473 90.9788 31.047C90.088 32.908 89.7344 34.6872 89.7344 34.6872C89.7344 34.6872 88.2996 35.1985 86.3753 36.6436C84.4509 38.0888 83.1998 39.4658 83.1998 39.4658C83.1998 39.4658 83.2066 36.48 85.5865 31.6332C87.9664 26.7864 92.3387 24.5709 94.8071 24.3596C97.0374 24.1755 99.9342 26.0775 97.4794 33.0852C95.0315 40.0862 87.776 48.5869 80.1602 48.6959C73.1292 48.7982 68.5189 39.7999 78.3039 24.1006C89.1496 6.75156 101.859 1.42075 105.993 0.820859C110.12 0.227789 111.46 2.0479 111.46 2.0479C111.46 2.0479 114.914 0.452747 119.3 0.745873C124.346 1.08672 128.242 4.66559 133.376 7.16739C132.029 8.47623 130.758 9.81916 129.602 11.0735H129.588ZM110.828 4.27021C110.828 4.27021 107.883 5.44272 104.456 9.23291C101.022 13.0367 99.0434 17.2837 100.519 18.4085C101.083 18.8447 102.389 18.9129 104.769 16.7724C106.618 15.1023 108.509 12.914 109.787 9.78508C111.324 6.02897 110.828 4.31111 110.828 4.27021Z" fill="#0E0E0E"/>
</svg>
