<svg width="253" height="249" viewBox="0 0 253 249" fill="none" xmlns="http://www.w3.org/2000/svg">
<path d="M116.027 160.214C112.267 157.563 107.683 156.39 103.529 156.561C99.3196 156.731 97.4361 159.88 97.4361 159.88C95.5389 156.561 91.7854 154.529 85.9851 154.57C76.6149 154.679 67.3263 159.021 59.9621 159.021C52.5979 159.021 47.7496 154.57 47.9128 146.676C48.212 132.824 59.8873 120.342 68.6115 114.725C73.623 111.494 77.8321 110.533 80.5724 110.84C82.5716 111.065 84.9855 113.382 83.4692 116.804C81.2388 121.815 78.1517 121.399 78.2673 119.006C78.3285 117.452 79.3621 116.47 80.1372 115.932C80.6336 115.591 81.504 115.496 81.9596 115.489C82.4016 115.107 82.7416 112.373 79.1377 113.28C75.5474 114.187 71.2227 117.718 67.0951 122.285C62.9744 126.846 56.5622 135.496 54.971 144.556C54.2366 148.769 54.733 156.431 64.6676 156.342C73.0926 156.261 85.5295 150.698 96.9533 150.8C101.394 150.834 105.249 152.034 108.255 153.895C111.226 155.736 114.769 158.394 116.027 160.214ZM118.726 135.101H120.454C120.454 135.101 111.797 147.644 106.901 147.078C104.168 146.765 104.977 143.377 104.977 143.377C104.977 143.377 101.135 147.883 97.6264 146.983C94.4305 146.165 96.4841 140.834 96.4841 140.834C96.1237 140.984 89.2082 148.803 84.3532 146.928C79.2737 144.965 81.9052 138.421 82.8708 136.451C83.6868 134.794 84.5911 133.179 84.5911 133.179C84.5911 133.179 83.8092 133.404 83.3332 133.513C82.8504 133.622 82.1092 133.765 82.1092 133.765C82.1092 133.765 79.7021 137.685 78.2401 139.641C76.7713 141.591 70.5223 148.326 66.8436 146.983C63.1648 145.64 64.0692 140.486 66.1364 136.383C69.4955 129.736 77.4445 121.556 82.2316 122.783C87.0663 124.017 83.068 131.897 83.068 131.897C83.068 131.897 84.0336 132.02 86.3455 130.445C89.6706 128.168 94.0497 122.053 98.796 122.769C101.02 123.103 103.1 125.401 100.265 129.757C99.3536 131.154 97.8304 132.408 96.6609 131.174C95.9333 130.411 96.5657 129.007 97.3273 128.045C98.4016 126.682 99.8908 126.873 99.8908 126.873C99.8908 126.873 100.673 125.06 98.6804 125.094C97.0621 125.128 92.9754 128.904 90.6702 132.715C88.5487 136.219 85.3459 142.184 88.5759 143.486C91.527 144.679 97.1369 137.991 99.7412 134.487C102.339 130.984 108.255 123.035 113.232 122.708C114.946 122.599 115.966 124.16 115.966 124.16L116.544 123.246H121.508C121.508 123.246 112.151 138.918 111.41 140.105C110.832 141.038 110.077 143.124 112.192 141.952C114.306 140.773 118.713 135.094 118.713 135.094L118.726 135.101ZM80.1848 133.513C80.1032 133.479 78.8453 133.124 77.6281 132.34C76.4041 131.556 75.8397 130.397 75.7989 130.316C75.7581 130.234 75.7105 130.295 75.6562 130.363C75.6086 130.431 75.3502 130.765 73.5754 133.376C71.8006 135.987 69.1759 141.325 71.6374 142.238C73.215 142.818 75.8601 140.05 77.2881 138.216C78.6141 136.512 80.1916 133.894 80.2596 133.738C80.3276 133.581 80.2664 133.547 80.178 133.513H80.1848ZM82.15 125.182C80.8444 124.194 77.5329 126.512 77.5125 128.87C77.4921 131.29 80.5112 131.979 80.892 131.992C80.892 131.992 81.2388 132.081 81.368 131.795C81.4564 131.618 81.8576 130.861 82.32 129.654C82.7824 128.448 83.3604 126.096 82.15 125.176V125.182ZM107.459 138.237C109.465 135.476 115 125.816 115 125.816C115 125.816 114.912 125.141 114.266 125.107C113.497 125.073 112.233 125.332 109.683 128.516C107.139 131.706 105.181 134.242 103.746 136.873C102.176 139.75 101.489 141.782 102.393 142.334C102.645 142.49 103.032 142.511 103.338 142.429C103.93 142.286 104.698 141.693 105.752 140.473C106.249 139.9 106.806 139.137 107.459 138.237ZM129.79 123.28H125.064L122.405 127.609H127.117L129.783 123.28H129.79ZM191.662 155.484C191.192 155.484 190.791 155.654 190.451 155.995C190.118 156.322 189.955 156.731 189.955 157.201C189.955 157.672 190.118 158.088 190.451 158.428C190.778 158.749 191.186 158.926 191.662 158.926C192.137 158.926 192.539 158.749 192.872 158.428C193.205 158.088 193.368 157.679 193.368 157.201C193.368 156.724 193.205 156.322 192.872 155.995C192.532 155.654 192.137 155.484 191.662 155.484ZM193.647 157.201C193.647 157.754 193.457 158.224 193.069 158.619C192.681 159.008 192.206 159.199 191.662 159.199C191.118 159.199 190.642 159.001 190.254 158.619C189.866 158.238 189.676 157.754 189.676 157.201C189.676 156.649 189.866 156.186 190.261 155.797C190.642 155.409 191.104 155.211 191.655 155.211C192.206 155.211 192.675 155.409 193.062 155.797C193.45 156.179 193.64 156.656 193.64 157.201H193.647ZM192.178 156.772C192.178 156.608 192.124 156.499 192.029 156.451C191.947 156.397 191.777 156.363 191.566 156.363H191.24V157.16H191.594C191.75 157.16 191.872 157.14 191.947 157.12C192.09 157.045 192.178 156.942 192.178 156.772ZM190.859 156.104H191.614C191.886 156.104 192.09 156.138 192.206 156.179C192.443 156.274 192.552 156.458 192.552 156.731C192.552 156.922 192.484 157.072 192.335 157.16C192.267 157.208 192.158 157.256 192.022 157.276C192.199 157.297 192.328 157.372 192.396 157.481C192.471 157.597 192.518 157.713 192.518 157.822V157.978C192.518 158.033 192.518 158.081 192.518 158.135C192.525 158.203 192.525 158.238 192.539 158.244V158.278H192.192V158.258C192.192 158.258 192.178 158.244 192.178 158.238V158.169V157.992C192.178 157.74 192.11 157.576 191.968 157.494C191.886 157.447 191.743 157.42 191.546 157.42H191.24V158.285H190.859V156.097V156.104ZM199.413 115.502C195.925 117.752 191.097 119.79 186.453 119.34C185.276 120.561 184.018 121.972 182.754 123.512C190.812 125.101 197.856 120.104 201.603 115.843C203.942 113.185 205.091 110.812 205.091 110.812C205.091 110.812 202.854 113.28 199.407 115.509L199.413 115.502ZM185.61 152.17C184.936 153.248 184.182 155.293 186.392 154.018C189.078 152.464 192.899 146.642 192.899 146.642H194.633C194.633 146.642 192.355 150.262 189.384 153.561C186.657 156.581 183.345 159.335 181.006 159.062C178.273 158.742 179.129 155.143 179.129 155.143C179.129 155.143 175.199 159.315 172.513 159.021C168.862 158.612 169.977 154.086 169.977 154.086C169.977 154.086 165.849 159.185 163.041 159.021C158.621 158.769 159.729 153.363 160.953 149.594C161.613 147.576 162.218 145.974 162.218 145.974C162.218 145.974 161.783 146.09 160.845 146.226C160.355 146.294 159.457 146.342 159.457 146.342C159.457 146.342 157.621 149.594 156.16 151.557C154.691 153.513 148.448 160.242 144.763 158.892C141.37 157.651 142.485 152.436 144.464 148.285C147.354 142.245 155.466 133.56 160.151 134.699C165.006 135.878 160.267 144.761 160.267 144.761C160.267 144.761 160.267 144.788 160.321 144.808C160.416 144.849 160.668 144.876 161.253 144.761C162.191 144.583 163.034 144.229 163.034 144.229C163.034 144.229 167.91 133.976 173.302 127.268C178.687 120.561 189.445 109.013 193.674 111.808C194.708 112.489 194.239 114.855 192.851 117.725C192.233 117.916 191.6 118.093 190.948 118.229C191.879 116.532 192.498 115.107 192.675 114.119C193.307 110.656 185.242 117.956 179.483 125.816C173.724 133.676 170.262 140.793 170.262 140.793C170.262 140.793 171.418 140.132 173.234 138.666C175.131 137.139 177.729 134.74 180.557 131.815C182.461 129.845 184.698 127.371 186.786 124.603C187.412 124.576 188.024 124.508 188.622 124.419C186.29 127.568 183.835 130.445 181.747 132.565C179.449 134.896 176.96 137.412 174.791 139.239C171.35 142.143 168.698 143.786 168.698 143.786C168.698 143.786 163.653 153.97 166.393 154.631C168.005 155.013 171.187 150.098 171.187 150.098C171.187 150.098 175.342 143.738 177.837 140.882C181.258 136.982 184.195 134.733 187.133 134.685C188.84 134.658 189.86 136.485 189.86 136.485L190.662 135.237H195.626C195.626 135.237 186.364 150.998 185.637 152.177L185.61 152.17ZM157.717 145.967C157.628 145.933 156.554 145.442 155.432 144.508C154.317 143.581 153.759 142.511 153.712 142.429C153.671 142.347 153.616 142.409 153.569 142.477C153.521 142.545 153.317 142.722 151.549 145.333C149.774 147.944 147.068 153.323 149.53 154.229C151.107 154.809 153.725 152.048 155.153 150.214C156.479 148.51 157.723 146.342 157.791 146.185C157.859 146.035 157.791 145.994 157.717 145.967ZM160.219 141.563C160.675 140.364 161.259 138.005 160.049 137.085C158.743 136.096 155.432 138.407 155.405 140.766C155.391 143.193 157.744 144.277 158.315 144.433C158.641 144.522 158.75 144.501 158.9 144.249C159.002 144.079 159.757 142.763 160.219 141.563ZM188.704 138.237C188.806 138.06 188.846 137.903 188.846 137.903C188.846 137.903 188.758 137.221 188.112 137.194C187.35 137.16 186.296 137.303 183.563 140.35C180.829 143.384 179.17 146.015 177.735 148.646C176.165 151.523 175.539 153.663 176.437 154.216C176.688 154.366 177.083 154.386 177.382 154.311C177.994 154.161 178.681 153.595 179.741 152.368C180.238 151.796 180.782 150.978 181.435 150.085C183.243 147.61 187.792 139.805 188.697 138.237H188.704ZM199.407 115.496C195.918 117.745 191.09 119.783 186.446 119.334C185.27 120.554 184.012 121.965 182.747 123.505C190.805 125.094 197.849 120.097 201.596 115.836C203.935 113.178 205.084 110.806 205.084 110.806C205.084 110.806 202.847 113.273 199.4 115.502L199.407 115.496ZM176.777 121.351C172.969 119.395 170.194 117.009 167.291 115.516C164.523 114.098 162.735 113.505 160.505 113.798C160.131 113.846 159.58 114.03 159.58 114.03C159.58 114.03 160.736 117.97 156.16 124.589C151.529 131.297 147.32 131.263 146.123 129.409C144.865 127.466 146.483 123.499 149.183 119.967C152.005 116.273 156.969 113.212 156.969 113.212C156.969 113.212 155.384 112.244 151.495 114.453C147.701 116.607 141.159 121.726 135.114 130.377C129.069 139.021 127.859 143.779 126.988 147.521C126.111 151.264 126.913 155.272 131.054 155.272C135.196 155.272 140.01 148.932 141.37 146.731C143.886 142.627 145.545 136.342 142.097 137.207C140.404 137.637 139.031 139.525 138.167 141.325C137.276 143.186 136.923 144.965 136.923 144.965C136.923 144.965 135.488 145.476 133.564 146.921C131.639 148.367 130.388 149.744 130.388 149.744C130.388 149.744 130.395 146.758 132.775 141.911C135.155 137.064 139.527 134.849 141.995 134.637C144.226 134.453 147.123 136.355 144.668 143.363C142.22 150.364 134.964 158.865 127.349 158.974C120.318 159.076 115.707 150.078 125.492 134.378C136.338 117.029 149.047 111.699 153.181 111.099C157.309 110.506 158.648 112.326 158.648 112.326C158.648 112.326 162.103 110.731 166.488 111.024C171.534 111.365 175.43 114.943 180.564 117.445C179.218 118.754 177.946 120.097 176.79 121.351H176.777ZM158.016 114.548C158.016 114.548 155.072 115.721 151.644 119.511C148.211 123.315 146.232 127.561 147.707 128.686C148.272 129.123 149.577 129.191 151.957 127.05C153.807 125.38 155.697 123.192 156.976 120.063C158.512 116.307 158.016 114.589 158.016 114.548Z" fill="#0E0E0E"/>
</svg>
