<svg width="254" height="254" viewBox="0 0 254 254" fill="none" xmlns="http://www.w3.org/2000/svg">
<path d="M199.016 145.271C198.149 145.271 197.442 145.98 197.442 146.865C197.442 147.75 198.149 148.484 199.016 148.484C199.882 148.484 200.614 147.761 200.614 146.865C200.614 145.969 199.9 145.271 199.016 145.271ZM199.016 148.165C198.307 148.165 197.739 147.581 197.739 146.865C197.739 146.149 198.309 145.577 199.016 145.577C199.723 145.577 200.311 146.154 200.311 146.865C200.311 147.577 199.743 148.165 199.016 148.165Z" fill="#0E0E0E"/>
<path d="M199.786 146.488C199.786 146.193 199.544 146.004 199.15 146.004H198.352V147.721H198.771V147.007H198.963L199.396 147.721H199.856L199.412 146.948C199.715 146.887 199.786 146.652 199.786 146.488ZM199.111 146.7H198.773V146.305H199.118C199.261 146.305 199.343 146.38 199.343 146.499C199.343 146.618 199.261 146.7 199.109 146.7" fill="#0E0E0E"/>
<path d="M108.883 106.31H109.864C110.336 106.31 110.616 106.588 110.616 106.973V118.349C110.616 120.148 109.504 120.76 109.504 120.76H115.243C115.243 120.76 114.053 120.235 114.053 118.349V106.973C114.053 106.561 114.36 106.31 114.791 106.31H115.763C118.492 106.31 118.889 108.519 118.889 108.519L118.873 104.011C118.873 104.011 118.278 104.524 117.279 104.524H107.351C106.263 104.524 105.857 104.121 105.857 104.121V108.67C105.857 108.67 106.172 106.31 108.886 106.31" fill="#0E0E0E"/>
<path d="M194.828 127.726H196.098C199.671 127.726 200.191 130.597 200.191 130.597L200.161 124.707C200.161 124.707 199.391 125.357 198.079 125.357H185.078C183.666 125.357 183.107 124.842 183.107 124.842L183.208 130.599C183.208 130.599 183.557 127.729 187.091 127.729H188.361C188.986 127.729 189.348 128.073 189.348 128.579V146.762C189.348 149.104 187.894 149.92 187.894 149.92H195.405C195.405 149.92 193.852 149.229 193.852 146.762V128.579C193.852 128.055 194.258 127.729 194.823 127.729" fill="#0E0E0E"/>
<path d="M67.5985 140.452V146.889C67.5985 148.349 66.0867 148.59 65.0903 148.59C62.9993 148.59 58.1173 147.824 58.1173 138.053C58.1173 130.677 60.7532 127.325 64.4609 127.313C71.3997 127.304 72.2297 133.894 72.2297 133.894L72.33 124.196C72.33 124.196 71.0964 125.644 66.7207 125.076C65.2681 124.889 61.2868 124.673 58.1173 126.743C55.4927 128.444 52.8271 131.584 52.8271 138.658C52.8271 142.256 54.1839 145.517 55.7094 147.249C57.6271 149.434 60.2516 150.877 64.6935 150.877C68.5175 150.877 71.9036 149.302 73.16 148.675C73.16 148.675 72.216 147.742 72.216 146.153V140.452C72.2639 138.113 74.1907 137.216 74.1907 137.216H65.4232C65.4232 137.216 67.5643 138.151 67.5985 140.452Z" fill="#0E0E0E"/>
<path d="M146.177 143.87V128.339C146.307 126.262 147.604 125.518 147.604 125.518H140.164C140.164 125.518 141.543 126.166 141.682 128.339V143.87C141.582 146.006 140.262 146.77 140.262 146.77H147.716C147.716 146.77 146.279 146.111 146.179 143.87" fill="#0E0E0E"/>
<path d="M105.728 146.767H111.444C111.444 146.767 110.012 146.108 109.912 143.867V132.4L109.878 131.25L110.662 132.536L117.731 143.867C119.099 146.17 119.486 146.991 120.622 146.991H122.622V128.336C122.765 126.259 123.974 125.516 123.974 125.516H118.353C118.353 125.516 119.728 126.163 119.872 128.336V137.724L119.892 138.942L119.224 137.847L113.152 128.336C111.946 126.391 112.83 125.516 112.83 125.516H105.479C105.479 125.516 107.148 126.355 107.148 128.336L107.164 143.867C107.048 146.004 105.728 146.767 105.728 146.767Z" fill="#0E0E0E"/>
<path d="M162.364 128.339L158.998 140.055L155.486 128.339C155.024 126.262 156.093 125.518 156.093 125.518H148.297C148.297 125.518 149.893 126.166 150.671 128.339L155.284 143.87C155.833 145.705 156.07 147.046 157.767 147.046H159.94L165.191 128.339C165.925 126.262 167.435 125.518 167.435 125.518H161.609C161.609 125.518 162.831 126.166 162.366 128.339" fill="#0E0E0E"/>
<path d="M85.0816 144.414H82.8653C82.302 144.414 81.9258 144.079 81.9258 143.548V128.425C82.0261 126.19 83.4444 125.525 83.4444 125.525H75.9766C75.9766 125.525 77.2992 126.295 77.3973 128.425V143.967C77.249 146.129 75.8809 146.781 75.8809 146.781H87.0563C88.372 146.781 89.1496 147.431 89.1496 147.431L89.218 141.53C89.218 141.53 88.6571 144.414 85.0839 144.414" fill="#0E0E0E"/>
<path d="M131.873 143.548L131.882 128.425C131.998 126.19 133.401 125.525 133.401 125.525H125.947C125.947 125.525 127.278 126.295 127.388 128.425L127.383 143.967C127.233 146.129 125.842 146.781 125.842 146.781H137.086C138.397 146.781 139.167 147.429 139.167 147.429L139.263 141.527C139.263 141.527 138.691 144.412 135.122 144.412H132.812C132.258 144.412 131.873 144.077 131.873 143.545" fill="#0E0E0E"/>
<path d="M120.959 106.666L120.971 118.548C120.88 120.19 119.872 120.762 119.872 120.762H125.639C125.639 120.762 124.551 120.256 124.473 118.548V113.299H130.283V118.548C130.197 120.19 129.182 120.762 129.182 120.762H134.967C134.967 120.762 133.884 120.256 133.809 118.548V106.666C133.914 105.088 134.88 104.522 134.88 104.522H129.111C129.111 104.522 130.172 105.012 130.281 106.666V111.427H124.471V106.666C124.574 105.088 125.552 104.522 125.552 104.522H119.792C119.792 104.522 120.848 105.012 120.957 106.666" fill="#0E0E0E"/>
<path d="M136.961 120.769H145.542C146.541 120.769 147.131 121.266 147.131 121.266L147.181 116.628C147.181 116.628 146.766 118.976 144.035 118.976H142.354C141.921 118.976 141.606 118.716 141.606 118.313L141.62 113.198H143.686C145.738 113.198 146.525 114.635 146.525 114.635V110.161C146.525 110.161 145.986 111.427 143.67 111.427H141.62V106.998C141.622 106.588 141.93 106.33 142.356 106.33H144.035C146.773 106.33 147.181 108.535 147.181 108.535L147.149 104.011C147.149 104.011 146.552 104.524 145.544 104.524H136.961C136.961 104.524 138.022 105.01 138.131 106.665L138.113 118.616C138.001 120.285 136.959 120.769 136.959 120.769" fill="#0E0E0E"/>
<path d="M97.0606 127.86H99.2747C102.836 127.86 103.229 130.74 103.229 130.74L103.336 124.859C103.336 124.859 102.56 125.518 101.247 125.518H90.0556C90.0556 125.518 91.4512 126.165 91.5926 128.339L91.5834 143.97C91.4352 146.131 90.042 146.783 90.042 146.783H101.247C102.542 146.783 103.313 147.433 103.313 147.433L103.229 141.566C103.229 141.566 102.83 144.444 99.2564 144.444H97.0606C96.3742 144.444 96.0823 144.109 96.0823 143.584L96.0938 136.721H98.8186C101.498 136.721 102.517 138.609 102.517 138.609V132.707C102.517 132.707 101.815 134.365 98.7708 134.365H96.1028V128.722C96.1028 128.183 96.5065 127.86 97.0606 127.86Z" fill="#0E0E0E"/>
<path d="M175.017 127.86H177.226C180.799 127.86 181.319 130.74 181.319 130.74L181.28 124.859C181.28 124.859 180.498 125.518 179.194 125.518H168.03C168.03 125.518 169.4 126.165 169.553 128.339L169.523 143.97C169.382 146.131 168.012 146.783 168.012 146.783H179.173C180.496 146.783 181.274 147.431 181.274 147.431L181.321 141.566C181.321 141.566 180.786 144.444 177.203 144.444H175.007C174.453 144.444 174.045 144.109 174.045 143.584L174.054 136.721H176.77C179.447 136.721 180.469 138.609 180.469 138.609V132.707C180.469 132.707 179.757 134.365 176.731 134.365H174.054V128.722C174.054 128.183 174.463 127.86 175.021 127.86" fill="#0E0E0E"/>
</svg>
