<svg width="80" height="81" viewBox="0 0 80 81" fill="none" xmlns="http://www.w3.org/2000/svg">
<mask id="mask0_211_1251" style="mask-type:luminance" maskUnits="userSpaceOnUse" x="0" y="0" width="80" height="81">
<path d="M0.233643 0.294434H79.5201V80.161H0.233643V0.294434Z" fill="#FFFFFE"/>
</mask>
<g mask="url(#mask0_211_1251)">
<path fill-rule="evenodd" clip-rule="evenodd" d="M9.63412 79.6737C7.96079 79.6737 6.54669 78.3599 6.41493 76.6832L0.711628 4.28475C0.640697 3.38594 0.948495 2.49016 1.55657 1.8273C2.16615 1.16271 3.03171 0.781494 3.93083 0.781494H75.8042C76.7036 0.781494 77.5688 1.16271 78.1783 1.82708C78.7862 2.48994 79.0946 3.38594 79.024 4.28475L73.3203 76.6832C73.1883 78.3601 71.7741 79.6737 70.101 79.6737H9.63412Z" fill="#FFFDFB"/>
</g>
<path fill-rule="evenodd" clip-rule="evenodd" d="M75.8058 1.26907C77.4078 1.26907 78.6695 2.64176 78.543 4.24674L72.8397 76.6454C72.7267 78.0806 71.5348 79.1874 70.1024 79.1874H9.63559C8.20299 79.1874 7.01114 78.0806 6.89829 76.6454L1.195 4.24674C1.0684 2.64176 2.33033 1.26907 3.93229 1.26907H75.8058ZM75.8058 0.294922H3.93229C2.89863 0.294922 1.9041 0.73329 1.20317 1.49724C0.503744 2.25946 0.149518 3.28989 0.230981 4.3238L5.93427 76.7223C6.08602 78.6506 7.71186 80.1615 9.63559 80.1615H70.1024C72.0261 80.1615 73.6521 78.6506 73.8039 76.7223L79.5072 4.3238C79.5885 3.28989 79.234 2.25946 78.5348 1.49724C77.8341 0.73329 76.8395 0.294922 75.8058 0.294922Z" fill="#0E0E0E"/>
<path fill-rule="evenodd" clip-rule="evenodd" d="M47.3458 64.8727C47.1302 64.8727 46.9625 64.6842 46.9863 64.4685C46.9902 64.432 46.991 64.42 46.991 64.42C47.0499 63.5132 46.7416 62.9816 45.7305 62.9816L42.603 62.9852L41.767 66.8232H46.2443C46.4747 66.8232 46.6458 67.0381 46.5961 67.2646L46.16 69.2436C46.1235 69.4098 45.9772 69.5274 45.8091 69.5274H41.1722C41.1722 69.5274 40.657 71.8789 40.6386 71.9803C40.4661 72.7394 40.9812 73.1336 41.3266 73.3029C41.3443 73.3113 41.3617 73.3195 41.3796 73.3275C41.5277 73.3944 41.609 73.5565 41.5737 73.7161L41.3356 74.7979C41.2993 74.963 41.1537 75.0809 40.9858 75.0809H35.5336C35.3049 75.0809 35.135 74.8676 35.1842 74.6425L37.5592 63.8051C37.8013 62.849 37.2457 62.46 36.8466 62.3066C36.8329 62.3016 36.8192 62.2968 36.8061 62.2918C36.6277 62.2281 36.5246 62.0404 36.5658 61.8539L36.7754 60.9001C36.8153 60.719 36.9749 60.5902 37.1593 60.5902H49.2816C49.5116 60.5902 49.6828 60.8048 49.633 61.0311L48.8488 64.5896C48.8121 64.7549 48.6667 64.8727 48.4984 64.8727H47.3458ZM29.1131 60.8979C29.1526 60.7182 29.3108 60.5902 29.4938 60.5902H35.4219C35.6527 60.5902 35.8244 60.8056 35.7741 61.0327L35.5732 61.9503C35.5385 62.1059 35.4106 62.2167 35.2534 62.2337C35.226 62.2367 35.2086 62.2385 35.2086 62.2385C34.762 62.2984 33.9554 62.4448 33.2943 62.9656L28.3666 67.093C28.3662 67.0934 28.3662 67.094 28.3664 67.0944L32.1586 72.2633C32.8936 73.2153 33.2561 73.3876 33.9951 73.399C34.2376 73.4038 34.4117 73.6328 34.3591 73.8709L34.1523 74.8003C34.1158 74.9642 33.9715 75.0809 33.8047 75.0809H30.8515C27.5811 75.0813 26.6784 73.6366 23.9543 68.6209C23.9535 68.6197 23.9521 68.6199 23.9519 68.6211L23.1566 72.2801C23.0359 72.8486 23.5086 73.1498 23.8552 73.2913C23.8702 73.2979 23.8853 73.3035 23.8992 73.3089C24.065 73.3744 24.1588 73.5516 24.1199 73.7261L23.8839 74.7987C23.8474 74.9634 23.7025 75.0809 23.5351 75.0809H16.6918C16.451 75.0809 16.2726 74.8564 16.3244 74.62L16.5258 73.7031C16.5621 73.5366 16.6999 73.4122 16.8678 73.3938C16.8747 73.3926 16.8813 73.392 16.8878 73.3912C17.515 73.3181 18.1729 72.9193 18.579 70.9648L20.1308 63.8095C20.3305 62.8562 19.8572 62.4937 19.4491 62.3325C19.4456 62.3313 19.4215 62.3226 19.3841 62.31C19.1971 62.2459 19.0875 62.0498 19.1305 61.8553L19.3414 60.8995C19.3811 60.7186 19.5404 60.5902 19.724 60.5902H26.233C26.4606 60.5902 26.63 60.8022 26.5808 61.0263L26.3734 61.9695C26.3433 62.1073 26.2419 62.2185 26.1077 62.2601C26.0916 62.2652 26.0748 62.2702 26.0581 62.2756C25.7536 62.3755 25.2717 62.6269 25.1238 63.238L24.2567 67.22C24.2565 67.2212 24.2579 67.2222 24.2591 67.2212L29.3078 62.9954C29.6106 62.7439 29.5335 62.4076 29.1863 62.273C29.1863 62.273 29.1853 62.2728 29.1841 62.2724C28.9868 62.2123 28.8686 62.0088 28.9134 61.8061L29.1131 60.8979ZM63.1235 60.8901C63.34 60.9502 63.4713 61.1711 63.4223 61.3922L62.6543 64.8729C62.6177 65.0387 62.4715 65.1569 62.3028 65.1569H61.2102C61.004 65.1569 60.8396 64.9826 60.8506 64.7751C60.8531 64.73 60.8535 64.7114 60.8535 64.7104C60.9059 63.5757 60.1942 62.727 58.5838 62.7272C55.9063 62.7278 53.959 64.9402 53.7038 67.8471C53.4405 70.8486 55.523 72.5928 58.4071 72.5924C59.8855 72.5922 61.0562 72.3048 61.7123 72.0955C61.9728 72.0127 62.227 72.2399 62.1757 72.5105L61.8366 74.309C61.8079 74.4626 61.6978 74.5874 61.5499 74.6345C60.959 74.8241 59.2996 75.2696 56.7599 75.27C50.7257 75.271 48.2773 71.7752 48.6566 68.2119C48.9935 65.0383 51.0781 60.3641 59.2984 60.3627C60.8724 60.3625 62.1317 60.6163 63.1235 60.8901ZM52.752 24.351C52.4268 26.093 52.0632 26.9673 51.8296 28.0421C51.5873 29.1596 51.1106 30.7936 50.648 30.8357C50.1807 30.9773 49.9929 30.4329 49.6929 30.8359C49.514 31.0757 49.3756 31.3925 49.2162 31.5968C49.1149 31.7308 49.0141 32.0291 49.0128 32.1917C49.0128 32.5062 48.9955 33.5217 48.7161 34.8533C48.295 36.8631 47.5296 38.3271 46.7341 39.2513C45.2108 41.0208 43.784 41.3056 43.6143 41.3959C43.3959 41.5123 43.0654 41.4436 42.9573 41.3913C42.8477 41.3412 42.7638 41.2084 42.5754 41.0228C42.3811 40.8399 42.3135 41.1181 42.3064 41.1892C42.2988 41.2557 42.4049 42.093 42.1929 42.4717C41.7363 43.2867 41.2969 43.3574 41.0522 44.3722C40.9699 44.7149 41.0274 45.2325 40.6209 44.9981C39.6275 44.4266 38.2041 42.8791 37.9094 41.3785C37.8198 40.9218 37.9037 40.4122 38.1803 39.5435C38.3401 39.0334 38.4537 38.4659 38.4537 38.139C38.4537 37.559 38.2286 37.0674 38.4537 37.017C38.8709 36.9238 39.0608 38.0112 39.2548 37.8985C39.5917 37.703 39.3414 36.5547 39.3414 36.5547C39.3414 36.5547 39.203 36.2282 38.6121 36.0884C38.2721 36.0084 38.1652 35.7521 38.5279 35.5728C38.7985 35.439 39.1128 35.2633 39.4794 35.3186C41.9288 35.6681 42.6337 35.1724 43.6244 34.903C43.8189 34.8513 43.9335 34.8283 44.0858 34.901C44.2371 34.9717 44.6437 35.1958 44.7266 35.4063C44.8103 35.6147 44.7235 36.4333 44.8533 37.0492C44.9858 37.6681 45.4175 37.1059 45.5245 36.8613C45.6332 36.6186 45.7442 36.0203 45.7666 35.8682C45.7904 35.7168 45.9165 35.0803 46.1432 34.8908C46.5921 34.5156 46.7499 34.0223 46.8225 33.8296C46.8967 33.6363 47.0136 33.0412 46.9928 32.1715C46.9714 31.3034 46.8156 31.2093 46.6076 31.023C46.4017 30.8369 46.1549 30.8728 45.63 30.389C45.1621 29.9564 44.7766 29.2579 44.4381 28.8179C44.0985 28.3794 43.5357 27.9079 42.8931 27.7495C42.2532 27.5941 42.5189 28.1887 42.5532 28.3556C42.5802 28.4734 42.7307 29.001 42.5171 29.1748C42.3082 29.3483 41.0136 30.2248 39.8589 29.9209C38.4828 29.5588 38.0074 28.7876 37.979 28.0421C37.9594 27.5141 38.2106 27.0046 38.5239 26.3993C38.7075 26.0453 38.7815 25.4545 38.8552 24.8878C38.9139 24.4343 39.0345 23.7787 39.1324 23.5456C39.203 23.3773 39.3688 23.1943 39.7421 23.2161C40.1114 23.2369 40.3535 23.422 40.4211 23.7427C40.6602 24.8576 41.0504 25.139 41.1825 25.2295C41.3163 25.3194 41.566 25.139 41.6633 25.0739C41.7619 25.0096 42.0123 24.7546 41.9336 24.6178C41.814 24.4059 41.748 24.2787 41.7216 24.1545C41.676 23.9424 41.9395 23.9682 41.9929 24.0105C42.4243 24.3528 42.831 24.383 43.5764 24.508C44.8803 24.7268 45.0675 24.2428 45.9631 24.3993C46.0793 24.4197 46.3002 24.5174 46.3724 24.6527C46.4317 24.7686 46.5407 25.0352 46.65 25.0819C46.7587 25.1242 47.0246 25.1408 47.1616 25.1656C47.3511 25.1977 47.6908 25.1766 47.6337 25.5294C47.4877 26.475 46.4041 26.7358 45.8977 26.8235C45.6887 26.8596 45.5927 26.877 45.5588 26.907C45.4492 27.004 45.445 27.3002 45.5713 27.4915C45.6607 27.6261 46.0704 27.6347 46.631 27.5262C47.2157 27.4132 47.7774 27.1288 48.2208 26.4327C48.6907 25.6954 48.9491 24.072 49.0036 23.7687C49.0568 23.4659 49.1773 22.9587 49.3431 22.8548C49.5069 22.751 50.2699 22.5175 50.3773 22.5365C50.5054 22.5589 50.5986 22.6212 50.6589 22.9183C50.719 23.2187 50.607 25.0074 50.6048 25.2772C50.6018 25.565 50.7481 25.5624 50.8298 25.5246C51.0079 25.442 51.4828 25.1232 51.5903 24.7548C51.6698 24.4812 51.4409 24.083 51.556 23.705C51.735 23.1152 51.9113 22.9583 52.0332 22.9699C52.7778 23.0416 52.9303 23.3701 52.752 24.3226M42.1999 33.9682C41.9233 34.0701 41.1238 34.2574 40.7367 34.2809C40.3461 34.3029 39.1082 34.3876 38.9002 34.3776C38.6452 34.3628 38.3006 34.2374 38.0204 33.9796C37.9639 33.9273 37.9027 33.7473 38.1313 33.7431C38.556 33.7356 39.2728 33.5075 41.7417 33.7178C42.0056 33.7397 42.1305 33.7513 42.1929 33.7575C42.2578 33.7641 42.4763 33.8696 42.1999 33.9682ZM36.128 32.9581C34.9262 32.9429 34.3702 32.492 34.2844 32.3572C34.2017 32.2268 34.3403 32.1254 34.4658 32.085C34.7497 31.9944 35.2538 31.7377 35.4584 31.5812C35.6638 31.4268 36.2303 31.0715 36.5161 30.8864C36.6507 30.7978 37.4234 30.4591 37.8753 30.7762C38.5532 31.2527 39.1866 31.571 40.3461 31.4997C41.0923 31.4536 41.0756 30.8473 41.6826 30.6542C42.231 30.4802 42.3363 30.3446 42.508 30.2434C42.7297 30.1988 42.8931 30.1425 43.1334 30.3678C43.438 30.6534 43.5482 30.8786 43.9008 31.2798C44.3832 31.8284 44.9154 32.084 45.0804 32.1166C45.2442 32.1505 45.3621 32.2847 45.3639 32.3402C45.3653 32.3946 45.2981 32.5653 44.8115 32.7053C43.1873 33.174 41.4288 32.8736 40.5234 32.5092C40.0638 32.3245 39.6172 32.2739 39.1128 32.5234C38.6048 32.7742 37.2495 32.9719 36.128 32.9581ZM35.5506 39.6862C34.63 39.7148 32.2236 38.252 31.1737 34.1C30.9014 33.032 31.57 32.1655 31.9847 32.0165C32.2299 31.9261 32.359 31.8975 32.4415 31.8863C32.5266 31.8755 32.9457 31.8781 32.9313 32.3548C32.9168 32.7412 33.2352 35.961 34.0696 37.1263C34.2766 37.4152 34.4682 37.4258 34.5632 37.1706C34.6504 36.9334 34.7953 36.6278 34.8419 36.5116C34.876 36.4277 35.1798 35.9602 35.2698 36.3151C35.4612 37.0694 35.9097 38.6212 36.0985 39.022C36.4112 39.6866 35.8958 39.6753 35.5506 39.6862ZM30.7133 27.2964C30.6486 27.0168 30.7721 26.5982 31.4261 27.0204C31.5308 27.0883 31.8379 27.2287 32.1794 27.3273C32.386 27.3875 32.5202 27.2998 32.5783 27.1484C32.639 26.9984 32.8085 26.6991 32.5176 26.5555C32.228 26.4097 31.5113 26.2843 31.1025 25.27C31.0289 25.0891 31.1527 24.8808 31.2677 24.8273C31.3841 24.775 31.5276 24.8013 31.6616 24.9295C31.7947 25.0553 32.0806 25.3329 32.3364 25.3431C32.5722 25.3545 32.6106 25.258 32.6584 25.2023C32.8563 24.9783 33.4242 24.1421 34.6014 24.2873C35.0866 24.3472 35.5345 24.4558 35.6979 24.4682C35.8143 24.4758 36.1373 24.4904 36.4467 24.4319C36.7992 24.3656 37.3255 24.2553 37.0679 24.5553C36.8585 24.7985 36.6836 24.8998 36.867 25.164C36.8763 25.1776 36.8859 25.1903 36.8946 25.2029C37.0602 25.4374 37.0645 25.7497 36.8964 25.982L36.8759 26.0119C36.6158 26.3522 36.0778 26.744 34.9659 26.8151C34.4592 26.8473 34.4275 26.8287 34.4166 27.1205C34.4127 27.2331 34.4142 27.2924 34.4303 27.3709C34.4608 27.5177 34.5542 27.5786 34.906 27.6005C35.161 27.6165 35.6277 27.566 35.6285 27.5658C35.7431 27.531 35.8784 27.6047 35.8046 27.7008C35.7931 27.7154 35.7465 27.7857 35.7382 27.7964C35.486 28.125 35.4072 28.4251 35.3839 28.6044C35.3638 28.7562 35.2768 28.8922 35.1433 28.9621C35.1413 28.9629 35.14 28.9637 35.138 28.9647C34.9756 29.0486 34.3197 29.1914 33.8031 29.6207C33.2892 30.0501 32.2149 30.4039 31.7531 29.8763C31.2907 29.3499 30.9141 28.1727 30.7133 27.2964ZM30.3795 22.095C30.2348 22.1106 30.1125 22.0217 29.9546 21.9873C29.7716 21.9472 29.6598 22.0033 29.5838 21.9021C29.5168 21.7976 29.5291 21.6994 29.6336 21.6594C29.7379 21.6199 29.814 21.6494 29.9195 21.6289C30.1343 21.5879 30.3958 21.3405 30.5895 21.6151C30.7146 21.7932 30.6074 22.0702 30.3795 22.095ZM28.5952 28.6935C28.1308 28.3822 28.1558 27.9742 28.0378 27.5732C27.7872 26.7223 27.5177 25.6974 27.2849 24.8261C27.1439 24.2993 27.108 23.0629 27.8183 23.0629C28.176 23.0629 28.4427 23.176 28.5571 23.5153C28.8117 24.2705 28.3323 24.1391 28.455 25.0314C28.5424 25.6624 28.662 26.2845 28.8599 27.3567C28.9509 27.8506 29.1107 29.0394 28.6796 28.7502M27.2276 16.5676C27.4866 15.8621 27.9571 15.2612 28.2785 14.8367C28.5726 14.4483 28.4336 13.9359 28.2835 13.4765C28.1861 13.0538 27.9162 12.6163 27.875 12.5004C27.8451 12.4195 27.8445 12.3541 27.8701 12.297C27.8893 12.284 27.9051 12.2734 27.925 12.2606L28.4935 12.2117C30.1206 12.0019 31.5556 11.4265 31.989 11.1815C32.2024 11.0609 32.429 10.9661 32.6608 10.8868C32.9325 10.7942 33.2134 10.7009 33.4948 10.6636C33.7076 10.6286 33.9596 10.5954 34.1753 10.5714C34.4969 10.5346 35.0055 10.7617 34.8927 10.829C34.6201 10.9935 33.3558 11.2882 32.2436 12.6256C31.5619 13.4434 31.4037 13.9493 31.1739 14.326C30.9413 14.704 30.7547 14.7938 30.4275 15.0785C30.2675 15.216 29.9415 15.5039 29.7817 15.9619C29.6203 16.4243 28.9991 18.0375 28.9182 20.5992C28.9093 20.8968 28.8579 21.2109 28.5781 21.3187C28.5781 21.3187 28.5765 21.3191 28.5759 21.3195C28.3461 21.4132 28.1597 21.5664 28.1213 21.3994C27.9738 20.8371 27.6315 19.6245 27.4884 18.8562C27.4429 18.614 27.3896 18.3744 27.3327 18.1345C27.1768 17.4801 27.1063 16.8986 27.2276 16.5676ZM32.1758 22.7971C31.88 22.9864 31.5901 23.2053 31.3696 23.3489C31.1005 23.5278 30.722 23.3563 30.8326 22.9765C30.887 22.7917 31.1475 22.3186 31.5851 22.2348C31.6424 22.2232 31.8591 22.1814 32.0408 22.1595C32.2527 22.1367 32.4784 22.1171 32.5934 22.1124C32.9037 22.0988 32.9374 22.3492 32.7272 22.4786C32.5876 22.5651 32.3723 22.6721 32.1758 22.7971ZM32.5839 23.3571C32.6632 23.292 32.6979 23.2918 32.9648 23.144C33.1547 23.0382 33.3713 22.9072 33.5902 22.7644C33.9865 22.5048 34.7368 22.2364 35.0555 22.2396C35.2857 22.2424 35.688 22.3424 35.902 22.5775C36.1256 22.8229 36.1867 23.1085 35.895 23.0589C35.6061 23.0088 35.2992 22.9303 34.743 23.0589C34.121 23.2019 33.6986 23.4422 33.3986 23.5774C33.0917 23.7205 32.781 23.7549 32.6781 23.7501C32.5791 23.7435 32.2966 23.5911 32.5839 23.3571ZM37.1775 28.9058C37.2501 29.04 37.2737 29.266 37.2529 29.3591C37.2315 29.4733 36.8329 29.6227 36.5014 29.1239C36.1704 28.6276 36.3257 28.0173 36.5226 27.7777C36.8345 27.393 37.3118 27.6724 37.2432 27.8148C37.0042 28.3081 37.1105 28.7722 37.1775 28.9058ZM47.1239 24.0347C47.0019 24.0968 46.5417 23.9412 46.4144 23.8693C46.16 23.7257 45.9788 23.6239 45.6362 23.3293C45.4089 23.136 44.9953 23.0452 44.6029 23.0639C44.3029 23.0787 44.0041 23.1436 43.7737 23.1977C43.5464 23.2528 43.5292 23.0452 43.5968 22.9665C43.665 22.8884 43.9839 22.5938 44.68 22.4103C44.7814 22.3835 44.9775 22.3923 45.0762 22.4031C45.3665 22.4359 45.7139 22.6304 45.9639 22.8748C46.2138 23.1212 46.7192 23.5548 46.9926 23.7225C47.1225 23.8012 47.4122 23.8863 47.1239 24.0347ZM46.8396 22.8752C46.8396 22.8752 46.4091 22.5791 46.2713 22.3382C46.2035 22.2192 46.2189 22.1197 46.4011 22.1181C47.0466 22.1116 47.6376 22.096 47.9254 22.3392C48.1348 22.5165 48.1405 22.8872 48.0378 23.1264C47.919 23.3996 47.6825 23.3221 47.5474 23.3026C47.4124 23.2822 46.8396 22.8752 46.8396 22.8752ZM50.0752 21.9021C49.9774 22.0083 49.891 21.9444 49.6895 21.9947C49.5325 22.0335 49.428 22.1227 49.2834 22.1098C49.0548 22.0888 48.9424 21.8138 49.0643 21.6335C49.2533 21.3555 49.5196 21.5977 49.7347 21.6357C49.8404 21.6542 49.9161 21.6231 50.0212 21.6608C50.1263 21.6984 50.1408 21.7964 50.0752 21.9021ZM31.4677 9.33705C31.5665 9.18334 31.8058 8.95886 32.0451 8.78482C32.2958 8.60427 33.5287 7.67384 34.6742 7.32251C34.8866 7.25886 34.9409 7.22661 35.0765 7.1937C35.2482 7.14867 35.3938 6.77633 35.0365 6.72199C34.6611 6.66745 34.5084 6.69211 34.3086 6.69862C34.1085 6.70316 34.0121 6.59514 34.1571 6.43667C34.3046 6.27735 34.5701 6.11478 35.0371 5.926C36.0568 5.51707 37.864 5.29844 38.7069 5.22309C39.8066 5.12763 39.9396 5.13109 40.6549 5.18653C41.3253 5.23739 41.8511 5.36316 42.1 5.40732C43.3618 5.63723 44.8159 6.22605 46.1085 6.94064C46.789 7.34719 47.4445 7.80113 48.0548 8.28019C49.9068 9.7343 52.034 12.5 51.7235 18.3254C51.6866 19.0132 51.6057 19.3946 51.5611 19.5607C51.5149 19.7293 51.2932 20.0172 51.1758 19.6362C50.7934 18.3899 50.301 16.1931 49.1813 14.4583C49.0256 14.2165 48.7849 14.239 48.8087 14.4938C48.8176 14.6001 48.8694 15.7113 48.842 15.9258C48.6606 17.3569 49.0958 16.7995 49.7371 18.3347C49.9358 18.8097 50.1912 19.7486 50.2552 20.354C50.2719 20.5062 50.2923 20.6829 50.2961 20.852C50.3004 21.0659 50.1951 21.0803 50.1951 21.0803C49.7563 21.0787 48.9917 20.869 48.5789 20.8558C48.1098 20.8407 44.8527 20.8075 43.6287 20.9048C42.4039 20.9986 41.7363 21.4428 41.0429 22.0145C40.9279 22.1094 40.7639 22.198 40.6717 22.2446C40.6253 22.2679 40.5736 22.2749 40.523 22.2659C40.4667 22.2559 40.3753 22.2388 40.2305 22.2084C39.9313 22.1465 39.5696 22.1219 39.2774 22.212C38.9855 22.3001 38.8479 22.376 38.5324 22.1916C38.0831 21.9272 37.3941 20.871 34.9895 20.8514C33.6269 20.8407 31.8399 20.8221 30.7878 20.8688C30.4478 20.8838 30.2703 20.9223 30.183 20.9201C30.1757 20.8798 30.1739 20.8237 30.1735 20.8129C30.1559 18.879 31.4088 19.3078 31.5524 18.8054C31.9103 17.5528 31.994 14.5399 34.166 12.6903C35.2044 11.8062 35.7443 11.7692 36.7078 11.7692C37.7464 11.7692 38.7594 12.0422 39.2762 12.3C39.6874 12.5046 39.8913 12.6416 40.0529 12.521C40.2143 12.3974 40.6465 12.0028 40.8246 11.8672C41.0036 11.7289 40.9362 11.5142 40.7673 11.3735C40.6049 11.241 39.0638 9.2892 36.7019 8.89587C36.1607 8.80517 35.761 8.72247 35.2694 8.72117C35.0037 8.71121 34.768 8.70991 34.1507 8.78524C33.2467 8.89587 32.0648 9.40264 31.3041 9.70658C31.2631 9.66263 31.4203 9.40589 31.4677 9.33705ZM30.6875 36.4623C30.7111 37.4612 31.2859 40.0984 34.6119 42.6009C35.9989 43.6441 36.635 44.1148 36.8178 44.2426L36.8171 44.2502C36.9085 44.3145 36.3253 44.2995 36.1649 44.3151C35.9043 44.3401 35.0176 44.259 34.3076 44.3914C33.6671 44.5104 33.7541 44.6658 33.6905 45.1325C33.6399 45.5023 33.6873 46.0885 33.6691 46.5883C33.6498 47.0878 33.6227 47.443 33.8329 47.6849C34.0401 47.9225 34.1709 47.9607 35.0499 47.9057C35.8861 47.8542 38.2013 47.8526 38.4803 47.7955C38.8384 47.7216 38.7813 47.8524 38.5748 48.2986C38.2213 49.063 37.0681 52.5676 35.276 55.8976C35.0248 56.3641 35.7312 56.1434 36.334 56.4362C37.424 56.9656 37.3883 57.1132 37.6746 56.5606C37.9851 55.9621 39.5577 52.2341 39.8014 51.0832C39.8328 50.9328 39.8968 50.8028 39.9214 51.0283C39.9388 51.1908 39.962 55.9002 39.8316 57.3858C39.8248 57.4644 39.8437 57.5465 39.8984 57.6032C39.9771 57.6845 40.0957 57.7185 40.1964 57.742C40.1974 57.742 40.1984 57.742 40.1994 57.742C40.7407 57.5599 41.3962 57.4261 41.9526 57.5187C42.0022 57.513 42.0492 57.5022 42.0944 57.4878C42.1241 57.4626 42.1511 57.4333 42.1701 57.3979C42.2136 57.3191 42.2358 57.2296 42.2552 57.1419C42.2568 57.1351 42.2584 57.1285 42.2596 57.1213C42.2867 56.9961 42.3089 56.8693 42.3224 56.7419C42.3302 56.6664 42.3355 56.5907 42.3403 56.5151C42.3462 56.4172 42.3506 56.3187 42.3538 56.2205C42.3581 56.1021 42.3609 55.9834 42.3627 55.8652C42.3645 55.7284 42.3655 55.5916 42.3655 55.4548C42.3655 55.3025 42.3639 55.1491 42.3617 54.9963C42.3591 54.8296 42.3553 54.8853 42.3506 54.7185C42.3454 54.5402 42.3389 54.3617 42.3314 54.1835C42.3234 53.9954 42.3143 53.8073 42.3034 53.619C42.2927 53.4235 42.2804 53.2282 42.2665 53.0325C42.2522 52.8318 42.2366 52.6309 42.2187 52.43C42.2011 52.2259 42.1818 52.022 42.1604 51.8181C42.1388 51.613 42.1154 51.4081 42.09 51.2034C42.0647 50.9993 42.0373 50.7958 42.0074 50.5925C41.978 50.3914 41.9463 50.1909 41.9116 49.9912C41.8779 49.7959 41.8414 49.7118 41.8019 49.5175C41.7635 49.3296 41.7224 49.1423 41.6776 48.9558C41.6348 48.7776 41.5884 48.6001 41.5378 48.4236C41.4974 48.2838 41.4547 48.1442 41.4089 48.0048C41.4008 47.9826 41.3633 47.7915 41.3685 47.7669C41.3824 47.6981 41.4684 47.7476 41.5624 47.7294C41.5624 47.7294 41.6064 47.721 41.6314 47.717C42.2265 47.6365 43.2625 47.6903 43.4965 47.7001C43.7269 47.7068 44.9045 47.8199 45.2364 47.8506C45.5658 47.8824 45.9659 47.9597 45.9483 46.9526C45.9435 46.6838 45.9427 46.524 45.9435 46.2736C45.9439 46.2398 45.9439 46.2047 45.9439 46.1715C45.9449 46.108 45.9451 46.0453 45.9457 45.9852C45.9467 45.9483 45.9467 45.9149 45.9477 45.8794C45.9479 45.845 45.9483 45.8111 45.9487 45.7781C45.9491 45.7474 45.9499 45.7158 45.9502 45.6871C45.9522 45.6325 45.9532 45.5802 45.9554 45.5323C45.9558 45.5173 45.9558 45.5035 45.9566 45.4892C45.957 45.4524 45.9586 45.4191 45.9604 45.3881C45.9608 45.3725 45.9613 45.3576 45.9623 45.3428C45.9633 45.3142 45.9651 45.2913 45.9661 45.2703C45.9669 45.2635 45.9669 45.2537 45.9679 45.2477C45.9707 45.2176 45.9721 45.1846 45.9732 45.1491C45.981 44.9034 45.9493 44.4533 45.4873 44.3335C44.9551 44.1995 44.0194 44.1673 43.1776 44.241C43.0602 44.2516 43.0343 44.241 43.0704 44.2079L43.0714 44.2003C43.2526 44.0703 44.4675 43.3941 45.8574 42.1412C47.3864 40.7598 48.1159 40.0255 48.5835 39.026C48.5835 39.026 50.2568 35.7565 50.1727 32.9877C50.1559 32.4285 50.2453 32.4754 50.5907 32.4856C50.6942 32.4886 51.0898 32.4609 51.3025 32.3187C52.0124 32.1557 52.6394 29.7152 52.6394 29.7152C52.6394 29.7152 53.7056 26.0087 53.9639 24.493C54.1939 23.1446 54.1396 22.3568 53.3227 21.9566L53.1861 21.8787C53.1246 21.8436 53.0941 21.7711 53.1127 21.7024C53.1284 21.6451 53.1454 21.5778 53.1537 21.5274C53.5529 20.1307 54.2665 18.3627 54.1047 17.6461C54.0767 17.4403 53.9033 17.3734 53.8434 17.3322C53.7601 17.2757 53.4436 16.9203 53.3556 16.6703C53.3427 16.6339 53.3377 16.5956 53.3344 16.5572C53.1093 13.9201 52.1786 10.6115 49.4069 7.73014C49.4028 7.72732 49.2164 7.555 49.1028 7.45066C48.8652 7.23526 48.5619 6.9677 48.2125 6.70381C47.4745 6.14811 46.8854 5.72164 45.6717 5.1114C45.5779 5.06485 44.6664 4.64705 43.3194 4.31519C43.1933 4.2812 43.0662 4.24809 42.9379 4.21778C42.74 4.17081 42.4309 4.11343 42.0787 4.06494C41.2487 3.93398 40.3271 3.86383 39.3688 3.92316V3.92358C39.2548 3.92921 39.1213 3.93614 39.086 3.93658C39.0289 3.93744 38.9686 3.94047 38.9101 3.94285C38.8451 3.94544 38.7815 3.94652 38.7136 3.94934C38.511 3.95908 38.2435 3.99004 37.9627 4.0303C37.5095 4.09634 37.0233 4.18768 36.7237 4.25847C36.3886 4.34051 35.9365 4.43555 35.3716 4.59857C35.1396 4.66674 34.906 4.73949 34.6738 4.81526C34.6084 4.83603 34.5431 4.85638 34.4785 4.87761C34.2277 4.96094 33.9754 5.04709 33.7206 5.13954C33.5358 5.2047 32.7504 5.54739 32.5795 5.62661C32.4976 5.66493 32.3848 5.71364 32.2628 5.76342C31.7092 5.94008 31.5928 6.26263 31.5728 6.43971C31.5599 6.5538 31.5344 6.66679 31.486 6.77049C30.6883 8.47806 28.8119 8.64345 28.0667 8.68091C27.872 8.69022 27.6997 8.719 27.7614 8.90973C27.9202 9.40004 28.7978 10.3142 29.335 10.4803C29.3272 10.5584 28.875 10.6571 28.78 10.6827C28.5636 10.7394 27.6745 10.6608 27.6303 10.6697C27.6266 10.6699 27.6236 10.6706 27.6198 10.6708C26.6113 10.7563 26.3016 11.4482 26.2112 11.7759C26.183 11.8776 26.1991 11.9872 26.257 12.0757C26.4795 12.4173 26.7137 12.6957 26.8901 13.1466C26.8921 13.1512 26.8941 13.1564 26.8957 13.1613C26.9415 13.28 26.9835 13.411 27.02 13.5575C27.0414 13.7508 27.1949 13.9521 27.0008 14.3312C26.6569 15.0025 25.7972 15.2123 25.6687 15.8792C25.4855 16.8276 25.8105 17.4483 26.1666 19.0154C26.4111 20.09 26.675 21.2005 26.864 21.7042C26.8739 21.7307 26.8584 21.7583 26.8308 21.7637C26.7551 21.7781 26.6242 21.8058 26.5802 21.8206C26.0821 22.0203 25.9257 22.4151 25.8688 23.1875C25.7438 24.895 26.9958 27.5298 27.3839 29.7869C27.5145 30.5483 27.8629 31.7689 28.4427 32.2685C28.5765 32.384 28.8565 32.4577 29.0298 32.4882C29.4831 32.5673 29.68 32.2785 29.7058 32.737C29.7113 32.8323 29.7434 33.0895 29.7476 33.2349C29.8253 34.8547 30.6875 36.4623 30.6875 36.4623Z" fill="#0E0E0E"/>
<path fill-rule="evenodd" clip-rule="evenodd" d="M20.5285 3.33228H4.61444C3.83742 3.33228 3.22528 3.9999 3.28609 4.78029L7.35884 56.4546H20.5285V3.33228Z" fill="#0E0E0E"/>
<path fill-rule="evenodd" clip-rule="evenodd" d="M75.1252 3.33228H59.2113V56.4546H72.3808L76.4534 4.78029C76.5146 3.9999 75.9023 3.33228 75.1252 3.33228Z" fill="#0E0E0E"/>
</svg>
