<svg width="253" height="249" viewBox="0 0 253 249" fill="none" xmlns="http://www.w3.org/2000/svg">
<mask id="mask0_437_450" style="mask-type:luminance" maskUnits="userSpaceOnUse" x="86" y="95" width="81" height="81">
<path d="M166.157 95.5598H86.843V175.44H166.157V95.5598Z" fill="white"/>
</mask>
<g mask="url(#mask0_437_450)">
<mask id="mask1_437_450" style="mask-type:luminance" maskUnits="userSpaceOnUse" x="86" y="95" width="81" height="81">
<path d="M166.156 95.5583H86.8423V175.439H166.156V95.5583Z" fill="white"/>
</mask>
<g mask="url(#mask1_437_450)">
<mask id="mask2_437_450" style="mask-type:luminance" maskUnits="userSpaceOnUse" x="86" y="95" width="81" height="81">
<path d="M86.8564 95.5723H166.143V175.439H86.8564V95.5723Z" fill="#FFFFFE"/>
</mask>
<g mask="url(#mask2_437_450)">
<path fill-rule="evenodd" clip-rule="evenodd" d="M96.2569 174.952C94.5835 174.952 93.1694 173.638 93.0377 171.961L87.3344 99.5626C87.2634 98.6638 87.5712 97.768 88.1793 97.1051C88.7889 96.4405 89.6545 96.0593 90.5536 96.0593H162.427C163.326 96.0593 164.192 96.4405 164.801 97.1049C165.409 97.7678 165.717 98.6638 165.647 99.5626L159.943 171.961C159.811 173.638 158.397 174.952 156.724 174.952H96.2569Z" fill="#FFFDFB"/>
</g>
<path fill-rule="evenodd" clip-rule="evenodd" d="M162.429 96.5469C164.031 96.5469 165.292 97.9196 165.166 99.5246L159.462 171.923C159.349 173.358 158.158 174.465 156.725 174.465H96.2583C94.8257 174.465 93.6339 173.358 93.521 171.923L87.8177 99.5246C87.6911 97.9196 88.9531 96.5469 90.555 96.5469H162.429ZM162.429 95.5728H90.555C89.5214 95.5728 88.5268 96.0111 87.8259 96.7751C87.1265 97.5373 86.7723 98.5677 86.8537 99.6016L92.557 172C92.7088 173.928 94.3346 175.439 96.2583 175.439H156.725C158.649 175.439 160.275 173.928 160.427 172L166.13 99.6016C166.211 98.5677 165.857 97.5373 165.158 96.7751C164.457 96.0111 163.462 95.5728 162.429 95.5728Z" fill="#0E0E0E"/>
<path fill-rule="evenodd" clip-rule="evenodd" d="M133.969 160.151C133.753 160.151 133.585 159.962 133.609 159.746C133.613 159.71 133.614 159.698 133.614 159.698C133.673 158.791 133.364 158.259 132.353 158.259L129.226 158.263L128.39 162.101H132.867C133.097 162.101 133.269 162.316 133.219 162.542L132.783 164.521C132.746 164.688 132.6 164.805 132.432 164.805H127.795C127.795 164.805 127.28 167.157 127.261 167.258C127.089 168.017 127.604 168.411 127.949 168.581C127.967 168.589 127.984 168.597 128.002 168.605C128.15 168.672 128.232 168.834 128.196 168.994L127.958 170.076C127.922 170.241 127.776 170.359 127.609 170.359H122.156C121.928 170.359 121.758 170.145 121.807 169.92L124.182 159.083C124.424 158.127 123.868 157.738 123.469 157.584C123.456 157.579 123.442 157.575 123.429 157.57C123.25 157.506 123.147 157.318 123.189 157.132L123.398 156.178C123.438 155.997 123.598 155.868 123.782 155.868H135.904C136.134 155.868 136.306 156.083 136.256 156.309L135.472 159.867C135.435 160.033 135.289 160.151 135.121 160.151H133.969ZM115.736 156.176C115.775 155.996 115.934 155.868 116.117 155.868H122.045C122.275 155.868 122.447 156.083 122.397 156.311L122.196 157.228C122.161 157.384 122.033 157.495 121.876 157.512C121.849 157.515 121.831 157.516 121.831 157.516C121.385 157.576 120.578 157.723 119.917 158.243L114.989 162.371C114.989 162.371 114.989 162.372 114.989 162.372L118.781 167.541C119.516 168.493 119.879 168.665 120.618 168.677C120.86 168.682 121.034 168.911 120.982 169.149L120.775 170.078C120.739 170.242 120.594 170.359 120.427 170.359H117.474C114.204 170.359 113.301 168.914 110.577 163.899C110.576 163.898 110.575 163.898 110.575 163.899L109.779 167.558C109.659 168.126 110.131 168.428 110.478 168.569C110.493 168.576 110.508 168.581 110.522 168.587C110.688 168.652 110.781 168.829 110.743 169.004L110.507 170.077C110.47 170.241 110.325 170.359 110.158 170.359H103.315C103.074 170.359 102.895 170.134 102.947 169.898L103.149 168.981C103.185 168.814 103.323 168.69 103.491 168.672C103.497 168.67 103.504 168.67 103.511 168.669C104.138 168.596 104.796 168.197 105.202 166.243L106.754 159.087C106.953 158.134 106.48 157.772 106.072 157.61C106.068 157.609 106.044 157.6 106.007 157.588C105.82 157.524 105.71 157.328 105.753 157.133L105.964 156.177C106.004 155.996 106.163 155.868 106.347 155.868H112.856C113.083 155.868 113.253 156.08 113.204 156.304L112.996 157.247C112.966 157.385 112.865 157.496 112.73 157.538C112.714 157.543 112.698 157.548 112.681 157.553C112.376 157.653 111.894 157.905 111.747 158.516L110.879 162.498C110.879 162.499 110.881 162.5 110.882 162.499L115.931 158.273C116.233 158.022 116.156 157.685 115.809 157.551C115.809 157.551 115.808 157.551 115.807 157.55C115.61 157.49 115.491 157.287 115.536 157.084L115.736 156.176ZM149.746 156.168C149.963 156.228 150.094 156.449 150.045 156.67L149.277 160.151C149.24 160.317 149.094 160.435 148.926 160.435H147.833C147.627 160.435 147.462 160.26 147.473 160.053C147.476 160.008 147.476 159.989 147.476 159.988C147.529 158.854 146.817 158.005 145.207 158.005C142.529 158.006 140.582 160.218 140.327 163.125C140.063 166.126 142.146 167.871 145.03 167.87C146.508 167.87 147.679 167.583 148.335 167.373C148.596 167.29 148.85 167.518 148.798 167.788L148.459 169.587C148.431 169.74 148.321 169.865 148.173 169.912C147.582 170.102 145.922 170.547 143.383 170.548C137.348 170.549 134.9 167.053 135.279 163.49C135.616 160.316 137.701 155.642 145.921 155.641C147.495 155.64 148.754 155.894 149.746 156.168ZM139.375 119.629C139.05 121.371 138.686 122.245 138.452 123.32C138.21 124.437 137.733 126.071 137.271 126.114C136.803 126.255 136.616 125.711 136.316 126.114C136.137 126.354 135.998 126.67 135.839 126.875C135.738 127.009 135.637 127.307 135.635 127.469C135.635 127.784 135.618 128.8 135.339 130.131C134.918 132.141 134.152 133.605 133.357 134.529C131.834 136.299 130.407 136.583 130.237 136.674C130.019 136.79 129.688 136.721 129.58 136.669C129.47 136.619 129.387 136.486 129.198 136.301C129.004 136.118 128.936 136.396 128.929 136.467C128.922 136.534 129.028 137.371 128.816 137.75C128.359 138.564 127.92 138.635 127.675 139.65C127.593 139.993 127.65 140.51 127.244 140.276C126.25 139.704 124.827 138.157 124.532 136.656C124.443 136.2 124.526 135.69 124.803 134.821C124.963 134.311 125.076 133.744 125.076 133.417C125.076 132.837 124.851 132.345 125.076 132.295C125.494 132.202 125.684 133.289 125.878 133.176C126.214 132.981 125.964 131.833 125.964 131.833C125.964 131.833 125.826 131.506 125.235 131.366C124.895 131.286 124.788 131.03 125.151 130.851C125.421 130.717 125.736 130.541 126.102 130.596C128.552 130.946 129.256 130.45 130.247 130.181C130.442 130.129 130.556 130.106 130.709 130.179C130.86 130.25 131.266 130.474 131.349 130.684C131.433 130.893 131.346 131.711 131.476 132.327C131.609 132.946 132.04 132.384 132.147 132.139C132.256 131.896 132.367 131.298 132.389 131.146C132.413 130.995 132.539 130.358 132.766 130.169C133.215 129.793 133.373 129.3 133.445 129.107C133.519 128.914 133.636 128.319 133.616 127.449C133.594 126.581 133.438 126.487 133.23 126.301C133.024 126.115 132.778 126.151 132.253 125.667C131.785 125.234 131.399 124.536 131.061 124.096C130.721 123.657 130.158 123.186 129.516 123.027C128.876 122.872 129.142 123.466 129.176 123.633C129.203 123.751 129.353 124.279 129.14 124.453C128.931 124.626 127.636 125.503 126.482 125.199C125.106 124.837 124.63 124.065 124.602 123.32C124.582 122.792 124.833 122.282 125.147 121.677C125.33 121.323 125.404 120.732 125.478 120.166C125.537 119.712 125.657 119.056 125.755 118.823C125.826 118.655 125.992 118.472 126.365 118.494C126.734 118.515 126.976 118.7 127.044 119.021C127.283 120.135 127.673 120.417 127.805 120.507C127.939 120.597 128.189 120.417 128.286 120.352C128.385 120.287 128.635 120.032 128.556 119.896C128.437 119.684 128.371 119.557 128.344 119.432C128.299 119.22 128.562 119.246 128.616 119.288C129.047 119.631 129.454 119.661 130.199 119.786C131.503 120.005 131.69 119.521 132.586 119.677C132.702 119.698 132.923 119.795 132.995 119.931C133.054 120.046 133.163 120.313 133.273 120.36C133.381 120.402 133.647 120.419 133.784 120.443C133.974 120.476 134.314 120.454 134.256 120.807C134.11 121.753 133.027 122.014 132.52 122.101C132.311 122.137 132.215 122.155 132.182 122.185C132.072 122.282 132.068 122.578 132.194 122.769C132.283 122.904 132.693 122.913 133.254 122.804C133.838 122.691 134.4 122.407 134.844 121.711C135.313 120.973 135.572 119.35 135.626 119.047C135.68 118.744 135.8 118.237 135.966 118.133C136.13 118.029 136.893 117.795 137 117.814C137.128 117.837 137.221 117.899 137.282 118.196C137.342 118.497 137.23 120.285 137.228 120.555C137.225 120.843 137.371 120.84 137.453 120.802C137.631 120.72 138.106 120.401 138.213 120.033C138.293 119.759 138.064 119.361 138.179 118.983C138.358 118.393 138.534 118.236 138.656 118.248C139.401 118.319 139.553 118.648 139.375 119.6M128.823 129.246C128.546 129.348 127.747 129.535 127.359 129.559C126.969 129.581 125.731 129.665 125.523 129.655C125.268 129.641 124.923 129.515 124.643 129.257C124.587 129.205 124.525 129.025 124.754 129.021C125.179 129.013 125.896 128.785 128.364 128.996C128.628 129.018 128.753 129.029 128.816 129.035C128.881 129.042 129.099 129.147 128.823 129.246ZM122.751 128.236C121.549 128.221 120.993 127.77 120.907 127.635C120.824 127.505 120.963 127.403 121.089 127.363C121.372 127.272 121.877 127.016 122.081 126.859C122.287 126.705 122.853 126.349 123.139 126.164C123.273 126.076 124.046 125.737 124.498 126.054C125.176 126.531 125.809 126.849 126.969 126.778C127.715 126.731 127.698 126.125 128.305 125.932C128.854 125.758 128.959 125.622 129.131 125.521C129.352 125.477 129.516 125.42 129.756 125.646C130.061 125.931 130.171 126.156 130.524 126.558C131.006 127.106 131.538 127.362 131.703 127.394C131.867 127.428 131.985 127.563 131.987 127.618C131.988 127.672 131.921 127.843 131.434 127.983C129.81 128.452 128.052 128.151 127.146 127.787C126.687 127.602 126.24 127.552 125.736 127.801C125.228 128.052 123.872 128.25 122.751 128.236ZM122.173 134.964C121.253 134.993 118.846 133.53 117.796 129.378C117.524 128.31 118.193 127.443 118.607 127.294C118.853 127.204 118.982 127.175 119.064 127.164C119.149 127.153 119.568 127.156 119.554 127.633C119.54 128.019 119.858 131.239 120.692 132.404C120.899 132.693 121.091 132.704 121.186 132.448C121.273 132.211 121.418 131.906 121.465 131.789C121.499 131.706 121.803 131.238 121.893 131.593C122.084 132.347 122.532 133.899 122.721 134.3C123.034 134.964 122.519 134.953 122.173 134.964ZM117.336 122.574C117.271 122.295 117.395 121.876 118.049 122.298C118.154 122.366 118.461 122.507 118.802 122.605C119.009 122.665 119.143 122.578 119.201 122.426C119.262 122.276 119.431 121.977 119.14 121.833C118.851 121.688 118.134 121.562 117.725 120.548C117.652 120.367 117.775 120.159 117.89 120.105C118.007 120.053 118.15 120.079 118.284 120.207C118.417 120.333 118.703 120.611 118.959 120.621C119.195 120.632 119.233 120.536 119.281 120.48C119.479 120.256 120.047 119.42 121.224 119.565C121.709 119.625 122.157 119.734 122.321 119.746C122.437 119.754 122.76 119.768 123.069 119.71C123.422 119.643 123.948 119.533 123.691 119.833C123.481 120.076 123.306 120.178 123.49 120.442C123.499 120.455 123.509 120.468 123.517 120.481C123.683 120.715 123.687 121.028 123.519 121.26L123.499 121.29C123.239 121.63 122.701 122.022 121.589 122.093C121.082 122.125 121.05 122.107 121.039 122.398C121.035 122.511 121.037 122.57 121.053 122.649C121.084 122.795 121.177 122.856 121.529 122.878C121.784 122.894 122.25 122.844 122.251 122.844C122.366 122.809 122.501 122.883 122.427 122.979C122.416 122.993 122.369 123.063 122.361 123.074C122.109 123.403 122.03 123.703 122.007 123.882C121.987 124.034 121.9 124.17 121.766 124.24C121.764 124.241 121.763 124.242 121.761 124.243C121.598 124.326 120.942 124.469 120.426 124.899C119.912 125.328 118.838 125.682 118.376 125.154C117.913 124.628 117.537 123.451 117.336 122.574ZM117.002 117.373C116.858 117.388 116.735 117.3 116.577 117.265C116.394 117.225 116.283 117.281 116.207 117.18C116.14 117.075 116.152 116.977 116.256 116.937C116.361 116.898 116.437 116.927 116.542 116.907C116.757 116.866 117.019 116.618 117.212 116.893C117.337 117.071 117.23 117.348 117.002 117.373ZM115.218 123.971C114.754 123.66 114.779 123.252 114.661 122.851C114.41 122 114.14 120.975 113.908 120.104C113.767 119.577 113.731 118.341 114.441 118.341C114.799 118.341 115.065 118.454 115.18 118.793C115.434 119.548 114.955 119.417 115.078 120.309C115.165 120.94 115.285 121.562 115.483 122.635C115.574 123.128 115.733 124.317 115.302 124.028M113.85 111.845C114.109 111.14 114.58 110.539 114.901 110.115C115.195 109.726 115.056 109.214 114.906 108.754C114.809 108.332 114.539 107.894 114.498 107.778C114.468 107.697 114.467 107.632 114.493 107.575C114.512 107.562 114.528 107.551 114.548 107.538L115.116 107.49C116.743 107.28 118.178 106.704 118.612 106.459C118.825 106.339 119.052 106.244 119.284 106.165C119.555 106.072 119.836 105.979 120.118 105.941C120.33 105.906 120.582 105.873 120.798 105.849C121.12 105.812 121.628 106.04 121.515 106.107C121.243 106.271 119.979 106.566 118.866 107.903C118.185 108.721 118.026 109.227 117.797 109.604C117.564 109.982 117.377 110.072 117.05 110.356C116.89 110.494 116.564 110.782 116.404 111.24C116.243 111.702 115.622 113.315 115.541 115.877C115.532 116.175 115.481 116.489 115.201 116.597C115.201 116.597 115.199 116.597 115.199 116.597C114.969 116.691 114.782 116.844 114.744 116.677C114.596 116.115 114.254 114.902 114.111 114.134C114.066 113.892 114.012 113.652 113.955 113.412C113.8 112.758 113.729 112.176 113.85 111.845ZM118.799 118.075C118.503 118.264 118.213 118.483 117.992 118.627C117.723 118.806 117.345 118.634 117.455 118.254C117.51 118.07 117.77 117.596 118.208 117.513C118.265 117.501 118.482 117.459 118.664 117.437C118.875 117.415 119.101 117.395 119.216 117.39C119.526 117.377 119.56 117.627 119.35 117.756C119.21 117.843 118.995 117.95 118.799 118.075ZM119.207 118.635C119.286 118.57 119.321 118.57 119.588 118.422C119.777 118.316 119.994 118.185 120.213 118.042C120.609 117.783 121.36 117.514 121.678 117.517C121.908 117.52 122.311 117.62 122.525 117.855C122.748 118.101 122.809 118.386 122.518 118.337C122.229 118.287 121.922 118.208 121.366 118.337C120.744 118.48 120.321 118.72 120.021 118.855C119.714 118.998 119.404 119.033 119.301 119.028C119.202 119.021 118.919 118.869 119.207 118.635ZM123.8 124.184C123.873 124.318 123.896 124.544 123.876 124.637C123.854 124.751 123.456 124.901 123.124 124.402C122.793 123.905 122.948 123.295 123.145 123.056C123.457 122.671 123.935 122.95 123.866 123.093C123.627 123.586 123.733 124.05 123.8 124.184ZM133.747 119.313C133.625 119.375 133.164 119.219 133.037 119.147C132.783 119.004 132.602 118.902 132.259 118.607C132.032 118.414 131.618 118.323 131.226 118.342C130.926 118.357 130.627 118.421 130.396 118.476C130.169 118.531 130.152 118.323 130.22 118.244C130.288 118.166 130.607 117.872 131.303 117.688C131.404 117.661 131.6 117.67 131.699 117.681C131.989 117.714 132.337 117.908 132.587 118.153C132.837 118.399 133.342 118.833 133.615 119C133.745 119.079 134.035 119.164 133.747 119.313ZM133.462 118.153C133.462 118.153 133.032 117.857 132.894 117.616C132.826 117.497 132.842 117.398 133.024 117.396C133.669 117.389 134.26 117.374 134.548 117.617C134.757 117.794 134.763 118.165 134.661 118.404C134.542 118.677 134.305 118.6 134.17 118.58C134.035 118.56 133.462 118.153 133.462 118.153ZM136.698 117.18C136.6 117.286 136.514 117.222 136.312 117.273C136.155 117.311 136.051 117.401 135.906 117.388C135.678 117.367 135.565 117.092 135.687 116.911C135.876 116.633 136.142 116.876 136.357 116.913C136.463 116.932 136.539 116.901 136.644 116.939C136.749 116.976 136.764 117.074 136.698 117.18ZM118.09 104.615C118.189 104.461 118.429 104.237 118.668 104.063C118.919 103.882 120.151 102.952 121.297 102.6C121.509 102.537 121.564 102.504 121.699 102.472C121.871 102.427 122.017 102.054 121.659 102C121.284 101.945 121.131 101.97 120.931 101.976C120.731 101.981 120.635 101.873 120.78 101.715C120.927 101.555 121.193 101.393 121.66 101.204C122.68 100.795 124.487 100.576 125.33 100.501C126.429 100.405 126.562 100.409 127.278 100.464C127.948 100.515 128.474 100.641 128.723 100.685C129.985 100.915 131.439 101.504 132.731 102.218C133.412 102.625 134.067 103.079 134.678 103.558C136.53 105.012 138.657 107.778 138.346 113.603C138.309 114.291 138.228 114.672 138.184 114.839C138.138 115.007 137.916 115.295 137.799 114.914C137.416 113.668 136.924 111.471 135.804 109.736C135.648 109.494 135.408 109.517 135.431 109.772C135.44 109.878 135.492 110.989 135.465 111.204C135.283 112.635 135.719 112.077 136.36 113.613C136.559 114.088 136.814 115.026 136.878 115.632C136.895 115.784 136.915 115.961 136.919 116.13C136.923 116.344 136.818 116.358 136.818 116.358C136.379 116.357 135.614 116.147 135.202 116.134C134.733 116.118 131.475 116.085 130.251 116.183C129.027 116.276 128.359 116.721 127.666 117.292C127.551 117.387 127.387 117.476 127.294 117.522C127.248 117.546 127.196 117.553 127.146 117.544C127.089 117.534 126.998 117.517 126.853 117.486C126.554 117.424 126.192 117.4 125.9 117.49C125.608 117.578 125.471 117.654 125.155 117.469C124.706 117.205 124.017 116.149 121.612 116.129C120.25 116.118 118.463 116.1 117.411 116.147C117.07 116.162 116.893 116.2 116.806 116.198C116.798 116.158 116.797 116.102 116.796 116.091C116.779 114.157 118.032 114.586 118.175 114.083C118.533 112.831 118.617 109.818 120.789 107.968C121.827 107.084 122.367 107.047 123.331 107.047C124.369 107.047 125.382 107.32 125.899 107.578C126.31 107.782 126.514 107.919 126.676 107.799C126.837 107.675 127.269 107.281 127.447 107.145C127.626 107.007 127.559 106.792 127.39 106.651C127.228 106.519 125.687 104.567 123.325 104.174C122.783 104.083 122.384 104 121.892 103.999C121.626 103.989 121.391 103.988 120.773 104.063C119.869 104.174 118.688 104.68 117.927 104.984C117.886 104.94 118.043 104.684 118.09 104.615ZM117.31 131.74C117.334 132.739 117.909 135.376 121.235 137.879C122.622 138.922 123.258 139.393 123.441 139.52L123.44 139.528C123.531 139.592 122.948 139.577 122.788 139.593C122.527 139.618 121.64 139.537 120.93 139.669C120.29 139.788 120.377 139.944 120.313 140.41C120.263 140.78 120.31 141.366 120.292 141.866C120.273 142.366 120.245 142.721 120.456 142.963C120.663 143.2 120.794 143.238 121.673 143.184C122.509 143.132 124.824 143.13 125.103 143.073C125.461 142.999 125.404 143.13 125.198 143.576C124.844 144.341 123.691 147.845 121.899 151.175C121.647 151.642 122.354 151.421 122.957 151.714C124.047 152.243 124.011 152.391 124.297 151.838C124.608 151.24 126.18 147.512 126.424 146.361C126.456 146.211 126.52 146.081 126.544 146.306C126.562 146.469 126.585 151.178 126.454 152.664C126.448 152.742 126.466 152.824 126.521 152.881C126.6 152.962 126.718 152.996 126.819 153.02C126.82 153.02 126.821 153.02 126.822 153.02C127.363 152.838 128.019 152.704 128.575 152.797C128.625 152.791 128.672 152.78 128.717 152.766C128.747 152.74 128.774 152.711 128.793 152.676C128.836 152.597 128.859 152.507 128.878 152.42C128.88 152.413 128.881 152.406 128.882 152.399C128.909 152.274 128.932 152.147 128.945 152.02C128.953 151.944 128.958 151.869 128.963 151.793C128.969 151.695 128.973 151.597 128.976 151.498C128.981 151.38 128.984 151.261 128.985 151.143C128.987 151.006 128.988 150.869 128.988 150.733C128.988 150.58 128.987 150.427 128.984 150.274C128.982 150.107 128.978 150.163 128.973 149.996C128.968 149.818 128.962 149.64 128.954 149.461C128.946 149.273 128.937 149.085 128.926 148.897C128.915 148.701 128.903 148.506 128.889 148.31C128.875 148.11 128.859 147.909 128.841 147.708C128.824 147.504 128.805 147.3 128.783 147.096C128.762 146.891 128.738 146.686 128.713 146.481C128.687 146.277 128.66 146.074 128.63 145.87C128.601 145.669 128.569 145.469 128.534 145.269C128.501 145.074 128.464 144.99 128.425 144.795C128.386 144.607 128.345 144.42 128.3 144.234C128.258 144.055 128.211 143.878 128.161 143.701C128.12 143.562 128.077 143.422 128.032 143.283C128.024 143.26 127.986 143.069 127.991 143.045C128.005 142.976 128.091 143.025 128.185 143.007C128.185 143.007 128.229 142.999 128.254 142.995C128.849 142.914 129.885 142.968 130.119 142.978C130.35 142.985 131.527 143.098 131.859 143.128C132.189 143.16 132.589 143.237 132.571 142.23C132.566 141.962 132.565 141.802 132.566 141.551C132.567 141.518 132.567 141.483 132.567 141.449C132.568 141.386 132.568 141.323 132.568 141.263C132.569 141.226 132.569 141.193 132.57 141.157C132.571 141.123 132.571 141.089 132.571 141.056C132.572 141.025 132.573 140.994 132.573 140.965C132.575 140.91 132.576 140.858 132.578 140.81C132.579 140.795 132.579 140.781 132.579 140.767C132.58 140.73 132.581 140.697 132.583 140.666C132.583 140.65 132.584 140.635 132.585 140.621C132.586 140.592 132.588 140.569 132.589 140.548C132.59 140.541 132.59 140.532 132.591 140.526C132.593 140.495 132.595 140.462 132.596 140.427C132.604 140.181 132.572 139.731 132.11 139.611C131.578 139.477 130.642 139.445 129.8 139.519C129.683 139.529 129.657 139.519 129.693 139.486L129.694 139.478C129.875 139.348 131.09 138.672 132.48 137.419C134.009 136.038 134.739 135.303 135.206 134.304C135.206 134.304 136.88 131.034 136.795 128.266C136.779 127.706 136.868 127.753 137.213 127.763C137.317 127.766 137.713 127.739 137.925 127.597C138.635 127.434 139.262 124.993 139.262 124.993C139.262 124.993 140.328 121.287 140.587 119.771C140.817 118.422 140.762 117.635 139.945 117.234L139.809 117.157C139.747 117.121 139.717 117.049 139.735 116.98C139.751 116.923 139.768 116.856 139.776 116.805C140.176 115.408 140.889 113.641 140.727 112.924C140.699 112.718 140.526 112.651 140.466 112.61C140.383 112.554 140.066 112.198 139.978 111.948C139.965 111.912 139.96 111.873 139.957 111.835C139.732 109.198 138.801 105.889 136.03 103.008C136.026 103.005 135.839 102.833 135.726 102.728C135.488 102.513 135.185 102.246 134.835 101.982C134.097 101.426 133.508 100.999 132.294 100.389C132.201 100.343 131.289 99.9249 129.942 99.593C129.816 99.559 129.689 99.5259 129.561 99.4956C129.363 99.4486 129.054 99.3913 128.701 99.3428C127.871 99.2118 126.95 99.1417 125.992 99.201V99.2014C125.878 99.207 125.744 99.214 125.709 99.2144C125.652 99.2153 125.591 99.2183 125.533 99.2207C125.468 99.2233 125.404 99.2244 125.336 99.2272C125.134 99.2369 124.866 99.2679 124.585 99.3081C124.132 99.3742 123.646 99.4655 123.346 99.5363C123.011 99.6183 122.559 99.7134 121.994 99.8764C121.762 99.9446 121.529 100.017 121.297 100.093C121.231 100.114 121.166 100.134 121.101 100.155C120.85 100.239 120.598 100.325 120.343 100.417C120.159 100.483 119.373 100.825 119.202 100.904C119.12 100.943 119.008 100.991 118.886 101.041C118.332 101.218 118.216 101.54 118.196 101.718C118.183 101.832 118.157 101.945 118.109 102.048C117.311 103.756 115.435 103.921 114.689 103.959C114.495 103.968 114.322 103.997 114.384 104.188C114.543 104.678 115.421 105.592 115.958 105.758C115.95 105.836 115.498 105.935 115.403 105.961C115.186 106.017 114.297 105.939 114.253 105.948C114.249 105.948 114.246 105.948 114.243 105.949C113.234 106.034 112.924 106.726 112.834 107.054C112.806 107.155 112.822 107.265 112.88 107.354C113.102 107.695 113.336 107.974 113.513 108.424C113.515 108.429 113.517 108.434 113.518 108.439C113.564 108.558 113.606 108.689 113.643 108.835C113.664 109.029 113.818 109.23 113.624 109.609C113.28 110.28 112.42 110.49 112.291 111.157C112.108 112.105 112.433 112.726 112.789 114.293C113.034 115.368 113.298 116.478 113.487 116.982C113.497 117.009 113.481 117.036 113.454 117.042C113.378 117.056 113.247 117.084 113.203 117.098C112.705 117.298 112.548 117.693 112.492 118.465C112.367 120.173 113.619 122.808 114.007 125.065C114.137 125.826 114.486 127.047 115.065 127.546C115.199 127.662 115.479 127.735 115.653 127.766C116.106 127.845 116.303 127.556 116.329 128.015C116.334 128.11 116.366 128.367 116.37 128.513C116.448 130.133 117.31 131.74 117.31 131.74Z" fill="#0E0E0E"/>
<path fill-rule="evenodd" clip-rule="evenodd" d="M107.151 98.6101H91.2372C90.4602 98.6101 89.848 99.2777 89.9088 100.058L93.9816 151.732H107.151V98.6101Z" fill="#0E0E0E"/>
<path fill-rule="evenodd" clip-rule="evenodd" d="M161.748 98.6101H145.834V151.732H159.004L163.076 100.058C163.137 99.2777 162.525 98.6101 161.748 98.6101Z" fill="#0E0E0E"/>
</g>
</g>
</svg>
