<svg width="253" height="240" viewBox="0 0 253 240" fill="none" xmlns="http://www.w3.org/2000/svg">
<path fill-rule="evenodd" clip-rule="evenodd" d="M80.5818 124.079C80.5381 124.062 56.9451 113.099 56.9451 113.099C59.6273 111.301 62.8652 110.245 66.3555 110.245C74.531 110.245 81.3462 116.007 82.8266 123.646V123.647C82.8251 123.69 82.7534 125.054 80.5818 124.079ZM66.3555 143.258C57.4282 143.258 50.1405 136.394 49.6252 127.721C49.611 127.462 49.8302 127.067 50.2969 127.067C50.4097 127.067 50.5367 127.09 50.68 127.144C55.3098 128.88 77.9144 137.433 77.9333 137.452C78.6604 137.752 79.173 137.396 79.173 137.396C76.0915 140.982 71.5054 143.258 66.3555 143.258Z" fill="#0E0E0E"/>
<path fill-rule="evenodd" clip-rule="evenodd" d="M79.1613 134.832C79.0391 134.798 48.0325 121.787 47.7527 121.666C46.6469 121.223 45.9272 122.259 46.6379 123.218C46.7317 123.337 49.1647 126.501 49.1647 126.501C49.1647 126.501 48.6399 125.59 48.6052 125.195C48.5614 124.79 48.8191 124.358 49.6251 124.689C50.4275 125.029 78.1055 136.274 78.1808 136.312C79.0391 136.613 79.8167 136.588 80.1755 136.091C80.7339 135.291 81.1854 134.535 81.5985 133.635C81.324 134.091 80.4347 135.324 79.1613 134.832M83.0115 124.902V124.902C82.9746 125.312 82.6943 127.13 80.6834 126.172C80.333 126.002 39.8528 107.161 39.2912 106.894C38.5204 106.523 36.8356 107.135 37.7091 108.822C37.7291 108.869 40.9528 114.039 40.917 113.96C40.8664 113.885 40.3886 112.723 40.1742 111.664C40.0693 111.24 40.4492 110.842 41.0398 111.107C41.1083 111.128 80.4863 128.508 80.775 128.636C81.6175 129.038 83.0115 128.842 83.0931 127.763C83.1026 127.428 83.1132 127.103 83.1132 126.754C83.1132 126.137 83.0879 125.514 83.0115 124.902M80.2783 131.096V131.096C80.1919 131.064 43.9959 114.683 43.6039 114.509C42.6087 114.051 41.1784 115.044 41.9602 116.258C42.0909 116.451 44.93 120.571 44.93 120.571C44.93 120.571 44.0939 119.195 44.1835 118.542C44.2298 118.084 44.6724 117.885 44.9959 118.028C45.3109 118.142 79.3758 132.842 79.5544 132.931C80.7872 133.467 81.8098 133.085 82.2044 132.182C82.4636 131.418 82.6754 130.617 82.8334 129.808C82.6754 130.21 81.9494 131.752 80.2783 131.096" fill="#0E0E0E"/>
<path d="M170.924 120.56C173.917 120.572 175.154 122.79 175.533 124.813C175.671 125.477 175.754 127.018 175.754 129.421V137.595C175.754 138.621 175.768 139.27 175.815 139.529C175.873 139.775 175.938 139.987 176.049 140.098C176.143 140.237 176.732 140.332 176.997 139.762L177.835 140.563C177.339 141.738 176.875 142.538 176.352 143.053C175.828 143.576 174.963 143.798 174.28 143.798C173.492 143.798 172.882 143.495 172.426 142.907C171.978 142.316 171.701 141.421 171.605 140.21C170.99 142.346 169.812 143.767 167.678 143.775C165.541 143.788 164.147 141.618 164.147 139.089C164.147 137.387 164.761 136.195 165.673 134.835C166.578 133.475 168.56 131.664 171.605 129.421V127.169C171.605 125.497 171.553 124.436 171.434 123.993C171.211 123.185 170.882 122.354 169.735 122.356C169.091 122.356 168.559 122.597 168.132 123.05C166.718 124.846 168.253 125.994 168.579 126.583C168.791 126.983 168.902 127.3 168.902 127.72C168.901 128.898 167.954 129.851 166.781 129.851C165.61 129.851 164.454 129.096 164.517 127.202C164.631 125.691 164.881 124.824 165.436 123.784C165.996 122.743 166.781 121.948 167.79 121.382C168.802 120.829 169.842 120.56 170.924 120.56ZM159.022 119.917H157.802C157.573 117.536 157.697 115.697 156.831 114.427C156.221 113.486 155.232 113.027 153.891 113.027H149.946V120.819C153.36 120.782 157.154 121.159 159.351 124.061C161.874 127.361 161.612 137.442 159.189 140.594C157.697 142.511 155.526 143.485 152.676 143.485H142.469V142.264C143.41 142.264 144.024 142.134 144.367 141.843C144.691 141.575 144.928 141.208 145.052 140.752C145.194 140.317 145.256 139.224 145.256 137.475V116.838C145.256 115.101 145.194 114.324 145.052 113.875C144.928 113.419 144.691 113.066 144.361 112.793C144.021 112.519 143.391 112.38 142.469 112.38V111.17H159.022V119.917ZM99.0208 111.17L104.673 132.469L110.134 111.17H118.312V112.38H117.656C117.07 112.38 116.584 112.548 116.233 112.883C115.986 113.122 115.781 113.492 115.635 114C115.531 114.39 115.47 115.38 115.47 116.988V137.617C115.47 139.274 115.531 140.303 115.635 140.719C115.744 141.124 115.972 141.496 116.299 141.801C116.642 142.116 117.087 142.264 117.656 142.264H118.312V143.483H107.812V142.264H108.461C109.062 142.264 109.523 142.101 109.899 141.775C110.134 141.541 110.345 141.167 110.482 140.612C110.591 140.244 110.639 139.237 110.639 137.617V116.384L103.541 143.483H102.581L95.2229 115.932L95.218 136.645C95.218 138.232 95.2355 139.215 95.2834 139.576C95.422 140.358 95.6968 141.017 96.134 141.517C96.5507 142.021 97.2261 142.264 98.1594 142.264V143.483H90.8157V142.264H91.0198C91.467 142.28 91.887 142.161 92.261 141.916C92.6566 141.677 92.9495 141.352 93.136 140.94C93.3461 140.522 93.4925 139.928 93.6057 139.192C93.6215 139.02 93.634 138.216 93.634 136.764V116.988C93.634 115.353 93.5832 114.324 93.47 113.917C93.3641 113.51 93.1356 113.165 92.8059 112.848C92.4592 112.538 92.0196 112.38 91.4543 112.38H90.8157V111.17H99.0208ZM139.41 119.917H138.187C137.954 117.536 138.088 115.697 137.218 114.427C136.611 113.486 135.615 113.027 134.273 113.027H132.818V137.617C132.818 139.274 132.886 140.303 132.984 140.719C133.111 141.124 133.333 141.496 133.656 141.801C133.988 142.116 134.437 142.264 135.02 142.264H135.682V143.483H125.164V142.264H125.823C126.41 142.264 126.876 142.101 127.234 141.771C127.491 141.54 127.696 141.167 127.838 140.612C127.948 140.244 128.01 139.237 128.01 137.617V113.027H126.554C125.204 113.027 124.213 113.486 123.604 114.427C122.739 115.697 122.857 117.536 122.631 119.917H121.414V111.17H139.41V119.917ZM187.27 122.356C186.747 122.476 186.399 122.758 186.201 123.199C186.002 123.646 185.902 124.69 185.902 126.365V131.406H190.262V126.365C190.262 124.69 190.172 123.647 189.987 123.199C189.786 122.758 189.438 122.476 188.903 122.356V121.168H195.925V122.356C195.336 122.448 194.926 122.758 194.672 123.274C194.507 123.619 194.414 124.651 194.414 126.365V138.298C194.414 140.004 194.507 141.027 194.672 141.379C194.926 141.904 195.336 142.193 195.925 142.292V143.483H188.903V142.292C189.438 142.179 189.786 141.904 189.987 141.457C190.172 141.013 190.262 139.956 190.262 138.298V132.915H185.902V138.298C185.902 139.956 186.002 141.013 186.201 141.457C186.399 141.904 186.747 142.179 187.27 142.292V143.483H180.269V142.292C180.854 142.193 181.256 141.904 181.52 141.379C181.684 141.027 181.759 140.004 181.759 138.298V126.365C181.759 124.651 181.684 123.619 181.52 123.274C181.256 122.757 180.854 122.448 180.269 122.356V121.168H187.27V122.356ZM204.452 132.098C204.481 132.053 208.731 125.43 208.921 125.112C209.452 124.212 209.707 122.414 207.564 122.414V121.207H213.768V122.414C213.18 122.459 212.66 122.689 212.215 123.103C211.083 123.979 208.102 128.781 208.091 128.798L211.354 136.472C212.677 139.577 213.456 140.995 213.697 141.379C214.031 141.924 214.459 142.228 214.972 142.298V143.483H207.807V142.298C208.129 142.298 208.366 142.193 208.505 141.998C208.637 141.808 208.715 141.611 208.715 141.379C208.715 141.017 208.51 140.347 208.091 139.357L205.36 133.228L204.452 134.641V138.314C204.452 140.783 204.554 141.071 204.762 141.496C204.953 141.903 205.36 142.178 205.974 142.298V143.483H198.812V142.298C199.4 142.193 199.817 141.901 200.057 141.379C200.227 141.027 200.314 140.012 200.314 138.314V116.335C200.314 114.655 200.218 113.609 200.018 113.199C199.833 112.793 199.431 112.513 198.812 112.38V111.17H204.452V132.098ZM149.946 137.925L149.937 139.127C149.937 139.973 150.056 140.621 150.325 141.067C150.601 141.501 151.012 141.717 151.543 141.717C152.334 141.717 153.058 141.439 153.729 140.868C154.395 140.308 154.901 139.485 155.261 138.421C156.247 135.477 156.229 128.866 155.147 125.883C154.712 124.689 154.105 123.854 153.353 123.368C152.585 122.893 151.445 122.678 149.946 122.689V137.925ZM171.605 131.015C170.415 132.151 169.004 134.262 168.425 135.539C167.269 138.02 168.412 139.524 169.74 139.524C170.403 139.524 171.113 139.148 171.605 138.331V131.015Z" fill="#0E0E0E"/>
</svg>
