<svg width="178" height="38" viewBox="0 0 178 38" fill="none" xmlns="http://www.w3.org/2000/svg">
<path fill-rule="evenodd" clip-rule="evenodd" d="M43.5262 17.8007C43.4825 17.7838 19.8896 6.82129 19.8896 6.82129C22.5717 5.02311 25.8097 3.9668 29.3 3.9668C37.4755 3.9668 44.2907 9.72881 45.7711 17.368V17.3696C45.7695 17.412 45.6979 18.7759 43.5262 17.8007ZM29.3 36.9797C20.3727 36.9797 13.0849 30.1163 12.5697 21.4436C12.5555 21.1843 12.7746 20.7892 13.2414 20.7892C13.3541 20.7892 13.4811 20.8126 13.6244 20.8661C18.2543 22.6023 40.8588 31.1557 40.8778 31.1742C41.6048 31.4744 42.1175 31.118 42.1175 31.118C39.036 34.7043 34.4498 36.9797 29.3 36.9797Z" fill="#0E0E0E"/>
<path fill-rule="evenodd" clip-rule="evenodd" d="M42.1058 28.5537C41.9835 28.5197 10.9769 15.5093 10.6972 15.3884C9.59135 14.9456 8.87169 15.9808 9.58239 16.94C9.67617 17.0588 12.1091 20.223 12.1091 20.223C12.1091 20.223 11.5844 19.312 11.5496 18.9174C11.5059 18.5123 11.7635 18.0807 12.5696 18.4116C13.3719 18.7509 41.05 29.9966 41.1253 30.0342C41.9835 30.3349 42.7611 30.3105 43.1199 29.8136C43.6784 29.0134 44.1299 28.2567 44.5429 27.3574C44.2684 27.8134 43.3791 29.0458 42.1058 28.5537M45.9559 18.6246V18.6246C45.9191 19.034 45.6388 20.8523 43.6278 19.8946C43.2775 19.7244 2.79727 0.883037 2.23566 0.615776C1.46489 0.245641 -0.219942 0.857053 0.653557 2.5444C0.673577 2.5916 3.89731 7.76076 3.86148 7.68228C3.8109 7.60751 3.33306 6.44514 3.11864 5.38617C3.0138 4.96248 3.39365 4.56424 3.98423 4.82885C4.05272 4.85059 43.4308 22.2305 43.7195 22.3583C44.5619 22.7597 45.9559 22.5646 46.0376 21.4855C46.0471 21.1498 46.0576 20.8247 46.0576 20.4758C46.0576 19.8596 46.0323 19.236 45.9559 18.6246M43.2227 24.8183V24.8183C43.1363 24.7865 6.94037 8.40561 6.5484 8.23115C5.5532 7.77299 4.12283 8.76567 4.90466 9.98001C5.03532 10.1736 7.87445 14.2933 7.87445 14.2933C7.87445 14.2933 7.03836 12.9167 7.12792 12.2645C7.17428 11.8058 7.61683 11.6069 7.94031 11.7506C8.25536 11.8646 42.3203 26.564 42.4989 26.6531C43.7317 27.1892 44.7543 26.8068 45.1489 25.9038C45.4081 25.1402 45.6198 24.3389 45.7779 23.5302C45.6198 23.9322 44.8939 25.4737 43.2227 24.8183" fill="#0E0E0E"/>
<path d="M133.869 14.2822C136.862 14.2941 138.099 16.5117 138.478 18.5352C138.616 19.1991 138.699 20.7398 138.699 23.1436V31.3174C138.699 32.3435 138.712 32.9922 138.759 33.251C138.818 33.497 138.882 33.709 138.994 33.8203C139.088 33.9592 139.676 34.0537 139.942 33.4844L140.78 34.2852C140.284 35.4597 139.819 36.26 139.296 36.7754C138.772 37.2984 137.907 37.5204 137.224 37.5205C136.436 37.5205 135.826 37.2175 135.37 36.6289C134.923 36.0377 134.645 35.1431 134.549 33.9326C133.934 36.0685 132.756 37.4891 130.622 37.4971C128.486 37.5098 127.091 35.3404 127.091 32.8115C127.091 31.1093 127.706 29.9173 128.618 28.5576C129.523 27.1969 131.504 25.3866 134.549 23.1436V20.8916C134.549 19.2196 134.497 18.1582 134.378 17.7148C134.155 16.9067 133.826 16.076 132.679 16.0781C132.036 16.0781 131.503 16.3196 131.077 16.7725C129.663 18.5677 131.198 19.716 131.524 20.3057C131.735 20.7053 131.846 21.0225 131.846 21.4424C131.846 22.6204 130.898 23.5731 129.726 23.5732C128.554 23.5732 127.398 22.818 127.461 20.9238C127.576 19.4132 127.826 18.5462 128.38 17.5059C128.94 16.465 129.725 15.6697 130.735 15.1045C131.747 14.5514 132.786 14.2822 133.869 14.2822ZM121.966 13.6396H120.746C120.517 11.2582 120.642 9.41943 119.776 8.14941C119.165 7.20832 118.177 6.74911 116.835 6.74902H112.89V14.541C116.305 14.5039 120.098 14.8809 122.295 17.7832C124.818 21.0831 124.557 31.1639 122.133 34.3164C120.642 36.2336 118.471 37.2069 115.62 37.207H105.413V35.9863C106.355 35.9863 106.968 35.8559 107.312 35.5654C107.636 35.2972 107.873 34.9304 107.996 34.4746C108.138 34.0387 108.201 32.9461 108.201 31.1973V10.5605C108.201 8.82347 108.138 8.04581 107.996 7.59668C107.873 7.14081 107.636 6.78865 107.305 6.51562C106.965 6.24154 106.336 6.10258 105.413 6.10254V4.89258H121.966V13.6396ZM61.9652 4.89258L67.6176 26.1914L73.0785 4.89258H81.2562V6.10254H80.6C80.0147 6.10254 79.528 6.26983 79.1771 6.60547C78.9301 6.84456 78.7254 7.21389 78.5795 7.72168C78.4757 8.11197 78.4144 9.10215 78.4144 10.71V31.3389C78.4144 32.9958 78.4758 34.0254 78.5795 34.4414C78.6885 34.8464 78.9165 35.218 79.2435 35.5234C79.586 35.8384 80.0315 35.9863 80.6 35.9863H81.2562V37.2051H70.7562V35.9863H71.4056C72.0067 35.9863 72.4675 35.8232 72.8431 35.4971C73.0786 35.2627 73.2892 34.8896 73.4261 34.334C73.5352 33.9665 73.5834 32.9588 73.5834 31.3389V10.1064L66.4857 37.2051H65.5258L58.1674 9.6543L58.1625 30.3672C58.1625 31.9546 58.18 32.9377 58.2279 33.2979C58.3665 34.0805 58.6412 34.7392 59.0785 35.2393C59.4952 35.7434 60.1706 35.9863 61.1039 35.9863V37.2051H53.7601V35.9863H53.9642C54.4114 36.0022 54.8315 35.8832 55.2054 35.6377C55.601 35.3996 55.894 35.0746 56.0804 34.6621C56.2905 34.2438 56.4369 33.6497 56.5502 32.9141C56.566 32.7417 56.5785 31.9377 56.5785 30.4863V10.71C56.5785 9.07552 56.5276 8.04667 56.4144 7.63867C56.3085 7.23254 56.0801 6.88738 55.7504 6.57031C55.4037 6.26063 54.9641 6.10254 54.3988 6.10254H53.7601V4.89258H61.9652ZM102.355 13.6396H101.131C100.899 11.2582 101.033 9.41943 100.162 8.14941C99.5556 7.20829 98.5599 6.74907 97.2172 6.74902H95.7621V31.3389C95.7621 32.9959 95.8307 34.0255 95.9281 34.4414C96.0551 34.8465 96.2771 35.218 96.6 35.5234C96.9329 35.8384 97.3815 35.9863 97.9642 35.9863H98.6263V37.2051H88.1088V35.9863H88.7679C89.3541 35.9863 89.8204 35.8228 90.1781 35.4932C90.4351 35.2625 90.6403 34.8895 90.7826 34.334C90.8922 33.9665 90.9545 32.9587 90.9545 31.3389V6.74902H89.4984C88.1484 6.7491 87.1572 7.2084 86.5482 8.14941C85.6831 9.41943 85.8016 11.2582 85.5756 13.6396H84.3588V4.89258H102.355V13.6396ZM150.214 16.0781C149.692 16.1985 149.343 16.4797 149.146 16.9209C148.946 17.3685 148.846 18.4117 148.846 20.0869V25.1279H153.206V20.0869C153.206 18.412 153.117 17.3687 152.931 16.9209C152.73 16.4797 152.382 16.1985 151.847 16.0781V14.8906H158.87V16.0781C158.28 16.1699 157.87 16.4797 157.617 16.9961C157.451 17.341 157.359 18.3737 157.359 20.0869V32.0205C157.359 33.7257 157.451 34.7495 157.617 35.1016C157.87 35.6259 158.28 35.915 158.87 36.0137V37.2051H151.847V36.0137C152.382 35.9007 152.73 35.6257 152.931 35.1787C153.117 34.7347 153.206 33.678 153.206 32.0205V26.6367H148.846V32.0205C148.846 33.6784 148.946 34.7348 149.146 35.1787C149.343 35.6257 149.692 35.9007 150.214 36.0137V37.2051H143.213V36.0137C143.798 35.915 144.2 35.626 144.464 35.1016C144.629 34.7495 144.703 33.7257 144.703 32.0205V20.0869C144.703 18.3736 144.629 17.3409 144.464 16.9961C144.2 16.4796 143.798 16.1699 143.213 16.0781V14.8906H150.214V16.0781ZM167.397 25.8203C167.426 25.7755 171.676 19.1525 171.866 18.834C172.397 17.9346 172.651 16.1357 170.508 16.1357V14.9287H176.712V16.1357C176.124 16.1808 175.605 16.411 175.16 16.8252C174.027 17.7012 171.046 22.5029 171.036 22.5205L174.298 30.1943C175.622 33.2991 176.4 34.7171 176.641 35.1016C176.975 35.6466 177.403 35.9505 177.916 36.0205V37.2051H170.751V36.0205C171.073 36.0205 171.31 35.9149 171.45 35.7197C171.582 35.5305 171.66 35.3332 171.66 35.1016C171.66 34.7394 171.455 34.0697 171.036 33.0791L168.304 26.9502L167.397 28.3633V32.0361C167.397 34.5053 167.499 34.7931 167.706 35.2178C167.897 35.6256 168.304 35.9007 168.918 36.0205V37.2051H161.756V36.0205C162.344 35.9149 162.761 35.6232 163.001 35.1016C163.172 34.7495 163.258 33.7346 163.258 32.0361V10.0576C163.258 8.3769 163.162 7.33147 162.962 6.9209C162.777 6.51532 162.376 6.23515 161.756 6.10254V4.89258H167.397V25.8203ZM112.89 31.6475L112.881 32.8496C112.881 33.6949 113 34.3431 113.27 34.7891C113.545 35.2228 113.957 35.4395 114.488 35.4395C115.279 35.4394 116.002 35.1613 116.673 34.5898C117.34 34.0304 117.845 33.2073 118.205 32.1436C119.192 29.1988 119.173 22.5877 118.091 19.6055C117.656 18.4116 117.049 17.5766 116.297 17.0898C115.53 16.6152 114.389 16.4 112.89 16.4111V31.6475ZM134.549 24.7373C133.36 25.8732 131.948 27.9838 131.37 29.2607C130.213 31.7418 131.357 33.2461 132.685 33.2461C133.348 33.2461 134.057 32.8704 134.549 32.0527V24.7373Z" fill="#0E0E0E"/>
</svg>
