<svg width="88" height="88" viewBox="0 0 88 88" fill="none" xmlns="http://www.w3.org/2000/svg">
<path d="M44.0832 87.7805C68.14 87.7805 87.6418 68.2786 87.6418 44.2219C87.6418 20.1652 68.14 0.66333 44.0832 0.66333C20.0265 0.66333 0.524658 20.1652 0.524658 44.2219C0.524658 68.2786 20.0265 87.7805 44.0832 87.7805Z" fill="#0E0E0E"/>
<path d="M24.1947 36.5983H20.4752V44.5292C17.186 41.6089 13.9276 38.6578 10.5769 35.7375V51.8146H14.3272V43.8836C17.4319 46.6502 20.7826 49.755 24.2255 52.6753V36.5983H24.1947ZM32.4945 51.8146H28.7442V36.5983H32.4945V51.8146ZM42.1776 52.706C39.534 47.7261 36.8904 42.0085 34.2467 36.629H38.4581L42.2084 44.8673L45.805 36.629H49.8934C47.3112 42.0085 44.7598 47.6954 42.1776 52.706ZM61.6975 39.9489H55.3651V42.5618H61.6975V45.8817H55.3651V48.4946H61.6975V51.8146H51.6456V36.5983H61.6975V39.9489ZM71.1655 35.7375C68.5833 40.8096 66.0319 46.2814 63.4497 51.8146H67.3537L68.1222 50.0009H74.2087L74.9772 51.8146H79.0349C76.3913 46.2814 73.7476 40.7174 71.1655 35.7375ZM69.2288 47.1421L71.1655 42.7155L73.0406 47.1421H69.2288Z" fill="#FFFDFB"/>
</svg>
