<svg width="253" height="240" viewBox="0 0 253 240" fill="none" xmlns="http://www.w3.org/2000/svg">
<path d="M126.5 170.059C150.557 170.059 170.059 150.557 170.059 126.5C170.059 102.443 150.557 82.9414 126.5 82.9414C102.443 82.9414 82.9414 102.443 82.9414 126.5C82.9414 150.557 102.443 170.059 126.5 170.059Z" fill="#0E0E0E"/>
<path d="M106.611 118.876H102.892V126.807C99.6028 123.887 96.3443 120.936 92.9937 118.016V134.093H96.7439V126.162C99.8487 128.928 103.199 132.033 106.642 134.953V118.876H106.611ZM114.911 134.093H111.161V118.876H114.911V134.093ZM124.594 134.984C121.951 130.004 119.307 124.287 116.663 118.907H120.875L124.625 127.145L128.222 118.907H132.31C129.728 124.287 127.177 129.973 124.594 134.984ZM144.114 122.227H137.782V124.84H144.114V128.16H137.782V130.773H144.114V134.093H134.062V118.876H144.114V122.227ZM153.582 118.016C151 123.088 148.449 128.559 145.866 134.093H149.77L150.539 132.279H156.625L157.394 134.093H161.452C158.808 128.559 156.164 122.996 153.582 118.016ZM151.646 129.42L153.582 124.994L155.457 129.42H151.646Z" fill="#FFFDFB"/>
</svg>
