<svg width="254" height="254" viewBox="0 0 254 254" fill="none" xmlns="http://www.w3.org/2000/svg">
<path fill-rule="evenodd" clip-rule="evenodd" d="M97.4259 136.748C99.9732 136.748 102.012 136.042 103.614 134.63C105.175 133.358 106.2 131.734 106.758 129.757C107.296 127.851 107.188 126.226 106.363 124.884C105.539 123.542 103.899 122.837 101.351 122.837C98.8031 122.837 96.7649 123.542 95.1826 124.884C93.601 126.226 92.5759 127.851 92.0385 129.757C91.4807 131.735 91.5889 133.358 92.4323 134.63C93.2376 136.041 94.8786 136.748 97.4259 136.748ZM98.3818 133.358C97.6041 133.358 97.0462 133.076 96.8214 132.37C96.5761 131.735 96.603 130.887 96.9218 129.757C97.2209 128.697 97.6727 127.851 98.2962 127.144C98.9 126.509 99.6162 126.226 100.395 126.226C101.174 126.226 101.731 126.508 101.976 127.144C102.202 127.851 102.174 128.697 101.876 129.757C101.557 130.887 101.105 131.735 100.501 132.37C99.8771 133.075 99.1609 133.358 98.3818 133.358ZM224.036 132.688C223.328 132.688 222.912 132.406 222.718 131.84C222.453 131.276 222.44 130.57 222.699 129.651C222.959 128.732 223.39 127.957 223.954 127.462C224.467 126.897 225.093 126.685 225.75 126.615C227.236 126.615 227.715 127.674 227.208 129.722C226.949 130.64 226.537 131.346 226.024 131.911C225.37 132.477 224.743 132.688 224.036 132.688ZM219.579 123.155L214.617 140.739H219.711L221.346 134.948C221.876 136.077 222.849 136.643 224.122 136.643C225.679 136.643 227.234 136.148 228.827 135.018C229.619 134.403 230.305 133.664 230.86 132.829C231.434 132.052 231.893 130.922 232.322 129.651C232.841 127.815 232.803 126.191 232.191 124.849C231.579 123.507 230.292 122.801 228.311 122.801C227.532 122.801 226.765 123.012 225.887 123.366C225.009 123.719 224.263 124.354 223.62 125.131H223.548L224.106 123.154L219.579 123.155ZM215.38 130.92C216.057 128.518 216.049 126.541 215.123 125.058C214.268 123.574 212.576 122.798 210.17 122.798C208.119 122.798 206.241 123.433 204.537 124.704C202.763 125.976 201.578 127.671 200.94 129.931C200.342 132.049 200.571 133.744 201.667 134.873C202.673 136.074 204.213 136.638 206.336 136.638C207.892 136.638 209.387 136.356 210.911 135.72C212.435 135.085 213.674 133.955 214.628 132.331H209.746C209.504 132.684 209.142 132.967 208.728 133.178C208.385 133.39 207.941 133.46 207.516 133.46C206.808 133.46 206.302 133.249 205.946 132.754C205.59 132.26 205.537 131.695 205.756 130.918H215.38V130.92ZM206.493 128.306C206.912 126.823 207.909 126.046 209.486 125.976C210.103 126.046 210.61 126.258 210.844 126.682C211.149 127.105 211.272 127.671 211.092 128.306H206.493ZM189.23 136.344L191.88 126.952H187.492L188.568 123.138H202.437L201.363 126.952H196.974L194.324 136.344H189.23ZM186.825 128.152C187.08 126.245 186.701 124.832 185.596 123.985C184.47 123.208 183.033 122.785 181.335 122.785C179.141 122.785 177.283 123.35 175.58 124.621C173.897 125.822 172.691 127.587 172.053 129.847C171.435 132.036 171.664 133.731 172.742 134.932C173.768 136.061 175.286 136.697 177.409 136.697C179.178 136.697 180.926 136.273 182.438 135.425C183.23 134.982 183.942 134.409 184.544 133.731C185.168 133.025 185.62 132.178 186.04 131.189H180.944C180.734 131.701 180.412 132.159 180 132.53C179.597 132.954 179.042 133.166 178.405 133.166C177.627 133.166 177.141 132.884 176.966 132.248C176.772 131.682 176.779 130.906 177.078 129.847C177.177 129.494 177.368 129.07 177.558 128.646C177.749 128.222 177.939 127.798 178.18 127.446C178.421 127.092 178.784 126.81 179.127 126.597C179.469 126.386 179.863 126.245 180.358 126.245C180.924 126.245 181.289 126.456 181.472 126.809C181.746 127.091 181.749 127.587 181.66 128.151H186.825V128.152ZM162.086 133.729C160.954 133.729 160.488 133.376 160.687 132.67C160.807 132.246 161.048 131.893 161.391 131.681C161.734 131.469 162.057 131.328 162.501 131.258C162.895 131.117 163.41 131.046 163.855 130.975C164.39 130.834 164.854 130.693 165.39 130.551C165.201 131.469 164.86 132.176 164.328 132.811C163.723 133.447 163.006 133.729 162.086 133.729ZM169.507 136.271L169.567 136.06C169.293 135.778 169.231 135.495 169.24 135.212C169.229 135.001 169.238 134.718 169.337 134.365L171.071 128.221C171.291 127.443 171.49 126.738 171.548 126.032C171.654 125.449 171.547 124.847 171.247 124.336C170.962 123.842 170.425 123.489 169.584 123.207C168.744 122.924 167.581 122.782 166.024 122.782C163.618 122.782 161.659 123.207 160.327 123.912C158.976 124.69 158.162 125.819 157.763 127.231H162.787C163.088 126.667 163.4 126.313 163.814 126.101C164.278 125.96 164.581 125.889 164.935 125.889C165.288 125.889 165.623 125.96 166.007 126.101C166.322 126.243 166.454 126.525 166.386 127.019C166.155 127.584 165.561 127.938 164.601 128.079C164.156 128.15 163.641 128.22 163.126 128.291C162.54 128.361 161.954 128.431 161.278 128.573C160.711 128.573 160.105 128.714 159.55 128.926C158.944 129.067 158.298 129.35 157.794 129.631C157.29 129.913 156.816 130.338 156.394 130.832C155.972 131.327 155.651 131.963 155.432 132.739C155.074 134.01 155.289 134.999 156.03 135.634C156.68 136.341 157.662 136.623 158.865 136.623C159.855 136.623 160.724 136.552 161.512 136.269C162.369 135.987 163.217 135.493 164.103 134.857L163.988 136.269H169.507V136.271ZM125.583 136.344L128.234 126.952H123.775L124.851 123.138H138.791L137.715 126.952H133.258L130.607 136.344H125.583ZM114.425 132.688C113.718 132.688 113.302 132.406 113.107 131.84C112.842 131.276 112.829 130.57 113.088 129.651C113.347 128.733 113.779 127.957 114.343 127.462C114.856 126.897 115.482 126.685 116.139 126.615C117.625 126.615 118.104 127.674 117.597 129.722C117.338 130.64 116.926 131.346 116.413 131.911C115.759 132.477 115.133 132.688 114.425 132.688ZM109.969 123.155L105.007 140.739H110.103L111.736 134.948C112.267 136.077 113.239 136.643 114.513 136.643C116.07 136.643 117.625 136.148 119.217 135.018C120.009 134.403 120.696 133.664 121.25 132.829C121.823 132.052 122.283 130.922 122.713 129.651C123.232 127.815 123.194 126.191 122.583 124.849C121.97 123.507 120.683 122.801 118.702 122.801C117.923 122.801 117.156 123.012 116.278 123.366C115.4 123.719 114.654 124.354 114.01 125.131H113.939L114.497 123.154L109.969 123.155ZM74.3097 136.344H79.3344L81.9835 126.952H86.0177L83.3671 136.344H88.4625L92.1884 123.138H78.0356L74.3097 136.344ZM75.0641 128.152C75.3193 126.245 74.9389 124.832 73.8339 123.985C72.709 123.208 71.2717 122.785 69.5728 122.785C67.3789 122.785 65.5223 123.35 63.8185 124.621C62.1358 125.822 60.9296 127.587 60.2919 129.847C59.6747 132.036 59.9038 133.731 60.9798 134.932C62.0057 136.061 63.5251 136.697 65.6475 136.697C67.4164 136.697 69.1641 136.273 70.6764 135.425C71.4685 134.982 72.1805 134.409 72.7826 133.731C73.4061 133.025 73.8579 132.178 74.2786 131.189H69.1832C68.9735 131.701 68.6507 132.159 68.2386 132.53C67.8364 132.954 67.2814 133.166 66.6444 133.166C65.8659 133.166 65.3795 132.884 65.2049 132.248C65.0105 131.682 65.0175 130.906 65.3166 129.847C65.4163 129.494 65.6065 129.07 65.7974 128.646C65.9875 128.222 66.1777 127.798 66.4188 127.446C66.6599 127.092 67.0226 126.81 67.3655 126.597C67.7084 126.386 68.1022 126.245 68.5978 126.245C69.1634 126.245 69.5282 126.456 69.712 126.809C69.9857 127.091 69.9878 127.587 69.8994 128.151H75.0641V128.152Z" fill="#0E0E0E"/>
<path fill-rule="evenodd" clip-rule="evenodd" d="M141.26 119.034L144.739 135.197L157.42 118.926L147.312 126.013L141.26 119.034Z" fill="#0E0E0E"/>
<path fill-rule="evenodd" clip-rule="evenodd" d="M140.211 123.149L136.443 136.311H142.965L140.211 123.149ZM156.223 123.149L146.151 136.311H152.456L156.223 123.149Z" fill="#0E0E0E"/>
<path fill-rule="evenodd" clip-rule="evenodd" d="M59.1469 116.243L46.8274 130.185L19.4521 116.36L45.3299 121.805L59.1469 116.243Z" fill="#0E0E0E"/>
<path fill-rule="evenodd" clip-rule="evenodd" d="M21.9194 143.722L36.3565 127.383L68.4389 143.585L38.1112 137.203L21.9194 143.722ZM44.5238 111.181C42.1553 111.372 40.3786 113.457 40.5709 115.822C40.7632 118.187 42.8524 119.959 45.2209 119.767C47.5908 119.576 49.3668 117.491 49.1744 115.127C48.9828 112.762 46.8937 110.989 44.5238 111.181Z" fill="#0E0E0E"/>
</svg>
